<svg xmlns="http://www.w3.org/2000/svg" width="12.339" height="15.303" viewBox="0 0 12.339 15.303">
  <g id="Group_776" data-name="Group 776" transform="translate(-1954.004 -842.132)">
    <path id="Path_384" data-name="Path 384" d="M516.095,134.166h-9.9a1.164,1.164,0,0,0-1.162,1.16l-.02,12.028a.905.905,0,0,0,.352.716l1.419,1.088a.9.9,0,0,0,1.1,0l1.316-1.009a.05.05,0,0,1,.061,0l1.317,1.01a.9.9,0,0,0,1.1,0l1.316-1.01a.05.05,0,0,1,.061,0l1.318,1.01a.9.9,0,0,0,1.1,0l1.421-1.089a.905.905,0,0,0,.353-.713l.02-12.026a1.162,1.162,0,0,0-1.161-1.164Zm-10.207,1.161a.312.312,0,0,1,.312-.311h9.9a.311.311,0,0,1,.311.312l-.02,12.026a.05.05,0,0,1-.02.04l-1.421,1.089a.05.05,0,0,1-.06,0l-1.318-1.01a.9.9,0,0,0-1.1,0l-1.316,1.01a.05.05,0,0,1-.061,0l-1.317-1.01a.9.9,0,0,0-1.1,0l-1.316,1.009a.05.05,0,0,1-.061,0l-1.419-1.088a.051.051,0,0,1-.02-.04Z" transform="translate(1449.037 708.016)" fill="#fff" stroke="#fff" stroke-width="0.1"/>
    <path id="Path_385" data-name="Path 385" d="M520.64,180.984h6.029a.591.591,0,1,0,0-1.182H520.64a.591.591,0,1,0,0,1.182Z" transform="translate(1436.561 670.139)" fill="#fff" stroke="#fff" stroke-width="0.1"/>
    <path id="Path_386" data-name="Path 386" d="M520.64,164.113h6.029a.591.591,0,1,0,0-1.182H520.64a.591.591,0,1,0,0,1.182Z" transform="translate(1436.561 684.141)" fill="#fff" stroke="#fff" stroke-width="0.1"/>
  </g>
</svg>
