<svg xmlns="http://www.w3.org/2000/svg" width="23.953" height="14.665" viewBox="0 0 23.953 14.665">
  <g id="Group_773" data-name="Group 773" transform="translate(-1662.95 -853.377)">
    <path id="Path_374" data-name="Path 374" d="M229.137,175.167a.917.917,0,1,0,.922.917A.92.92,0,0,0,229.137,175.167Z" transform="translate(1437.793 684.541)" fill="#fff" stroke="#fff" stroke-width="0.1"/>
    <path id="Path_375" data-name="Path 375" d="M295.51,175.84h-1.387v1.752H292.37v1.381h1.753v1.771h1.387v-1.771h1.773v-1.381H295.51Z" transform="translate(1387.181 684.01)" fill="#fff" stroke="#fff" stroke-width="0.1"/>
    <path id="Path_376" data-name="Path 376" d="M233.6,149.516v-2.189a1.924,1.924,0,0,0-1.927-1.916H216.654a1.924,1.924,0,0,0-1.927,1.916v2.823h-.764v4.787h.764v3.122a1.924,1.924,0,0,0,1.927,1.916h15.016a1.94,1.94,0,0,0,1.621-.888l.009,0a4.826,4.826,0,0,0,4.514-4.8A4.879,4.879,0,0,0,233.6,149.516Zm-15.405,4.458h-2.245l-.9,0v-2.856h3.149a1.025,1.025,0,0,1,1.028,1.02v.82A1.025,1.025,0,0,1,218.193,153.974Zm-2.245.964h2.245a1.992,1.992,0,0,0,2-1.984v-.82a1.992,1.992,0,0,0-2-1.983h-2.245v-2.823a.7.7,0,0,1,.706-.7h15.016a.7.7,0,0,1,.707.7v2.185a4.871,4.871,0,0,0-4.252,4.774,4.8,4.8,0,0,0,3.061,4.474H216.654a.7.7,0,0,1-.706-.7Zm20.6-.652a3.558,3.558,0,0,1-3.187,3.533h0a3.461,3.461,0,0,1-.755,0,3.555,3.555,0,1,1,3.942-3.537Z" transform="translate(1449.037 708.016)" fill="#fff" stroke="#fff" stroke-width="0.1"/>
  </g>
</svg>
