<svg xmlns="http://www.w3.org/2000/svg" width="18.895" height="17.328" viewBox="0 0 18.895 17.328">
  <path id="Path_383" data-name="Path 383" d="M611.622,140.3l-8.25-4.813a1.557,1.557,0,0,0-1.56,0l-8.18,4.717a.852.852,0,0,0,.013,1.483l1.771.98.77.438c-.007,1.831,0,2.443.027,2.7l0,2.652a.769.769,0,0,0,.388.668l5.735,3.263a.782.782,0,0,0,.783-.005l5.625-3.305a.641.641,0,0,0,.315-.551v-1.038a.476.476,0,0,0-.717-.41l-5.611,3.3-4.37-2.487v-.641l3.989,2.27a.754.754,0,0,0,.753-.005l5.639-3.313a.641.641,0,0,0,.316-.551v-.971a.515.515,0,0,0-.775-.444l-5.555,3.262-4.209-2.4,0-.665,3.493,1.988a1.46,1.46,0,0,0,1.46-.01l8.15-4.788a.764.764,0,0,0,0-1.319Zm-.956.661-7.725,4.539a.406.406,0,0,1-.405,0l-4.09-2.327a12.669,12.669,0,0,0-1.63-.928l-2.35-1.313,7.872-4.54a.5.5,0,0,1,.5,0Zm-12.815,5.408a.494.494,0,0,0-.245.425v1.241a.492.492,0,0,0,.249.428l4.868,2.77.012.007,5.569-3.272v.489l-5.569,3.272a.028.028,0,0,1-.029,0l-5.735-3.263a.015.015,0,0,1-.008-.013v-2.807l-.012-.012c-.009-.281-.014-1.075-.012-2.133.238.138.538.317.832.5l-.01,1.534,4.6,2.621a.734.734,0,0,0,.734-.005l5.2-3.058v.489l-5.583,3.281-4.379-2.492A.492.492,0,0,0,597.851,146.367Z" transform="translate(-593.157 -135.206)" fill="#fff" stroke="#fff" stroke-width="0.1"/>
</svg>
