<svg id="Group_737" data-name="Group 737" xmlns="http://www.w3.org/2000/svg" width="20.124" height="19.903" viewBox="0 0 20.124 19.903">
  <path id="Path_326" data-name="Path 326" d="M173.117,1166.52a4.352,4.352,0,0,0-5.06.011l-6.557,4.711a2.233,2.233,0,0,0-.932,1.815v8.615a3.85,3.85,0,0,0,3.849,3.849h12.426a3.85,3.85,0,0,0,3.849-3.849v-8.607a2.234,2.234,0,0,0-.938-1.822Z" transform="translate(-160.569 -1165.715)" fill="#c8c7d7"/>
  <path id="Rectangle_131" data-name="Rectangle 131" d="M1.4,0h4a1.4,1.4,0,0,1,1.4,1.4v5.3a0,0,0,0,1,0,0H0a0,0,0,0,1,0,0V1.4A1.4,1.4,0,0,1,1.4,0Z" transform="translate(6.546 13.195)" fill="#dee0ef" style="isolation: isolate"/>
</svg>
