<?xml version="1.0" encoding="utf-8"?>
<!-- Generator: Adobe Illustrator 16.0.0, SVG Export Plug-In . SVG Version: 6.00 Build 0)  -->
<!DOCTYPE svg PUBLIC "-//W3C//DTD SVG 1.1//EN" "http://www.w3.org/Graphics/SVG/1.1/DTD/svg11.dtd">
<svg version="1.1" id="Layer_1" xmlns="http://www.w3.org/2000/svg" xmlns:xlink="http://www.w3.org/1999/xlink" x="0px" y="0px"
	 width="24px" height="24px" viewBox="0 0 24 24" enable-background="new 0 0 24 24" xml:space="preserve">
<image display="none" overflow="visible" enable-background="new    " width="410" height="84" xlink:href="6EC6A01E.jpeg"  transform="matrix(1.0399 0 0 1.0424 -162.0254 -30.7129)">
</image>
<image display="none" overflow="visible" enable-background="new    " width="564" height="1333" xlink:href="6EC6A022.jpeg"  transform="matrix(0.9951 0 0 0.9951 -375.3418 -815.25)">
</image>
<g>
	<g>
		
			<path fill="none" stroke="#4D4D4F" stroke-width="1.5" stroke-linecap="round" stroke-linejoin="round" stroke-miterlimit="10" d="
			M22.969,10.727c0,0,0,2.755,0,6.121c0,3.366-3.15,6.121-7,6.121H8.031c-3.85,0-7-3.15-7-7V8.031c0-3.85,2.995-7,6.655-7
			s6.654,0,6.654,0"/>
	</g>
	<g>
		
			<path fill="none" stroke="#4D4D4F" stroke-width="1.5" stroke-linecap="round" stroke-linejoin="round" stroke-miterlimit="10" d="
			M14.406,1.211V8.89c0,0.825,0.675,1.5,1.5,1.5h6.734"/>
	</g>
	
		<line fill="none" stroke="#4D4D4F" stroke-width="1.5" stroke-linecap="round" stroke-linejoin="round" stroke-miterlimit="10" x1="14.34" y1="1.031" x2="22.641" y2="10.39"/>
</g>
<g>
	
		<line fill="none" stroke="#4D4D4F" stroke-width="1.5" stroke-linecap="round" stroke-linejoin="round" stroke-miterlimit="10" x1="5.108" y1="5.759" x2="10.332" y2="5.759"/>
	
		<line fill="none" stroke="#4D4D4F" stroke-width="1.5" stroke-linecap="round" stroke-linejoin="round" stroke-miterlimit="10" x1="5.108" y1="9.919" x2="10.332" y2="9.919"/>
	
		<line fill="none" stroke="#4D4D4F" stroke-width="1.5" stroke-linecap="round" stroke-linejoin="round" stroke-miterlimit="10" x1="5.108" y1="13.991" x2="18.892" y2="13.991"/>
	
		<line fill="none" stroke="#4D4D4F" stroke-width="1.5" stroke-linecap="round" stroke-linejoin="round" stroke-miterlimit="10" x1="5.108" y1="18.241" x2="18.892" y2="18.241"/>
</g>
</svg>
