<svg xmlns="http://www.w3.org/2000/svg" xmlns:xlink="http://www.w3.org/1999/xlink" viewBox="0 0 48 48"><defs><style>.cls-1{fill:#fff;}.cls-2{fill:#114289;}.cls-3{fill:url(#linear-gradient);}.cls-4{fill:url(#linear-gradient-2);}.cls-5{fill:url(#linear-gradient-3);}.cls-6{fill:url(#linear-gradient-4);}.cls-7{fill:url(#linear-gradient-5);}.cls-8{fill:url(#linear-gradient-6);}.cls-9{fill:url(#linear-gradient-7);}.cls-10{fill:url(#linear-gradient-8);}.cls-11{fill:url(#linear-gradient-9);}.cls-12{fill:url(#linear-gradient-10);}.cls-13{fill:#ffee15;}</style><linearGradient id="linear-gradient" x1="18.67" y1="637.37" x2="7.64" y2="637.52" gradientTransform="matrix(1, 0, 0, -1, 0, 672.7)" gradientUnits="userSpaceOnUse"><stop offset="0" stop-color="#0c91f8"/><stop offset="0.71" stop-color="#266ee6"/><stop offset="1" stop-color="#1e57b8"/></linearGradient><linearGradient id="linear-gradient-2" x1="37.57" y1="637.37" x2="26.54" y2="637.52" gradientTransform="matrix(1, 0, 0, -1, 0, 672.7)" gradientUnits="userSpaceOnUse"><stop offset="0" stop-color="#fc6195"/><stop offset="1" stop-color="#fc2169"/></linearGradient><linearGradient id="linear-gradient-3" x1="8.04" y1="22.65" x2="9.89" y2="22.65" gradientUnits="userSpaceOnUse"><stop offset="0" stop-color="#fbcebd"/><stop offset="1" stop-color="#fbad8f"/></linearGradient><linearGradient id="linear-gradient-4" x1="18.06" y1="22.65" x2="19.91" y2="22.65" xlink:href="#linear-gradient-3"/><linearGradient id="linear-gradient-5" x1="14.03" y1="27.61" x2="14.21" y2="31.76" xlink:href="#linear-gradient-3"/><linearGradient id="linear-gradient-6" x1="13.92" y1="19.81" x2="14.34" y2="28.51" xlink:href="#linear-gradient-3"/><linearGradient id="linear-gradient-7" x1="26.9" y1="22.65" x2="28.75" y2="22.65" xlink:href="#linear-gradient-3"/><linearGradient id="linear-gradient-8" x1="36.92" y1="22.65" x2="38.77" y2="22.65" xlink:href="#linear-gradient-3"/><linearGradient id="linear-gradient-9" x1="32.88" y1="27.61" x2="33.06" y2="31.76" xlink:href="#linear-gradient-3"/><linearGradient id="linear-gradient-10" x1="32.73" y1="19.82" x2="33.14" y2="28.52" xlink:href="#linear-gradient-3"/></defs><g id="Layer_2" data-name="Layer 2"><g id="Layer_1-2" data-name="Layer 1"><rect class="cls-1" width="48" height="48"/><path class="cls-2" d="M33.13,13.15h0A6.84,6.84,0,0,1,40,20V32a0,0,0,0,1,0,0H26.29a0,0,0,0,1,0,0V20a6.84,6.84,0,0,1,6.84-6.84Z"/><path class="cls-2" d="M9.94,13.27h2.71a2,2,0,0,1,2,2V26a0,0,0,0,1,0,0H10.41a3,3,0,0,1-3-3V15.82A2.55,2.55,0,0,1,9.94,13.27Z"/><path class="cls-2" d="M13.49,14.26h4.35a2.88,2.88,0,0,1,2.88,2.88V23.7A2.33,2.33,0,0,1,18.38,26h-4.9a0,0,0,0,1,0,0V14.26A0,0,0,0,1,13.49,14.26Z"/><path class="cls-3" d="M22.73,39.74h0a1.69,1.69,0,0,1-1.13,1.59,23.76,23.76,0,0,1-15.27-.09,1.69,1.69,0,0,1-1.13-1.6V35.51A7.5,7.5,0,0,1,12.7,28h2.52a7.5,7.5,0,0,1,7.51,7.48v4.25Z"/><path class="cls-4" d="M41.63,39.74h0a1.68,1.68,0,0,1-1.13,1.59,23.76,23.76,0,0,1-15.27-.09,1.69,1.69,0,0,1-1.13-1.6V35.51A7.5,7.5,0,0,1,31.6,28h2.52a7.49,7.49,0,0,1,7.51,7.48v4.25Z"/><circle class="cls-5" cx="9.02" cy="22.65" r="1.59"/><circle class="cls-6" cx="19.04" cy="22.65" r="1.59"/><path class="cls-7" d="M11.13,26.91H17a0,0,0,0,1,0,0v2.41a2.92,2.92,0,0,1-2.92,2.92h0a2.92,2.92,0,0,1-2.92-2.92V26.91a0,0,0,0,1,0,0Z"/><path class="cls-8" d="M10.63,18h6.84a1.63,1.63,0,0,1,1.63,1.63v5.75a5,5,0,0,1-5,5h0a5,5,0,0,1-5-5V19.59A1.63,1.63,0,0,1,10.63,18Z"/><circle class="cls-9" cx="27.87" cy="22.65" r="1.59"/><circle class="cls-10" cx="37.89" cy="22.65" r="1.59"/><path class="cls-11" d="M30,26.91h5.84a0,0,0,0,1,0,0v2.41a2.92,2.92,0,0,1-2.92,2.92h0A2.92,2.92,0,0,1,30,29.33V26.91A0,0,0,0,1,30,26.91Z"/><path class="cls-12" d="M33,19.62a5,5,0,0,1-5.12,2.09v3.63a5,5,0,0,0,5,5h0a5,5,0,0,0,5.05-5V21.72a4.58,4.58,0,0,1-.83.09A5,5,0,0,1,33,19.62Z"/><path class="cls-2" d="M33,19.62A4.88,4.88,0,0,1,32.24,18H29.49a1.63,1.63,0,0,0-1.63,1.63v2.12A5,5,0,0,0,33,19.62Z"/><path class="cls-2" d="M36.33,18H33.71A5.06,5.06,0,0,1,33,19.62a5,5,0,0,0,4.15,2.19,4.58,4.58,0,0,0,.83-.09V19.59A1.63,1.63,0,0,0,36.33,18Z"/><path class="cls-2" d="M33,19.62A5.06,5.06,0,0,0,33.71,18H32.24A4.88,4.88,0,0,0,33,19.62Z"/><ellipse class="cls-13" cx="4.55" cy="9.97" rx="4.25" ry="4.31"/><ellipse class="cls-13" cx="43.72" cy="36.22" rx="4.25" ry="4.31"/><ellipse class="cls-13" cx="5.09" cy="34.5" rx="2.06" ry="2.09"/><ellipse class="cls-13" cx="43.35" cy="7.97" rx="2.06" ry="2.09"/></g></g></svg>