<svg xmlns="http://www.w3.org/2000/svg" width="20" height="20" viewBox="0 0 20 20">
  <g id="Group_748" data-name="Group 748" transform="translate(-1161.915 -1336.169)">
    <path id="Path_355" data-name="Path 355" d="M1185.352,1355.1a3.843,3.843,0,0,0-6.561-2.366,4.494,4.494,0,0,1-2.361,1.379c-2.566.447-7.7-.112-8.769,1.676s.428,7.932,6.309,8.155,8.234-1.452,10.266-3.463C1185.139,1359.588,1185.6,1357.3,1185.352,1355.1Z" transform="translate(-3.503 -10.66)" fill="#2d99fe"/>
    <g id="Group_746" data-name="Group 746" transform="translate(1164.69 1336.169)">
      <path id="Path_356" data-name="Path 356" d="M1175.776,1348.236a6.034,6.034,0,1,1,6.034-6.034A6.04,6.04,0,0,1,1175.776,1348.236Zm0-9.9a3.864,3.864,0,1,0,3.865,3.864A3.868,3.868,0,0,0,1175.776,1338.338Z" transform="translate(-1169.742 -1336.169)" fill="#3e3957"/>
    </g>
    <g id="Group_747" data-name="Group 747" transform="translate(1161.915 1346.455)">
      <path id="Path_357" data-name="Path 357" d="M1180.535,1376.907h-1.988a7.328,7.328,0,1,0-14.643,0h-1.989a9.318,9.318,0,1,1,18.62,0Z" transform="translate(-1161.915 -1367.193)" fill="#3e3957"/>
    </g>
  </g>
</svg>
