<svg xmlns="http://www.w3.org/2000/svg" viewBox="0 0 360 134.04"><defs><style>.cls-1{fill:#fefefe;}.cls-2{fill:#fe0005;}.cls-3{fill:#fed401;}.cls-4{fill:#0059b0;}.cls-5{fill:#0159b0;}.cls-6{fill:#fe0105;}</style></defs><g id="Layer_2" data-name="Layer 2"><g id="Layer_1-2" data-name="Layer 1"><path class="cls-1" d="M27.12,0H360a0,0,0,0,1,0,0V113.26A20.77,20.77,0,0,1,339.23,134H0a0,0,0,0,1,0,0V27.12A27.12,27.12,0,0,1,27.12,0Z"/><path class="cls-2" d="M172.9,106.62c-48.16,0-96.32-.09-144.48.13-5,0-5.74-1.74-5.46-6,.66-9.75,7.76-17.07,17.57-17.65,1.82-.11,3.65,0,5.48,0H331c6.45,0,6.47,0,5.9,6.23-1,10.41-8.51,17.22-19.49,17.27-19.76.09-39.53,0-59.29,0Z"/><path class="cls-3" d="M336.3,102.43c-2.69,9.5-8.68,14.35-17.09,14.69-1.32,0-2.65,0-4,0H28.85c-1.33,0-2.66,0-4-.07-2.3-.18-1.73-2-1.79-3.39s0-2.76,1.91-2.77c1.5,0,3,0,4.48,0q142.7,0,285.39.08C322.91,111,330,109.2,336.3,102.43Z"/><path class="cls-2" d="M225.43,31.15c-2.42-1.72-5-1.22-7.59-.16-4,1.64-6.75,4.71-9.57,7.77-1,1.11-1.48,2.83-3.4,3.34.6-4,2.61-8.48-1.68-11.06-4.64-2.77-8.56.28-12.11,3.13-2.43,2-4.67,4.15-6.74,6a38.74,38.74,0,0,0,.52-5.94c-.17-3.28-2.76-4.17-5.34-3.74-2.28.38-6.41-.64-6.34,2.82.2,9.83-3,18.91-5.18,28.22a21.06,21.06,0,0,0-.92,4.36c-.06,3.33,2.13,4.81,5.09,4.88,2.27,0,6,.57,6.18-2.2.72-11,7.44-18.78,13.21-27.14.49-.71,1.11-1.74,2.62-1.23,0,3.92-1.09,7.71-2,11.52-1,4.37-2.21,8.68-3.09,13.07-.72,3.61.91,6.07,4.67,6,2.7-.07,5.45.73,6.3-4.41,1.7-10.4,8.08-18.82,15-27.18,1.18,2.41.31,3.94,0,5.49-1.17,6-2.47,12-3.46,18.07-.43,2.62-.37,5.44,2.34,7.13,2.87,1.79,5.76.93,8.57-.27,1.25-.53,2.35-1,1.34-2.91-1.61-3-1-6.11-.38-9.24,1.33-6.33,2.65-12.66,3.81-19C227.84,35.78,228,33,225.43,31.15Z"/><path class="cls-4" d="M57.54,24.79c-2.18-6.06-4.28-7.43-10.73-7.43s-8.49,1.46-10.69,7.51Q32.31,35.4,28.6,46c-1.86,5.32-3.85,10.62-5.31,16-1.12,4.16.85,7.21,5.05,8.31,3.88,1,7.43-.2,8.24-4.25,1.08-5.45,4.26-6.26,8.84-5.69a20.24,20.24,0,0,0,5,0c3.52-.44,5.3.75,6.21,4.42,1.25,5,4.62,6.76,8.89,5.53,4.72-1.37,6.32-5.09,4.33-10.83Q63.8,42.1,57.54,24.79ZM48.88,49c-7.16.48-7.35.34-5.2-6.65.92-3,1.9-6,3.16-9.93,1.65,5.14,3,9.38,4.37,13.6C51.91,48.22,51.14,48.87,48.88,49Z"/><path class="cls-4" d="M161.46,38.11c-.44-6.49-4.77-9.12-10.62-6.45a4.91,4.91,0,0,1-4.14,0c-8.54-2.84-17.37-.23-22.29,6.48-5.32,7.26-5.5,18.25-.41,25.26,4.89,6.74,14.22,9.42,22.78,6.34a4.48,4.48,0,0,1,4.06.2c5.48,2.71,10.06.16,10.57-6,.36-4.29.07-8.63.07-13h0C161.51,46.74,161.75,42.4,161.46,38.11Zm-14.53,18.2c-.56,2.65-2,4.56-4.9,4.82-3.16.27-5.63-.91-6.81-3.88a16.71,16.71,0,0,1-.26-11.7c1.07-3.2,3.26-4.91,6.73-4.71s4.74,2.64,5.31,5.6c.31,1.63.45,3.28.66,4.9C147.42,53,147.27,54.69,146.93,56.31Z"/><path class="cls-2" d="M269.56,31.07c-2.47-.48-5-1.11-7.31.11-1.53.79-2.75.46-4.19-.08-6-2.25-11.6-.9-16.29,3.11-8.29,7.08-12.49,16.21-12,27.21.14,3.5.82,7.11,4.5,8.82,3.88,1.8,7.46.6,10.75-1.72,3.57-2.53,6.06-6.09,9.32-10.35,0,2.29,0,3.57,0,4.86.13,6.58,5.38,9.8,11.29,6.93,1.24-.6,2.32-1.16,1.9-2.95-2.63-11.19.28-21.73,4.22-32C272.84,32.1,272,31.55,269.56,31.07ZM256.05,45.28a95.1,95.1,0,0,1-9.16,13.56c-1,1.17-1.93,3.26-3.84,2.29-1.34-.68-1.24-2.58-1.15-3.69.79-6.35,1.75-12.23,5.07-17.39,2-3.13,4.52-4,8-2.08C258.74,40.06,257.75,42.43,256.05,45.28Z"/><path class="cls-5" d="M114.64,31.89c-1.38,0-2.72,0-2.71-2,0-1.81.86-2.79,2.65-2.92a18.87,18.87,0,0,1,2,0c2.17,0,4-.48,4.49-2.94.44-2.14-.09-4.09-2-5.17-4.83-2.67-9.93-2.51-14.87-.55-4.36,1.73-6.1,5.44-5.91,10,.1,2.35-.7,3.23-3,4.11-3.73,1.42-4.07,6.26-.5,7.66s3.6,3.54,3.49,6.4c-.1,2.32,0,4.64,0,7,0,3,0,6,0,8.95.1,5.36,2.68,8.32,7.13,8.26,4.25-.06,6.48-2.77,6.55-8.19q.1-9,0-17.9c0-2,0-3.53,2.79-3.42,3.08.12,5.74-.91,5.71-4.65S117.79,31.9,114.64,31.89Z"/><path class="cls-6" d="M321.65,48.07c.46-4.29,2.16-6.22,7-5.8,5.52.49,7.33-1.61,7.67-7-3.77.13-7.5,1.33-11.67.33.72-2.93,1.36-5.8,2.15-8.63.54-1.92.6-3.87-1.11-5-3.23-2.06-6.69-.89-10.08-.08-2.89.7-1,2.71-1,4A43.81,43.81,0,0,1,313,36.19a154.6,154.6,0,0,0-4.29,22.43c-.48,4.65,0,9.32,5,11.34,5.81,2.32,11.41,1.13,16.47-2.45a4.57,4.57,0,0,0,1.64-6.16c-1.56-2.91-3,.11-4.32.61-5.42,2.08-7.57.74-7.2-5.06C320.51,53.94,321.34,51,321.65,48.07Z"/><path class="cls-4" d="M82.16,17.08c-4.28.06-6.78,3.09-6.86,8.6-.09,6,0,11.94,0,17.91,0,6.14-.07,12.27,0,18.41.07,5.41,2.67,8.58,6.87,8.66s7-3,7.07-8.43q.14-18.4,0-36.82C89.2,19.91,86.57,17,82.16,17.08Z"/><path class="cls-6" d="M306.7,30.89c-2.5-2-5-.29-7.25,1.23-3.43,2.35-5.76,5.82-8.72,9.29a11.53,11.53,0,0,1-.15-1.93c.43-2.69,2.2-5.64-.67-7.85s-6.05-.92-9.11-.29c-1.15.23-2,.57-1.66,2.32,1,5.56-1,10.81-2.21,16.13s-2.68,10.26-3.77,15.45c-.74,3.56,1.43,5.46,4.71,5.48,2.47,0,6.63,1.16,6.81-2.48.39-8,4.58-14,8.73-20.13,1.72-2.52,3.48-6.79,8.09-3.4.92.67,1.45-.54,1.86-1.09a28.62,28.62,0,0,0,3.51-5.39C307.9,35.85,309.26,32.94,306.7,30.89Z"/></g></g></svg>