<svg xmlns="http://www.w3.org/2000/svg" viewBox="0 0 322.81 275.94"><defs><style>.cls-1{fill:#fefefe;}.cls-2{fill:#fe3b6c;}.cls-3{fill:#030506;}.cls-4{fill:#fe3a6b;}.cls-5{fill:#040708;}.cls-6{fill:#fc2f64;}.cls-7{fill:#fc3065;}.cls-8{fill:#070909;}.cls-9{fill:#4a4a4a;}</style></defs><g id="Layer_2" data-name="Layer 2"><g id="Layer_1-2" data-name="Layer 1"><polygon class="cls-1" points="115.34 25 86.91 118.91 91.99 125.63 72.01 125.63 69.58 138.04 80.2 153.9 98.44 146.46 109.53 142.16 120.82 158.32 129.64 174.76 193.3 174.76 201.23 153.5 217.63 145.29 234.78 151.44 246.51 152.26 252.53 141.93 251.39 127.42 242.81 127.52 232.75 130.16 238.37 117.56 232.97 111.07 210.75 25 115.34 25"/><path class="cls-2" d="M87.19,79.36c1.79-.18,3.55-.83,5.35-.91,5.32-.24,10.81-.91,14.81,3.93,1.6-11.42,4-22.54,12.09-31.47a14.08,14.08,0,0,1,2.75-2.85c2.86-1.69,3.14-3.44,1.47-6.4-2.16-3.82-.82-6.65,3.61-8.55,3.51-1.5,7.53-2.61,9.22,2.15,1.35,3.84,3.4,3.34,6.39,2.76a91.75,91.75,0,0,1,42.32,1.75c20.06,5.47,30,19.39,32,39.63A160.63,160.63,0,0,1,236,79.25c4.81.18,7.74,2.14,8,7.07.16,2.78.14,5.57.2,8.36h0c1.61-7.21.88-14.41-.07-21.63-5.59-42.57-44-76.51-88.95-72.77-36.66,3.06-66,27.36-75.3,62.88-2.22,8.55-4.21,17.34-2.35,26.35h0C77.75,81.26,78.8,80.19,87.19,79.36Z"/><path class="cls-3" d="M91.09,153.42a39.93,39.93,0,0,0,12-5.76c1.59-2.47,2.93-4.92,6.44-5.5,4.22-.7,6.6,0,7.62,4.68s3,9.41,4.59,14.11h0c1.59,3.82,3.21,7.62,4.74,11.45.6,1.51,1.4,3,3.16,2.37,2-.73.54-2.2.13-3.28-3.78-9.9-7.52-19.81-10.43-30-.31-1.1-.58-2.23-1.76-2.84-2.68-1.4-13.44.49-14.94,3.22-2.6,4.71-7,6.37-11.54,8s-9.87,2.69-13.5-1.45c-4.15-4.72-6-10.63-4.39-17.09,1-3.78,3.27-5.63,7.37-4.44q4.53,1.3,9.11,2.41c1.11.26,2.33,1.54,3.41-.32,1-1.68-.29-2.28-1.11-3.3a8.29,8.29,0,0,1,.68-11.57c.79-.79,1.61-2,2.91-1.39,1.46.64,1.55,2,1.11,3.41a15.48,15.48,0,0,0-.87,2.84,16.17,16.17,0,0,0,5.64,14.23c2.76,2.49,5.49-1.51,8.37-2.08.64-.13,1.19-.6,1.83-.79,3.27-.95,4-2.6,3.19-6.2-3.52-14.88-5.54-30-3.46-45.28,1.54-11.28,5.31-21.71,14.46-29.11,3.2-2.58,4.6-4.33,1.7-7.91-2.74-3.39-.29-5.2,2.68-6.06,3.77-1.09,3.61,2.36,4.46,4.48.68,1.69.34,3.79,3.67,2.69,14.1-4.66,28.43-3.79,42.62-.51,20.45,4.71,30.23,16,32.54,36.69,1.47,13.26-1.38,26-4.28,38.76-.83,3.65-4,8-2.21,10.68,1.88,2.83,6.8,3.6,10.3,5.44,2.33,1.22,4,.79,5.44-1.32,3.11-4.49,5.4-9.13,3.54-14.82-.46-1.39-1.08-3.18.57-4,2-1,3.09.9,3.91,2.14,2.35,3.54,3.5,7.27-.26,10.7-1.12,1-1.67,1.76-.74,3.3s2.06.48,3,.26c3.37-.81,6.66-2,10.05-2.64,1.64-.31,3.47-.59,5,1.14,5,5.51,1.05,20.43-6.08,22.7-5.82,1.84-17.37-2.28-20.85-7.44-2.46-3.66-14-6.43-17.73-4.34-1.06.6-1,1.63-1.37,2.5Q196,156.86,190.2,171.67c-.38,1-2.1,2.35.09,3.12,1.39.49,2.4-.3,3-1.82,1.49-3.68,3.2-7.27,4.81-10.89l6.41-17.61c.41-1.13,1-2.22,2.43-2,4.51.72,9.89-.49,12.2,5.31h0c.76.63,1.5,1.29,2.3,1.87,15.37,11.2,29.08,6.35,31.82-11.25,1.66-10.67-3.51-15.74-14-13.72-.32.07-.62.24-.93.33-3.07.84-2.3-1.11-2-2.72a15.69,15.69,0,0,0-2.88-8.87c-2-2.77-4.77-4.43-8.18-3-3.22,1.37-3.23,4.39-2.5,7.27a12.83,12.83,0,0,1-1.68,10.91c-2.64,3.93-4.94.31-7.28-.25-2.06-.49-3.78-1.29-2.84-4.44,4.27-14.36,6.74-29,6.23-44l-.17,0c-1.58-1.67-1.94-3.81-2.21-5.95-2.36-18.41-16.26-30.4-33.71-33.85-12.43-2.46-25-3.38-37.49-.7-3.6.76-6.43.23-8.34-3.42-1.7-3.24-4.58-2.75-7.35-1.46s-4.61,3.46-3.12,6.75.76,5.76-1.77,8C115.36,56,111.86,65,110,74.84c-.5,2.71-.51,5.66-2.6,7.88h-.08c-.25,13.67.47,27.26,3.85,40.59,1.28,5-3.46,4.21-5.67,5.78-2.47,1.77-3.48-.27-4.44-2.06-1.7-3.19-2.47-6.45-1.09-10,1.17-3,.32-5.76-2.48-7.29s-5.37-.06-7.58,2c-3.43,3.21-2.47,7.94-4.22,11.73h0c-1.31,1.74-2.76.22-4,0-8.09-1.18-11.89,1.9-12.13,10.1a23.82,23.82,0,0,0,0,4.47C71.76,150.82,77.73,157,91.09,153.42Z"/><path class="cls-3" d="M185.2,39.77A91.75,91.75,0,0,0,142.88,38c-3,.58-5,1.08-6.39-2.76-1.69-4.76-5.71-3.65-9.22-2.15-4.43,1.9-5.77,4.73-3.61,8.55,1.67,3,1.39,4.71-1.47,6.4a14.08,14.08,0,0,0-2.75,2.85c-8.09,8.93-10.49,20-12.09,31.47,0,.11,0,.22,0,.33h.08c2.09-2.22,2.1-5.17,2.6-7.88,1.84-9.85,5.34-18.8,13.06-25.62,2.53-2.24,3.22-4.79,1.77-8s.23-5.4,3.12-6.75,5.65-1.78,7.35,1.46c1.91,3.65,4.74,4.18,8.34,3.42,12.54-2.68,25.06-1.76,37.49.7C198.6,43.5,212.5,55.49,214.86,73.9c.27,2.14.63,4.28,2.21,5.95l.17,0c0-.17,0-.33,0-.49C215.23,59.16,205.26,45.24,185.2,39.77Z"/><path class="cls-4" d="M299.81,199.27c-5.11,1.32-9.11,4.53-13.5,8.48a11.45,11.45,0,0,1-.18-2.29c1.1-5.67-2.5-5.24-6.39-5.47-4.4-.26-5.14,1.43-5.09,5.39.21,16.11.09,32.22.09,48.33,0,5.15.25,10.32-.08,15.45-.27,4.17.7,5.65,5.33,5.7,5.09.06,6.89-1.32,6.18-6.35-.36-2.61.14-5.33-.11-8-.41-4.27.47-6.19,5.56-5.59,10.35,1.23,19.07-2.35,24.9-11.27a37,37,0,0,0,4.71-31.45C318.36,202.13,309.2,196.84,299.81,199.27Zm3.11,42.4c-4.36,3.6-9.42,3.6-14.62,2.94-2-.25-2.2-1.66-2.19-3.26,0-2.65,0-5.3,0-9.13-1.91-9.1,3.8-15.5,11.46-20.61,4.68-3.13,8.56-1.77,11,3.18C312.65,222.82,309.85,236,302.92,241.67Z"/><path class="cls-4" d="M185,201.78c-2.53,1.47-4.79,3.39-7.22,5.14-.81-7.39-.81-7.29-8.66-6.86-2.37.12-3.17.88-3.17,3.22q.09,34.13,0,68.25c0,2.39.88,3.31,3.22,3.14a28.56,28.56,0,0,1,5,0c2.77.28,3.36-1.09,3.28-3.52-.13-4,.14-8-.08-12-.2-3.37.53-4.71,4.37-4.26,9.23,1.08,17.55-1.09,23.68-8.64,8.29-10.22,10-21.95,6.55-34.24S196.22,195.24,185,201.78Zm10.19,38.59c-4.27,4.44-9.46,5-15.09,4.38-2.07-.22-2.79-1.33-2.72-3.33.09-2.81,0-5.63,0-9.64-1.89-8.59,3.19-14.93,10.65-19.95,5-3.37,9-2,11.61,3.49C203,222.63,200.76,234.53,195.16,240.37Z"/><path class="cls-4" d="M47.87,233.38c.05-9.78,0-19.57,0-29.36,0-2,.33-4.1-2.86-3.93-5.47.3-10.9-.64-16.34-.78-7-.18-13.38,1.75-18.47,7C.11,216.76-2,229.2,1.76,242.66c3.42,12.14,14.9,16.48,26.1,10.62a37.15,37.15,0,0,0,8.48-6.7c2.54,8.69,2.53,8.62,11,7.95,2.16-.17,3-.62,2.26-2.95C47.78,245.66,47.83,239.52,47.87,233.38ZM25.31,243c-4.4,3.05-8.12,2-10.75-2.63-4.2-7.37-2-21,4.27-26.66,4.3-3.9,9.4-4.38,14.85-3.77,2,.24,2.88,1.25,2.84,3.25-.06,2.65,0,5.3,0,9.13C38.53,231.34,32.89,237.73,25.31,243Z"/><path class="cls-4" d="M103.21,200.07c-5-.93-7.2,1.3-8.88,5.93-3.62,9.94-7.93,19.62-12.28,30.19-5.62-11.43-10.79-22-16-32.5-.84-1.71-1.31-3.77-4-3.61-3.25.18-6.53,0-9.72,0-.39,1.66.43,2.59.92,3.6,6.74,14,13.54,28,20.19,42.1,1.07,2.26,2.79,4.34,1.6,7.4-4,10.28-9.73,13.67-20.44,11.69-.88-.17-2.46-1-2.61.09a33.72,33.72,0,0,0-.19,8.86c.26,2.07,2.6,1.67,4.16,1.84,13.12,1.38,21-3,27.52-15.71,5.84-11.34,10.15-23.37,15.11-35.1,3.4-8,6.71-16.1,10.32-24.78A35.55,35.55,0,0,1,103.21,200.07Z"/><path class="cls-4" d="M134.79,198.81c-15.54-.16-26,11-26.21,27.92-.18,17.19,10.23,29.09,25.58,29.25,15.12.16,26-11.34,26-28.37C160.16,210.26,149.82,198.54,134.79,198.81Zm11,38.7c-2.21,5.7-6.52,8.54-11.76,8.26-5.78-.31-9.37-3.61-11.5-8.78a22.1,22.1,0,0,1-1.3-9.89,19.42,19.42,0,0,1,3-12.67c5.07-7.69,16.12-7.52,20.54.54C148.74,222.22,148.75,229.93,145.82,237.51Z"/><path class="cls-4" d="M254.24,201c-9.1-4-18.65-3.65-26.68,3.19-12.42,10.58-13.29,32.59-2.05,44.46a20.3,20.3,0,0,0,5.87,4.53c17.43,8.41,38.25-2,37.72-22.28C269.14,215.78,265.41,205.85,254.24,201Zm-.26,38.6c-2.26,4.37-6.25,6.36-11.09,6.19s-8.35-3-10.52-7.22c-1.76-3.43-2.29-7.22-2.36-11.75.33-4.46.72-9.59,4.42-13.69,5.77-6.41,15.64-5.5,19.64,2.13C258.26,223.21,258.14,231.51,254,239.55Z"/><path class="cls-5" d="M160.73,65.52c-15,.09-27.15,12.55-27.21,27.82-.06,15.56,12.15,28.07,27.39,28.06,15.41,0,27.3-12.22,27.28-28S176.11,65.43,160.73,65.52Zm16.56,45c-2.64,2.53-5.48,4.83-9.46,4.78-1.65,0-3.51.25-4.28-1.71-.68-1.75.11-3.16,1.4-4.43a16.44,16.44,0,0,1,8.61-4.64c1.61-.3,3.47-.44,4.39,1.38A3.8,3.8,0,0,1,177.29,110.55Zm-36.55-5.77c-5.15-7.63-4.37-18.08,2-26.31a23.09,23.09,0,0,1,25.84-7.64c9.08,3.17,15.66,12,15.5,20.9C165.94,81.05,148.5,87.82,140.74,104.78Z"/><path class="cls-6" d="M88.7,111.39c2.36-2.78,5.32-4.09,8.82-2.54,3.25,1.45,4.47,4.25,4,7.76-.29,2.14-.76,4.28-.17,6.41s1,4.91,4.29,4.31c3.07-.56,4.53-2.48,3.71-5.77-1.4-5.63-1.89-11.41-2.74-17.14-.93-6.25-.43-12.54-.4-18.82a5.15,5.15,0,0,1,.94-2.91c-3.9-.38-6.87-3.75-11.31-3.06-3.72.58-7.54.91-11.31,1.38A5.86,5.86,0,0,0,79,86c-.26,1.28-.32,2.66-1.5,3.56-.36,12,2.8,23.26,8.18,33.93C85,119,85.71,114.9,88.7,111.39Z"/><path class="cls-6" d="M79,86A5.86,5.86,0,0,1,84.52,81c3.77-.47,7.59-.8,11.31-1.38,4.44-.69,7.41,2.68,11.31,3.06.07-.1.13-.21.21-.31-4-4.84-9.49-4.17-14.81-3.93-1.8.08-3.56.73-5.35.91-8.39.83-9.44,1.9-9.66,10.15h0C78.71,88.61,78.77,87.23,79,86Z"/><path class="cls-6" d="M89.93,111.71c2.21-2.06,4.69-3.58,7.58-2S101.16,114,100,117c-1.38,3.57-.61,6.83,1.09,10,1,1.79,2,3.83,4.44,2.06,2.21-1.57,7-.75,5.67-5.78-3.38-13.33-4.1-26.92-3.85-40.59l-.2,0a5.15,5.15,0,0,0-.94,2.91c0,6.28-.53,12.57.4,18.82.85,5.73,1.34,11.51,2.74,17.14.82,3.29-.64,5.21-3.71,5.77-3.25.6-3.68-2.11-4.29-4.31s-.12-4.27.17-6.41c.48-3.51-.74-6.31-4-7.76-3.5-1.55-6.46-.24-8.82,2.54-3,3.51-3.67,7.61-3,12h0C87.46,119.65,86.5,114.92,89.93,111.71Z"/><path class="cls-6" d="M107.14,82.69l.2,0c0-.11,0-.22,0-.33C107.27,82.48,107.21,82.59,107.14,82.69Z"/><path class="cls-6" d="M242.65,87.75c-.52-5.66-2.19-6.68-7.68-7.21-5.79-.55-11.62.77-17.34-.56,1,1.71.84,3.68.87,5.59.19,12.37-2.39,24.32-5.33,36.23-.52,2.13-1.18,4.2,1.52,5.51,3.33,1.63,5.87.51,6.71-3.18.56-2.48,0-4.94-.22-7.41-.3-3,.46-5.74,3.46-7a7.44,7.44,0,0,1,8.33,1.38,10.77,10.77,0,0,1,3.4,11.23c.66-1.59,1.25-3.2,2-4.74,3.54-7.22,5.1-14.94,5.83-22.88C242,92.75,242.87,90.11,242.65,87.75Z"/><path class="cls-6" d="M244,86.32c-.28-4.93-3.21-6.89-8-7.07a160.63,160.63,0,0,0-18.75.15,5.45,5.45,0,0,1,.4.58c5.72,1.33,11.55,0,17.34.56,5.49.53,7.16,1.55,7.68,7.21.22,2.36-.64,5,1.55,6.93h0C244.14,91.89,244.16,89.1,244,86.32Z"/><path class="cls-6" d="M233,111.07a7.44,7.44,0,0,0-8.33-1.38c-3,1.29-3.76,4-3.46,7,.23,2.47.78,4.93.22,7.41-.84,3.69-3.38,4.81-6.71,3.18-2.7-1.31-2-3.38-1.52-5.51,2.94-11.91,5.52-23.86,5.33-36.23,0-1.91.17-3.88-.87-5.59l-.39-.09c.51,15-2,29.69-6.23,44.05-.94,3.15.78,4,2.84,4.44,2.34.56,4.64,4.18,7.28.25a12.83,12.83,0,0,0,1.68-10.91c-.73-2.88-.72-5.9,2.5-7.27,3.41-1.45,6.19.21,8.18,3a15.69,15.69,0,0,1,2.88,8.87A10.77,10.77,0,0,0,233,111.07Z"/><path class="cls-6" d="M217.23,79.4c0,.16,0,.32,0,.49l.39.09A5.45,5.45,0,0,0,217.23,79.4Z"/><path class="cls-7" d="M210.77,144c-3.24-.48-4.8.36-5.94,3.4-1.89,5-3.12,10.41-6.72,14.68,8.07-3.2,14.44-8.91,21-14.29h0C216.34,146.59,214.05,144.49,210.77,144Z"/><path class="cls-7" d="M207,142.48c-1.43-.23-2,.86-2.43,2l-6.41,17.61c3.6-4.27,4.83-9.65,6.72-14.68,1.14-3,2.7-3.88,5.94-3.4s5.57,2.59,8.38,3.79h0C216.84,142,211.46,143.2,207,142.48Z"/><path class="cls-7" d="M105.5,146a8.14,8.14,0,0,1-2.41,1.71c5.68,5.18,11.56,10.08,18.65,13.29h0c-3.34-3.54-3.64-8.4-5.48-12.6C113.63,142.35,110.62,141.56,105.5,146Z"/><path class="cls-7" d="M109.53,142.16c-3.51.58-4.85,3-6.44,5.5A8.14,8.14,0,0,0,105.5,146c5.12-4.39,8.13-3.6,10.76,2.4,1.84,4.2,2.14,9.06,5.48,12.6-1.57-4.7-3.55-9.3-4.59-14.11S113.75,141.46,109.53,142.16Z"/><path class="cls-8" d="M188.93,147.47c1.17.93,1.84.91,2.59.21a1.44,1.44,0,0,0-.09-2.48c-1.9-1.48-2.53-4.73-5.24-4.74-1.6,0-1.33,1.63-.43,3,.75,1.15-.54,2.11-1.28,2.91a29.53,29.53,0,0,1-33.58,7.43c-1.31-.54-3-2.59-4.11-.15s1.72,2.37,2.89,2.86c13.36,5.5,25.2,2.6,35.83-6.74C186.58,148.85,187.24,146.85,188.93,147.47Z"/><path class="cls-1" d="M168.54,70.83a23.09,23.09,0,0,0-25.84,7.64c-6.33,8.23-7.11,18.68-2,26.31,7.76-17,25.2-23.73,43.3-13C184.2,82.87,177.62,74,168.54,70.83Z"/><path class="cls-9" d="M173.56,104.55a16.44,16.44,0,0,0-8.61,4.64c-1.29,1.27-2.08,2.68-1.4,4.43.77,2,2.63,1.68,4.28,1.71,4,0,6.82-2.25,9.46-4.78a3.8,3.8,0,0,0,.66-4.62C177,104.11,175.17,104.25,173.56,104.55Z"/></g></g></svg>