<svg xmlns="http://www.w3.org/2000/svg" viewBox="0 0 268.61 69.61"><defs><style>.cls-1{fill:#0095df;}.cls-2{fill:#0196e0;}.cls-3{fill:#0297e1;}.cls-4{fill:#069ae3;}.cls-5{fill:#fe0a0d;}.cls-6{fill:#fe9312;}.cls-7{fill:#0e9ee5;}.cls-8{fill:#089ae2;}.cls-9{fill:#7ac60e;}.cls-10{fill:#0298e1;}.cls-11{fill:#fe9108;}.cls-12{fill:#fe068f;}.cls-13{fill:#14bb55;}.cls-14{fill:#e8e9e1;}.cls-15{fill:#fe2b2e;}.cls-16{fill:#83c823;}.cls-17{fill:#eff8fc;}.cls-18{fill:#099ce6;}.cls-19{fill:#fc8d02;}.cls-20{fill:#fd078c;}.cls-21{fill:#f8fcfd;}</style></defs><g id="Layer_2" data-name="Layer 2"><g id="Layer_1-2" data-name="Layer 1"><path class="cls-1" d="M40.26,23.58c3.86-.4,4.62,1.24,4,4.94a104,104,0,0,0,.66,36.65c.66,3.43-.49,4.44-3.82,4.4-12.45-.11-24.91-.09-37.36,0-3.32,0-4.29-.9-3.5-4.4,2.89-12.78,2.1-25.72,1.12-38.64,1.35-2.14,3.52-2.25,5.69-2.19,9.22.24,18.36-1.53,27.59-1.19a9.15,9.15,0,0,1,1.64-.41C37.71,22.58,39.12,22.46,40.26,23.58Z"/><path class="cls-2" d="M148.15,34.79c3.13-6.7,5.14-7.69,11.65-5.92C170.28,31.72,176.71,41,175.33,51.3a21,21,0,0,1-20.94,18.22c-10.64-.18-20.17-9.21-20.5-19.95-.3-10-.13-19.92-.07-29.88,0-3.58,4.58-7.33,8.12-7,2.87.23,1.77,2.39,1.79,3.76.09,10.46.08,20.91,0,31.37A18.7,18.7,0,0,0,145.42,56c1.76,3.74,4.54,6.28,8.76,6.37s7.56-2.28,9.63-6c4.9-8.86.46-18.68-9.42-20.83C152.48,35.1,150.5,35.05,148.15,34.79Z"/><path class="cls-2" d="M69,34.55c3.07-6.4,4.62-7.2,10.58-5.85C90.48,31.17,97.1,40.31,96,51.38a20.3,20.3,0,0,1-20.51,18c-11.79-.36-20.41-8.26-21-20.32-.51-9.76-.17-19.57-.09-29.35,0-3.48,4.68-7.3,8.14-7.1,2.55.15,1.75,2,1.76,3.27q.09,15.67,0,31.35a19.41,19.41,0,0,0,2.18,9.58c3.75,6.91,11.94,7.48,16.83,1.25A14,14,0,0,0,75.6,35.61C73.54,35.11,71.4,34.93,69,34.55Z"/><path class="cls-2" d="M112,33.16q0,13.67,0,27.34c0,4.65-2.34,7.29-6.89,8.06-1.93.32-3.13.18-3.13-2.31.06-19.72,0-39.44.09-59.17,0-3,5.51-6.73,8.45-6.27,2.46.38,1.42,2.3,1.44,3.51C112,13.93,112,23.55,112,33.16Z"/><path class="cls-3" d="M181.39,36.86c0-9.3,0-18.6,0-27.9A8.24,8.24,0,0,1,189,.83c2.28-.22,2.4,1,2.4,2.67,0,19.6,0,39.2-.05,58.8,0,3.32-5,6.85-8.26,6.4-2.38-.32-1.69-2.12-1.7-3.43C181.36,55.8,181.39,46.33,181.39,36.86Z"/><path class="cls-3" d="M197.33,50.1c0-4.48,0-9,0-13.44s2.61-7.36,7-8.06c2.08-.33,3.09.19,3.08,2.5-.06,10.45.05,20.9-.08,31.35,0,3.21-5.88,7.18-8.81,6.39-1.7-.46-1.18-1.79-1.19-2.82C197.3,60.71,197.33,55.4,197.33,50.1Z"/><path class="cls-2" d="M117.91,69.61c0-11.84,0-22.91,0-34,0-3.57,4.37-7.15,8-7.1,2.05,0,2,1.24,2,2.6,0,10.41.24,20.83-.1,31.23C127.63,68.07,122.32,67.94,117.91,69.61Z"/><path class="cls-4" d="M244.41,14.49c.45-1.91-1.15-5.66,1.06-6.05,3.25-.58,6.75-3.11,10.17-.78,1.48,1,2.38.79,3.91.07,4.38-2.06,7.28-.52,8.58,4.18a4.8,4.8,0,0,1,.32,1.94c-.48,2.81,1.81,7.6-2.72,7.69-3.16.06-.88-4.29-1.4-6.6-.43-1.93-.06-4.31-2.86-4.4-3.07-.11-3.21,2.25-3.24,4.51,0,1-.05,2,0,3,.07,1.81-.3,3.7-2.34,3.74-2.93.06-1.1-2.44-1.51-3.74-.8-2.55,1.79-7-2.62-7.35-5.05-.34-3.12,4.39-3.39,7.15-.2,2-.42,4.13-2.67,4-2.52-.19-.9-2.64-1.24-4A15.17,15.17,0,0,1,244.41,14.49Z"/><path class="cls-5" d="M10.67,14.53c3.33-.36,2.65-5.7,6.58-5.33,2.62.46,2.71,2,1.76,4a7.24,7.24,0,0,0-.82,5.66c.33,1.78.54,3.58-.6,5.21-2.09,1.75-4.56.88-6.9,1C7.32,23.23,8,19.57,7,16.66,7.49,14.71,8.78,14.1,10.67,14.53Z"/><path class="cls-6" d="M29.51,8.84c1.13-.11,2.55-.61,3.23.46,2,3.24,4.42,3.8,7.58,1.58.58-.41,1.83-.3,2,.67.21,1.22.39,2.66-1.24,3.29C38,17,38.42,21,36.25,23.62l-.19.13c-1.72.8-3.52.27-5.28.38-1.82-1-1.25-2.6-.71-3.81,1.49-3.36.79-6.19-1.55-8.81A2.43,2.43,0,0,1,29.51,8.84Z"/><path class="cls-7" d="M219.24,10.15c-3,0-5.47,1.16-5.51,4.64,0,3.74,2.37,5.32,5.91,4.76,1.52-.24,3.28-1,3.53,1,.22,1.87-1.93,1.9-3.28,2.12a7.62,7.62,0,0,1-8.16-3.4,7.72,7.72,0,0,1-.18-8.44,7.58,7.58,0,0,1,8-3.75c1.41.18,3.88.22,3.55,2.39C222.79,11.5,220.87,10.8,219.24,10.15Z"/><path class="cls-8" d="M128,17.62c-.5,3.13-2.42,4.83-5.4,4.61-2.67-.2-4.65-1.86-4.55-4.85s1.93-4.83,5.06-4.78S127.67,14.65,128,17.62Z"/><path class="cls-9" d="M29.51,8.84l-.13,3.05c-2.29,1.07-2.51,4.19-5,5.05-1.69-1.87-4.93-1.35-6.16-4,1.43-1.7.73-2.87-.95-3.79l.93-1.49c3.74-3.21,6.3-3.46,10.17-1C28.74,7.42,29.13,8.13,29.51,8.84Z"/><path class="cls-10" d="M202.38,12.51c3.06.22,4.86,1.94,4.89,4.72,0,3.08-2,5-5.08,4.9-2.78-.08-4.71-1.68-4.7-4.7C197.49,14.21,199.33,12.65,202.38,12.51Z"/><path class="cls-11" d="M7.47,16.54c2.35,2.11,1.36,5.4,2.8,7.83a10.42,10.42,0,0,1-8.67,0c-1.35-4.15-.52-7.19,4.18-8.27A1.13,1.13,0,0,1,7.47,16.54Z"/><path class="cls-12" d="M36.25,23.62c1.09-3.21-1.43-8.42,4.84-8.78.85,1.44,3.9,0,3.69,2.95s-1.61,5-4.52,5.79Z"/><path class="cls-13" d="M28.35,6.71c-3.51-1-6.86-.19-10.17,1C18.17,6,15,3.27,19.64,3c2.14-.7,4.28-1.38,6.57-.69C30.11,2.23,27.79,5.17,28.35,6.71Z"/><path class="cls-14" d="M1.6,24.35c2.89.71,5.78.34,8.67,0a21,21,0,0,0,7.41-.6c2.22-2.13,5-1.37,7.61-1.5a10,10,0,0,1,5.18.88l5.59.6C28,25.27,19.76,24.8,11.64,25.62c-3.42.34-6.91-.15-10.26.9C1.45,25.8,1.52,25.08,1.6,24.35Z"/><path class="cls-15" d="M7.47,16.54l-1.69-.47c-1.45-.45-3-1.05-2.06-2.94A2.73,2.73,0,0,1,7.83,12a18.5,18.5,0,0,1,2.84,2.5Z"/><path class="cls-16" d="M26.21,2.31C24.1,3.33,22,4,19.64,3,21.43-1,23.68-.72,26.21,2.31Z"/><path class="cls-17" d="M22.3,50.39c-5.68,0-11.25-5-11.14-10,0-1-.14-2.17,1.14-2.41s1.77.72,1.9,1.78c.57,4.73,3.5,7.27,8,7.35s7.34-2.67,8.1-7.24c.18-1.08.59-2.1,1.76-1.93,1.56.23,1.36,1.62,1.3,2.78C33.06,45.67,27.7,50.36,22.3,50.39Z"/><path class="cls-18" d="M234,7a8.17,8.17,0,0,0-8,7.9,8.06,8.06,0,0,0,16.12-.16A8.23,8.23,0,0,0,234,7Zm.41,12.83c-3.45-.31-5.15-2-5.09-5.12a4.77,4.77,0,0,1,9.53,0C239,17.85,237.14,19.41,234.44,19.81Z"/><path class="cls-19" d="M25.71,23.4l-8,.37c-.4-2.07-.85-4.14-1.19-6.22-.31-1.82-.41-3.63,1.71-4.57,1.83,1.67,6.08-.8,6.27,3.67A5.2,5.2,0,0,1,25.71,23.4Z"/><path class="cls-20" d="M25.71,23.4c-.41-2.25-.83-4.5-1.24-6.75,1.47-1.77.53-6,4.91-4.76,3.16.82,3.88,2.74,2.76,5.69-.69,1.81-1.12,3.71-1.67,5.57Z"/><circle class="cls-21" cx="18.27" cy="34.87" r="0.91"/><circle class="cls-21" cx="26.58" cy="34.87" r="0.91"/></g></g></svg>