<svg xmlns="http://www.w3.org/2000/svg" viewBox="0 0 272.22 73.87"><defs><style>.cls-1{fill:#0155aa;}.cls-2{fill:#a8d501;}.cls-3{fill:#0156aa;}.cls-4{fill:#0457ab;}.cls-5{fill:#4ba7df;}.cls-6{fill:#a8d401;}.cls-7{fill:#a8d502;}</style></defs><g id="Layer_2" data-name="Layer 2"><g id="Layer_1-2" data-name="Layer 1"><path class="cls-1" d="M31.64,46.15c0-11.17-.89-12.34-11.84-15.53-9.43-2.76-9.68-2.76-9.73-12.75,0-4.57-2.82-3.5-5.27-3.55s-5-.79-4.79,3.46C.35,24.4.1,31.05.1,37.69c0,6.47.06,12.94,0,19.42-.06,5,2.48,8.15,7,9.64a28.53,28.53,0,0,0,18.1-.16c4.19-1.38,6.5-4.38,6.43-9C31.59,53.78,31.64,50,31.64,46.15ZM15.84,60.79c-3.53,0-6.24-.91-5.91-5.35.19-2.64,0-5.3,0-7.95a18.76,18.76,0,0,1,0-4c.53-2.39-1.84-6.43,1.55-7C17.25,35.71,22,40,22,44.72c0,3.64-.09,7.29,0,10.94C22.21,60.15,19.25,60.77,15.84,60.79Z"/><path class="cls-2" d="M272.17,38.13c0-6.79,0-13.58,0-20.36,0-1.21.53-2.64-1.19-3.39-4.67-2-8.53.47-8.54,5.61a21.14,21.14,0,0,0,0,3c.52,3.63-1.06,5.54-4.59,6.31-3.22.71-6.4,1.65-9.54,2.68-4.72,1.54-7.51,4.55-7.31,9.88.16,4.14,0,8.28,0,12.42,0,9.77,3,13,12.74,13.63,4,.25,8,.32,11.77-1.13,4.2-1.61,6.84-4.29,6.69-9.25C272,51.05,272.17,44.59,272.17,38.13ZM256.48,60.81c-3.88-.07-6.37-1.38-6.13-5.88.2-3.64.17-7.31,0-11-.13-2.93,1-4.51,3.78-5.57,8.31-3.15,8.28-3.25,8.28,5.69v3.49c0,2.49-.2,5,0,7.46C262.9,59.64,260.41,60.89,256.48,60.81Z"/><path class="cls-2" d="M235.41,38.06c0-6.76-3-10.57-9.49-12a40.07,40.07,0,0,0-17.77,0c-6.64,1.51-9.35,5-9.45,12-.07,4.81,0,9.63,0,14.44,0,5.15.23,10.3-.07,15.43-.25,4.37,2.51,3.73,5.15,3.77s5.21.46,5.09-3.83c-.27-9.45-.12-18.92-.07-28.38,0-4.81,2.38-6.66,8.23-6.69s8.11,1.79,8.15,6.76c.06,7.47.25,14.95-.08,22.41-.19,4.2,2.1,4.06,4.93,3.9,2.64-.15,5.71,1,5.51-3.84C235.17,54,235.46,46,235.41,38.06Z"/><path class="cls-3" d="M132,25.26a28.85,28.85,0,0,0-5.91.72c-4.93,1.06-8.11,4.69-8.2,9.26,0,1.54-.57,3.85,2.09,3.45s6.67,2,7.35-1.48c1-5.27,4.38-4.57,7.76-4.57,2.42,0,4.17,1.13,4.44,3.74.26,2.43-1.22,3.63-3.32,4.26-3.65,1.08-7.29,2.17-11,3.19a9.08,9.08,0,0,0-7,8.07c-1.43,9.73,2.3,14.43,12.2,15a51.14,51.14,0,0,0,9.9-.27c5.59-.77,8.72-4.52,8.88-10.18.09-3.31,0-6.63,0-9.94,0-1.66-.13-3.33,0-5C150.3,29.8,147.63,25.17,132,25.26Zm7.63,26.83c0,7-1.75,8.65-7.71,7.82-2.42-.34-4-1.38-4.23-4s.29-4.64,3-5.59c1.39-.5,2.89-.76,4.22-1.38C138.73,47.14,140.35,48.18,139.59,52.09Z"/><path class="cls-1" d="M51.56,25.26a23.44,23.44,0,0,0-6.4.79c-4.51,1.25-7.66,4-8,9-.1,1.44-.84,3.95,1.84,3.63s6.7,2.17,7.66-1.68c1.36-5.41,5-4.35,8.5-4.24a3.53,3.53,0,0,1,3.7,3.32c.32,2.4-.79,3.79-3,4.45-3.81,1.15-7.63,2.25-11.44,3.37-4.34,1.28-6.56,4.24-6.92,8.69C36.75,62.4,40.07,66.3,50,66.93a53.27,53.27,0,0,0,8.93-.18c6.22-.69,9.44-4.33,9.57-10.53.07-3.32,0-6.64,0-10,0-1.66-.11-3.32,0-5C69.54,28.68,66.11,25.44,51.56,25.26ZM50.33,59.73c-3.4-1-4.8-5.38-2.3-7.91s6.25-3.4,9.51-3.56c2.88-.13.26,3.31,1.41,4.2C59,59.14,56.06,61.38,50.33,59.73Z"/><path class="cls-1" d="M101.47,33.06c-2.28,4.92-4.46,9.88-7,15.61C91.67,42.4,88.82,37.13,87,31.53s-4.85-7-10.24-6.46c-3,.32-3.26.83-2,3.43,4.52,9.4,8.62,19,13.34,28.3,1.58,3.09.28,5.05-1,7.27-1.38,2.45-4,2.69-6.13,1.74-4.83-2.14-7.84-.54-10.24,4.63,3.19.94,6.14,1.94,9.15,2.68,8.69,2.14,13.48-.21,17.2-8.32,2.34-5.12,4.72-10.22,7-15.36,3.54-7.94,7-15.89,10.66-24.08C103.18,25.21,105.92,23.5,101.47,33.06Z"/><path class="cls-4" d="M172.3,25.12c-1.76.1-3.26.11-4.73.28-10,1.2-12.57,4.13-12.6,14.06,0,9.45.11,18.91-.21,28.36-.15,4.29,2.31,3.81,5,3.85s5,.33,4.9-3.9c-.31-9.28-.06-18.58,0-27.87,0-6.3.82-7.48,7.08-7.29,4.59.14,5.67-2.82,5.51-5.84C177.08,23.44,173.74,26.05,172.3,25.12Z"/><path class="cls-5" d="M216.8,21.07c7.43,0,12.72-4.21,12.78-10.23S224.11.09,217.09,0c-6.66-.08-12.83,5-12.89,10.55C204.13,16.42,209.67,21.05,216.8,21.07Z"/><path class="cls-6" d="M192.48,46.24c0-6-.18-11.93.06-17.88.17-4.36-2.82-3.19-5-3.19s-5.11-1.17-5,3.19c.19,11.75.22,23.51,0,35.27-.09,4.67,3,3.33,5.31,3.43s5.05.8,4.8-3.43C192.23,57.85,192.48,52,192.48,46.24Z"/><path class="cls-7" d="M187.91,5.42c-5.26-.13-9.72,3.41-9.81,7.77s4,7.91,9.47,7.92,9.63-3.45,9.59-7.85C197.12,9.1,192.92,5.54,187.91,5.42Z"/></g></g></svg>