<svg xmlns="http://www.w3.org/2000/svg" width="28.841" height="17.625" viewBox="0 0 28.841 17.625">
  <g id="Group_769" data-name="Group 769" transform="translate(-2119.503 -753.283)">
    <path id="Path_354" data-name="Path 354" d="M1215.816,1420.393a4.813,4.813,0,0,0-8.137-2.809,5.63,5.63,0,0,1-2.928,1.637c-3.183.531-9.548-.132-10.875,1.99s.531,9.416,7.825,9.681,10.212-1.724,12.732-4.111C1215.552,1425.72,1216.122,1423.008,1215.816,1420.393Z" transform="translate(926.023 -662.931)" fill="#af7ccb"/>
    <g id="Group_749" data-name="Group 749" transform="translate(2122.378 753.72)">
      <path id="Path_358" data-name="Path 358" d="M1197.116,1430.12h-19.491a3.241,3.241,0,0,1-3.238-3.237V1416.17a3.241,3.241,0,0,1,3.238-3.237h19.491a3.241,3.241,0,0,1,3.237,3.237v10.713A3.241,3.241,0,0,1,1197.116,1430.12Zm-19.491-15.622a1.675,1.675,0,0,0-1.672,1.672v10.713a1.674,1.674,0,0,0,1.672,1.672h19.491a1.674,1.674,0,0,0,1.672-1.672V1416.17a1.675,1.675,0,0,0-1.672-1.672Z" transform="translate(-1174.388 -1412.933)" fill="#3e3957"/>
    </g>
    <g id="Group_750" data-name="Group 750" transform="translate(2123.904 756.994)">
      <rect id="Rectangle_141" data-name="Rectangle 141" width="22.913" height="1.565" transform="translate(0)" fill="#3e3957"/>
    </g>
    <g id="Group_751" data-name="Group 751" transform="translate(2123.458 760.49)">
      <rect id="Rectangle_142" data-name="Rectangle 142" width="23.508" height="1.565" fill="#3e3957"/>
    </g>
    <g id="Group_752" data-name="Group 752" transform="translate(2141.591 764.769)">
      <path id="Path_359" data-name="Path 359" d="M1222.376,1440.125v1.395h-1.395v-1.395h1.395m.939-.939h-3.273v3.273h3.273v-3.273Z" transform="translate(-1220.042 -1439.186)" fill="#3e3957"/>
    </g>
  </g>
</svg>
