<svg xmlns="http://www.w3.org/2000/svg" xmlns:xlink="http://www.w3.org/1999/xlink" viewBox="0 0 48 48"><defs><style>.cls-1{fill:#fff;}.cls-2{fill:url(#linear-gradient);}.cls-3{fill:url(#linear-gradient-2);}.cls-4{fill:url(#linear-gradient-3);}.cls-5{fill:#104189;}.cls-6{fill:url(#linear-gradient-4);}</style><linearGradient id="linear-gradient" x1="24.02" y1="5.55" x2="24.02" y2="19.93" gradientUnits="userSpaceOnUse"><stop offset="0" stop-color="#0c91f8"/><stop offset="0.71" stop-color="#266ee6"/><stop offset="1" stop-color="#1e57b8"/></linearGradient><linearGradient id="linear-gradient-2" x1="10.76" y1="34.66" x2="21.74" y2="34.66" xlink:href="#linear-gradient"/><linearGradient id="linear-gradient-3" x1="7.65" y1="26.68" x2="11.68" y2="26.88" xlink:href="#linear-gradient"/><linearGradient id="linear-gradient-4" x1="41.6" y1="26.87" x2="36.23" y2="26.87" xlink:href="#linear-gradient"/></defs><g id="Layer_2" data-name="Layer 2"><g id="Layer_1-2" data-name="Layer 1"><rect class="cls-1" width="48" height="48"/><path class="cls-2" d="M37.92,26.85H35.21v-7.6A11.32,11.32,0,0,0,24,7.84a11.32,11.32,0,0,0-11.2,11.41v7.6H10.11v-7.6A14.07,14.07,0,0,1,24,5.07a14.07,14.07,0,0,1,13.9,14.18Z"/><path class="cls-3" d="M21.74,41.58a11.12,11.12,0,0,1-11-11.2V27.75h1.35v2.63a9.75,9.75,0,0,0,9.63,9.82Z"/><path class="cls-4" d="M6.72,23.46v6.81a4.75,4.75,0,0,0,4.71,4.81V18.66A4.74,4.74,0,0,0,6.72,23.46Z"/><path class="cls-5" d="M11.43,18.66V35.08a4.75,4.75,0,0,0,4.72-4.81V23.46A4.73,4.73,0,0,0,11.43,18.66Z"/><path class="cls-6" d="M41.28,23.46v6.81a4.75,4.75,0,0,1-4.71,4.81V18.66A4.74,4.74,0,0,1,41.28,23.46Z"/><path class="cls-5" d="M36.57,18.66V35.08a4.75,4.75,0,0,1-4.72-4.81V23.46A4.75,4.75,0,0,1,36.57,18.66Z"/><path class="cls-5" d="M24.15,42.93H22.42a2.56,2.56,0,0,1,0-5.12h1.73a2.56,2.56,0,0,1,0,5.12Z"/></g></g></svg>