<svg xmlns="http://www.w3.org/2000/svg" width="20.385" height="20.543" viewBox="0 0 20.385 20.543">
  <g id="Group_754" data-name="Group 754" transform="translate(-1089.127 -1451.144)">
    <path id="Path_360" data-name="Path 360" d="M1113.221,1453.956a3.239,3.239,0,0,0-5.475-1.89,3.79,3.79,0,0,1-1.97,1.1c-2.141.357-6.425-.089-7.317,1.338s.357,6.335,5.265,6.514,6.87-1.16,8.566-2.766C1113.043,1457.54,1113.427,1455.716,1113.221,1453.956Z" transform="translate(-6.499)" fill="#4dcf8f" style="isolation: isolate"/>
    <g id="Group_753" data-name="Group 753" transform="translate(1089.127 1451.534)">
      <path id="Path_361" data-name="Path 361" d="M1109.5,1461.994a2.972,2.972,0,0,0-2.532-2.931,7.791,7.791,0,0,0-7.661-6.542h-.024a7.79,7.79,0,0,0-7.645,6.589,2.973,2.973,0,0,0-2.514,2.946l.01,3.2a2.993,2.993,0,0,0,2.613,2.941,4.946,4.946,0,0,0,4,3.989,1.149,1.149,0,0,0,.942.491h0l2.033-.006a1.158,1.158,0,0,0,0-2.316h0l-2.033.006a1.147,1.147,0,0,0-.926.474,3.611,3.611,0,0,1-2.667-2.688,2.961,2.961,0,0,0,2.336-2.911l-.01-3.2a2.988,2.988,0,0,0-2.235-2.871,6.2,6.2,0,0,1,6.1-5.11h.02a6.2,6.2,0,0,1,6.115,5.072,2.989,2.989,0,0,0-2.217,2.885l.01,3.2a2.978,2.978,0,0,0,2.974,2.965h.356a2.978,2.978,0,0,0,2.965-2.984Zm-3.311,4.646a1.441,1.441,0,0,1-1.439-1.435l-.01-3.2a1.441,1.441,0,0,1,1.435-1.443h.351a1.441,1.441,0,0,1,1.439,1.435l.01,3.2a1.441,1.441,0,0,1-1.435,1.444h-.351Zm-12.3-1.4a1.441,1.441,0,0,1-1.435,1.444h-.351a1.441,1.441,0,0,1-1.439-1.435l-.01-3.2a1.442,1.442,0,0,1,1.435-1.444h.351a1.441,1.441,0,0,1,1.439,1.435Z" transform="translate(-1089.127 -1452.521)" fill="#3e3957"/>
    </g>
  </g>
</svg>
