<svg xmlns="http://www.w3.org/2000/svg" viewBox="0 0 32.25 36"><defs><style>.cls-1{fill:#f9c241;}.cls-2{fill:#3e3957;}.cls-3{fill:none;}</style></defs><g id="Layer_2" data-name="Layer 2"><g id="Layer_1-2" data-name="Layer 1"><path class="cls-1" d="M26,2.25c-4.82-4.38-12.4-2-12.77,3.94a7.49,7.49,0,0,1-1.71,4.65C8.34,14.37-.32,17.15.75,23.12s10.87,11,19.88,4.75C35.36,17.65,29.26,5.17,26,2.25Z"/><rect class="cls-2" x="10.16" y="14.26" width="10.52" height="1.82"/><rect class="cls-2" x="1.52" y="19.1" width="28.86" height="2.73"/><path class="cls-2" d="M17.08,8.11a1.69,1.69,0,0,0-.34-.23l-.42-.18a1.27,1.27,0,0,1-.26-.11.56.56,0,0,1-.15-.1.24.24,0,0,1-.06-.09.59.59,0,0,1,0-.13.61.61,0,0,1,0-.15A.24.24,0,0,1,16,7a.47.47,0,0,1,.31,0,.24.24,0,0,1,.11.09.36.36,0,0,1,.08.15.8.8,0,0,1,0,.23v.12h.82V7.43A1.65,1.65,0,0,0,17.3,7a1.23,1.23,0,0,0-.19-.36,1.07,1.07,0,0,0-.31-.25,1.45,1.45,0,0,0-.29-.11V5.73h-.63v.51a1.4,1.4,0,0,0-.29.09,1,1,0,0,0-.31.22,1,1,0,0,0-.21.32,1.29,1.29,0,0,0-.07.4.93.93,0,0,0,.09.42.87.87,0,0,0,.22.32,1.72,1.72,0,0,0,.34.24,3.5,3.5,0,0,0,.43.17l.24.1.14.1.07.11a.51.51,0,0,1,0,.13.3.3,0,0,1-.1.24.44.44,0,0,1-.31.09l-.17,0-.13-.07a.36.36,0,0,1-.1-.14.6.6,0,0,1,0-.25V8.59h-.83v.12a1.29,1.29,0,0,0,.09.51,1,1,0,0,0,.25.36,1,1,0,0,0,.35.22l.27.08v.46h.63V9.88a1.32,1.32,0,0,0,.3-.09.93.93,0,0,0,.33-.21,1,1,0,0,0,.21-.32,1.07,1.07,0,0,0,.08-.41,1.12,1.12,0,0,0-.08-.42A1,1,0,0,0,17.08,8.11Z"/><path class="cls-3" d="M16.13,4.22a3.8,3.8,0,0,0-3.51,5.13h7a3.8,3.8,0,0,0-3.5-5.13Z"/><path class="cls-3" d="M12.44,12.09H2.69V33.27H29.56V12.09H19.81a5.35,5.35,0,0,1-7.37,0Z"/><path class="cls-2" d="M21.39,9.35a5.57,5.57,0,0,1-1.58,2.74h9.75V33.27H2.69V12.09h9.75a5.57,5.57,0,0,1-1.58-2.74H0V36H32.25V9.35Z"/><path class="cls-2" d="M16.13,13.56a5.36,5.36,0,0,0,3.68-1.47H12.44A5.37,5.37,0,0,0,16.13,13.56Z"/><path class="cls-2" d="M12.38,8a3.75,3.75,0,1,1,7.25,1.32h1.76A5.19,5.19,0,0,0,21.56,8,5.44,5.44,0,1,0,10.69,8a5.19,5.19,0,0,0,.17,1.32h1.76A3.82,3.82,0,0,1,12.38,8Z"/><path class="cls-2" d="M12.44,12.09h7.37a5.57,5.57,0,0,0,1.58-2.74H19.63a3.71,3.71,0,0,1-7,0H10.86A5.57,5.57,0,0,0,12.44,12.09Z"/></g></g></svg>