<svg xmlns="http://www.w3.org/2000/svg" xmlns:xlink="http://www.w3.org/1999/xlink" viewBox="0 0 48 48"><defs><style>.cls-1{fill:#fff;}.cls-2{fill:url(#linear-gradient);}.cls-3{fill:url(#linear-gradient-2);}.cls-4{fill:#f4d837;}.cls-5{fill:#ffee15;}</style><linearGradient id="linear-gradient" x1="-212.97" y1="-288.47" x2="-178.04" y2="-288.47" gradientTransform="translate(42.05 372.49) rotate(31.03)" gradientUnits="userSpaceOnUse"><stop offset="0" stop-color="#fbcebd"/><stop offset="1" stop-color="#fbad8f"/></linearGradient><linearGradient id="linear-gradient-2" x1="-178.27" y1="-286.19" x2="-174.5" y2="-286.19" gradientTransform="translate(42.05 372.49) rotate(31.03)" gradientUnits="userSpaceOnUse"><stop offset="0" stop-color="#0c91f8"/><stop offset="0.71" stop-color="#266ee6"/><stop offset="1" stop-color="#1e57b8"/></linearGradient></defs><g id="Layer_2" data-name="Layer 2"><g id="Layer_1-2" data-name="Layer 1"><rect class="cls-1" width="48" height="48"/><path class="cls-2" d="M24.56,25.66a11.87,11.87,0,0,0-5.36-5,10.47,10.47,0,0,0-7.69-1.25,3.8,3.8,0,0,1-2-.14,1.87,1.87,0,0,1-1.68-1.62,2.75,2.75,0,0,1,1-2.65,4.71,4.71,0,0,1,1.65-.85c3.81-1.32,7.52-1.84,11.27,0,1.84.92,3.9,1.48,5.76,2.36a10.82,10.82,0,0,1,4.72,4.31c1.05,1.8,2.29,3.52,3.22,5.42a13.67,13.67,0,0,0,3.53,4.39c.5.42.52.81.17,1.39q-2.34,3.73-4.54,7.55a.89.89,0,0,1-1.19.5l0,0c-4.65-1.39-8.92-3.29-11.53-7.85C20.4,29.76,18,28.34,16,26.62a18,18,0,0,1-2.49-2.36A2.41,2.41,0,0,1,13.62,21a2.08,2.08,0,0,1,2.89-.52,53.52,53.52,0,0,1,5.34,3.7A5.15,5.15,0,0,0,24.56,25.66Z"/><path class="cls-3" d="M35.63,37.51c-.46.77-1.39,1.68-1.24,2.38s1.52,1,2.25,1.6c.53.37.76.2,1-.29.74-1.33,1.57-2.6,2.35-3.91l2.49-4.13c.24-.4.2-.55-.21-.8a18.32,18.32,0,0,1-2-1.22c-.48-.35-.68-.23-1,.26C38.11,33.5,36.84,35.49,35.63,37.51Zm5.27-5.09a.72.72,0,0,1,.29,1l-.08.13a.7.7,0,0,1-1,.22l-.09,0c-.42-.25-.37-.65-.27-1C40.11,32.26,40.51,32.13,40.9,32.42Z"/><path class="cls-1" d="M39.65,34a1,1,0,1,0-.37-1.39A1,1,0,0,0,39.65,34Z"/><path class="cls-4" d="M14,41.32a5.14,5.14,0,1,0-5.12-5.14A5.14,5.14,0,0,0,14,41.32Z"/><path class="cls-5" d="M14,40a3.86,3.86,0,1,0-3.84-3.85A3.85,3.85,0,0,0,14,40Z"/><path class="cls-1" d="M14.67,37.32a.55.55,0,0,0,0-.25.38.38,0,0,0-.1-.2.69.69,0,0,0-.2-.15l-.3-.15c-.19-.09-.39-.14-.59-.24L13,36a1.11,1.11,0,0,1-.29-.39,1.54,1.54,0,0,1-.1-.55,1.22,1.22,0,0,1,.1-.49,1,1,0,0,1,.24-.4,2.47,2.47,0,0,1,.39-.29l.55-.15v-.69h.49v.69c.2.05.34.1.49.15a2.17,2.17,0,0,1,.4.29,2.46,2.46,0,0,1,.24.45,2,2,0,0,1,.1.59h-.94a1,1,0,0,0-.14-.59.49.49,0,0,0-.45-.2.36.36,0,0,0-.24,0c-.05,0-.15.15-.15.2a.26.26,0,0,0-.1.19,2.17,2.17,0,0,0-.05.25c0,.1,0,.15.05.2a.38.38,0,0,0,.1.2.54.54,0,0,0,.2.14,2.27,2.27,0,0,0,.34.15c.2.1.4.15.59.25l.45.3a3.6,3.6,0,0,1,.29.39,1.8,1.8,0,0,1,.1.55,1.47,1.47,0,0,1-.1.49,1.08,1.08,0,0,1-.64.64l-.54.15v.64h-.49V38.6a.84.84,0,0,1-.5-.15,1.33,1.33,0,0,1-.44-.29,1,1,0,0,1-.3-.45,1.46,1.46,0,0,1-.09-.64h.93a.93.93,0,0,0,0,.39,1.09,1.09,0,0,0,.15.25,1.09,1.09,0,0,0,.25.15.4.4,0,0,0,.24,0,.37.37,0,0,0,.25,0c.1,0,.15,0,.2-.1a.29.29,0,0,0,.09-.2A1.59,1.59,0,0,0,14.67,37.32Z"/><circle class="cls-5" cx="8.91" cy="9.9" r="3.59"/><circle class="cls-5" cx="36.57" cy="17.08" r="3.59"/></g></g></svg>