<svg width="27" height="24" viewBox="0 0 27 24" fill="none" xmlns="http://www.w3.org/2000/svg">
<ellipse cx="13.3672" cy="12" rx="12.6836" ry="12" fill="#F8E221"/>
<ellipse cx="13.3671" cy="12" rx="8.45575" ry="8" fill="#F8BB21"/>
<path d="M16.3719 13.6152C16.3719 14.1816 16.2782 14.6387 16.0907 14.9863C15.9032 15.334 15.6239 15.5918 15.2528 15.7598C14.8856 15.9238 14.4208 16.0156 13.8583 16.0352V17.377H13.1083V16.0293C12.5614 15.998 12.1063 15.9082 11.743 15.7598C11.3837 15.6113 11.1083 15.3789 10.9169 15.0625C10.7294 14.7461 10.6356 14.3281 10.6356 13.8086H11.5497C11.5497 14.168 11.6063 14.4453 11.7196 14.6406C11.8368 14.832 12.0048 14.9668 12.2235 15.0449C12.4462 15.1191 12.7411 15.1641 13.1083 15.1797V12.0098C12.4755 11.9082 11.9833 11.7656 11.6317 11.582C11.2802 11.3984 11.0302 11.1543 10.8817 10.8496C10.7333 10.5449 10.6591 10.1445 10.6591 9.64844C10.6591 8.91797 10.8719 8.39062 11.2977 8.06641C11.7235 7.73828 12.327 7.55273 13.1083 7.50977V6.41992H13.8583V7.50391C14.3778 7.52344 14.8036 7.60352 15.1356 7.74414C15.4716 7.88477 15.7235 8.10352 15.8915 8.40039C16.0594 8.69727 16.1434 9.08789 16.1434 9.57227H15.2645C15.2645 9.25195 15.2157 9.00586 15.118 8.83398C15.0204 8.66211 14.8719 8.54492 14.6727 8.48242C14.4735 8.41602 14.202 8.37695 13.8583 8.36523V11.2012C14.5067 11.3145 15.0106 11.4648 15.37 11.6523C15.7333 11.8359 15.9911 12.082 16.1434 12.3906C16.2958 12.6992 16.3719 13.1074 16.3719 13.6152ZM11.62 9.63672C11.62 9.94922 11.6591 10.1934 11.7372 10.3691C11.8153 10.5449 11.9579 10.6875 12.1649 10.7969C12.3759 10.9023 12.6903 10.9941 13.1083 11.0723V8.36523C12.7958 8.38086 12.5321 8.42578 12.3173 8.5C12.1024 8.57031 11.9325 8.69727 11.8075 8.88086C11.6825 9.06055 11.62 9.3125 11.62 9.63672ZM13.8583 15.1797C14.2098 15.1641 14.4969 15.1074 14.7196 15.0098C14.9462 14.9082 15.1161 14.75 15.2294 14.5352C15.3427 14.3164 15.3993 14.0234 15.3993 13.6562C15.3993 13.3398 15.3544 13.0898 15.2645 12.9062C15.1747 12.7188 15.0204 12.5664 14.8016 12.4492C14.5829 12.332 14.2684 12.2305 13.8583 12.1445V15.1797Z" fill="white"/>
</svg>
