<svg xmlns="http://www.w3.org/2000/svg" viewBox="0 0 234.03 228.22"><defs><style>.cls-1{fill:#0bd;}.cls-2{fill:#fefefe;}.cls-3{fill:#010101;}.cls-4{fill:#b4b4b4;}.cls-5{fill:#16c1e0;}.cls-6{fill:#6fd5ea;}</style></defs><g id="Layer_2" data-name="Layer 2"><g id="Layer_1-2" data-name="Layer 1"><path class="cls-1" d="M117,140.09c-37.39.89-70.75-31.94-69.78-71.25.9-36.66,30.7-69,70.38-68.84,38.3.16,69.93,32,69.57,71.2C186.85,107.48,156.26,140.87,117,140.09Z"/><path class="cls-2" d="M120.44,52.57c7,0,13.94-.12,20.91,0,9.85.21,16.32,6.68,16.88,16.56.44,7.7-.53,15.31-1.65,22.87-1.23,8.36-8.05,14-17.42,14.8a256.93,256.93,0,0,1-43.77,0c-10.89-.94-17.12-7.88-18-18.82a240.93,240.93,0,0,1-.13-33.88c.58-9.74,6.15-18.26,17.31-19.49,12.41-1.37,24.81-1.63,37.17.59a12.19,12.19,0,0,1,8.3,5.77c2.56,4,1.47,6-3.15,6-13,0-25.9,0-38.85,0-2,0-4.87-.82-4.84,2.58,0,3,2.65,2.9,4.81,2.91,7.47,0,14.94,0,22.42,0Z"/><path class="cls-3" d="M41.9,168.82c-2.57-.11-6.94-2.92-7.89,2.83-.24,1.43-1.31,1.41-2.54.24-1-1-2.59-1.31-3.92-1.94a54.86,54.86,0,0,0-13.06,0,17.83,17.83,0,0,0-12.4,9.5c-3.93,7.63-2,18.86,3.29,23.86,6.5,6.1,15.42,9,24.91,4.2,1.05-.53,2-2.39,3.39-1.07,1,1,.51,2.52.25,3.82-1.47,7.51-12,11.44-19.79,6.32-4-2.65-5.47-1.15-8,1.16s-2.61,3.6.34,5.55a29.39,29.39,0,0,0,17.37,5C35.34,227.92,44.14,220.5,44,208c-.1-11.16,0-22.32-.07-33.48C44,172.44,45.24,169,41.9,168.82ZM22.2,200.41a11.47,11.47,0,0,1-11.82-11.2c-.08-5.55,6-11.45,11.89-11.08,7.33.47,11.15,3.85,11.15,11.11C34.67,196,28.06,200.33,22.2,200.41Z"/><path class="cls-3" d="M119.61,169.7c-3.24.77-6.3,1.89-10.32.66-7.14-2.2-8-.88-8,6.66q0,10.23,0,20.45c0,8.31.09,16.62,0,24.93-.07,4.89,3.49,2.8,5.65,3s4.85,1,4.58-3c-.26-3.8,0-7.65-.09-11.46-.11-3.22,0-5.18,4.19-3.25,2.26,1,4.62,2.31,7.42,2.36a20.51,20.51,0,0,0,20.84-16.51C146.48,181.72,137,165.61,119.61,169.7Zm2.83,31c-5.47-.15-12.18-3.71-11-11.46,0-6.76,4.24-10.71,10.94-11,6.52-.34,11.49,5.29,11.46,11.36A11.24,11.24,0,0,1,122.44,200.66Z"/><path class="cls-3" d="M185.25,200.81a44.16,44.16,0,0,0,.05-6,72.81,72.81,0,0,0-.07-9c-.55-4.33-.59-8.83-4.37-12.19-6.88-6.12-18.55-6-26.19-1.4a14.06,14.06,0,0,0-6.48,7.84c-.24.76-.89,1.44-.22,2.27,1,1.24,9.25,1,10.29-.27,3.73-4.67,7.9-6.15,12.45-4.45,1.8.68,3.25,1.66,3.33,3.81s-1.64,2.59-3.28,3c-5.27,1.25-10.65,2.15-15.78,3.84-4.62,1.52-7.06,5.17-6.85,10.25.19,4.74,2.45,7.73,6.87,9.86,6.57,3.16,12.31,1.23,18.13-1.64.78-.38,1.75-2,2.32-.73,2,4.56,5.94,2.59,8.38,1.87C186.89,207,184.9,203.26,185.25,200.81Zm-9.84-6c-2.13,4.91-6.19,6.57-12.31,6.3a5,5,0,0,1-1.92,0c-1.55-.39-3.6-.76-3.48-2.81.1-1.77.74-3.61,3.06-4.14,3.81-.87,7.57-2,11.38-2.9,1-.24,2.16-1.56,3.12-.25A4,4,0,0,1,175.41,194.77Z"/><path class="cls-3" d="M72.34,168.74c-12.41.95-21.34,7.75-21.45,21-.1,12.34,11.42,20.87,21.87,20.3,12.56-.69,21.69-8.79,21.57-20.86C94.26,177.7,84.16,167.83,72.34,168.74Zm.47,32c-6.73.21-12.23-5.8-11.41-11.32,0-6.79,4.4-11,11.16-11.3,6.39-.33,11.51,5.31,11.51,11.33A11.46,11.46,0,0,1,72.81,200.73Z"/><path class="cls-3" d="M229.41,170c-5.16-.75-8.14.9-9.73,6.36S215,186.78,212.85,192a5.87,5.87,0,0,1-2.29,2.43,25.83,25.83,0,0,1-1.5-2.39c-2-4.12-4.12-8.19-5.84-12.43-4.18-10.3-4.22-10.4-15.82-9.24,3.53,6,5.4,12.62,9.11,18.39,9.05,14.07,9.16,17.26,1.6,32.31a19.79,19.79,0,0,0-1.07,2.23c-.36,1.06-.19,1.75,1.13,2.16,5.28,1.64,9.62-.48,12-5.45,3.93-8.39,8.22-16.6,12.22-25C226.27,186.91,230,178.64,234,170A36.17,36.17,0,0,1,229.41,170Z"/><path class="cls-4" d="M27.55,170c-4.34-2.68-8.69-3.36-13.06,0A17.5,17.5,0,0,1,27.55,170Z"/><path class="cls-4" d="M27.55,170a17.5,17.5,0,0,0-13.06,0A54.86,54.86,0,0,1,27.55,170Z"/><path class="cls-5" d="M144.14,86.17a2,2,0,0,1-2.6.8c-1.86-.7-4.31-10.85-3.08-12.47,1.58-2.08,3.58-3,6.06-1.64,2.73,1.5,3.07,3.7,1.65,6.33C144.27,81.16,145.87,84.15,144.14,86.17Z"/><path class="cls-6" d="M144.14,86.17c.38-2.41-1-5.34,2-7C145.67,81.57,147.17,84.53,144.14,86.17Z"/></g></g></svg>