<svg xmlns="http://www.w3.org/2000/svg" viewBox="0 0 343.93 115.07"><defs><style>.cls-1{fill:#fefefe;}.cls-2{fill:#e90017;}.cls-3{fill:#fecd00;}.cls-4{fill:#e90016;}.cls-5{fill:#006ab9;}.cls-6{fill:#0169b9;}.cls-7{fill:#f71a1e;}.cls-8{fill:#f2f7fb;}.cls-9{fill:#d1e6f3;}.cls-10{fill:#eef5fa;}.cls-11{fill:#fcc7cc;}.cls-12{fill:#f8191b;}.cls-13{fill:#fcbbc0;}.cls-14{fill:#f81e20;}.cls-15{fill:#fef8f8;}</style></defs><g id="Layer_2" data-name="Layer 2"><g id="Layer_1-2" data-name="Layer 1"><rect class="cls-1" width="343.93" height="115.07" rx="6.75"/><path class="cls-2" d="M171.5,4.36H327.4c8.57,0,11,2.4,11,10.91,0,6.31-.09,12.62.05,18.93.07,2.68-.59,3.84-3.56,3.8-11.13-.15-22.25-.06-33.38-.07-1.46,0-3,.3-3.62-1.71-1.88-6.13-6.84-8.51-12.43-10.3-21.26-6.79-43.09-10.87-65.2-13.41C169.65,6.67,119.55,9.63,70.1,22.23c-4.82,1.22-9.58,2.68-14.32,4.19s-8.72,4.17-10.39,9.2C44.75,37.55,43.63,38,41.72,38q-16.93-.12-33.87,0c-2.4,0-3.15-.77-3.11-3.15.13-7.13,0-14.28.07-21.42.07-6.21,2.93-9,9.29-9,17.1,0,34.2,0,51.3,0Z"/><path class="cls-3" d="M171.33,112H15.94C7.06,112,4.8,109.7,4.79,100.82c0-6.15.13-12.29-.07-18.43-.09-3,.66-4.1,3.84-4,10.79.18,21.59.13,32.37,0,2.48,0,3.85.56,4.78,3.09C47.44,86.16,51.41,88.54,56,90c21.53,7,43.68,11.12,66.11,13.81a406,406,0,0,0,88.43,1.07c25.79-2.56,51.26-6.82,76-14.79,5.14-1.66,9.43-4.21,11.2-9.63.61-1.88,1.84-2.09,3.41-2.09,11.29,0,22.58,0,33.87,0,2.59,0,3.49.94,3.44,3.51-.13,6.64,0,13.28-.06,19.92,0,7.5-2.71,10.17-10.24,10.17Z"/><path class="cls-4" d="M171.67,16.06c37.86.31,75.14,4.72,111.45,15.89,8.11,2.49,8.81,3.58,8.82,12q0,14.68,0,29.39c0,7.28-1,8.65-8.13,11a317.48,317.48,0,0,1-57.3,12.4c-53.26,6.94-106,4.33-158-9.59-21.22-5.68-17-4.94-17.32-22.53-.14-7.3,0-14.61,0-21.92,0-6.65,1.23-8.38,7.59-10.43a325.49,325.49,0,0,1,52.88-11.78A395.49,395.49,0,0,1,171.67,16.06Z"/><path class="cls-5" d="M24.78,41.32c5.48,0,11,.07,16.44,0,2.33,0,3.66.28,3.61,3.17-.17,9.13-.14,18.27,0,27.4,0,2.34-.69,3.17-3.11,3.15q-16.93-.15-33.86,0c-2.43,0-3.11-.83-3.09-3.16.11-9.14.15-18.27,0-27.4,0-2.9,1.31-3.21,3.64-3.16C13.82,41.39,19.3,41.32,24.78,41.32Z"/><path class="cls-5" d="M318.6,75c-5.47,0-10.94-.12-16.4,0-2.67.08-3.86-.55-3.81-3.53.17-8.94.13-17.89,0-26.84,0-2.64,1-3.4,3.49-3.38q16.41.15,32.81,0c2.7,0,3.85.64,3.8,3.58-.16,8.95-.14,17.9,0,26.85.05,2.71-1,3.38-3.5,3.31C329.54,74.87,324.07,75,318.6,75Z"/><path class="cls-1" d="M171.57,26.15a526.41,526.41,0,0,1,105.76,11c6.9,1.45,7.89,2.69,7.91,9.69,0,7.8-.2,15.61.08,23.41.19,5.29-2,7.84-7.11,8.93a505.71,505.71,0,0,1-67.94,9.62A518,518,0,0,1,69.11,80c-1.62-.33-3.24-.69-4.86-1.05-4.32-1-6.5-3.57-6.46-8.1.06-8.14,0-16.27,0-24.41,0-6,1.65-8,7.51-9.24a464.5,464.5,0,0,1,48.62-7.78A504.25,504.25,0,0,1,171.57,26.15Z"/><path class="cls-6" d="M168.26,58.36c2.61-1,5.2-2.17,7.85-3.13,1.5-.55,3.37-1.7,4.55.07,1.35,2,2.31.76,3.53.16,2.35-1.14,4.75-1.91,6.71.66,1.57,2.05,2.58,0,3.74-.48,1.72-.71,3.48-1.63,5.14-.29s1.24,3.26.61,5c-.77,2.19-1.59,4.36-2.33,6.56-.29.88-1.21,1.86-.27,2.72,1.11,1,2.12-.11,3.17-.46,1.71-.59,1.82-2.13,2.38-3.5,3.64-8.9,10.25-12.66,19.48-11.42,2.32.31,1.71,1.43,1.25,2.7a98.78,98.78,0,0,0-3.93,12.24c5.57-2,8.73-5.89,10.05-11.46,1.14-4.86,2.95-5.64,6.79-4.29s-2.77,3.59.69,4.69c1.72.55,4.5.29,4,3.26-.24,1.56-1.48,2.94-2,4.49s-2.26,3.19-.74,5c.85,1,2.17.46,3.29.17,2.28-.61,2.28-2.2,2.26-4.22,0-4.46,2.24-8,5.68-10.58,2.66-2,5.83-3.12,8.57-.37s1,5.54-.72,8.1-4.42,3.85-6.79,5.69c4.11,3,8.22,2.81,10.18-1.12,1.47-2.94,5.95-5.92,1.75-10.18-.36-.36.68-3.19,1.42-3.37,4.47-1.05,3.95-5.2,5.47-8.06.73-1.37.63-3.48,2.94-3.47,1.14,0,2.53-.19,3.36.37,1.34.89-.17,2-.34,3.06-.47,2.85-4,5.53-.38,8.69.26.23-.82,3.06-1.6,3.24-4.78,1.09-3.91,5.65-5.61,8.56-.63,1.1-1.1,2.61,0,3.74,1.38,1.44,2.73,0,4.09-.33s2.56-2.76,3.67-.71c.73,1.37-1.54,2.12-2.57,3a2.85,2.85,0,0,1-1.27.76,68,68,0,0,1-24.15-.13c-1.78-.34-3.1-1.26-4.83,0a6.91,6.91,0,0,1-2.76,1.08c-2.77.46-5.87,1.26-8-1.16s-.38-5,.46-7.5c.48-1.45,2.21-2.56,1.27-4.67-2.38.16-3.19,2.11-4.26,3.63-2.53,3.56-5.24,7.73-9.44,8.44-5.65,1-12,4.36-17.22-1.48-1-1.17-1.72-.45-2.53-.08-1.36.61-2.65,1.37-4,2-1.64.74-3.41,1.93-5.11.52s-1.57-3.51-.9-5.51a6.89,6.89,0,0,0,.29-1c.26-2,2.8-5.11,1-5.62-3.09-.9-2.92,3.13-3.92,5.13-1.94,3.88-2,9.81-9.57,7.09,1.12-3.05,2.35-6.18,3.4-9.37.33-1,1.46-2.42.06-3.09-1.66-.78-2.23,1-2.72,2.12-1.16,2.75-2.27,5.53-3.23,8.35a3.31,3.31,0,0,1-3.59,2.62c-2.72,0-4.19-.26-2.73-3.55,1.61-3.61,2.79-7.41,4.17-11.17-1.82-1.23-3.19.45-4.75.52C168,60.53,167.4,59.73,168.26,58.36Z"/><path class="cls-6" d="M146.33,70.85c-5.46,3.67-11.73,4-18,4.32-1.31.07-3,.34-3.72-.86-2.57-4.54-5.27-1.71-8-.41-1.77.84-3.6,2.14-5.45.24-1.61-1.66-1.26-3.59-.6-5.58s2.15-4.07,1.69-7c-4.13,1.9-4.35,5.77-5.33,8.77-1.42,4.36-3.65,6-8.37,4.29,1.13-3,2.28-6.09,3.4-9.15.39-1.05,1.3-2.29.25-3.21-1.24-1.07-2.56,0-3.56.71-3.55,2.73-7,5.62-10.51,8.36-5.89,4.57-13.33,5.31-18.56,1.92-4.58-3-4.71-5.38-.49-9.2,5.13,8.17,13.36,8.26,18.82-.13,4-6.1,5.76-13.22,8.83-20.24a21.57,21.57,0,0,0-10.42,2.82c-3.47,1.91-3.48,4.69-.43,7,.72.56,2.83,0,2,2A4.23,4.23,0,0,1,85,58.12c-3.38.87-6.35.12-8.31-2.87S75,48.93,77.26,46a12.24,12.24,0,0,1,5.27-3.64c6.84-2.71,14.14-3.09,22-4.76-3,7.72-5.69,14.6-8.91,22.84,2.37-1.52,3.69-2.51,5.14-3.27,3.21-1.7,6.29-5,10-.65,1.27,1.47,2.27-.56,3.37-1,1.84-.71,3.69-2,5.55-.34s1.09,3.68.53,5.58c-.52,1.74-1.33,3.4-1.87,5.13-.39,1.26-2,3.08,0,3.71A3.26,3.26,0,0,0,122.49,67,15.94,15.94,0,0,1,125,61c2.38-3.67,5.61-6.52,10.11-6.2,3.66.27,4.73-1.38,5.87-4.29,1.23-3.15,1.29-9.18,6.69-6.66,2.93,1.37-.79,5.33-1.56,8.05-1.22,4.28-3.17,8.36-4.61,12.59-.54,1.6-2.48,3.46-.79,4.94,1.25,1.1,3-.66,4.59-1C146.63,68.82,147.12,69.55,146.33,70.85Z"/><path class="cls-7" d="M146.33,70.85c-.35-.79-.71-1.58-1.06-2.36-1.18-10.76,4.42-17.64,13.47-16.63,4.36.49,7.06,3.3,9.52,6.5.35.91.7,1.81,1,2.72.13,3.14.23,6.25-1.32,9.2C163.41,78.92,153.62,79.21,146.33,70.85Z"/><path class="cls-8" d="M216.11,62.11a7.59,7.59,0,0,1-.36,1.33c-1.23,2.67-2.24,5.57-5.43,6.57-.66.21-1.22-.43-1.21-1.19,0-3.56,1.89-6.2,4.38-8.46A2.25,2.25,0,0,1,215.3,60C216.33,60.24,216.13,61.21,216.11,62.11Z"/><path class="cls-9" d="M255.27,58.34c-.75,3.83-2.52,5.35-5,6.91C249.94,61.71,252.11,60.4,255.27,58.34Z"/><path class="cls-10" d="M135.7,61.71a11.88,11.88,0,0,1-4.58,7.88c-1.42,1.08-2.72.41-2.49-1.4a11.38,11.38,0,0,1,4.54-7.87C134.63,59.25,135.59,59.89,135.7,61.71Z"/><path class="cls-11" d="M167.64,64.54a10.44,10.44,0,0,1-10.76,10.61A10.78,10.78,0,0,1,146.43,64.1c.14-5.85,5.3-11,10.89-10.82A10.9,10.9,0,0,1,167.64,64.54Z"/><path class="cls-12" d="M157.11,73.87a9.42,9.42,0,0,1-9.13-9.8,9.08,9.08,0,0,1,9.18-9.13,9.18,9.18,0,0,1,9.15,9.68A9.44,9.44,0,0,1,157.11,73.87Z"/><path class="cls-13" d="M165,64.19a7.88,7.88,0,0,1-7.71,8,7.7,7.7,0,0,1-7.89-7.73,8.19,8.19,0,0,1,7.64-8.2C161,56.14,164.86,60,165,64.19Z"/><path class="cls-14" d="M163.37,63.38c.08,4.56-2.79,7.73-6.32,7.52-3.91-.23-5.94-2.73-6.33-6.37s2.88-6.68,6.47-6.59C161.19,58.05,163,60.39,163.37,63.38Z"/><path class="cls-15" d="M161.92,64.53c-.54,2.7-1.84,4.66-4.89,4.57s-4.56-1.92-4.58-4.76c0-3.16,2-5,5-4.86C160.27,59.63,161.7,61.72,161.92,64.53Z"/></g></g></svg>