<svg xmlns="http://www.w3.org/2000/svg" width="16.692" height="17.515" viewBox="0 0 16.692 17.515">
  <g id="Group_775" data-name="Group 775" transform="translate(-1848.814 -841.95)">
    <path id="Path_377" data-name="Path 377" d="M413.634,138.074v-.77a.938.938,0,0,0-.276-.668l-2.375-2.375a.94.94,0,0,0-.67-.277l-9.156.021a1.335,1.335,0,0,0-1.33,1.333v14.637a1.425,1.425,0,0,0,1.424,1.424H412.3a1.319,1.319,0,0,0,1.317-1.316l.007-5.494a3.3,3.3,0,0,0,.009-6.515Zm-3.417-2.906,2.234,2.235v.7a3.293,3.293,0,0,0-.008,6.449l-.007,5.527a.134.134,0,0,1-.134.134h-11.05a.241.241,0,0,1-.24-.24V135.338a.149.149,0,0,1,.149-.149Zm5.019,6.163a2.137,2.137,0,1,1-1.821-2.093A2.123,2.123,0,0,1,415.235,141.331Z" transform="translate(1449.037 708.016)" fill="#fff" stroke="#fff" stroke-width="0.1"/>
    <path id="Path_378" data-name="Path 378" d="M465.966,164.289a1.032,1.032,0,0,0-.25-.176,2.68,2.68,0,0,0-.313-.134,1.422,1.422,0,0,1-.19-.082.469.469,0,0,1-.109-.077.192.192,0,0,1-.048-.072.3.3,0,0,1-.015-.1.359.359,0,0,1,.016-.111.188.188,0,0,1,.043-.073.208.208,0,0,1,.076-.049.328.328,0,0,1,.233,0,.226.226,0,0,1,.08.066.343.343,0,0,1,.056.115.617.617,0,0,1,.021.169v.1h.61v-.1a1.159,1.159,0,0,0-.048-.343.84.84,0,0,0-.141-.273.735.735,0,0,0-.228-.191.845.845,0,0,0-.214-.079v-.4h-.468v.391a.936.936,0,0,0-.213.068.76.76,0,0,0-.233.165.722.722,0,0,0-.151.241.842.842,0,0,0-.052.3.8.8,0,0,0,.06.319.747.747,0,0,0,.169.243,1.05,1.05,0,0,0,.253.177,2.524,2.524,0,0,0,.313.13,1.2,1.2,0,0,1,.18.077.445.445,0,0,1,.107.076.217.217,0,0,1,.05.077.288.288,0,0,1,.017.1.234.234,0,0,1-.072.182.339.339,0,0,1-.235.07.453.453,0,0,1-.125-.018.254.254,0,0,1-.1-.054.283.283,0,0,1-.071-.1.485.485,0,0,1-.03-.185v-.1h-.612v.1a1,1,0,0,0,.067.384.764.764,0,0,0,.439.436,1.134,1.134,0,0,0,.206.059v.349h.467v-.35a1.011,1.011,0,0,0,.221-.064.761.761,0,0,0,.244-.16.706.706,0,0,0,.158-.24.9.9,0,0,0,0-.626A.732.732,0,0,0,465.966,164.289Z" transform="translate(1396.884 684.971)" fill="#fff" stroke="#fff" stroke-width="0.1"/>
    <path id="Path_379" data-name="Path 379" d="M408.178,152.852h5.583a.574.574,0,1,0,0-1.149h-5.583a.574.574,0,0,0,0,1.149Z" transform="translate(1442.749 693.69)" fill="#fff" stroke="#fff" stroke-width="0.1"/>
    <path id="Path_380" data-name="Path 380" d="M408.091,163.545h4.3a.582.582,0,0,0,0-1.149h-4.3a.582.582,0,0,0,0,1.149Z" transform="translate(1442.749 685.044)" fill="#fff" stroke="#fff" stroke-width="0.1"/>
    <path id="Path_381" data-name="Path 381" d="M408.178,174h5.583a.574.574,0,1,0,0-1.149h-5.583a.574.574,0,0,0,0,1.149Z" transform="translate(1442.749 676.591)" fill="#fff" stroke="#fff" stroke-width="0.1"/>
    <path id="Path_382" data-name="Path 382" d="M408.091,184.694h4.3a.582.582,0,0,0,0-1.149h-4.3a.582.582,0,0,0,0,1.149Z" transform="translate(1442.749 667.945)" fill="#fff" stroke="#fff" stroke-width="0.1"/>
  </g>
</svg>
