<svg xmlns="http://www.w3.org/2000/svg" viewBox="0 0 346.08 129.31"><defs><style>.cls-1{fill:#97138b;}.cls-2{fill:#981389;}.cls-3{fill:#98158c;}</style></defs><g id="Layer_2" data-name="Layer 2"><g id="Layer_1-2" data-name="Layer 1"><path class="cls-1" d="M147.82,59.55c-4.38-.92-8.89-1.22-13.25-2.19-4-.89-7.19-3-7-7.74.22-4.44,2.87-6.93,7-7.87,4.85-1.08,9.94-1,14,1.64,3.9,2.58,6.1,1.7,8.5-1.48a11.4,11.4,0,0,1,2.13-2.09c2.08-1.61,2-2.77-.17-4.47-9-7-26.26-8-35.87-1.8-7.79,5.06-9.88,12.59-8.57,21.29,1.17,7.84,6.27,12.25,13.68,14,4.51,1.06,9.17,1.46,13.72,2.33,5.59,1,7.72,3.39,7.7,8.08s-2.83,7.61-8.2,8.3c-4.29.55-8.93,1.12-12.76-.94-6.39-3.42-12-4.91-16.12,3.78-.87-2-1.29-2.83-1.61-3.71C104.6,68.91,97.92,51.22,91.8,33.34c-1.51-4.4-4.27-3.65-7.31-3.82s-5.56,0-6.71,3.93c-1.94,6.68-4.62,13.14-7,19.68L54.34,98.22C46.82,85.44,39.9,73.38,32.62,61.55c-1.93-3.13-1.72-5,.63-7.73C40,46.15,46.38,38.2,53.6,29.54c-3.43,0-5.75.3-8-.06-6.48-1-10.72,1.59-14.49,6.85C25.49,44.2,19.05,51.5,12.09,60.09V37.47c0-8.16,0-8.08-8.24-8C1.32,29.52,0,29.8,0,32.92.13,54.18.06,75.45.09,96.71c0,1.06-.48,2.81,1,2.93,3.29.29,6.84.8,9.87-.13,2.51-.77,1-4.1,1.07-6.25.25-7.64-1.37-15.47,5.74-21.57,2.94-2.51,3.85-3.5,5.95.48,4.4,8.37,9.3,16.47,13.82,24.77a4.91,4.91,0,0,0,5,3c7.47-.14,15-.08,22.42,0,2,0,3.33-.33,4.09-2.6,1.08-3.24,1.07-7.84,4-9.23s7.14-.47,10.79-.52c2.32,0,4.71.33,7-.07,5.35-1,8,1.34,8.76,6.43.68,4.78,3.21,6.93,8.1,6a7.7,7.7,0,0,1,2.49,0c4.84.72,6.24-1,3.86-5.41-.06-.12.27-.46.42-.7,12.32,7,27.26,8.17,37.66,3,8.21-4.1,12.31-11.76,11.2-20.9S157.43,61.58,147.82,59.55ZM80.2,75.87c-2.76.09-4-.28-2.76-3.55,2.65-6.93,4.94-14,7.72-22l8.52,25.52C88.49,75.84,84.34,75.74,80.2,75.87Z"/><path class="cls-2" d="M346.06,30.31a33.12,33.12,0,0,0-.72-8.41C341.8,8.38,330.64.2,315.14.13c-19.43-.09-38.86,0-58.29,0-10.3,0-20.6.21-30.89-.1-4.1-.13-5.11,1.28-4.84,5.06a72.78,72.78,0,0,1,0,12.44c-.46,4.61,1.14,6,5.69,5.7,6.7-.39,7-.09,7.05-6.73,0-3.71,2.18-3.35,4.55-3.35,25.25,0,50.49,0,75.73,0,12.3,0,19.17,6.88,19.2,19.12q.07,32.38,0,64.77c0,12.26-6.87,19.19-19.09,19.22-25.25.06-50.49-.06-75.73.11-3.86,0-5.17-1.22-4.57-4.82.68-4-.82-5.92-5.06-5.26a9.61,9.61,0,0,1-3,0c-3.56-.53-5.11.59-4.79,4.53a87.39,87.39,0,0,1,0,13.44c-.27,3.84.85,5.11,4.89,5,14.94-.25,29.89-.1,44.83-.1,14.78,0,29.57.14,44.34,0,19.62-.23,30.88-11.67,30.9-31.11Q346.1,64.19,346.06,30.31Z"/><path class="cls-1" d="M229.46,100c.12,3.27,3.25,0,0,0Z"/><path class="cls-1" d="M229.46,100c-.23-6.3,4-16.82,4.2-23.13.06-1.77-1.54-5,2.14-4.92,2.95,0,6.68-1.83,8.45,2.8,1.83,4.8,4.15,9.41,6.25,14.1,5.22,11.7,5.22,11.7,18.1,11a11,11,0,0,0,1.55-.41c-4.37-9.08-8.5-17.74-12.73-26.35-1.07-2.18-1.41-3.43,1.24-5.08,8-5,10.89-13.93,8.23-23.55a19.66,19.66,0,0,0-19-14.82c-7-.21-14,.23-20.92-.18-4.67-.28-6.21.87-6.12,5.87.33,18.77.13,37.54.13,56.31C221,100.08,221,99.92,229.46,100Zm14.63-58.22c7.71.09,12.17,4.73,10.72,11.24-.86,3.91-3.19,6.47-7.25,7.14a29.81,29.81,0,0,1-4.43.31c-9.55.09-9.55.08-9.55-9.62C233.58,41.63,233.58,41.63,244.09,41.75Z"/><path class="cls-1" d="M194.1,29.59c-7.3-.16-14.62.14-21.92-.13-3.51-.13-4.06,1.34-4,4.37.14,10.13.05,20.26.05,30.39V91.63c0,8.46,0,8.3,8.46,8.34,3.24,0,4.32-.93,4.2-4.21-.23-6.13.1-12.29-.13-18.43-.12-3.16,1-4.06,4-3.86a80.73,80.73,0,0,0,10,0c12.29-.74,20.71-10.11,20.39-22.56S206.35,29.86,194.1,29.59Zm7.77,24.81c-1.16,3.88-3.72,6.18-7.85,6.48-1.32.1-2.65.07-4,.07-9.25,0-9.25,0-9.25-9.43,0-10.28,0-10.28,11.87-9.75C199.72,42.08,203.87,47.75,201.87,54.4Z"/><path class="cls-1" d="M321.13,49.18c-2-12-11.42-19.76-23.81-19.61S275.61,37.93,274.23,50a131.44,131.44,0,0,0,0,29.34,21.55,21.55,0,0,0,11.57,17.47c.75-1.89.09-3.28-.23-4.71-1.75-7.77-3.53-15.53-5.19-23.31-.5-2.37-1.53-5.14,1.39-6.69,2.65-1.41,4.21.8,6,2.31,3.15,2.71,5.72,6.14,9.86,8.56.5-7.71.94-14.8,1.45-21.88.18-2.55-.5-5.7,3.16-6.41,3.31-.65,4.08,2.19,5.21,4.33q6.78,12.92,13.51,25.85C321.67,66.07,322.54,57.6,321.13,49.18Z"/><path class="cls-1" d="M302.73,50.35Q301.29,73.66,299.87,97c-.08,1.31-.31,2.54,1.78,2.74,6.61.63,19-10.35,18.81-16.84a4.67,4.67,0,0,0-.6-1.86q-8-15.39-16-30.76Z"/><path class="cls-3" d="M283.9,67.25q3.3,15,6.59,30c.45,2,1.86,2.5,3.68,2.5,2.1,0,1.72-1.6,1.8-2.83.37-5.11.68-10.23,1.06-15.34.12-1.71,0-3.21-1.39-4.5-3.64-3.32-7.19-6.75-10.78-10.14Z"/></g></g></svg>