<svg xmlns="http://www.w3.org/2000/svg" viewBox="0 0 237.45 228.32"><defs><style>.cls-1{fill:#fe0015;}.cls-2{fill:#fe0116;}.cls-3{fill:#fe0115;}.cls-4{fill:#fe0419;}.cls-5{fill:#fe0217;}.cls-6{fill:#fe0318;}.cls-7{fill:#fe98a1;}.cls-8{fill:#fe5a68;}.cls-9{fill:#fe929b;}</style></defs><g id="Layer_2" data-name="Layer 2"><g id="Layer_1-2" data-name="Layer 1"><path class="cls-1" d="M16.85,165.57c13.51.76,13.54.83,18.88-10.66a4,4,0,0,1,4.2-2.67c5,.1,10,.16,14.93,0,3.13-.11,4.31.88,4.48,4.18.45,9.16.62,9.15,9.52,9.06h1c10.73-.28,10.18,1.12,9-6.82-3.08-19.95-6.51-39.85-9.86-59.76-1.26-7.49-2.09-8.11-9.65-8.11-2,0-4,.14-6,0-4.9-.27-8.07,1.48-10.26,6.27-9.75,21.4-20,42.57-28.94,64.34C12.76,164.74,13.7,165.39,16.85,165.57ZM45.3,132.51a85,85,0,0,1,7.19-18c1.38-2.27,2.3-1.32,2.61.55a34.5,34.5,0,0,1,.09,5.29c.34,2.61.78,5.22,1,7.84.66,7.66-1.8,9.63-9.53,8C43.86,135.65,44.9,134,45.3,132.51Z"/><path class="cls-1" d="M55.19,120.39c-.09-.14-.16-.29-.24-.44A2.34,2.34,0,0,0,55.19,120.39Z"/><path class="cls-1" d="M169,110.75c-6.9-.85-13.78-2.24-20.77-1.63-7.5.65-14.66,2.27-20.32,7.87-9.37,9.28-11.16,20.86-9.34,33,1.7,11.34,9,17.14,20.5,17.83a52.23,52.23,0,0,0,11.91-.64c3.23-1.2,6.44-2.47,10-2,3-.71,6.25-.94,7-5.06,2.61-14.36,4.14-28.85,5.69-43.34C174.06,113.17,172.72,111.2,169,110.75Zm-13.93,17.83c-.54,6.79-2.31,13.33-3.79,19.94-.86,3.83-4.08,2.48-6.39,2.94-5,.68-7.07-2.08-7.57-6.48-.68-6,.27-11.76,3.86-16.75,2.74-3.8,6.82-4.34,11.16-3.63C154.58,125,155.23,126.48,155.06,128.58Z"/><path class="cls-1" d="M104.06,78.33c4.31-2.22,9.16-2.63,14,.7a65.08,65.08,0,0,0,1.72-6.65q2.22-15,4.21-30c.24-1.8.66-3.09,2.54-3.77,5.75-2.08,10.94.63,11.77,6.69,1.29,9.34-1.05,18.43-2.43,27.57-.29,2-1.35,4.8-.46,5.75,3.62,3.87,8.64,1.33,13.05,1.87,2.12.26,4.73.23,5-2.69,1.27-11.84,4.42-23.56,2.91-35.59-1-8-4.4-14.38-12.74-17.24-6.54-2.25-13.16-1.66-19.7-.86-14.47,1.76-15.18.59-17.48,16-1.8,12.09-3.65,24.16-5.45,36.24C100.69,78.91,100.65,80.1,104.06,78.33Z"/><path class="cls-2" d="M0,219.25c4.48,3.22,8.18,4.81,11.65,6.82,5,2.87,9.77,2.63,15.22,1.27,18.11-4.55,36.36-8.56,54.75-11.87,8.28-1.49,16.6-2.78,24.89-4.24,22.87-4,45.92-6.82,69-8.93,20.64-1.88,41.27-4,61.93-5C157.69,192.94,79.22,201.76,0,219.25Z"/><path class="cls-3" d="M28.68,80.86c6,1,11.93.38,18.21.46L54,81c11.48-.52,11.35-.53,12.67-11.9.42-3.59-.86-5-4.17-5-5-.1-10-.15-14.94-.23C33.92,63.57,34,63.57,35.92,50,37.77,37,39.43,24,41.31,11.07c.52-3.58-.34-5.4-4.3-5.18-3.48.2-7,.1-10.46,0-2.59-.06-3.89,1-4.29,3.66C19.51,27.94,17,46.35,15.48,64.84,14.72,73.89,19.61,79.29,28.68,80.86Z"/><path class="cls-3" d="M94.24,119.21q-2.52,19.23-5.34,38.43c-1,6.84-3.89,13-10.69,15.48-5.75,2.15-5.62,5.44-3.65,9.93a8.48,8.48,0,0,1,.77,2.36c.47,4.12,2.88,4.48,6.36,3.7C95.57,186,103.46,176.82,106,163.46c2.87-15.3,4.66-30.81,6.75-46.25,1-7.15.78-7.18-8.38-7.22C95.35,109.94,95.45,110,94.24,119.21Z"/><path class="cls-1" d="M172.53,81.65c.63-.05,2.12-.25,3.6-.28,3.8-.08,5.47-1.44,6.15-5.73,3.21-20.14,5.41-40.41,8.33-60.58,1.8-12.39,1.84-12.18-10.55-12.45-4.39-.1-6.1,1.21-6.67,5.59-2.82,21.87-5.91,43.7-8.89,65.54C163.44,81.5,163.76,81.84,172.53,81.65Z"/><path class="cls-2" d="M190,52.16c3.35,9.28,8.19,17.89,11.91,27,4.94,12.09,4.94,12,18.24,11.64,4.48-.11,5.05-1.5,3.28-5.36-4.86-10.56-9.4-21.26-14.2-31.85-1.4-3.09-1.19-5.43,1.31-8,3.65-3.71,7-7.74,10.27-11.8,1.88-2.33,6.3-4.29,5.05-7s-5.72-.43-9.06-1.26c-3.29,1.28-7.62-1.81-10.83,2.18C201,33.83,196,40,190.79,45.9,188.87,48.07,189.12,49.77,190,52.16Z"/><path class="cls-3" d="M74.75,80.59c3.48-.06,7-.08,10.43,0,2.65.06,3.74-1.16,4.15-3.76C91.53,63,94,49.12,96.12,35.24c1.45-9.73,1.22-9.77-8.52-9.8a44.4,44.4,0,0,1-4.47,0c-3.55-.36-5.19,1.37-5.61,4.71q-2.94,23.37-6,46.75C71.24,79.45,72.13,80.63,74.75,80.59Z"/><path class="cls-2" d="M197.12,101.14a33.65,33.65,0,0,1-3.48,0c-4.49-.47-5.93,1.52-6.21,6-.63,10.4-1.85,20.77-2.91,31.14-1,10.15-2.51,9.19,8.95,9.2,2.84,0,4.13-1.08,4.67-3.87,2.14-11.21,4.57-22.35,6.65-33.56C206.45,101.1,206.29,101.07,197.12,101.14Z"/><path class="cls-4" d="M88.21,19.57c6.38,0,11.86-5.29,11.84-11.44A7.77,7.77,0,0,0,92,0,11.86,11.86,0,0,0,80.22,11.56C80.25,16.66,83.15,19.57,88.21,19.57Z"/><path class="cls-5" d="M185.89,155.28l-6.82,6.14c-.73,4.14-1.54,8.32,2.93,11.09,3.76,2.34,7.34,2,11.17-.17,4-2.26,6.25-5.27,5.91-10C198.66,156.41,194.14,154,185.89,155.28Z"/><path class="cls-6" d="M105.43,104.35a12.16,12.16,0,0,0,11.68-11.79c0-4.81-3-7.7-7.81-7.64C102.66,85,97,90.39,97,96.71,97,101.43,100.24,104.36,105.43,104.35Z"/><path class="cls-7" d="M185.89,155.28c-3.95.18-5.91,2.57-6.82,6.14A12.92,12.92,0,0,1,185.89,155.28Z"/><path class="cls-7" d="M179.07,161.42l6.82-6.14A12.92,12.92,0,0,0,179.07,161.42Z"/><path class="cls-8" d="M161,165.25c-3.2,1.38-6.74,1-10,2C154.47,167.38,158,167.66,161,165.25Z"/><path class="cls-8" d="M151,167.21c3.27-1,6.81-.58,10-2C157.41,164.74,154.2,166,151,167.21Z"/><path class="cls-9" d="M55,120c.08.15.15.3.24.44a34.5,34.5,0,0,0-.09-5.29c-.31-1.87-1.23-2.82-2.61-.55C55.93,115.14,54.21,118.12,55,120Z"/><path class="cls-9" d="M55,120c-.74-1.83,1-4.81-2.46-5.4C54.26,115.91,54.05,118.19,55,120Z"/></g></g></svg>