<svg xmlns="http://www.w3.org/2000/svg" viewBox="0 0 359.31 97.9"><defs><style>.cls-1{fill:none;}.cls-2{fill:#6fbaf7;}.cls-3{fill:#d0e4ec;}.cls-4{fill:#a9dbfa;}.cls-5{fill:#a0b5be;}.cls-6{fill:#eef5e7;}.cls-7{fill:#24a6ee;}.cls-8{fill:#649dc4;}.cls-9{fill:#268ec7;}.cls-10{fill:#6db8ee;}.cls-11{fill:#55b9f0;}.cls-12{fill:#8fcdf8;}.cls-13{fill:#72b0e2;}.cls-14{fill:#78c9f2;}.cls-15{fill:#fdea77;}.cls-16{fill:#fdc405;}.cls-17{fill:#2da4e6;}.cls-18{fill:#2da4e5;}.cls-19{fill:#2ca6e7;}.cls-20{fill:#fdc403;}.cls-21{fill:#fdc708;}.cls-22{fill:#fec200;}.cls-23{fill:#37aae9;}.cls-24{fill:#30a7e9;}.cls-25{fill:#3face4;}.cls-26{fill:#2da5e7;}.cls-27{fill:#ecb804;}.cls-28{fill:#f3d875;}.cls-29{fill:#f7da6c;}.cls-30{fill:#f6c20a;}.cls-31{fill:#f4c623;}.cls-32{fill:#cfa40e;}.cls-33{fill:#f3c30d;}.cls-34{fill:#f3bf02;}.cls-35{fill:#f9e17a;}.cls-36{fill:#f6c618;}.cls-37{fill:#d4a606;}.cls-38{fill:#e3b50a;}</style></defs><g id="Layer_2" data-name="Layer 2"><g id="Layer_1-2" data-name="Layer 1"><path class="cls-1" d="M19.08,8.42c0,.06,0,.13,0,.19l.17-.11Z"/><path class="cls-1" d="M4.41,70l0,.08h0l.09.1c0-.06,0-.12,0-.18Z"/><path class="cls-2" d="M29.38,12.25C26,17.79,21.55,22.72,19.48,29h0a108.91,108.91,0,0,1,16.93,11h0l5.81.24h0c4.9-1.32,8.88-3.64,10-9.09h0l.18-3.05c.13.57.23,1.14.33,1.71a3.44,3.44,0,0,0-.33-1.71l-.27-1h0c-7.39-5.29-14.24-11.4-22.78-14.94Z"/><path class="cls-3" d="M5.41,47.12c3.25-7.71,9.86-7.33,16.57-7,4.39.19,8.81,0,13.21,0A117.23,117.23,0,0,1,19.05,29.24c0-.13,0-.25.06-.38L9.4,24.17l-5-.94h0a7.62,7.62,0,0,0-2.05,4.22C.52,34.73,1.69,42.17.74,49.53,0,55.18-.74,61.27,1.45,67c.32-5.56-.1-11.15.81-16.71C2.61,48.15,3,46.85,5.41,47.12Z"/><path class="cls-3" d="M19.11,28.86c0,.13-.05.25-.06.38A117.23,117.23,0,0,0,35.19,40.07l1.22,0h0A108.91,108.91,0,0,0,19.48,29h0Z"/><path class="cls-4" d="M52.28,15.21v10.2C45.05,20,38.47,15.19,31.35,11.2h0L25.43,8.12h0L11.71,2.6,12,1.23H29.35l2.09-.13h0C23.34-.74,15.13.14,7,.79,3.19,1.1.5,3.65,1.35,8.56c.59,3.37.14,6.91.12,10.37,0,2.11.16,4.06,2.89,4.3h0c1.69-1.41,3.34-.3,5,.06l.17.07c.66-2.62,3.8-3.31,4.89-5.65.83-1.77,2.58-3.3,2.87-5.11.34-2.14,1-3.39,1.81-4,0-.06,0-.13,0-.19l.19.08c1.29-.74,3.08-.1,5.25,1.26A47.26,47.26,0,0,0,28.94,12l.25-.29c.47-.14,1-.36,1.44-.15,8,4.11,15.94,8.2,21.53,15.59h0A14.48,14.48,0,0,0,52.28,15.21Z"/><path class="cls-4" d="M30.63,11.6c-.4-.21-1,0-1.44.15l-.25.29.44.21h0c8.54,3.54,15.39,9.65,22.78,14.94C46.57,19.8,38.59,15.71,30.63,11.6Z"/><path class="cls-4" d="M9.53,23.36l-.17-.07c-1.66-.36-3.31-1.47-5-.06l5,.94A5.08,5.08,0,0,1,9.53,23.36Z"/><path class="cls-5" d="M52.25,33.11V55.94l-5.83-4.67c-2.35,4.65-.56,9.63-1.12,14.42C44.85,69.57,46.74,74,44,77.21a7,7,0,0,0-1.68,6.91h0c2,3.4,5.21,3.19,8.23,2.4s2.6-3.79,2.6-6.23c0-10,.23-20,0-30-.14-6.79.76-13.63-.39-20.39a8.87,8.87,0,0,1-.16,1.35C52.48,31.91,52.37,32.53,52.25,33.11Z"/><path class="cls-5" d="M52.25,31.2h0v1.91c.12-.58.23-1.2.35-1.9a8.87,8.87,0,0,0,.16-1.35c-.1-.57-.2-1.14-.33-1.71Z"/><path class="cls-6" d="M42.27,41a11.72,11.72,0,0,1-5.43,0l-.9-.51c-1.3,1.08-3,.92-4.55,1-2.94.07-5.9.16-8.84,0-6.42-.34-12.74-.58-16.34,6.23.5.33,1,.66,1,1,.22,6.89.44,13.8.27,20.69,0,2.28-1.91.46-3,.6,0,.06,0,.12,0,.18C6.08,71.87,7.89,73.24,8.22,76c.47,4,4.71,3.39,7.23,4.91,7.57-1.91,15.28-.73,22.92-1a2.2,2.2,0,0,1,2.34,1.51,3.87,3.87,0,0,1,1-3.46c2-2.34,2.19-5,2.17-7.91,0-4.63-.06-9.26,0-13.89,0-1.94-.28-4.06,1.76-5.36a2.72,2.72,0,0,1,.49,0c-1.34-3.22-.35-7.32-3.27-9.94Zm.84,25.86c0,.74,0,1.47,0,2.21h0c-.13,2.78,1,5.84-1.72,8.07C33.75,78.28,26.06,78.7,18.38,77h0l-1.12-.17h0c-2.56,1.88-4.88,2-6.75-1-.37-.51-1-1-1-1.53q-.08-14.55,0-29.12c0-.41.49-.81.75-1.22h0c1.45-2.51,3.86-1.73,6-1.74h0l2.27.13h0l6.66,0h2.26l5.82-.09c2.12-.06,4.25-.19,6.37-.18s3.54.71,3.48,3.11h0c0,1,0,1.91.08,2.86,0,1.71,0,3.42-.08,5.13l0,13.71Z"/><path class="cls-6" d="M41.05,82.39a4,4,0,0,0,1.31,2.36h0a2.68,2.68,0,0,0,0-.63h0A6.57,6.57,0,0,1,41.05,82.39Z"/><path class="cls-6" d="M10.39,66h0a2.63,2.63,0,0,0,.86-.48,6.64,6.64,0,0,1-.86-.45V66Z"/><path class="cls-6" d="M36.84,41a11.72,11.72,0,0,0,5.43,0l.67-.16a7,7,0,0,0-.71-.56h0l-5.81-.24a4,4,0,0,1-.47.45Z"/><path class="cls-6" d="M22.55,41.45c2.94.16,5.9.07,8.84,0,1.59,0,3.25.13,4.55-1l-.75-.43c-4.4,0-8.82.19-13.21,0-6.71-.28-13.32-.66-16.57,7a7.46,7.46,0,0,0,.8.56C9.81,40.87,16.13,41.11,22.55,41.45Z"/><path class="cls-6" d="M35.19,40.07l.75.43a4,4,0,0,0,.47-.45h0Z"/><path class="cls-6" d="M44,77.21c2.75-3.17.86-7.64,1.31-11.52.56-4.79-1.23-9.77,1.12-14.42-.08-.16-.14-.32-.21-.48a2.72,2.72,0,0,0-.49,0c-2,1.3-1.73,3.42-1.76,5.36-.09,4.63-.06,9.26,0,13.89,0,2.86-.13,5.57-2.17,7.91a3.87,3.87,0,0,0-1,3.46,9.9,9.9,0,0,1,.34,1,6.57,6.57,0,0,0,1.26,1.73h0"/><path class="cls-7" d="M31.8,10.06l.21.1a131.74,131.74,0,0,1,18.81,13c.93-2.38-.77-5.56,1.46-7.9a68.86,68.86,0,0,0-12.87-13C34.43,2.61,33.19,6.41,31.8,10.06Z"/><path class="cls-7" d="M50.82,23.11A131.74,131.74,0,0,0,32,10.16l-.21-.1-.45,1.14c7.12,4,13.7,8.81,20.93,14.21V15.21C50.05,17.55,51.75,20.73,50.82,23.11Z"/><polygon class="cls-8" points="42.28 85.97 42.28 85.97 42.27 85.97 42.28 85.97"/><path class="cls-8" d="M16.13,81.65l-.34,0a7,7,0,0,0,.76,1.44c.48.67,2.13.57,1.42,2-.54,1.1-1.7.78-2.64.79-4.27,0-8.54,0-12.8,0,6,1.61,11.94,1.16,17.92.09H42.28c0-.41,0-.81.08-1.22h0C34.18,78.94,24.94,82.1,16.13,81.65Z"/><path class="cls-8" d="M41.05,82.39a3.79,3.79,0,0,1-.34-1,2.2,2.2,0,0,0-2.34-1.51c-7.64.24-15.35-.94-22.92,1,.12.24.23.49.34.74l.34,0c8.81.45,18.05-2.71,26.23,3.1A4,4,0,0,1,41.05,82.39Z"/><path class="cls-8" d="M40.71,81.43a3.79,3.79,0,0,0,.34,1A9.9,9.9,0,0,0,40.71,81.43Z"/><path class="cls-9" d="M17,84.22c.49.42.37-.57.17-.56-1.87.15-2.06-.84-1.86-2.06C8.41,81.09,6.1,76,4.53,70.16l-.09-.1c-1.84-.62-3-.67-2.94,2,.17,4.29,0,8.59-.08,12.89l1.1.94h0C7.09,83.18,12.25,85.61,17,84.22Z"/><path class="cls-9" d="M8.22,76c-.33-2.74-2.14-4.11-3.69-5.82C6.1,76,8.41,81.09,15.3,81.6c0-.23.09-.47.15-.71C12.93,79.37,8.69,80,8.22,76Z"/><path class="cls-9" d="M18,85.07c.71-1.43-.94-1.33-1.42-2a7,7,0,0,1-.76-1.44c-.17,0-.33,0-.49,0-.2,1.22,0,2.21,1.86,2.06.2,0,.32,1-.17.56-4.74,1.39-9.9-1-14.47,1.67h0c4.26,0,8.53,0,12.8,0C16.27,85.85,17.43,86.17,18,85.07Z"/><path class="cls-9" d="M15.79,81.63c-.11-.25-.22-.5-.34-.74-.06.24-.11.48-.15.71C15.46,81.61,15.62,81.63,15.79,81.63Z"/><polygon class="cls-10" points="4.45 70.07 4.45 70.07 4.45 70.07 4.45 70.07"/><path class="cls-10" d="M4.41,70h.07a6.11,6.11,0,0,0,1.59-4.54c-.14-5.7.29-11.41-.49-17.09-2.89,2.94-2.34,6.89-2.71,10.56-.28,2.74.7,5.69-1.42,8.1h0a2.13,2.13,0,0,1,.08,1A3.23,3.23,0,0,1,4.41,70Z"/><path class="cls-10" d="M2.87,58.91c.37-3.67-.18-7.62,2.71-10.56,0-.41-.1-.82-.17-1.23-2.42-.27-2.8,1-3.15,3.18C1.35,55.86,1.77,61.45,1.45,67h0C3.57,64.6,2.59,61.65,2.87,58.91Z"/><path class="cls-10" d="M7.46,69.38c.17-6.89,0-13.8-.27-20.69,0-.35-.48-.68-1-1l-.1.17c-.19.16-.36.33-.53.5.78,5.68.35,11.39.49,17.09A6.11,6.11,0,0,1,4.48,70h0C5.55,69.84,7.41,71.66,7.46,69.38Z"/><path class="cls-10" d="M6.21,47.68a7.46,7.46,0,0,1-.8-.56c.07.41.12.82.17,1.23.17-.17.34-.34.53-.5Z"/><path class="cls-11" d="M29.65,2.28l-.72.05C27.91,4,25.45,4.8,25.3,6.94l.26.12c1.94.85,3.82,1.84,5.74,2.76.06-4.86,3.23-7.94,8.11-7.66C37-.14,34,2,31.44,1.1h0A2.73,2.73,0,0,1,29.65,2.28Z"/><path class="cls-11" d="M28.93,2.33l.72-.05A2.73,2.73,0,0,0,31.44,1.1l-2.09.13A2.71,2.71,0,0,1,28.93,2.33Z"/><path class="cls-11" d="M31.3,9.82c-1.92-.92-3.8-1.91-5.74-2.76l-.26-.12a3.38,3.38,0,0,0,.13,1.18h0l5.92,3.08h0A10.8,10.8,0,0,1,31.3,9.82Z"/><path class="cls-11" d="M31.3,9.82l.5.24c1.39-3.65,2.63-7.45,7.61-7.9C34.53,1.88,31.36,5,31.3,9.82Z"/><path class="cls-11" d="M31.3,9.82a10.8,10.8,0,0,0,.05,1.38h0l.45-1.14Z"/><polygon class="cls-5" points="42.28 85.97 42.28 85.97 42.28 85.97 42.28 85.97"/><path class="cls-5" d="M20.45,86a53.12,53.12,0,0,0,21.82,0A105.39,105.39,0,0,1,20.45,86Z"/><path class="cls-5" d="M42.27,86H20.45A105.39,105.39,0,0,0,42.27,86Z"/><path class="cls-6" d="M1,70.91c-.08-1.78.69-2.28,1.9-1.92a4.92,4.92,0,0,1-1.35-1,29.28,29.28,0,0,0-.11,17h0C.37,80.3,1.19,75.59,1,70.91Z"/><path class="cls-6" d="M4.45,70.07s0,0,0,0l0,0Z"/><path class="cls-6" d="M4.45,70.07l0-.08h0Z"/><path class="cls-6" d="M1.5,72.06c-.1-2.67,1.1-2.62,2.94-2l0,0a6.36,6.36,0,0,0-1.53-1c-1.21-.36-2,.14-1.9,1.92.21,4.68-.61,9.39.44,14h0C1.47,80.65,1.67,76.35,1.5,72.06Z"/><polygon class="cls-6" points="4.38 70 4.38 70 4.38 70 4.38 70"/><path class="cls-6" d="M4.45,70.07,4.38,70l0,0s0,0,0,0Z"/><path class="cls-6" d="M3.77,69.35c.21.21.41.43.61.65h0a3.23,3.23,0,0,0-2.88-2,4.92,4.92,0,0,0,1.35,1A4.49,4.49,0,0,1,3.77,69.35Z"/><path class="cls-6" d="M4.38,70h0c-.2-.22-.4-.44-.61-.65A4.49,4.49,0,0,0,2.88,69a6.36,6.36,0,0,1,1.53,1l0,0Z"/><path class="cls-12" d="M10.1,23.6c3.22,1.31,6.72,2.12,9,5,1-6.72,5.29-11.52,9.58-16.33-3.71,0-6.41-2.44-9.45-3.78l-.17.11C19.5,13.31,16.57,18.28,10.1,23.6Z"/><path class="cls-12" d="M19.14,28.61c.12.14.23.28.34.43,2.07-6.32,6.5-11.25,9.9-16.79a4.86,4.86,0,0,1-.66,0C24.43,17.09,20.12,21.89,19.14,28.61Z"/><path class="cls-12" d="M10.1,23.6l-.7.57,9.71,4.69,0-.25C16.82,25.72,13.32,24.91,10.1,23.6Z"/><path class="cls-12" d="M19.11,28.86l.37.18h0c-.11-.15-.22-.29-.34-.43Z"/><path class="cls-12" d="M19.1,8.61c-.85.6-1.47,1.85-1.81,4-.29,1.81-2,3.34-2.87,5.11-1.09,2.34-4.23,3-4.89,5.65.19.08.38.17.57.24C16.57,18.28,19.5,13.31,19.1,8.61Z"/><path class="cls-12" d="M28.72,12.28l.22-.24a47.26,47.26,0,0,1-4.42-2.28c-2.17-1.36-4-2-5.25-1.26C22.31,9.84,25,12.32,28.72,12.28Z"/><path class="cls-12" d="M29.38,12.25h0L28.94,12l-.22.24A4.86,4.86,0,0,0,29.38,12.25Z"/><path class="cls-12" d="M10.1,23.6c-.19-.07-.38-.16-.57-.24a5.08,5.08,0,0,0-.13.81Z"/><path class="cls-13" d="M46.5,50.78c1.93.12,3.19,1.72,4.69,2.52a81.35,81.35,0,0,1,.09-17c-1.18,2.47-3.27,3.38-8.14,4.53C46.52,42.87,47.36,45.45,46.5,50.78Z"/><path class="cls-13" d="M51.28,36.28a45.42,45.42,0,0,1,1-5.08c-1.15,5.45-5.13,7.77-10,9.09h0c.32.17.62.34.91.52C48,39.66,50.1,38.75,51.28,36.28Z"/><path class="cls-13" d="M51.19,53.3c-1.5-.8-2.76-2.4-4.69-2.52,0,.17,0,.32-.08.49l5.83,4.67V33.11a14.25,14.25,0,0,1-1,3.17A81.35,81.35,0,0,0,51.19,53.3Z"/><path class="cls-13" d="M52.25,33.11V31.2h0a45.42,45.42,0,0,0-1,5.08A14.25,14.25,0,0,0,52.25,33.11Z"/><path class="cls-13" d="M43.14,40.81l-.2,0c2.92,2.62,1.93,6.72,3.27,9.94h.29C47.36,45.45,46.52,42.87,43.14,40.81Z"/><path class="cls-13" d="M42.94,40.85l.2,0c-.29-.18-.59-.35-.91-.52A7,7,0,0,1,42.94,40.85Z"/><path class="cls-13" d="M46.21,50.79c.07.16.13.32.21.48,0-.17,0-.32.08-.49Z"/><path class="cls-14" d="M27.74,2.42c-4,.19-8.11-.09-12.08.75a66.3,66.3,0,0,1,9.23,3.57C24.31,4.43,26.07,3.45,27.74,2.42Z"/><path class="cls-14" d="M15.66,3.17c4-.84,8-.56,12.08-.75a9.46,9.46,0,0,0,1.61-1.19H12L11.71,2.6,25.43,8.12h0a5.82,5.82,0,0,1-.54-1.38A66.3,66.3,0,0,0,15.66,3.17Z"/><path class="cls-14" d="M24.89,6.74l.41.2c.15-2.14,2.61-3,3.63-4.61l-1.19.09C26.07,3.45,24.31,4.43,24.89,6.74Z"/><path class="cls-14" d="M24.89,6.74a5.82,5.82,0,0,0,.54,1.38,3.38,3.38,0,0,1-.13-1.18Z"/><path class="cls-14" d="M28.93,2.33a2.71,2.71,0,0,0,.42-1.1,9.46,9.46,0,0,1-1.61,1.19Z"/><path class="cls-15" d="M354.41,59.1c2.5-1.68,3.95-1.47,3.93,2q-.09,10.93,0,21.86c0,3.6-1.61,3.45-4,2,.54,3.43,3.26,1.47,5,2V57.05C357.57,57.48,354.85,55.56,354.41,59.1Z"/><path class="cls-16" d="M256,60.57C251.2,56.34,245,56,238.35,59.41c-.79.41-2,2.69-2.83-.08-.45-1.53-1.46-2.27-3-1.87-1.71.45-1.52,2-1.52,3.28q0,16.93,0,33.87c0,1.69-.18,3.42,2.44,3.28,2.29-.13,2.07-1.71,2.08-3.19,0-3.59,0-7.19,0-11.39,2.06,1.1,3.45,1.94,4.91,2.61a14.44,14.44,0,0,0,19.31-8C262.09,71.45,260.63,64.73,256,60.57Zm-10,22.25c-6.06-.13-10.4-4.82-10.25-11.08s4.54-10.57,10.81-10.38c6.06.18,10,4.46,9.94,10.7C256.32,78.6,252.07,83,245.92,82.82Z"/><path class="cls-17" d="M110.42,68.3a10.54,10.54,0,0,0-6.78-10.13c-4.43-1.92-8.88-1.69-12.62,1.54-2.07,1.78-3.39,2.71-5.53.11-1.9-2.32-4.89-2.51-7.75-2.79-3.67-.35-6.81,3.55-10.87,1-1.09-.67-1.41,1.39-1.42,2.53,0,3.82,0,7.64,0,11.46,0,3.65,0,7.31,0,11,0,1.47-.2,3.23,2.09,3.15s1.92-1.88,1.94-3.3c.06-4.65-.14-9.31.12-14,.29-5.09,3.54-7.93,8.45-7.86,4.73.07,7.83,3.21,8,8.32.12,4.15-.07,8.31.09,12.45.06,1.58-1,4.17,1.88,4.28s2-2.49,2.06-4.09c.13-4,0-8,.08-12,.12-5.68,2.86-8.81,7.78-9,5.18-.24,8.37,2.79,8.69,8.64.24,4.31.06,8.64.17,12.95,0,1.52-.53,3.7,2.17,3.54,2.25-.13,1.82-2,1.8-3.4C110.68,77.92,110.51,73.11,110.42,68.3Z"/><path class="cls-18" d="M151.3,61.29c0-4.73,0-8.65,0-12.58,0-1.21-.17-2.41-1.77-2.44s-1.81,1.15-1.81,2.37q0,17.63,0,35.26c0,.8,0,1.7,1,2,.83.29,1.91.37,2.12-.53.86-3.75,2.5-1.58,4.09-.69,5.91,3.31,13,2.63,17.53-1.62s5.84-12.15,3-17.95C171.4,56.54,161.87,54.73,151.3,61.29Zm21.57,11.65c-.39,6.36-4.82,10.25-11.24,9.89-6.15-.34-10.39-5.4-9.95-11.85.42-6.06,5.16-10.15,11.43-9.87S173.3,66.08,172.87,72.94Z"/><path class="cls-19" d="M218,58.08c-7.16-2.32-14.4,0-18,5.71-3.72,5.89-2.91,14.06,1.86,18.83,5,5,13.19,5.63,19.71,1.44,1.38-.89,3.91-1.71,2.6-3.92-1.48-2.52-3.06-.17-4.48.65-6.19,3.57-13.8,2.07-16.62-3.27-1.19-2.23-1.33-3.76,2-3.63,3,.13,6,0,9,0v0c3.32,0,6.63-.07,9.94,0,2.14.07,2.83-.85,3-2.93A12.91,12.91,0,0,0,218,58.08Zm1.61,12.09c-2.47-.11-5,0-7.45,0-2,0-4,.12-6,0-1.35-.11-3.31.92-3.89-1-.45-1.43.72-2.81,1.62-4,4.65-6.06,15-5.46,18,1.05C223.13,68.65,223.05,70.34,219.6,70.17Z"/><path class="cls-20" d="M356.94,80.15q0-8.1,0-16.22c0-2.06-.27-4-2.53-4.83-.92,2.59-2,.48-2.91,0-7.18-3.62-14.61-2.31-19.24,3.48-4.26,5.33-4.28,13.76-.05,18.9,4.74,5.75,12.26,7,19.26,3.36.83-.43,2-2.51,2.87.07h0C356.6,84.1,356.94,82.24,356.94,80.15Zm-13.17,2.48A10.67,10.67,0,0,1,344,61.3a10.42,10.42,0,0,1,10.55,10.83C354.45,78.45,350.13,82.66,343.77,82.63Z"/><path class="cls-20" d="M358.34,83q-.09-10.94,0-21.86c0-3.46-1.43-3.67-3.93-2,2.26.87,2.53,2.77,2.53,4.83q0,8.12,0,16.22c0,2.09-.34,3.95-2.6,4.79h0C356.73,86.4,358.37,86.55,358.34,83Z"/><path class="cls-21" d="M288.78,57.46c-3-.14-2.51,2.46-2.56,4.38-.12,4.47.16,9-.34,13.41-.54,4.92-4.55,7.68-9.59,7.3s-7.67-3.11-7.78-8.4c-.09-4.48,0-9,0-13.44,0-1.76-.09-3.48-2.5-3.4-2.1.07-2.21,1.62-2.21,3.19,0,4.81-.2,9.64.08,14.43a13.06,13.06,0,0,0,17.6,11.44c2.13-.73,3.82-2.57,6.41-.11,1.4,1.33,2.83-.51,2.8-2.58,0-3.82,0-7.64,0-11.45,0-3.49.11-7,0-10.45C290.52,60.19,291.65,57.6,288.78,57.46Z"/><path class="cls-16" d="M320.07,70.52c-2.85-.83-5.84-1.17-8.73-1.85-1.86-.44-3.6-1.35-3.45-3.6s1.92-3,3.76-3.41a13.28,13.28,0,0,1,10.1,1.2c1.39.8,2.71,1.53,3.74-.35,1.12-2-.75-2.67-1.91-3.32a16.66,16.66,0,0,0-13.42-1.47c-4.06,1.21-6.83,3.36-6.77,8s3.32,6.21,7,7.2c3,.83,6.18,1.2,9.23,1.93,1.86.44,3.56,1.42,3.39,3.65-.16,2-1.63,3.13-3.55,3.67a13,13,0,0,1-12.59-2.54c-1.41-1.19-2.54-1.48-3.75,0s-.05,2.46.92,3.34c3.22,2.95,7.09,4.11,11.78,4a20.55,20.55,0,0,0,3.09-.22c4.32-.9,8-2.73,8.49-7.71C328,73.73,324.26,71.75,320.07,70.52Z"/><path class="cls-22" d="M299.39,66.53h0c0-5.64,0-11.28,0-16.93,0-1.63.28-3.53-2.29-3.49s-2.35,1.85-2.35,3.53q0,16.68,0,33.35c0,1.65-.18,3.57,2.33,3.52s2.31-1.83,2.3-3.56C299.37,77.48,299.39,72,299.39,66.53Z"/><path class="cls-23" d="M192.35,46.26c-2.15-.13-2.28,1.46-2.28,3,0,11.24,0,22.48,0,33.72,0,1.45,0,3.24,2.14,3.19s1.85-1.93,1.87-3.32c0-5.62,0-11.24,0-16.86,0-5.45,0-10.91,0-16.36C194.09,48.3,194.67,46.39,192.35,46.26Z"/><path class="cls-24" d="M185.07,60.76c0-1.39.43-3.24-1.93-3.25-2.15,0-2.21,1.55-2.21,3.12q0,11.43,0,22.87c0,1.63.23,3.06,2.32,3s1.82-1.59,1.83-2.88c0-3.81,0-7.62,0-11.44S185.13,64.57,185.07,60.76Z"/><path class="cls-25" d="M183,46.44a2.68,2.68,0,0,0-2.67,3,2.52,2.52,0,0,0,2.9,2.63c1.77-.12,2.62-1.17,2.67-3.21C185.52,47.55,184.85,46.25,183,46.44Z"/><path class="cls-26" d="M129.19,57.14c-8.51-.06-14.85,6.44-14.84,15.21a14.36,14.36,0,0,0,14.51,14.43c9,0,15.24-6.19,15.08-14.86S137.62,57.19,129.19,57.14Zm0,25.62a10.83,10.83,0,1,1,0-21.66A10.38,10.38,0,0,1,140,71.66C140.05,78.15,135.56,82.76,129.17,82.76Z"/><path class="cls-27" d="M22.33,53.1c-4.53.18-6.51-1.24-5.87-5.91a28.3,28.3,0,0,0-.18-4.94h0c-2.18,0-4.59-.77-6,1.74h0l.15,21.11a6.64,6.64,0,0,0,.86.45c.91-.83.26-2.07.23-3.23,0-1.75-.66-3.65.71-5.23,4.52-2.05,9.31-1,14-.91,2.62,0,3.17,3.77.92,5.68a23.67,23.67,0,0,1-3.68,2.19c-.15,1.51,1.27,1.93,2,2.84h0l17.76,0,0-13.71C36.2,53.11,29.26,52.82,22.33,53.1Z"/><path class="cls-28" d="M40.36,68a9.33,9.33,0,0,1,2.8,1.1h0c0-.74,0-1.47,0-2.21h0A13,13,0,0,1,40.36,68Z"/><path class="cls-28" d="M36.45,75.54c-.53-2.13-1.13-4.92.41-6.58a3,3,0,0,1,.51-.44,28.85,28.85,0,0,1-4.26,0c1.35.79,1.23,2.46,1.27,4.33,0,2.65-.2,4.39-3.64,4.33s-3.74-1.91-3.38-4c-.1-2.46-.28-4.39,1.95-5-1.09-.09-2.17-.15-3.24-.15a6.64,6.64,0,0,1-2.25-1.2c-4.49,0-9,1-13.43-.82h0V65.1l-.47-.28c.2-6.95-.38-13.9.32-20.83-.26.41-.75.81-.75,1.22q-.09,14.57,0,29.12c0,.51.68,1,1,1.53.61-2.32-2.13-5.8,2.18-6.83,2.62-.62,4,.88,4.26,3.39.16,1.46.21,2.93.31,4.4l1.12.17h0c.05-2,.11-3.93.13-5.89s1.16-2.91,3.11-2.93,3.44.36,3.82,2.78c.87,5.45,0,6.24-7.06,6h0c7.68,1.71,15.37,1.29,23.06.16C39.73,76.65,37.11,78.18,36.45,75.54Z"/><polygon class="cls-28" points="18.38 76.99 18.38 76.99 18.38 76.99 18.39 76.99 18.38 76.99"/><polygon class="cls-28" points="18.38 76.99 18.38 76.99 18.38 76.99 18.38 76.99"/><polygon class="cls-28" points="18.38 76.99 18.38 76.99 18.38 76.99 18.38 76.99"/><path class="cls-28" d="M9.92,64.82l.47.28L10.24,44h0C9.54,50.92,10.12,57.87,9.92,64.82Z"/><path class="cls-28" d="M25.35,66.89h0c-.51,0-1,0-1.53,0a6.64,6.64,0,0,0,2.25,1.2c1.07,0,2.15.06,3.24.15A5.81,5.81,0,0,1,30.68,68a4.57,4.57,0,0,1,2.43.48,28.85,28.85,0,0,0,4.26,0,3.76,3.76,0,0,1,3-.54,13,13,0,0,0,2.75-1.11h0l-17.76,0Z"/><path class="cls-29" d="M17.74,46.8c-.36,4.18,1.93,5,5.48,4.91,4.78-.17,9.58-.08,14.37,0,2,0,4-.19,5.55,1.47,0-1.71,0-3.42.08-5.13-.93,2.86-3.07,4.08-5.62,2.77s-1.73-4.61-.87-6.15c1.94-3.44,4.33-.9,6.41.52.06-2.4-1.46-3.1-3.48-3.11s-4.25.12-6.37.18c1.3,1.75.87,3.78,1,5.74.18,2.48-1.12,3-3.31,3.06-2.38,0-3.84-.51-3.62-3.27.15-1.8.08-3.63.1-5.44H25.21c.05,1.82,0,3.64.15,5.46.19,2.76-1.36,3.25-3.71,3.27s-3.33-.92-3.2-3.23c.1-1.82.07-3.64.1-5.46l-2.27-.13h0A5.13,5.13,0,0,1,17.74,46.8Z"/><path class="cls-29" d="M16.46,47.19c-.64,4.67,1.34,6.09,5.87,5.91,6.93-.28,13.87,0,20.81.06-1.54-1.66-3.59-1.45-5.55-1.47-4.79-.06-9.59-.15-14.37,0-3.55.12-5.84-.73-5.48-4.91a5.13,5.13,0,0,0-1.46-4.55A28.3,28.3,0,0,1,16.46,47.19Z"/><path class="cls-30" d="M19.89,47.56c.25,1,.8,1.83,2,1.82s1.74-.82,2-1.86c.4-1.74-.07-3.71,1.34-5.18l-6.66,0h0C20,43.85,19.46,45.82,19.89,47.56Z"/><path class="cls-30" d="M21.65,51.07c2.35,0,3.9-.51,3.71-3.27-.12-1.82-.1-3.64-.15-5.46h0c-1.41,1.47-.94,3.44-1.34,5.18-.24,1-.77,1.85-2,1.86s-1.75-.77-2-1.82c-.43-1.74.08-3.71-1.34-5.18h0c0,1.82,0,3.64-.1,5.46C18.32,50.15,19.29,51.09,21.65,51.07Z"/><path class="cls-31" d="M28.71,46.91c.17,1.38.59,2.66,2.3,2.51s1.86-1.53,2-2.87-.39-2.92.32-4.31l-5.82.09h0C28.74,43.63,28.5,45.33,28.71,46.91Z"/><path class="cls-31" d="M27.37,47.77C27.15,50.53,28.61,51.08,31,51c2.19,0,3.49-.58,3.31-3.06-.14-2,.29-4-1-5.74-.71,1.39-.21,2.87-.32,4.31s-.26,2.73-2,2.87-2.13-1.13-2.3-2.51c-.21-1.58,0-3.28-1.24-4.58h0C27.45,44.14,27.52,46,27.37,47.77Z"/><path class="cls-32" d="M37.77,71.49c-.75,3,1.33,4.1,3.39,5.25.13.08.19.27.28.41,2.74-2.23,1.59-5.29,1.72-8.07h0C41.46,70.08,38.56,68.36,37.77,71.49Z"/><path class="cls-32" d="M37.37,68.52a3,3,0,0,0-.51.44c-1.54,1.66-.94,4.45-.41,6.58.66,2.64,3.28,1.11,5,1.61-.09-.14-.15-.33-.28-.41C39.1,75.59,37,74.5,37.77,71.49s3.69-1.41,5.39-2.41a9.33,9.33,0,0,0-2.8-1.1A16.34,16.34,0,0,1,37.37,68.52Z"/><path class="cls-32" d="M37.37,68.52a16.34,16.34,0,0,0,3-.54A3.76,3.76,0,0,0,37.37,68.52Z"/><path class="cls-33" d="M16.63,76.06c-1-1.76-.27-5-3-5.15-3-.13-1.22,3.77-3.09,5,1.87,3,4.19,2.84,6.75,1h0A2.56,2.56,0,0,1,16.63,76.06Z"/><path class="cls-33" d="M12.69,69c-4.31,1-1.57,4.51-2.18,6.83,1.87-1.18.08-5.08,3.09-5,2.76.13,2,3.39,3,5.15a2.56,2.56,0,0,0,.63.76h0c-.1-1.47-.15-2.94-.31-4.4C16.66,69.91,15.31,68.41,12.69,69Z"/><path class="cls-34" d="M41.24,45.1c-1.24-.3-2.61-.89-3.33.78A2.58,2.58,0,0,0,38.39,49c1.3,1,2.4,0,3.46-.71A1.74,1.74,0,0,1,43.22,48c0-1,0-1.9-.08-2.86h0A3.33,3.33,0,0,1,41.24,45.1Z"/><path class="cls-34" d="M36.73,44.65c-.86,1.54-1.73,4.82.87,6.15s4.69.09,5.62-2.77a1.74,1.74,0,0,0-1.37.28c-1.06.72-2.16,1.76-3.46.71a2.58,2.58,0,0,1-.48-3.14c.72-1.67,2.09-1.08,3.33-.78a3.33,3.33,0,0,0,1.9.07h0C41.06,43.75,38.67,41.21,36.73,44.65Z"/><path class="cls-35" d="M15.12,57.8c1.74.69.73,2.78,1.81,3.77,2.19.15.7-2.87,2.76-3,1.08,1.73.1,5,3.08,5.39.36-1.46,1.85-2.05,2.76-3.09,1.55-1.78,1-3.24-1.22-3.34-3.65-.18-7.41-1.13-10.94.73A6.32,6.32,0,0,0,12.81,62C14.13,60.73,13.21,58.44,15.12,57.8Z"/><path class="cls-35" d="M12.81,62a6.32,6.32,0,0,1,.56-3.67c3.53-1.86,7.29-.91,10.94-.73,2.18.1,2.77,1.56,1.22,3.34-.91,1-2.4,1.63-2.76,3.09a5.68,5.68,0,0,0,.61,0h0a23.67,23.67,0,0,0,3.68-2.19c2.25-1.91,1.7-5.66-.92-5.68-4.64,0-9.43-1.14-13.95.91.09,1.65.18,3.29.28,5.16A3.37,3.37,0,0,0,12.81,62Z"/><path class="cls-36" d="M10.39,66c4.31-.37,8.64-1,12.86.15a3.62,3.62,0,0,1-.56-1.55,1.92,1.92,0,0,0,0-.22c-2.36.87-3.17-4-5.81-2.1-1.87-3.1-2.64.22-4.09.8a5.34,5.34,0,0,1-.1,1c-.29,1.41-.57,1.82-1.47,1.46a2.63,2.63,0,0,1-.86.48Z"/><path class="cls-36" d="M12.72,64.09a5.34,5.34,0,0,0,.1-1,.79.79,0,0,1-.26.08c-1.11-2-.65-4.07-.37-6.1-1.37,1.58-.75,3.48-.71,5.23,0,1.16.68,2.4-.23,3.23C12.15,65.91,12.43,65.5,12.72,64.09Z"/><path class="cls-36" d="M22.72,64.41a1.92,1.92,0,0,1,0,.22,3.62,3.62,0,0,0,.56,1.55,13.66,13.66,0,0,1,2.1.71c-.7-.91-2.12-1.33-2-2.84h0A2.41,2.41,0,0,1,22.72,64.41Z"/><path class="cls-36" d="M10.39,66c4.39,1.82,8.94.82,13.43.82a4,4,0,0,1-.57-.67C19,65.05,14.7,65.66,10.39,66Z"/><path class="cls-36" d="M23.82,66.85c.51,0,1,0,1.53,0h0a13.66,13.66,0,0,0-2.1-.71A4,4,0,0,0,23.82,66.85Z"/><path class="cls-36" d="M19.69,58.62c-2.06.08-.57,3.1-2.76,3-1.08-1-.07-3.08-1.81-3.77-1.91.64-1,2.93-2.31,4.18,0,.38,0,.76,0,1.13,1.45-.58,2.22-3.9,4.09-.8,2.64-1.89,3.45,3,5.81,2.1,0-.14,0-.28.05-.4C19.79,63.59,20.77,60.35,19.69,58.62Z"/><path class="cls-36" d="M12.56,63.19a.79.79,0,0,0,.26-.08c0-.37,0-.75,0-1.13a3.37,3.37,0,0,1-.34.27c-.1-1.87-.19-3.51-.28-5.16C11.91,59.12,11.45,61.16,12.56,63.19Z"/><path class="cls-36" d="M22.77,64c0,.12,0,.26-.05.4a2.41,2.41,0,0,0,.66-.36h0A5.68,5.68,0,0,1,22.77,64Z"/><path class="cls-37" d="M27.36,73.15c-.36,2.11-.13,4,3.38,4s3.69-1.68,3.64-4.33c0-1.87.08-3.54-1.27-4.33-1.26-.08-2.53-.21-3.8-.31C27.08,68.76,27.26,70.69,27.36,73.15Z"/><path class="cls-37" d="M30.68,68a5.81,5.81,0,0,0-1.37.17c1.27.1,2.54.23,3.8.31A4.57,4.57,0,0,0,30.68,68Z"/><path class="cls-38" d="M23.87,72.09c-.17-1.21-.64-2.33-2.14-2.16-1.71.19-1.81,1.66-2,3-.21,1.45-.16,3-1.34,4.08,1-1,2.32-1.09,3.57-1.42C23.81,75.07,24.09,73.68,23.87,72.09Z"/><path class="cls-38" d="M19.74,72.89c.18-1.3.28-2.77,2-3,1.5-.17,2,.95,2.14,2.16.22,1.59-.06,3-1.9,3.46-1.25.33-2.61.37-3.57,1.42l0,0c7.09.2,7.93-.59,7.06-6-.38-2.42-1.85-2.79-3.82-2.78s-3.09.85-3.11,2.93S18.43,75,18.38,77l0,0C19.58,75.85,19.53,74.34,19.74,72.89Z"/><polygon class="cls-38" points="18.38 76.99 18.38 76.99 18.38 76.99 18.38 76.99"/><polygon class="cls-38" points="18.38 76.99 18.38 76.99 18.38 76.99 18.38 76.99"/><path class="cls-38" d="M18.38,77l0,0,0,0Z"/></g></g></svg>