<svg width="40" height="53" viewBox="0 0 40 53" fill="none" xmlns="http://www.w3.org/2000/svg">
<path d="M40 11.6306C39.7091 12.6611 39.4182 13.8389 38.9818 14.8694C37.9636 17.225 36.2182 18.9917 33.8909 20.0222L33.1636 18.4028C35.6364 17.225 37.3818 14.8694 37.9636 12.0722C38.4 10.0111 37.9636 7.95 37.0909 6.18333C34.9091 2.20833 30.1091 0.736111 26.0364 2.50278L25.3091 0.883333C26.3273 0.294444 27.4909 0 28.6545 0L29.3818 0H29.6727C29.8182 0 30.1091 0.147222 30.2545 0.147222C34.3273 0.441667 37.9636 3.09167 39.2727 7.06667C39.5636 7.80278 39.7091 8.68611 39.8545 9.42222L40 11.6306Z" fill="white"/>
<path d="M29.5273 50.0554H26.7636V12.5138H25.0182V9.86377C25.8909 9.86377 26.7636 9.86377 27.6364 9.86377C28.8 10.011 29.6727 11.1888 29.5273 12.3665V50.0554Z" fill="white"/>
<path d="M32.2909 16.0475L31.5636 14.4281C32.8727 13.8392 33.7454 12.5142 33.8909 11.1892C34.0363 10.3059 33.8909 9.27532 33.4545 8.39199C32.2909 6.4781 30.5454 5.74199 27.9272 6.4781L27.2 5.00588C30.109 3.53366 33.6 4.71144 35.0545 7.65588C36.6545 10.6003 35.4909 14.2809 32.5818 15.9003C32.4363 16.0475 32.2909 16.0475 32.2909 16.0475Z" fill="white"/>
<path d="M2.76364 12.6612L13.0909 9.86396V9.71674H12.8C9.6 9.71674 6.25455 9.71674 3.05455 9.71674C1.74545 9.56951 0.436364 10.4528 0 11.6306V50.0556H2.76364V13.2501C2.76364 13.1028 2.76364 12.8084 2.76364 12.6612Z" fill="white"/>
<path d="M23.8545 7.65552L11.9272 10.7472L3.78177 12.9555C3.49086 13.1027 3.19995 13.1027 3.19995 13.5444C3.19995 15.1639 3.19995 16.9305 3.19995 18.6972V23.85V23.9972V38.1305V43.2833V43.4305C3.19995 44.3139 3.19995 45.1972 3.19995 45.9333V50.0555C3.19995 50.2027 3.19995 50.35 3.19995 50.6444L24.4363 53V34.8916V7.5083L23.8545 7.65552Z" fill="white"/>
<path d="M21.9637 31.9474C23.008 31.9474 23.8546 30.8928 23.8546 29.5919C23.8546 28.2909 23.008 27.2363 21.9637 27.2363C20.9193 27.2363 20.0728 28.2909 20.0728 29.5919C20.0728 30.8928 20.9193 31.9474 21.9637 31.9474Z" fill="white"/>
<path d="M23.8545 29.0029H25.7454C26.1818 29.0029 26.4727 29.1502 26.4727 29.739C26.4727 30.3279 26.1818 30.3279 25.7454 30.3279C24.4363 30.3279 23.1272 30.3279 21.9636 30.3279C21.5272 30.3279 21.2363 30.1807 21.2363 29.5918C21.2363 29.0029 21.5272 29.0029 21.9636 29.0029H23.8545Z" fill="white"/>
</svg>
