<svg xmlns="http://www.w3.org/2000/svg" xmlns:xlink="http://www.w3.org/1999/xlink" viewBox="0 0 27.53 36"><defs><style>.cls-1{fill:url(#linear-gradient);}.cls-2{fill:url(#linear-gradient-2);}.cls-3{fill:url(#linear-gradient-3);}.cls-4{fill:url(#linear-gradient-4);}.cls-5{fill:url(#linear-gradient-5);}.cls-6{fill:#f4d837;}.cls-7{fill:#ffee15;}</style><linearGradient id="linear-gradient" x1="17.42" y1="6.82" x2="27.53" y2="6.82" gradientUnits="userSpaceOnUse"><stop offset="0" stop-color="#0c91f8"/><stop offset="0.71" stop-color="#266ee6"/><stop offset="1" stop-color="#1e57b8"/></linearGradient><linearGradient id="linear-gradient-2" x1="17.2" y1="20.31" x2="20.29" y2="20.31" xlink:href="#linear-gradient"/><linearGradient id="linear-gradient-3" x1="18.68" y1="6.97" x2="24.55" y2="6.97" xlink:href="#linear-gradient"/><linearGradient id="linear-gradient-4" x1="0" y1="20.32" x2="9.02" y2="20.32" xlink:href="#linear-gradient"/><linearGradient id="linear-gradient-5" x1="2.23" y1="20.53" x2="16.79" y2="20.53" xlink:href="#linear-gradient"/></defs><g id="Layer_2" data-name="Layer 2"><g id="Layer_1-2" data-name="Layer 1"><path class="cls-1" d="M27.53,7.92a20.14,20.14,0,0,1-.66,2.21,6.9,6.9,0,0,1-3.45,3.51l-.51-1.09A5.93,5.93,0,0,0,26.2,8.26a5.73,5.73,0,0,0-.65-4A5.92,5.92,0,0,0,17.93,1.8L17.42.72A6.44,6.44,0,0,1,19.74.08l.5-.08h.24c.13,0,.26.05.39.06a7,7,0,0,1,6.22,4.7c.2.52.29,1.09.44,1.64Z"/><path class="cls-2" d="M20.29,34H18.42V8.53H17.2V6.7a12.27,12.27,0,0,1,1.82,0,1.56,1.56,0,0,1,1.27,1.7V34Z"/><path class="cls-3" d="M22.16,10.92l-.51-1.06A3,3,0,0,0,23.3,7.64,2.83,2.83,0,0,0,23,5.75C22.24,4.44,21,4,19.17,4.48l-.49-1a4,4,0,0,1,5.38,1.77A4.13,4.13,0,0,1,22.16,10.92Z"/><path class="cls-4" d="M1.89,8.6,9,6.72l0-.07H8.77c-2.24,0-4.48,0-6.72,0A1.91,1.91,0,0,0,0,7.92V34H1.87V9A3.79,3.79,0,0,1,1.89,8.6Z"/><path class="cls-5" d="M16.41,5.15,8.18,7.31,2.58,8.79c-.2.06-.35.09-.35.38,0,1.15,0,2.31,0,3.52v3.48a.48.48,0,0,0,0,.12v9.59h0v3.48s0,.06,0,.09c0,.58,0,1.16,0,1.74v0h0V34c0,.11,0,.23,0,.36L16.78,36V23.68h0V5.07Z"/><ellipse class="cls-6" cx="15.06" cy="20.09" rx="1.27" ry="1.57"/><path class="cls-7" d="M16.35,19.72h1.27c.3,0,.54.12.53.46s-.23.43-.51.43c-.88,0-1.75,0-2.63,0-.29,0-.5-.15-.49-.45s.22-.44.51-.44Z"/></g></g></svg>