<svg xmlns="http://www.w3.org/2000/svg" xmlns:xlink="http://www.w3.org/1999/xlink" viewBox="0 0 48 48"><defs><style>.cls-1{fill:#fff;}.cls-2{opacity:0.2;fill:url(#linear-gradient);}.cls-3{fill:url(#linear-gradient-2);}.cls-4{fill:url(#linear-gradient-3);}.cls-5{fill:url(#linear-gradient-4);}.cls-6{fill:url(#linear-gradient-5);}.cls-7{fill:url(#linear-gradient-6);}</style><linearGradient id="linear-gradient" x1="10.97" y1="23.86" x2="36.79" y2="23.86" gradientUnits="userSpaceOnUse"><stop offset="0" stop-color="#0c91f8"/><stop offset="0.71" stop-color="#266ee6"/><stop offset="1" stop-color="#1e57b8"/></linearGradient><linearGradient id="linear-gradient-2" x1="6.2" y1="11.06" x2="16.14" y2="11.06" gradientUnits="userSpaceOnUse"><stop offset="0" stop-color="#fc6195"/><stop offset="1" stop-color="#fc2169"/></linearGradient><linearGradient id="linear-gradient-3" x1="-516.3" y1="11.06" x2="-506.37" y2="11.06" gradientTransform="matrix(-1, 0, 0, 1, -474.3, 0)" xlink:href="#linear-gradient-2"/><linearGradient id="linear-gradient-4" x1="6.2" y1="61.12" x2="16.14" y2="61.12" gradientTransform="matrix(1, 0, 0, -1, 0, 98.06)" xlink:href="#linear-gradient-2"/><linearGradient id="linear-gradient-5" x1="-516.3" y1="61.12" x2="-506.37" y2="61.12" gradientTransform="translate(-474.3 98.06) rotate(180)" xlink:href="#linear-gradient-2"/><linearGradient id="linear-gradient-6" x1="6.2" y1="24.71" x2="41.8" y2="24.71" xlink:href="#linear-gradient"/></defs><g id="Layer_2" data-name="Layer 2"><g id="Layer_1-2" data-name="Layer 1"><rect class="cls-1" width="48" height="48" rx="8"/><rect class="cls-2" x="10.97" y="10.78" width="25.82" height="26.16" rx="4.12"/><path class="cls-3" d="M6.91,16.12a.72.72,0,0,1-.71-.72V8.93A2.91,2.91,0,0,1,9.09,6h6.34a.72.72,0,0,1,0,1.44H9.09A1.48,1.48,0,0,0,7.62,8.93V15.4A.72.72,0,0,1,6.91,16.12Z"/><path class="cls-4" d="M41.29,16.12A.72.72,0,0,0,42,15.4V8.93A2.91,2.91,0,0,0,39.11,6H32.78a.72.72,0,0,0,0,1.44h6.33a1.48,1.48,0,0,1,1.47,1.49V15.4A.72.72,0,0,0,41.29,16.12Z"/><path class="cls-5" d="M6.91,31.88a.72.72,0,0,0-.71.72v6.47A2.91,2.91,0,0,0,9.09,42h6.34a.72.72,0,0,0,0-1.44H9.09a1.48,1.48,0,0,1-1.47-1.49V32.6A.72.72,0,0,0,6.91,31.88Z"/><path class="cls-6" d="M41.29,31.88a.72.72,0,0,1,.71.72v6.47A2.91,2.91,0,0,1,39.11,42H32.78a.72.72,0,0,1,0-1.44h6.33a1.48,1.48,0,0,0,1.47-1.49V32.6A.72.72,0,0,1,41.29,31.88Z"/><rect class="cls-7" x="6.2" y="23.86" width="35.59" height="1.71"/></g></g></svg>