<svg xmlns="http://www.w3.org/2000/svg" width="27.478" height="17.856" viewBox="0 0 27.478 17.856">
  <g id="Group_766" data-name="Group 766" transform="translate(-1249.317 -1469.639)">
    <g id="Group_770" data-name="Group 770" transform="translate(1249.317 1469.639)">
      <path id="Path_372" data-name="Path 372" d="M1280.888,1469.723a4.7,4.7,0,0,0-7.951-2.744,5.5,5.5,0,0,1-2.861,1.6c-3.11.519-9.33-.13-10.626,1.944s.519,9.2,7.646,9.46,9.978-1.685,12.44-4.017C1280.631,1474.928,1281.188,1472.278,1280.888,1469.723Z" transform="translate(-1256.29 -1465.639)" fill="#f9588a" style="isolation: isolate"/>
      <g id="Group_765" data-name="Group 765" transform="translate(0 3.487)">
        <path id="Path_373" data-name="Path 373" d="M1275.935,1479.011a2.415,2.415,0,0,0-3.324.2l-2.366,2.54a2.419,2.419,0,0,0-2.306-1.7h-4.222c-.32,0-.428-.122-.985-.551a5.646,5.646,0,0,0-7.424.018l-1.552,1.366a2.406,2.406,0,0,0-2.214-.028l-1.78.89a.806.806,0,0,0-.36,1.08l4.83,9.66,2.86-.53a2.413,2.413,0,0,0,1.334-2.245h9.512a5.662,5.662,0,0,0,4.508-2.254l3.864-5.153A2.408,2.408,0,0,0,1275.935,1479.011Zm-19.563,11.506-1.06.53-4.11-8.22,1.061-.531a.8.8,0,0,1,1.079.36l3.39,6.78A.8.8,0,0,1,1256.372,1490.517Zm18.651-9.178-3.864,5.153a4.044,4.044,0,0,1-3.22,1.61h-10.075l-3.017-6.034,1.524-1.341a4.035,4.035,0,0,1,5.319,0,2.848,2.848,0,0,0,2.027.935h4.222a.8.8,0,1,1,0,1.61h-4.111a.8.8,0,1,0,0,1.61h4.651a2.42,2.42,0,0,0,1.767-.769l3.544-3.8a.8.8,0,0,1,1.233,1.031Z" transform="translate(-1249.317 -1478.119)" fill="#3e3957"/>
      </g>
    </g>
  </g>
</svg>
