<svg xmlns="http://www.w3.org/2000/svg" xmlns:xlink="http://www.w3.org/1999/xlink" viewBox="0 0 48 48"><defs><style>.cls-1{fill:#fff;}.cls-2{fill:url(#linear-gradient);}.cls-3,.cls-4{fill:none;stroke-miterlimit:10;stroke-width:2px;}.cls-3{stroke:url(#linear-gradient-2);}.cls-4{stroke:url(#linear-gradient-3);}.cls-5{fill:url(#linear-gradient-4);}</style><linearGradient id="linear-gradient" x1="20.75" y1="14.51" x2="20.84" y2="20.87" gradientUnits="userSpaceOnUse"><stop offset="0" stop-color="#0c91f8"/><stop offset="0.71" stop-color="#266ee6"/><stop offset="1" stop-color="#1e57b8"/></linearGradient><linearGradient id="linear-gradient-2" x1="20.67" y1="7.94" x2="20.91" y2="26.03" xlink:href="#linear-gradient"/><linearGradient id="linear-gradient-3" x1="20.63" y1="5" x2="20.95" y2="28.97" xlink:href="#linear-gradient"/><linearGradient id="linear-gradient-4" x1="24.01" y1="25.92" x2="24.14" y2="37.85" gradientUnits="userSpaceOnUse"><stop offset="0" stop-color="#fbcebd"/><stop offset="1" stop-color="#fbad8f"/></linearGradient></defs><g id="Layer_2" data-name="Layer 2"><g id="Layer_1-2" data-name="Layer 1"><rect class="cls-1" width="48" height="48"/><path class="cls-2" d="M20.79,21.17A4.19,4.19,0,1,0,16.62,17,4.18,4.18,0,0,0,20.79,21.17Z"/><path class="cls-3" d="M20.79,25a8,8,0,1,0-8-8A8,8,0,0,0,20.79,25Z"/><path class="cls-4" d="M20.79,28A11,11,0,1,0,9.84,17,11,11,0,0,0,20.79,28Z"/><path class="cls-5" d="M35.69,25.19a2.46,2.46,0,0,0-2.44,2.16,2.46,2.46,0,0,0-4.89,0,2.47,2.47,0,0,0-4.92.31v-10a2.47,2.47,0,1,0-4.93,0v15l-3.94-2.35a2.7,2.7,0,0,0-3.82,3.83l7.76,7.76V42h16a3.68,3.68,0,0,0,3.68-3.68V27.66A2.47,2.47,0,0,0,35.69,25.19Z"/></g></g></svg>