<svg xmlns="http://www.w3.org/2000/svg" xmlns:xlink="http://www.w3.org/1999/xlink" viewBox="0 0 48 48"><defs><style>.cls-1{fill:#fff;}.cls-2{fill:#104189;}.cls-3{fill:url(#linear-gradient);}.cls-4{fill:#898989;}</style><linearGradient id="linear-gradient" x1="4.8" y1="21.54" x2="39.02" y2="21.54" gradientUnits="userSpaceOnUse"><stop offset="0" stop-color="#0c91f8"/><stop offset="0.71" stop-color="#266ee6"/><stop offset="1" stop-color="#1e57b8"/></linearGradient></defs><g id="Layer_2" data-name="Layer 2"><g id="Layer_1-2" data-name="Layer 1"><rect class="cls-1" width="48" height="48"/><path class="cls-2" d="M38.29,30.49,21.92,32a1.7,1.7,0,0,1-1.79-1.24L15.92,15a1.7,1.7,0,0,1,1.62-2.15h24a1.7,1.7,0,0,1,1.66,2.08L39.78,29.17A1.66,1.66,0,0,1,38.29,30.49Z"/><path class="cls-3" d="M38,37.44H23.54a3,3,0,0,1-2.91-2.19L13.88,12.09A6.11,6.11,0,0,0,8,7.73H5.87a1.06,1.06,0,0,1-1.07-1,1,1,0,0,1,1-1.12H8a8.19,8.19,0,0,1,7.81,5.88l6.3,21.65a3,3,0,0,0,2.91,2.18H38a1,1,0,0,1,1,1.12A1.06,1.06,0,0,1,38,37.44Z"/><path d="M23,42.35a1.8,1.8,0,1,0-1.8-1.8A1.8,1.8,0,0,0,23,42.35Z"/><path class="cls-4" d="M23,41.18a.54.54,0,1,0-.54-.54A.54.54,0,0,0,23,41.18Z"/><path d="M36.36,42.35a1.8,1.8,0,1,0-1.8-1.8A1.8,1.8,0,0,0,36.36,42.35Z"/><path class="cls-4" d="M36.34,41.18a.54.54,0,1,0-.54-.54A.54.54,0,0,0,36.34,41.18Z"/></g></g></svg>