<svg xmlns="http://www.w3.org/2000/svg" viewBox="0 0 48 48"><defs><style>.cls-1{fill:#fff;}.cls-2{fill:#f4d837;}.cls-3{fill:#ffee15;}</style></defs><g id="Layer_2" data-name="Layer 2"><g id="Layer_1-2" data-name="Layer 1"><rect class="cls-1" width="48" height="48"/><path class="cls-2" d="M18.16,31.62A13.41,13.41,0,1,0,4.8,18.21,13.4,13.4,0,0,0,18.16,31.62Z"/><path class="cls-3" d="M18.16,28.27a10.06,10.06,0,1,0-10-10.06A10,10,0,0,0,18.16,28.27Z"/><path class="cls-1" d="M19.83,21.17a1.16,1.16,0,0,0-.13-.64,1,1,0,0,0-.25-.52,2.1,2.1,0,0,0-.51-.38l-.78-.39c-.51-.26-1-.39-1.54-.64l-1.16-.78a3.2,3.2,0,0,1-.77-1,4.62,4.62,0,0,1-.25-1.42,3.84,3.84,0,0,1,.25-1.29,2.87,2.87,0,0,1,.65-1,6.94,6.94,0,0,1,1-.77c.39-.13.9-.26,1.42-.39v-1.8h1.28v1.8c.52.13.9.26,1.29.39a7.66,7.66,0,0,1,1,.77A5.85,5.85,0,0,1,22,14.21a5.51,5.51,0,0,1,.26,1.55H19.83a2.82,2.82,0,0,0-.38-1.55,1.28,1.28,0,0,0-1.16-.51,1,1,0,0,0-.64.13c-.13.12-.39.38-.39.51a.71.71,0,0,0-.26.52,5.78,5.78,0,0,0-.12.64c0,.26,0,.39.12.52a1,1,0,0,0,.26.51,1.79,1.79,0,0,0,.52.39,6.16,6.16,0,0,0,.9.39c.51.25,1,.38,1.54.64l1.16.77a8,8,0,0,1,.77,1,4.55,4.55,0,0,1,.25,1.41,3.74,3.74,0,0,1-.25,1.29,2.83,2.83,0,0,1-.65,1,2.86,2.86,0,0,1-1,.64c-.39.13-.9.26-1.42.39V26.2H17.78V24.53a2.17,2.17,0,0,1-1.29-.39,3.1,3.1,0,0,1-1.15-.77,2.36,2.36,0,0,1-.78-1.16,3.67,3.67,0,0,1-.25-1.68h2.44a2.48,2.48,0,0,0,.13,1,2.86,2.86,0,0,0,.38.65,3.47,3.47,0,0,0,.64.38,1.17,1.17,0,0,0,.65.13,1,1,0,0,0,.64-.13c.26-.13.39-.13.51-.26a.64.64,0,0,0,.26-.51A5.63,5.63,0,0,0,19.83,21.17Z"/><path class="cls-2" d="M29.3,42.49A13.41,13.41,0,1,0,15.93,29.08,13.38,13.38,0,0,0,29.3,42.49Z"/><path class="cls-3" d="M29.3,39.14a10.06,10.06,0,1,0-10-10.06A10,10,0,0,0,29.3,39.14Z"/><path class="cls-1" d="M31,32.05a1.12,1.12,0,0,0-.13-.64,1,1,0,0,0-.26-.52,1.6,1.6,0,0,0-.51-.39l-.77-.38c-.52-.26-1-.39-1.54-.65L26.6,28.7a3.17,3.17,0,0,1-.77-1,4.66,4.66,0,0,1-.26-1.42A3.79,3.79,0,0,1,25.83,25a2.9,2.9,0,0,1,.64-1,7.08,7.08,0,0,1,1-.78c.38-.12.9-.25,1.41-.38V21H30.2v1.81c.51.13.9.26,1.28.38a6.57,6.57,0,0,1,1,.78,5.4,5.4,0,0,1,.65,1.16,5.84,5.84,0,0,1,.25,1.55H31a2.72,2.72,0,0,0-.39-1.55,1.23,1.23,0,0,0-1.15-.52,1,1,0,0,0-.65.13c-.12.13-.38.39-.38.52a.65.65,0,0,0-.26.51,5.63,5.63,0,0,0-.13.65c0,.26,0,.38.13.51a1,1,0,0,0,.26.52,1.88,1.88,0,0,0,.51.39,8.43,8.43,0,0,0,.9.38c.52.26,1,.39,1.55.65l1.15.77a7.66,7.66,0,0,1,.77,1,4.61,4.61,0,0,1,.26,1.42,3.79,3.79,0,0,1-.26,1.29,2.65,2.65,0,0,1-.64,1,2.79,2.79,0,0,1-1,.65c-.38.12-.9.25-1.41.38v1.68H28.91V35.4A2.2,2.2,0,0,1,27.63,35a3,3,0,0,1-1.16-.78,2.29,2.29,0,0,1-.77-1.16,3.49,3.49,0,0,1-.26-1.67h2.44a2.51,2.51,0,0,0,.13,1,2.75,2.75,0,0,0,.39.64,2.75,2.75,0,0,0,.64.39,1.16,1.16,0,0,0,.64.13,1,1,0,0,0,.65-.13c.25-.13.38-.13.51-.26a.67.67,0,0,0,.26-.51A5.63,5.63,0,0,0,31,32.05Z"/><circle class="cls-3" cx="8.54" cy="39.61" r="3.59"/><circle class="cls-3" cx="39.61" cy="8.39" r="3.59"/></g></g></svg>