<svg xmlns="http://www.w3.org/2000/svg" viewBox="0 0 289.96 205.49"><defs><style>.cls-1{fill:#3f403f;}.cls-2{fill:#25a043;}.cls-3{fill:#6bce55;}.cls-4{fill:#23c144;}.cls-5{fill:#22c143;}.cls-6{fill:#23c044;}.cls-7{fill:#24a043;}.cls-8{fill:#3f984c;}.cls-9{fill:#01b834;}.cls-10{fill:#02b834;}.cls-11{fill:#01b833;}.cls-12{fill:#fbfdfb;}.cls-13{fill:#03b835;}.cls-14{fill:#05b937;}.cls-15{fill:#12ba3d;}.cls-16{fill:#3e3f3f;}.cls-17{fill:#fdfdfd;}.cls-18{fill:#e4e6e8;}.cls-19{fill:#e5e6e8;}.cls-20{fill:#f9f4a0;}.cls-21{fill:#fac554;}.cls-22{fill:#3f954d;}.cls-23{fill:#404040;}</style></defs><g id="Layer_2" data-name="Layer 2"><g id="Layer_1-2" data-name="Layer 1"><path class="cls-1" d="M201.18,26.4c0-2.71-.92-3.34-3.44-3.3-7.3.14-14.6-.07-21.9.1-2.39.05-3.31-.51-4.05-3C168,7.66,157.88.06,145.37,0s-22.86,7.38-26.81,19.8c-.82,2.57-1.8,3.37-4.43,3.3-6.63-.17-13.29.37-19.9-.09-4.71-.32-5.33,1.51-5.27,5.61.22,15.27.09,30.55.09,45.82v40.35c0,11.65,0,11.65,11.48,11.65,21.08,0,42.16.14,63.25,0,20.23-.17,36.71-15.28,37.17-34.76C201.47,69.91,201.06,48.15,201.18,26.4Zm-39.9-1.95c-5.81.07-11,4.57-16.54,3.81s-10.54-3.76-16.22-4.09c-3.39-.19-3.17-1.74-2.16-4.15a20.26,20.26,0,0,1,37.4-.22C164.9,22.49,165.42,24.4,161.28,24.45Z"/><path class="cls-2" d="M145.18,34.38c9.44-5.68,20.13-6,30.62-6.88,5.76-.49,11.59,0,17.39-.16,2.72-.07,3.82.79,3.8,3.67-.09,19.71,0,39.42-.12,59.14a16,16,0,0,1-1.8,8.07c-2-3.81-2.23-8.08-2.9-12.21a23.76,23.76,0,0,0-.76-4.8c.3-5.08,2.48-9.75,2.47-15,0-10.89-5.68-17.8-14.66-22.21-9.43-4.63-18.34-2.49-26.31,4-2.19,1.8-3.77,4.15-5.6,6.28-1.44,1.68-3,2.28-3.62-.8,0-4.55-.07-9.1,0-13.64C143.78,37.93,143.58,35.9,145.18,34.38Z"/><path class="cls-3" d="M146.06,121.92l-43.65,0c-1-2.42.14-4.52,1-6.65a45.78,45.78,0,0,1,19.72-22.86c7.82-3.24,8.7-3.16,14.27,2.66,3.28,3.44,6.41,7,9.44,10.7C146.11,111.11,147.62,116.59,146.06,121.92Z"/><path class="cls-4" d="M145.18,34.38c-.58,6.63,1.3,13.39-1,19.94-1.71.26-2.19-1.18-3-2.17-12.39-15.57-33.47-13.72-42.8,3.77-.84,1.59-1.42,3.35-2.88,4.57a1.72,1.72,0,0,1-2.08-.31q0-14.4-.06-28.8c0-2.05-.14-4,2.93-4,13.55,0,27.13-.5,40.41,3A21.42,21.42,0,0,1,145.18,34.38Z"/><path class="cls-5" d="M146.06,121.92a42,42,0,0,1,0-17c1.67-7,7.31-10.74,12.72-14.24,2.39-1.55,5.74.39,8.45,1.7a70.24,70.24,0,0,1,13.66,12.56c2.17,2.56,4.35,5.32,4.18,9.06-5.27,5.32-11.95,7.55-19.14,8C159.3,122.33,152.67,122,146.06,121.92Z"/><path class="cls-6" d="M123.28,93.15c-3.42,3.5-7.8,5.8-11,9.7a52.67,52.67,0,0,0-9.87,19c-9,.43-9,.43-9-8.56q0-21.51.08-43c1.66-.36,2,1,2.77,2q5.59,17.58,23.94,19.57A4,4,0,0,1,123.28,93.15Z"/><path class="cls-7" d="M185,114c-3.76-8.85-11.23-14.5-17.93-20.81.77-1.05,2-1.16,3.1-1.33,6.92-1,13.17-3.3,17.83-8.88.93-1.11,2.1-2.19,3.84-1.86.94.38,2.15,1.13,1.91,2-1.58,5.26,2.44,10,1.29,15.15A25.59,25.59,0,0,1,185,114Z"/><path class="cls-8" d="M95.24,72.23,93.48,70.3q0-5.05,0-10.12l1.86,0C97.38,64.23,97,68.23,95.24,72.23Z"/><path class="cls-9" d="M230.65,143.79c-2.93,1.44-3.63,4.06-3.63,7.06,0,7.79.14,15.59-.11,23.38-.21,6.6-3.91,10.65-9.32,10.87-4.18.17-7.54-1.38-9.4-5.22-2.11-4.36-2-8.74,1.19-12.61,2.71-3.32,6.41-3.94,10.38-2.9a53.9,53.9,0,0,1,5.5,2.11c.91-7.25.34-8-6.34-9-3-.46-5.93.2-8.87.7-5.63,3.17-9.5,7.58-10,14.33-1,13.67,9.07,21.41,23.88,18.35,5.28-3.08,9.35-7.37,9.64-13.61.5-10.59.27-21.21.35-31.82C234,142.6,232.33,143,230.65,143.79Z"/><path class="cls-10" d="M148.92,158c-15.31-2.42-22.8,4-22.86,19.56,0,5.94,0,11.88,0,17.82,0,2.79-.24,5.62,1.28,8.17,5.4,3,5.54,2.88,5.56-3.23,0-8.46-.13-16.93.12-25.38.2-6.47,3.65-10.57,8.7-11,4.33-.34,7.93,1.09,10,5.11a11.3,11.3,0,0,1-.77,12.26c-2.63,3.69-6.53,4.34-10.69,3.4a44.56,44.56,0,0,1-5.86-2.21c.27,3.07-1.75,6.2,2.29,8a16.71,16.71,0,0,0,18.42-3.47C163.6,178.37,160.69,164.63,148.92,158Z"/><path class="cls-11" d="M188,158.91a21.72,21.72,0,0,0-13.87-1c-1.41.86-2.88,1.62-4.21,2.58a17.36,17.36,0,0,0-3.36,25.05c6,7.32,18,8.75,24.5,2.78,1.32-1.21,4.42-2.42,2-5-1.88-2-3.77-3.72-7-.74-4.79,4.48-11.67,3.15-15-2.11-1.6-2.55-1.42-3.8,2.06-3.71,6.79.16,13.6-.13,20.38.16,3.37.14,3.84-1.22,3.64-4.06C196.78,166.42,193,162.33,188,158.91Zm.87,11c-.49,1.19-1.69.71-2.59.74-2.13.07-4.27,0-6.4,0a22,22,0,0,1-3.45,0c-1.67-.27-4.26,1.1-4.83-.8s1.77-3.29,3.36-4.39a9.87,9.87,0,0,1,12.94,1.87C188.55,168.1,189.33,168.89,188.9,169.94Z"/><path class="cls-10" d="M85.8,158.36c-5.14-1.54-8.46.11-10.42,4.88a23.59,23.59,0,0,1-3.1,5.09,4.48,4.48,0,0,1-4.54,1.44c-2.2-.39-1.31-2.37-1.33-3.68-.08-6.3,0-12.61-.08-18.92,0-1.34.87-3.38-1.08-3.86-1.63-.39-3.16.71-4.24,2.1A7.19,7.19,0,0,0,59.47,150q0,16.93,0,33.86a7.09,7.09,0,0,0,2.38,5.77c1,.9,2.22,1.61,3.6,1.12s.87-2,.91-3c.08-2.81.11-5.64,0-8.46-.07-1.89.63-2.51,2.54-2.7,6.37-.64,8.33.79,8.45,7.06,0,3.11.86,5.58,3.81,6.9,1,.43,2.18,1,3-.54,1.7-3.3-.49-14.71-3.71-17.12-1.8-1.35-1.82-2.12-.63-3.83A48.11,48.11,0,0,0,85.8,158.36Z"/><path class="cls-11" d="M289.83,170.6a12.69,12.69,0,0,0-6.77-10.91c-7-4.07-16.75-3-22.17,2.49s-6.21,15-1.88,22.14c1.7,2.79,4.33,4.49,6.8,6.41,2.28.36,4.58,1.14,6.84,1,7.61-.43,10.72-2.45,8.62-10.4-1.8,1.16-3.43,2.68-5.36,3.33-4.22,1.43-7.87,0-10.63-3.41a11.17,11.17,0,0,1-.24-13c2.84-4.06,6.9-5.07,11.44-3.86,4.28,1.15,6.79,3.93,6.72,8.66,0,3.32.21,6.64.09,10a8.82,8.82,0,0,0,3.44,7.83c2.26.45,3.3-.22,3.22-2.78C289.79,182.21,290.05,176.4,289.83,170.6Z"/><path class="cls-10" d="M105.28,157.25a17.05,17.05,0,0,0-17.55,17.11,17.22,17.22,0,0,0,34.44.68A17.14,17.14,0,0,0,105.28,157.25Zm-.19,27.9c-6,.09-10-4-10.1-10.43s3.75-10.67,9.75-10.78,10.18,4.3,10.22,10.44S111,185.07,105.09,185.15Z"/><path class="cls-11" d="M37.84,157.26c-9.85-.1-17.29,7.31-17.31,17.24s7.21,17.3,17.16,17.32,17.08-7.4,17.07-17.4A17,17,0,0,0,37.84,157.26Zm0,27.84c-6,.08-10.14-4.09-10.27-10.31s3.83-10.67,9.76-10.82,10.19,4.18,10.26,10.33C47.68,180.7,43.78,185,37.86,185.1Z"/><path class="cls-12" d="M282.73,183.5c0,.47,0,.94,0,1.4a11.44,11.44,0,0,0,.14,2A7,7,0,0,0,282.73,183.5Z"/><path class="cls-13" d="M15.21,164.75c2.65-.08,3.27-1,3.38-3.47.21-4.81-3.23-3.36-5.45-3.25-4.1.21-7.19.05-6.36-5.51.5-3.37-1.67-3-3.71-1.79a6.42,6.42,0,0,0-3,5.9c0,4,0,8,0,11.93Q0,174.29,0,180c0,.34,0,.67,0,1,.44,6.73,3.71,9.91,10.38,10.06,1.82.05,3.65-.09,5.47,0,2.37.15,2.64-1.2,2.67-3.11,0-2.1-.28-3.26-2.89-3.43-8.79-.6-8.78-.72-8.8-9.58v-1.49C6.84,165.12,6.84,165,15.21,164.75Z"/><path class="cls-14" d="M248.94,174.4h0c0-4.31-.1-8.63,0-12.94.08-2.39-.37-3.64-3.21-3.57-2.6.06-3.92.47-3.84,3.52.2,7.46.06,14.93.06,22.4a7,7,0,0,0,2.73,6.09,3.55,3.55,0,0,0,3.22.92c1.56-.51.94-1.94.95-3C249,183.36,248.94,178.88,248.94,174.4Z"/><path class="cls-15" d="M245.32,147.2a3.64,3.64,0,0,0-3.73,4.22c.17,2.54,1.67,3.76,4.32,3.78a4,4,0,0,0-.59-8Z"/><path class="cls-16" d="M95.24,72.23q0-6,.08-12C98.77,49,106.21,42,117.8,40.57s20.4,3.76,26.39,13.75c2.71,1.68,2.34-1.29,3-2.21C153.61,43.7,162,39,172.51,40.54c11,1.57,18.91,8,21.94,18.92,2,7.3.92,14.74-2.58,21.65-6.56,7.51-14.41,12.36-24.77,12.07-5.84-2.69-10.56-1.74-14.37,3.82-1.94,2.82-5,4.81-6.71,7.91-4.2-1.13-6.15-4.93-8.41-7.93-4-5.3-8.46-6.63-14.33-3.83C107.69,92.59,99.71,86.63,95.24,72.23Z"/><path class="cls-17" d="M149.08,59c3.71-9.72,12.07-14.92,22.46-14a20.58,20.58,0,0,1,18.69,16.89c-.38,4.4-2.9,7.55-6.13,10.16-1.3,1-3,2.48-4.64.3-.86-2.58.55-5.22-.33-7.87-1.09-3.27-2.69-6.06-5.59-8-3.68-2.45-4.61-2.07-5.42,2.17-.84,4.44-4.58,7.79-8.45,6.27s-6.09-.61-8.1,2.51C147.35,65.66,148.67,62.21,149.08,59Z"/><path class="cls-17" d="M100.3,60.13a21.5,21.5,0,0,1,41.07-.24,6.16,6.16,0,0,1,0,3.82c-.39,1.43-.71,3.14-2.35,3.35-1.91.24-1.78-1.92-2.62-3-1.72-3.39-3.44-6.78-7.23-8.44-2.08-.9-3.45-1.49-3.87,1.9-.85,7-4.6,9-11.52,6.47-2.25-.83-2.48.06-2.94,1.71-.71,2.56.71,5.26-.6,7.76C104.15,72.64,99.79,66.77,100.3,60.13Z"/><path class="cls-18" d="M149.08,59c.18,3-.19,6.31,3.1,8.19,1.61.93,1.78,2.66,2.36,4.18a12.7,12.7,0,0,0,22,3.74c1-1.2,1.4-3.13,3.52-3,3.93.79,5-2.65,6.89-4.78a37.45,37.45,0,0,0,3.31-5.38,20.81,20.81,0,0,1-7.61,22,22,22,0,0,1-24.26,1.61c-7.48-4.34-11.94-13.06-10.72-21.35C147.89,62.44,147.72,60.48,149.08,59Z"/><path class="cls-19" d="M100.3,60.13c1,6.2,4.31,10.65,10.23,13,1.94,0,2.73,1.66,3.87,2.76q6.15,5.94,14.08,2.93c5.09-1.92,7.23-5.86,7.48-11.1.07-1.6-.16-3.35,1.38-4.53,1.18.69.66,2.11,1.43,3.23a10.84,10.84,0,0,0,2.6-6.54c2.95,9.4,0,18.72-7.58,24.34a22,22,0,0,1-25.63.13C100.44,78.87,97.38,69.42,100.3,60.13Z"/><path class="cls-20" d="M145.25,99.79c-3.73-1.88-5.7-5.6-8.7-8.24-1.36-1.2-.85-2.24.23-3.27,2.34-2.24,5-3.64,8.35-3.12C147.6,90,147.4,94.9,145.25,99.79Z"/><path class="cls-21" d="M145.25,99.79l-.12-14.63a8.2,8.2,0,0,1,5.64,1.06c4.22,2.26,4.52,3.76,1.1,7.24C149.73,95.64,148.05,98.31,145.25,99.79Z"/><path class="cls-22" d="M144.74,77.33c1.34,1.59,2.91,2.69,1.57,4.37-.63.79-2.59.87-3.08,0C142.26,80.07,144.09,79.06,144.74,77.33Z"/><path class="cls-23" d="M180,72.09c-6.59,10.9-18.75,12.31-25.16,3-1.65-2.4-2-5.16-2.69-7.85l1.47-6.14c2-.3,2.27,1.45,3.33,2,2.37,1.3,4.69,1.62,7.05.16,2.7-1.68,4-4.28,3-7.22-1.13-3.44.56-3.08,2.72-2.63C177.64,55.07,181.55,62.21,180,72.09Z"/><path class="cls-23" d="M137.34,63.2c.59,11.75-5.26,18.76-15,18-5.47-.43-9-3.71-11.81-8-1.67-2.33-1.22-5.06-.89-7.53.3-2.29,0-7,4.67-2.52,2.07,2,5,1.57,7.33-.2,3.28-2.48,3.26-5.77,1.68-9.69C130.68,53.24,134.76,57.14,137.34,63.2Z"/></g></g></svg>