<svg xmlns="http://www.w3.org/2000/svg" width="22.899" height="20.127" viewBox="0 0 22.899 20.127">
  <g id="Group_764" data-name="Group 764" transform="translate(-773.8 -1265.05)">
    <g id="Group_768" data-name="Group 768" transform="translate(-304.171 -137)">
      <path id="Path_368" data-name="Path 368" d="M1070.04,1409.9a4.226,4.226,0,0,0-7.144-2.466,4.939,4.939,0,0,1-2.57,1.437c-2.795.466-8.383-.116-9.548,1.747s.465,8.267,6.87,8.5,8.965-1.514,11.178-3.609C1069.809,1414.579,1070.309,1412.2,1070.04,1409.9Z" transform="translate(30.757 -2.638)" fill="#f9c241"/>
      <g id="Group_767" data-name="Group 767" transform="translate(1077.971 1402.05)">
        <g id="Group_761" data-name="Group 761" transform="translate(0)">
          <path id="Path_369" data-name="Path 369" d="M1051.787,1422.177a10.064,10.064,0,1,1,10.064-10.063A10.075,10.075,0,0,1,1051.787,1422.177Zm0-17.91a7.847,7.847,0,1,0,7.847,7.847A7.856,7.856,0,0,0,1051.787,1404.267Z" transform="translate(-1041.723 -1402.05)" fill="#3e3957"/>
        </g>
        <g id="Group_762" data-name="Group 762" transform="translate(4.057 4.057)">
          <path id="Path_370" data-name="Path 370" d="M1058.71,1425.043a6.007,6.007,0,1,1,6.007-6.007A6.014,6.014,0,0,1,1058.71,1425.043Zm0-10.536a4.529,4.529,0,1,0,4.529,4.529A4.534,4.534,0,0,0,1058.71,1414.507Z" transform="translate(-1052.703 -1413.029)" fill="#3e3957"/>
        </g>
        <g id="Group_763" data-name="Group 763" transform="translate(8.185 6.659)">
          <path id="Path_371" data-name="Path 371" d="M1067.028,1423.549a1.989,1.989,0,0,0-.482-.339,5.167,5.167,0,0,0-.6-.259,2.763,2.763,0,0,1-.367-.157.9.9,0,0,1-.211-.149.364.364,0,0,1-.092-.139.582.582,0,0,1-.03-.193.693.693,0,0,1,.031-.213.357.357,0,0,1,.082-.141.4.4,0,0,1,.147-.095.63.63,0,0,1,.449.007.437.437,0,0,1,.155.127.669.669,0,0,1,.107.222,1.186,1.186,0,0,1,.041.326v.185h1.178v-.185a2.236,2.236,0,0,0-.092-.661,1.62,1.62,0,0,0-.271-.527,1.429,1.429,0,0,0-.44-.369,1.65,1.65,0,0,0-.413-.153v-.766h-.9v.754a1.824,1.824,0,0,0-.411.131,1.467,1.467,0,0,0-.45.319,1.392,1.392,0,0,0-.291.466,1.628,1.628,0,0,0-.1.578,1.546,1.546,0,0,0,.115.616,1.445,1.445,0,0,0,.325.469,2.032,2.032,0,0,0,.489.341,4.86,4.86,0,0,0,.6.252,2.375,2.375,0,0,1,.347.148.87.87,0,0,1,.205.148.415.415,0,0,1,.1.148.558.558,0,0,1,.032.193.453.453,0,0,1-.14.352.655.655,0,0,1-.454.135.872.872,0,0,1-.241-.035.5.5,0,0,1-.19-.1.549.549,0,0,1-.138-.2.933.933,0,0,1-.058-.356v-.185h-1.181v.185a1.936,1.936,0,0,0,.129.74,1.475,1.475,0,0,0,.847.841,2.194,2.194,0,0,0,.4.114v.674h.9v-.675a1.938,1.938,0,0,0,.426-.123,1.466,1.466,0,0,0,.471-.31,1.357,1.357,0,0,0,.306-.463,1.728,1.728,0,0,0,0-1.208A1.416,1.416,0,0,0,1067.028,1423.549Z" transform="translate(-1063.875 -1420.072)" fill="#3e3957"/>
        </g>
      </g>
    </g>
  </g>
</svg>
