<svg id="Layer_1" data-name="Layer 1" xmlns="http://www.w3.org/2000/svg" xmlns:xlink="http://www.w3.org/1999/xlink" viewBox="0 0 845.07 982.05"><defs><style>.cls-1,.cls-21,.cls-22{fill:none;}.cls-2{fill:#178bf5;}.cls-29,.cls-3,.cls-38{fill:#606060;}.cls-26,.cls-3{opacity:0.41;}.cls-26,.cls-29,.cls-3{isolation:isolate;}.cls-4{fill:#906f36;}.cls-5{fill:#ef9d26;}.cls-6{fill:#90d3c9;}.cls-7{fill:#529078;}.cls-8{fill:#8bcecc;}.cls-9{fill:#f9dc32;}.cls-10{fill:#18191e;}.cls-11{fill:#303135;}.cls-12{fill:url(#linear-gradient);}.cls-13{fill:url(#linear-gradient-2);}.cls-14{fill:#7c7f9b;}.cls-15{fill:#969abc;}.cls-16{fill:#292b35;}.cls-17{fill:#f2cdb1;}.cls-18{fill:#3d7fc1;}.cls-19{fill:#4995ee;}.cls-20{fill:#eaeaea;}.cls-21,.cls-22{stroke:#906f36;stroke-miterlimit:10;}.cls-22{stroke-dasharray:11.83 11.83;}.cls-23{fill:#fff;}.cls-24{fill:#fefefe;}.cls-25{clip-path:url(#clip-path);}.cls-26{fill:#295f99;}.cls-27{fill:#ffe9c5;}.cls-28{fill:#e6b461;}.cls-29{opacity:0.22;}.cls-30{fill:#f9c32a;}.cls-31{fill:#12393d;}.cls-32{fill:#1a535c;}.cls-33{fill:#285e63;}.cls-34{fill:#bbcee1;}.cls-35{fill:#a7bcce;}.cls-36{fill:#c5f6ff;}.cls-37{opacity:0.19;}</style><linearGradient id="linear-gradient" x1="788.53" y1="975.06" x2="355.11" y2="1003.57" gradientTransform="matrix(1, 0, 0, -1, 0, 1920)" gradientUnits="userSpaceOnUse"><stop offset="0" stop-color="#68cadd"/><stop offset="1" stop-color="#3583f9"/></linearGradient><linearGradient id="linear-gradient-2" x1="628.08" y1="1258.35" x2="633.08" y2="1258.35" gradientTransform="matrix(1, 0, 0, -1, -130.19, 1415.47)" xlink:href="#linear-gradient"/><clipPath id="clip-path" transform="translate(-130.19 -504.53)"><path class="cls-1" d="M434.57,1359.84l57-36a57.3,57.3,0,0,0,28.32-47l.38-8.79a57.27,57.27,0,0,1,28.43-47l86.82-50.51a58.08,58.08,0,0,0,28.8-47.22l2.29-44.5a60.83,60.83,0,0,1,29.85-49.27L743.07,1002l-155-89.11-43.57,27.88a60.83,60.83,0,0,0-28,51.25v54.11a58.09,58.09,0,0,1-29,50.3L408.55,1142a57.29,57.29,0,0,0-28.64,49.61v2.59a57.31,57.31,0,0,1-28.46,49.51l-59,32.06Z"/></clipPath></defs><path class="cls-2" d="M413.07,1038.94l-262,151.26a22.74,22.74,0,0,0-9.26,29.27L233,1415.86a22.73,22.73,0,0,0,17.15,12.9l372,57.55a22.77,22.77,0,0,0,14.85-2.78l262-151.26a22.74,22.74,0,0,0,9.26-29.27l-91.14-196.39a22.73,22.73,0,0,0-17.15-12.9l-372-57.55A22.79,22.79,0,0,0,413.07,1038.94Z" transform="translate(-130.19 -504.53)"/><path class="cls-3" d="M798.55,1280.82l-12.1,7a34.91,34.91,0,0,1-34.92,0l-31.25-18a52.5,52.5,0,0,0-52.27-.13L452.85,1392.42a26.33,26.33,0,0,1-26.06,0l-169.47-96.37a7.71,7.71,0,0,1,.11-13.46L300.5,1259l-47.44-26.44a9.85,9.85,0,0,1-.43-17L480.2,1073.27l318.48,190.18A10.07,10.07,0,0,1,798.55,1280.82Z" transform="translate(-130.19 -504.53)"/><polygon class="cls-4" points="112.95 575.54 104.02 581.91 104.02 651.02 137.43 640.33 112.95 575.54"/><path class="cls-5" d="M557.35,795.64l19.43,12L282.21,1215.92a26,26,0,0,1-39.08-22.47V1012.8a59.06,59.06,0,0,1,29.3-51Z" transform="translate(-130.19 -504.53)"/><polygon class="cls-6" points="222.75 277.74 223.06 423.94 365.87 340.66 365.12 195.54 222.75 277.74"/><polygon class="cls-7" points="234.1 285.26 353.81 216.15 353.04 348.14 234.72 416.73 234.1 285.26"/><polygon class="cls-8" points="244.5 292.47 341.88 236.24 343.05 353.96 244.91 410.82 244.5 292.47"/><path class="cls-7" d="M390.69,787.76l.91,19.68a28.08,28.08,0,0,1-13.81,25.49l-3.11,1.83V797Z" transform="translate(-130.19 -504.53)"/><path class="cls-7" d="M452,752.33v14a13.59,13.59,0,0,0,20.34,11.79h0l-.32-37.37Z" transform="translate(-130.19 -504.53)"/><ellipse class="cls-7" cx="302.36" cy="402.15" rx="30.08" ry="74.31"/><path class="cls-5" d="M569.53,803.76l15,7.08L294.39,1224a26,26,0,0,1-39.08-22.47V1020.92a59.06,59.06,0,0,1,29.3-51Z" transform="translate(-130.19 -504.53)"/><path class="cls-9" d="M584.49,810.84v243.48a29,29,0,0,1-14.43,25.09l-260.7,151.7a26,26,0,0,1-39.08-22.47V1028a59.06,59.06,0,0,1,29.3-51Z" transform="translate(-130.19 -504.53)"/><path class="cls-10" d="M612.27,604.45l166.26,96a46.25,46.25,0,0,1,23.12,40l.27,501.57c0,18.71-31.69,37-47.89,27.67L591.47,1162.62a33.53,33.53,0,0,1-16.76-29.19L567,621.74C567.1,603.79,596.72,595.47,612.27,604.45Z" transform="translate(-130.19 -504.53)"/><path class="cls-11" d="M594.59,609.72l166.26,96a46.25,46.25,0,0,1,23.12,40l.27,501.57a24.3,24.3,0,0,1-36.45,21.06l-174-100.47A33.53,33.53,0,0,1,557,1138.71l2.46-508.85A23.4,23.4,0,0,1,594.59,609.72Z" transform="translate(-130.19 -504.53)"/><path class="cls-12" d="M585.79,621.92,758.68,722a43.3,43.3,0,0,1,22.48,37.67l.26,472.11c0,17.61-19.69,28.62-35.44,19.82L576.77,1157a31.4,31.4,0,0,1-16.3-27.48L563,643.06C563.07,626.15,570.67,613.46,585.79,621.92Z" transform="translate(-130.19 -504.53)"/><path class="cls-11" d="M619.52,640.78v24.31a17.73,17.73,0,0,0,8.87,15.36l62.54,36.08a10.64,10.64,0,0,0,15.83-7.61l2.46-16.22Z" transform="translate(-130.19 -504.53)"/><ellipse class="cls-13" cx="500.39" cy="157.12" rx="2.5" ry="6.4"/><ellipse class="cls-10" cx="500.39" cy="157.12" rx="2.19" ry="5.6"/><path class="cls-10" d="M641.81,669.15v.44a3.35,3.35,0,0,0,1.69,2.92l44.69,25.69a1.77,1.77,0,0,0,2.66-1.54v-.19a3.82,3.82,0,0,0-1.94-3.33l-44.65-25.41A1.63,1.63,0,0,0,641.81,669.15Z" transform="translate(-130.19 -504.53)"/><path class="cls-14" d="M798.22,782.91V858.4c0,2.79-5.12,6.43-7.64,5.79-.36-.09,1.76-2,1.42-2.2h0l-1.71-84.94,2.39-1.63,1.77,1A7.43,7.43,0,0,1,798.22,782.91Z" transform="translate(-130.19 -504.53)"/><path class="cls-15" d="M795.83,784.54V860a4.15,4.15,0,0,1-6.22,3.59h0l.68-86.58,1.77,1A7.45,7.45,0,0,1,795.83,784.54Z" transform="translate(-130.19 -504.53)"/><ellipse class="cls-3" cx="845.19" cy="1310.25" rx="23.29" ry="51.77" transform="translate(-806.35 1147.12) rotate(-69.82)"/><path class="cls-14" d="M798.22,869.41V944.9c0,2.79-5.12,6.43-7.64,5.79-.36-.09,1.76-2,1.42-2.2h0l-1.71-84.94,2.39-1.63,1.77,1A7.44,7.44,0,0,1,798.22,869.41Z" transform="translate(-130.19 -504.53)"/><path class="cls-15" d="M795.83,871v75.49a4.15,4.15,0,0,1-6.22,3.59h0l.68-86.58,1.77,1A7.48,7.48,0,0,1,795.83,871Z" transform="translate(-130.19 -504.53)"/><ellipse class="cls-16" cx="484.08" cy="109.3" rx="7.48" ry="2.4"/><path class="cls-17" d="M793.16,1087.26a10.82,10.82,0,0,0-2.92-4c-1.83-1.34-6.45-1.12-7.55-2.33s1.83,0,4.09-1.45-2.87-15.73-.68-15.59,4.38,4.15,7.06,5.13,4.77,2,5.24,3.41-1.78,4.06.38,8.24a45.2,45.2,0,0,0,3.26,5.64Z" transform="translate(-130.19 -504.53)"/><path class="cls-18" d="M744.78,764.14l4.94,138.91a35.21,35.21,0,0,0,17.61,30.5l177.93,108.56c11.07,6.39,30-4.48,30-17.26V893.6a35.16,35.16,0,0,0-17.58-30.46l-188.85-109C760.34,749.21,744.78,754.33,744.78,764.14Z" transform="translate(-130.19 -504.53)"/><path class="cls-19" d="M742.64,767.06V905a35.21,35.21,0,0,0,17.61,30.5l183,105.68a16.61,16.61,0,0,0,24.91-14.38V895.51a35.16,35.16,0,0,0-17.58-30.46L761.77,756A12.75,12.75,0,0,0,742.64,767.06Z" transform="translate(-130.19 -504.53)"/><path class="cls-9" d="M755.45,780.52v22.75a5.8,5.8,0,0,0,2.91,5l30.2,17.44a2.74,2.74,0,0,0,4.11-2.37V801.72a5.83,5.83,0,0,0-2.9-5l-31.17-18A2.1,2.1,0,0,0,755.45,780.52Z" transform="translate(-130.19 -504.53)"/><polygon class="cls-10" points="838 522.23 612.46 388 612.46 360.66 838 490.88 838 522.23"/><polygon class="cls-20" points="638.8 499.62 638.8 516.9 632.96 520.62 435.1 389.07 440.94 385.34 638.8 499.62"/><line class="cls-21" x1="144.41" y1="717.35" x2="149.6" y2="714.34"/><line class="cls-22" x1="159.83" y1="708.41" x2="420.83" y2="557.23"/><line class="cls-21" x1="425.94" y1="554.27" x2="431.14" y2="551.26"/><polygon class="cls-23" points="632.96 503.35 632.96 520.62 435.1 406.35 435.1 389.07 632.96 503.35"/><path class="cls-24" d="M430.87,1377.69,505.54,1334a57.3,57.3,0,0,0,28.32-47l.38-8.79a57.27,57.27,0,0,1,28.43-47l86.82-50.51a58.08,58.08,0,0,0,28.8-47.22l2.29-44.5a60.83,60.83,0,0,1,29.85-49.27l46.65-27.52L574.32,906.82,530.75,934.7A60.83,60.83,0,0,0,502.7,986v54.11a58.09,58.09,0,0,1-29,50.3l-78.85,45.53a57.29,57.29,0,0,0-28.64,49.61v2.59a57.31,57.31,0,0,1-28.46,49.51l-74.41,43.33Z" transform="translate(-130.19 -504.53)"/><g class="cls-25"><polygon class="cls-26" points="435.81 393.9 420.85 402.54 686.57 557.28 701.52 548.23 435.81 393.9"/><polygon class="cls-26" points="400.38 415.25 666.09 570 681.05 560.94 415.33 406.62 400.38 415.25"/><polygon class="cls-26" points="355.49 557.8 621.21 712.54 636.16 703.49 370.44 549.16 355.49 557.8"/><polygon class="cls-26" points="333.05 570.76 598.75 725.5 613.73 716.45 348 562.12 333.05 570.76"/><polygon class="cls-26" points="310.6 583.72 576.32 738.46 591.27 729.41 325.56 575.08 310.6 583.72"/><polygon class="cls-26" points="288.15 596.68 553.88 751.42 568.84 742.37 303.12 588.04 288.15 596.68"/><polygon class="cls-26" points="265.71 609.64 531.42 764.38 546.39 755.33 280.68 601 265.71 609.64"/><polygon class="cls-26" points="243.26 622.6 508.99 777.34 523.95 768.29 258.23 613.96 243.26 622.6"/><polygon class="cls-26" points="215.19 706.61 480.9 861.35 495.88 852.3 230.16 697.97 215.19 706.61"/><polygon class="cls-26" points="192.75 719.57 458.46 874.31 473.43 865.26 207.71 710.93 192.75 719.57"/><polygon class="cls-26" points="170.31 732.53 436.02 887.27 450.99 878.22 185.26 723.89 170.31 732.53"/><polygon class="cls-26" points="379.9 427.97 645.62 582.71 660.59 573.66 394.87 419.33 379.9 427.97"/><polygon class="cls-26" points="377.93 449.81 641.27 603.19 641.27 587.28 377.93 433.92 377.93 449.81"/><polygon class="cls-26" points="377.87 472.88 641.21 626.26 641.21 610.34 377.87 456.99 377.87 472.88"/><polygon class="cls-26" points="377.8 495.94 641.13 649.32 641.13 633.41 377.8 480.05 377.8 495.94"/><polygon class="cls-26" points="377.73 519.01 641.08 672.39 641.08 656.47 377.73 503.12 377.73 519.01"/><polygon class="cls-26" points="236.32 647.03 499.68 800.41 499.68 784.5 236.32 631.14 236.32 647.03"/><polygon class="cls-26" points="236.26 670.1 499.61 823.48 499.61 807.56 236.26 654.21 236.26 670.1"/><polygon class="cls-26" points="236.19 693.16 499.54 846.55 499.54 830.63 236.19 677.27 236.19 693.16"/><polygon class="cls-26" points="377.67 542.07 641 695.46 641 679.54 377.67 526.18 377.67 542.07"/></g><path class="cls-27" d="M234.2,1086.44l30.15,17.15,71.73-42.41a28.43,28.43,0,0,1,42.9,24.47h0a33.79,33.79,0,0,1-16.59,29.08l-98.26,58.1-29.92-17.28v-69.11Z" transform="translate(-130.19 -504.53)"/><ellipse class="cls-28" cx="236.06" cy="577.9" rx="5.82" ry="7.04"/><path class="cls-29" d="M224.28,1343.35V1352c0,11.63-17.34,21.06-38.74,21.06s-38.73-9.43-38.73-21.06v-8.61Z" transform="translate(-130.19 -504.53)"/><path class="cls-5" d="M224.16,1334.71v8.61c0,11.63-17.34,21.06-38.74,21.06s-38.73-9.43-38.73-21.06v-8.61Z" transform="translate(-130.19 -504.53)"/><path class="cls-9" d="M146.69,1334.71c0,11.63,17.34,21.06,38.73,21.06s38.74-9.43,38.74-21.06-17.34-21.06-38.74-21.06S146.69,1323.08,146.69,1334.71Z" transform="translate(-130.19 -504.53)"/><path class="cls-30" d="M155.61,1334.45c0,8.74,13.35,15.83,29.82,15.83s29.82-7.09,29.82-15.83-13.35-15.83-29.82-15.83S155.61,1325.71,155.61,1334.45Z" transform="translate(-130.19 -504.53)"/><path class="cls-5" d="M176,1335.45l3-5.17-.7-.42-5.78,3.56-3.1-1.81,15.44-9.56,5.25,3.19a4.25,4.25,0,0,1,1.89,1.93,2.17,2.17,0,0,1-.21,2,5.8,5.8,0,0,1-2,1.85,9.38,9.38,0,0,1-3.61,1.29,8.65,8.65,0,0,1-3.81-.32l-3,5.44Zm4.88-7.15,1.9,1.14a3.25,3.25,0,0,0,1.83.5,4,4,0,0,0,1.88-.63c.61-.38,1-.76,1-1.15s-.21-.77-.8-1.12l-1.9-1.15Z" transform="translate(-130.19 -504.53)"/><path class="cls-5" d="M200.58,1336.25a2.8,2.8,0,0,1-.67,2.18,9.26,9.26,0,0,1-2.76,2.3,14.6,14.6,0,0,1-3.82,1.64,11.45,11.45,0,0,1-3.62.41,6.4,6.4,0,0,1-2.89-.81,2.47,2.47,0,0,1-1.3-1.5,2,2,0,0,1,.52-1.72l-7.85,4.76-3-1.75L193,1330.93l3,1.81-2.2,1.34a8,8,0,0,1,2.89-.34,5.61,5.61,0,0,1,2.55.77A2.67,2.67,0,0,1,200.58,1336.25Zm-8-.79a6.38,6.38,0,0,0-2.76,1,3,3,0,0,0-1.53,1.65,1.24,1.24,0,0,0,.75,1.4,3.78,3.78,0,0,0,2.32.44,6.48,6.48,0,0,0,2.74-1c.92-.56,1.45-1.11,1.58-1.65s-.12-1-.76-1.39A3.8,3.8,0,0,0,192.63,1335.46Z" transform="translate(-130.19 -504.53)"/><path class="cls-5" d="M225.17,1323.71v8.61c0,11.63-17.34,21.06-38.74,21.06s-38.73-9.43-38.73-21.06v-8.61Z" transform="translate(-130.19 -504.53)"/><path class="cls-9" d="M147.7,1323.71c0,11.63,17.34,21.06,38.73,21.06s38.74-9.43,38.74-21.06-17.34-21.06-38.74-21.06S147.7,1312.08,147.7,1323.71Z" transform="translate(-130.19 -504.53)"/><path class="cls-30" d="M156.61,1323.45c0,8.74,13.35,15.83,29.82,15.83s29.82-7.09,29.82-15.83-13.35-15.83-29.82-15.83S156.61,1314.71,156.61,1323.45Z" transform="translate(-130.19 -504.53)"/><path class="cls-5" d="M177,1324.45l3-5.17-.7-.42-5.78,3.56-3.1-1.81,15.44-9.56,5.25,3.19a4.25,4.25,0,0,1,1.89,1.93,2.17,2.17,0,0,1-.21,2,5.8,5.8,0,0,1-2,1.85,9.38,9.38,0,0,1-3.61,1.29,8.65,8.65,0,0,1-3.81-.32l-3,5.44Zm4.87-7.15,1.9,1.14a3.25,3.25,0,0,0,1.83.5,4,4,0,0,0,1.88-.63c.61-.38,1-.76,1-1.15s-.21-.77-.8-1.12l-1.9-1.15Z" transform="translate(-130.19 -504.53)"/><path class="cls-5" d="M201.58,1325.25a2.8,2.8,0,0,1-.67,2.18,9.26,9.26,0,0,1-2.76,2.3,14.6,14.6,0,0,1-3.82,1.64,11.45,11.45,0,0,1-3.62.41,6.4,6.4,0,0,1-2.89-.81,2.47,2.47,0,0,1-1.3-1.5,2,2,0,0,1,.52-1.72l-7.85,4.76-3-1.75L194,1319.93l3,1.81-2.2,1.34a8,8,0,0,1,2.89-.34,5.61,5.61,0,0,1,2.55.77A2.64,2.64,0,0,1,201.58,1325.25Zm-8-.79a6.38,6.38,0,0,0-2.76,1,3,3,0,0,0-1.53,1.65,1.24,1.24,0,0,0,.75,1.4,3.78,3.78,0,0,0,2.32.44,6.48,6.48,0,0,0,2.74-1c.92-.56,1.45-1.11,1.58-1.65s-.12-1-.76-1.39A3.8,3.8,0,0,0,193.63,1324.46Z" transform="translate(-130.19 -504.53)"/><path class="cls-5" d="M224.45,1313v8.61c0,11.63-17.34,21.06-38.74,21.06S147,1333.28,147,1321.65V1313Z" transform="translate(-130.19 -504.53)"/><path class="cls-9" d="M147,1313c0,11.63,17.34,21.06,38.73,21.06s38.74-9.43,38.74-21.06S207.11,1292,185.71,1292,147,1301.41,147,1313Z" transform="translate(-130.19 -504.53)"/><path class="cls-30" d="M155.89,1312.78c0,8.74,13.35,15.83,29.82,15.83s29.82-7.09,29.82-15.83S202.18,1297,185.71,1297,155.89,1304,155.89,1312.78Z" transform="translate(-130.19 -504.53)"/><path class="cls-5" d="M176.28,1313.78l3-5.17-.7-.42-5.78,3.56-3.1-1.81,15.44-9.56,5.25,3.19a4.25,4.25,0,0,1,1.89,1.93,2.17,2.17,0,0,1-.21,2,5.8,5.8,0,0,1-2,1.85,9.38,9.38,0,0,1-3.61,1.29,8.65,8.65,0,0,1-3.81-.32l-3,5.44Zm4.87-7.15,1.9,1.14a3.25,3.25,0,0,0,1.83.5,4,4,0,0,0,1.88-.63c.61-.38,1-.76,1-1.15s-.21-.77-.8-1.12l-1.9-1.15Z" transform="translate(-130.19 -504.53)"/><path class="cls-5" d="M200.86,1314.58a2.8,2.8,0,0,1-.67,2.18,9.26,9.26,0,0,1-2.76,2.3,14.6,14.6,0,0,1-3.82,1.64,11.16,11.16,0,0,1-3.62.41,6.4,6.4,0,0,1-2.89-.81,2.47,2.47,0,0,1-1.3-1.5,2,2,0,0,1,.52-1.72l-7.85,4.76-3-1.75,17.79-10.83,3,1.81-2.2,1.34a8,8,0,0,1,2.89-.34,5.61,5.61,0,0,1,2.55.77A2.67,2.67,0,0,1,200.86,1314.58Zm-8-.79a6.38,6.38,0,0,0-2.76,1,3,3,0,0,0-1.53,1.65,1.24,1.24,0,0,0,.75,1.4,3.78,3.78,0,0,0,2.32.44,6.48,6.48,0,0,0,2.74-1c.92-.56,1.45-1.11,1.58-1.65s-.12-1-.76-1.39A3.8,3.8,0,0,0,192.91,1313.79Z" transform="translate(-130.19 -504.53)"/><path class="cls-31" d="M840.84,1289.67s-9.74,15.65-13.27,16.95-3.66,4.86-1.62,5.31,26-9,26-9l-.23-13.27H840.84Z" transform="translate(-130.19 -504.53)"/><path class="cls-31" d="M883.18,1311.43s-9.74,15.65-13.27,17-3.66,4.86-1.62,5.31,26-9,26-9l-.23-13.27H883.18Z" transform="translate(-130.19 -504.53)"/><path class="cls-31" d="M843.66,1190.42s-5.53,45.85-6.34,64.9,0,33.4,0,33.4-1.68,3.26,6.34,4l3.53.35a4.47,4.47,0,0,0,4.69-4.52c.34-8.32,1-25,1.53-33.28.67-11.31,17.16-61.6,17.16-61.6Z" transform="translate(-130.19 -504.53)"/><path class="cls-32" d="M885,1193.72s1,38.68,2,52.47,7.47,67.36,7.47,67.36-8.67,6.16-15.44,1.83c0,0-8.94-45.55-12-68.29s-6.7-45.88-6.7-45.88Z" transform="translate(-130.19 -504.53)"/><path class="cls-33" d="M840.84,1110.51l15.17-2.92,13.09-1.12,20.83,6.72-3.09,40a113.6,113.6,0,0,0,.11,18.9l1.92,21.52-4,2.36a36.12,36.12,0,0,1-18.49,5.18h-6.07a26.12,26.12,0,0,1-13.69-4l-5.81-3.57v-83.16Z" transform="translate(-130.19 -504.53)"/><polygon class="cls-23" points="737.76 606.93 732.68 653.21 723.65 603.88 737.76 606.93"/><path class="cls-31" d="M864.07,1073.28s5.21-2.14,7.53-.56,5.77,3.26,3.84,7a56.72,56.72,0,0,1-5.89,8.36Z" transform="translate(-130.19 -504.53)"/><path class="cls-17" d="M851.13,1082.2s-.16,20.74,3.36,23,11.47-.83,13.9-9,1.42-4.81,1.42-4.81,4.06-.59,4.27-4.41-1.5-4.27-3.05-4.72-2.84,2.21-2.84,2.21l-2.87-9.63-15.89-.53Z" transform="translate(-130.19 -504.53)"/><path class="cls-17" d="M869.1,1091v15.47s-3.6,6.44-7.33,6.21a8,8,0,0,1-5.76-3.38v-9.67Z" transform="translate(-130.19 -504.53)"/><path class="cls-31" d="M862.55,1068.22c-.2,0-16.53.83-15.36,6.86.74,3.82,2.73,6.36,14.57,6.12,4.15-.08,2.26-1,2.67,2.25s-.2,4.61,1.73,5.06,2-3.63,2.38-4.13,4.63-4.08,5.14-6.33-1.22-5.42-1.82-5.42S873.79,1067.52,862.55,1068.22Z" transform="translate(-130.19 -504.53)"/><polygon class="cls-33" points="728.38 606.13 733.66 605.68 734.23 607.78 732.82 611.08 737.76 667.22 732.43 681.39 727.61 668.87 729.87 611.3 727.61 607.7 728.38 606.13"/><polygon class="cls-23" points="739.2 599.21 741.33 603.73 734.35 610.02 733.17 605 739.2 599.21"/><polygon class="cls-23" points="725.16 601.94 729.42 605.23 727.74 610.33 723.65 603.88 725.16 601.94"/><path class="cls-17" d="M837.42,1162.05s-8.45,4.68-15.44,4.32-17.65-2.84-12.84-4.32,10.81-1.36,11.46-5.39-2.9-7.57-2.9-7.57,2.3-1.89,6.48,1.45,13.23,3.29,13.23,3.29v8.22Z" transform="translate(-130.19 -504.53)"/><path class="cls-33" d="M897,1119.63h0s-5.51,34.9-30.06,41.9-31.82,5.27-31.82,5.27v-15s24.77,1.29,34.4-13c3.57-5.29,7.52-15.62,11.07-21.53A9,9,0,0,1,897,1119.63Z" transform="translate(-130.19 -504.53)"/><path class="cls-5" d="M218.79,1240.33v8.61c0,11.63-17.34,21.06-38.74,21.06s-38.73-9.43-38.73-21.06v-8.61Z" transform="translate(-130.19 -504.53)"/><path class="cls-29" d="M218.79,1249.13v8.61c0,11.63-17.34,21.06-38.74,21.06s-38.73-9.43-38.73-21.06v-8.61Z" transform="translate(-130.19 -504.53)"/><path class="cls-9" d="M141.32,1240.33c0,11.63,17.34,21.06,38.73,21.06s38.74-9.43,38.74-21.06-17.34-21.06-38.74-21.06S141.32,1228.7,141.32,1240.33Z" transform="translate(-130.19 -504.53)"/><path class="cls-30" d="M150.23,1240.07c0,8.74,13.35,15.83,29.82,15.83s29.82-7.09,29.82-15.83-13.35-15.83-29.82-15.83S150.23,1231.33,150.23,1240.07Z" transform="translate(-130.19 -504.53)"/><path class="cls-5" d="M170.61,1241.07l3-5.17-.7-.42-5.78,3.56-3.1-1.81,15.44-9.56,5.25,3.19a4.25,4.25,0,0,1,1.89,1.93,2.17,2.17,0,0,1-.21,2,5.8,5.8,0,0,1-2,1.85,9.38,9.38,0,0,1-3.61,1.29,8.65,8.65,0,0,1-3.81-.32l-3,5.44Zm4.88-7.15,1.9,1.14a3.25,3.25,0,0,0,1.83.5,4,4,0,0,0,1.88-.63c.61-.38,1-.76,1-1.15s-.21-.77-.8-1.12l-1.9-1.15Z" transform="translate(-130.19 -504.53)"/><path class="cls-5" d="M195.2,1241.87a2.8,2.8,0,0,1-.67,2.18,9.26,9.26,0,0,1-2.76,2.3A14.6,14.6,0,0,1,188,1248a11.16,11.16,0,0,1-3.62.41,6.4,6.4,0,0,1-2.89-.81,2.47,2.47,0,0,1-1.3-1.5,2,2,0,0,1,.52-1.72l-7.85,4.76-3-1.75,17.79-10.83,3,1.81-2.2,1.34a8,8,0,0,1,2.89-.34,5.61,5.61,0,0,1,2.55.77A2.67,2.67,0,0,1,195.2,1241.87Zm-7.95-.79a6.38,6.38,0,0,0-2.76,1,3,3,0,0,0-1.53,1.65,1.24,1.24,0,0,0,.75,1.4,3.78,3.78,0,0,0,2.32.44,6.48,6.48,0,0,0,2.74-1c.92-.56,1.45-1.11,1.58-1.65s-.12-1-.76-1.39A3.8,3.8,0,0,0,187.25,1241.08Z" transform="translate(-130.19 -504.53)"/><path class="cls-5" d="M219.79,1229.33v8.61c0,11.63-17.34,21.06-38.74,21.06s-38.73-9.43-38.73-21.06v-8.61Z" transform="translate(-130.19 -504.53)"/><path class="cls-9" d="M142.32,1229.33c0,11.63,17.34,21.06,38.73,21.06s38.74-9.43,38.74-21.06-17.34-21.06-38.74-21.06S142.32,1217.7,142.32,1229.33Z" transform="translate(-130.19 -504.53)"/><path class="cls-30" d="M151.24,1229.07c0,8.74,13.35,15.83,29.82,15.83s29.82-7.09,29.82-15.83-13.35-15.83-29.82-15.83S151.24,1220.33,151.24,1229.07Z" transform="translate(-130.19 -504.53)"/><path class="cls-5" d="M171.62,1230.07l3-5.17-.7-.42-5.78,3.56-3.1-1.81,15.44-9.56,5.25,3.19a4.25,4.25,0,0,1,1.89,1.93,2.17,2.17,0,0,1-.21,2,5.8,5.8,0,0,1-2,1.85,9.38,9.38,0,0,1-3.61,1.29,8.65,8.65,0,0,1-3.81-.32l-3,5.44Zm4.88-7.15,1.9,1.14a3.25,3.25,0,0,0,1.83.5,4,4,0,0,0,1.88-.63c.61-.38.95-.76,1-1.15s-.21-.77-.8-1.12l-1.9-1.15Z" transform="translate(-130.19 -504.53)"/><path class="cls-5" d="M196.21,1230.87a2.8,2.8,0,0,1-.67,2.18,9.26,9.26,0,0,1-2.76,2.3A14.6,14.6,0,0,1,189,1237a11.45,11.45,0,0,1-3.62.41,6.4,6.4,0,0,1-2.89-.81,2.47,2.47,0,0,1-1.3-1.5,2,2,0,0,1,.52-1.72l-7.85,4.76-3-1.75,17.79-10.83,3,1.81-2.2,1.34a8,8,0,0,1,2.89-.34,5.61,5.61,0,0,1,2.55.77A2.67,2.67,0,0,1,196.21,1230.87Zm-8-.79a6.38,6.38,0,0,0-2.76,1,3,3,0,0,0-1.53,1.65,1.24,1.24,0,0,0,.75,1.4,3.78,3.78,0,0,0,2.32.44,6.48,6.48,0,0,0,2.74-1c.92-.56,1.45-1.11,1.58-1.65s-.12-1-.76-1.39A3.8,3.8,0,0,0,188.26,1230.08Z" transform="translate(-130.19 -504.53)"/><path class="cls-6" d="M250.76,925.59l-90.42,90.28a10.86,10.86,0,0,1-18.5-6.85L130.22,858.36a10.86,10.86,0,0,1,16.36-10.18l102,60.38A10.86,10.86,0,0,1,250.76,925.59Z" transform="translate(-130.19 -504.53)"/><path class="cls-19" d="M822.54,664l94.6,109.41a7.28,7.28,0,0,0,12.6-3.14l34.1-148.84a7.28,7.28,0,0,0-9.23-8.59l-128.7,39.43A7.29,7.29,0,0,0,822.54,664Z" transform="translate(-130.19 -504.53)"/><path class="cls-23" d="M692.67,802.71c-4.23-4.24-8.48-8.43-12.72-12.65s-8.51-8.48-12.77-12.72c-2.11-2.1-4.2-4.27-6.36-6.22-.25-.15-.5-.3-.76-.44-.3.21-.75,0-1.13-.13L627,762.4c-.54-.14-1.19-.27-1.2.42s.66,1.15,1.13,1.62c3,3,5.9,5.93,8.84,8.93.86.88,2.1,1.58,2.44,2.75a10.17,10.17,0,0,1,0,3.39c-.11,3.49-.24,7-.36,10.45a.64.64,0,0,0,.15.54c.11.09.27,0,.38,0,.47-.16.92-.37,1.4-.51,4.9-1.41,10.4-.73,16.53,2.15A47.61,47.61,0,0,1,668,800a2.77,2.77,0,0,0,1.37.77c6.9,1.18,13.82,2.42,20.72,3.6,1.24.21,2.56.68,3.66.42v-.35A3.12,3.12,0,0,0,692.67,802.71Z" transform="translate(-130.19 -504.53)"/><path class="cls-23" d="M681.46,804.85c0-.56,0-1.19-.73-1.28-3.39-.44-6.77-.84-10.22-1.26a76.59,76.59,0,0,1,11,13.86V804.85Z" transform="translate(-130.19 -504.53)"/><path class="cls-23" d="M631.85,770.32a3.15,3.15,0,0,0,0,.37l-.3,13.64c0,.36,0,.72-.29.82-.76.24-.77,1.23-.11,2.43.52.94,1.4,1.52,2,1.27.72-.32.8-1.3.11-2.45a2.24,2.24,0,0,1-.34-1.28q.09-6.2.17-12.4C633,771.47,633.05,771.47,631.85,770.32Z" transform="translate(-130.19 -504.53)"/><path class="cls-23" d="M659.69,796.14c-18.09-10.61-32.63-2.46-32.65,18.43s14.41,46.06,32.42,56.83c18.61,11.12,33.06,2.22,32.94-18.29C692.55,832.8,678.23,807,659.69,796.14Zm-11.61,5.05a8.61,8.61,0,0,1,7.9-2.31c1.85.36,1.85.37,1.85,2.55s0,4.6,0,6.92c0,.46-.07.6-.53.36a53.55,53.55,0,0,0-10.87-4.42.74.74,0,0,1-.61-.35A11.12,11.12,0,0,1,648.08,801.19Zm-2.45-4.7-.8.79a19,19,0,0,0-3.78,5.59c-.1.2-.14.46-.41.44a20.42,20.42,0,0,0-7,.66C636.3,799.18,640.26,796.66,645.63,796.49ZM631,814a7.56,7.56,0,0,1,4.51-5.1,10.23,10.23,0,0,1,3.66-.83,50.48,50.48,0,0,0-1.1,6.28,31.77,31.77,0,0,0-.25,3.59c0,.67-.17.86-.83.46q-2.71-1.68-5.42-3.19C630.93,814.82,630.85,814.56,631,814Zm.87,5.68c1.73,1,3.47,2.07,5.2,3a1.27,1.27,0,0,1,.75,1.28,71.28,71.28,0,0,0,1.38,11.6c-3.67-4.79-6.73-9.61-8.08-15.19C630.8,819,630.82,819,631.89,819.65ZM633.65,833a65,65,0,0,0,5.12,6.73,12.8,12.8,0,0,1,3.07,5.47,64.54,64.54,0,0,0,3.73,9.41A67.86,67.86,0,0,1,633.65,833Zm24.2,32.2c0,.71-.16.74-.73.24a33.8,33.8,0,0,1-6.46-7.91,57,57,0,0,1-4.44-9.09,3.2,3.2,0,0,1-.34-1.18c1.68,1.45,3.27,2.85,4.89,4.15,2.13,1.7,4.28,3.18,6.43,4.62a1.16,1.16,0,0,1,.66,1.19Q657.78,861.22,657.85,865.24Zm0-13.76c0,.74-.17.71-.77.3-2-1.36-4-2.7-5.9-4.27a81.54,81.54,0,0,1-7-6.31,2.42,2.42,0,0,1-.67-1.23,70.76,70.76,0,0,1-1.76-10.16c-.11-1.28-.27-2.57-.31-3.82,0-.59.14-.65.63-.35,2.52,1.51,5,3,7.55,4.46s5,2.95,7.48,4.39a1.15,1.15,0,0,1,.73,1.22Q657.82,843.57,657.85,851.48Zm-.69-21.19q-3.78-2.25-7.56-4.46c-2.49-1.47-5-3-7.48-4.39a1.09,1.09,0,0,1-.68-1.17,41,41,0,0,1,2.11-11.79c.12-.34.34-.35.62-.3a38.8,38.8,0,0,1,9.09,2.79c1.32.59,2.64,1.25,4,1.85a1,1,0,0,1,.65,1.09q0,8,0,16C657.87,830.62,657.64,830.58,657.16,830.29Zm4.39-28.14c0-.59.3-.3.61,0a32,32,0,0,1,6.38,7.62,55.29,55.29,0,0,1,4.91,10.13c0,.13.08.25.19.61-1.58-1.41-3-2.66-4.45-3.82-1.8-1.45-3.61-2.79-5.43-4-.6-.4-1.2-.84-1.8-1.22a.72.72,0,0,1-.39-.7C661.56,807.87,661.56,805,661.55,802.15Zm0,14.06c0-.73.2-.76.77-.37a81.33,81.33,0,0,1,12.76,10.47,2.9,2.9,0,0,1,.84,1.47,68.3,68.3,0,0,1,1.77,10.36c.1,1.18.24,2.39.3,3.55,0,.63-.12.72-.66.4-2.52-1.52-5.05-3-7.57-4.47s-5-3-7.49-4.39a1.18,1.18,0,0,1-.71-1.25C661.56,826.73,661.57,821.48,661.54,816.21Zm.66,21.28,7.57,4.46c2.52,1.48,5.05,3,7.57,4.44a1,1,0,0,1,.64,1.09,41.77,41.77,0,0,1-2.13,11.69.47.47,0,0,1-.62.31,38.51,38.51,0,0,1-10.44-3.43c-.9-.44-1.8-.88-2.7-1.29a.79.79,0,0,1-.54-.86c0-5.39,0-10.79,0-16.2C661.54,837.06,661.83,837.27,662.2,837.49Zm8.93,29.19a8.65,8.65,0,0,1-8.19,2c-1.39-.35-1.39-.33-1.39-1.94,0-2.45,0-4.9,0-7.37,0-.51.09-.64.57-.39a53.2,53.2,0,0,0,11.19,4.53,1.55,1.55,0,0,1,.28.23A11,11,0,0,1,671.13,866.68Zm2.64,4.55c.41-.4.83-.78,1.22-1.21a18.68,18.68,0,0,0,3.27-5,.8.8,0,0,1,.89-.55,19.07,19.07,0,0,0,6.65-.69C683.15,868.56,679.17,871.08,673.77,871.23Zm6.5-11.52c.26-1.45.49-2.75.73-4a33.28,33.28,0,0,0,.59-6c0-.66.19-.72.74-.38,2,1.24,4.09,2.42,6.27,3.7C687.44,857.78,684.22,859.21,680.27,859.71Zm8.23-11.52c.13.45,0,.45-.31.28l-6.14-3.61a.88.88,0,0,1-.44-.89,66.68,66.68,0,0,0-1.08-10.05c-.09-.53-.19-1.06-.33-1.84,3.71,4.83,6.81,9.7,8.15,15.35C688.41,847.69,688.43,847.94,688.5,848.19Zm-7.28-19.67a21.26,21.26,0,0,0-1.48-1.73,6.49,6.49,0,0,1-1.73-3.08c-.5-1.78-1.19-3.57-1.89-5.35s-1.53-3.56-2.42-5.49c3.84,3.74,10.9,16.5,12.13,21.9A75.44,75.44,0,0,0,681.22,828.52Z" transform="translate(-130.19 -504.53)"/><path class="cls-3" d="M807.57,1343.71,686.8,1273.6a21.06,21.06,0,0,0-21.12,0L482.93,1379.07a10,10,0,0,0,0,17.27l120.41,69.9a23.78,23.78,0,0,0,23.84,0l180.39-104.13A10.65,10.65,0,0,0,807.57,1343.71Z" transform="translate(-130.19 -504.53)"/><path class="cls-34" d="M812.3,1344h0v-6.15l-2.07.19a10.48,10.48,0,0,0-3.23-3l-120.77-70.11a21.08,21.08,0,0,0-21.12,0L482.39,1370.32a9.9,9.9,0,0,0-2.27,1.8l-2.72.28v6.47h0a9.89,9.89,0,0,0,5,8.72l120.41,69.9a23.78,23.78,0,0,0,23.84,0L807,1353.4A10.54,10.54,0,0,0,812.3,1344Z" transform="translate(-130.19 -504.53)"/><path class="cls-23" d="M807,1328.48l-120.77-70.11a21.06,21.06,0,0,0-21.12,0L482.38,1363.84a10,10,0,0,0,0,17.27L602.77,1451a23.78,23.78,0,0,0,23.84,0L807,1346.9A10.64,10.64,0,0,0,807,1328.48Z" transform="translate(-130.19 -504.53)"/><path class="cls-35" d="M807,1346.9,626.61,1451a23.71,23.71,0,0,1-12,3.18v6.49a23.74,23.74,0,0,0,12-3.18L807,1353.4a10.53,10.53,0,0,0,5.29-9.42h0v-6.15h0A10.55,10.55,0,0,1,807,1346.9Z" transform="translate(-130.19 -504.53)"/><path class="cls-36" d="M755.67,1338.45c0,5.84,8.71,10.57,19.45,10.57s19.45-4.73,19.45-10.57-8.7-10.57-19.45-10.57S755.67,1332.61,755.67,1338.45Z" transform="translate(-130.19 -504.53)"/><path class="cls-9" d="M734.41,1350.79c0,5.84,8.7,10.57,19.45,10.57s19.45-4.73,19.45-10.57-8.7-10.57-19.45-10.57S734.41,1345,734.41,1350.79Z" transform="translate(-130.19 -504.53)"/><path class="cls-9" d="M559,1363.31l-23-13.33a4,4,0,0,0-4,0L497.32,1370a1.89,1.89,0,0,0,0,3.28l22.9,13.29a4.53,4.53,0,0,0,4.53,0l34.3-19.8A2,2,0,0,0,559,1363.31Z" transform="translate(-130.19 -504.53)"/><polygon class="cls-36" points="597.71 793.29 416.3 897.91 424.17 902.46 605.58 797.84 597.71 793.29"/><polygon class="cls-36" points="612.29 801.7 430.88 906.32 438.76 910.86 620.16 806.24 612.29 801.7"/><line class="cls-21" x1="140.09" y1="523.47" x2="145.29" y2="520.46"/><line class="cls-22" x1="155.52" y1="514.53" x2="416.51" y2="363.35"/><line class="cls-21" x1="421.63" y1="360.39" x2="426.82" y2="357.38"/><g class="cls-37"><path class="cls-38" d="M482.53,525.76a86.49,86.49,0,0,1,43.74,11.93,196,196,0,0,1,98,169.73,86.6,86.6,0,0,1-26.7,63.14,89.44,89.44,0,0,1-61.26,24.83,86.49,86.49,0,0,1-43.74-11.93,196,196,0,0,1-98-169.73,86.6,86.6,0,0,1,26.7-63.14,89.44,89.44,0,0,1,61.26-24.83m0-21.23c-56.95,0-109.2,45.55-109.2,109.19v0A217.19,217.19,0,0,0,481.92,801.83h0a108.19,108.19,0,0,0,54.35,14.77c57,0,109.2-45.55,109.2-109.19v0A217.19,217.19,0,0,0,536.88,519.3h0a108.19,108.19,0,0,0-54.35-14.77Z" transform="translate(-130.19 -504.53)"/></g><g class="cls-37"><path class="cls-38" d="M492.6,596.61a37.18,37.18,0,0,1,18.77,5.14,96.46,96.46,0,0,1,48.09,83.31c0,23.35-19.62,37.8-37.8,37.8a37.18,37.18,0,0,1-18.77-5.14,96.46,96.46,0,0,1-48.09-83.31c0-23.35,19.62-37.8,37.8-37.8m0-21.23c-30.79,0-59,24.62-59,59h0a117.41,117.41,0,0,0,58.7,101.68h0a58.51,58.51,0,0,0,29.38,8c30.79,0,59-24.62,59-59h0A117.41,117.41,0,0,0,522,583.37h0a58.36,58.36,0,0,0-29.38-8Z" transform="translate(-130.19 -504.53)"/></g><path class="cls-33" d="M803.58,1082.5s-10.27,1.57-12.06,6c0,0,17.47,29.6,20.14,31.56s32.08,13,32.08,13V1110s-19.78-2.68-24.06-5.17S803.58,1082.5,803.58,1082.5Z" transform="translate(-130.19 -504.53)"/></svg>