<svg id="Layer_1" data-name="Layer 1" xmlns="http://www.w3.org/2000/svg" xmlns:xlink="http://www.w3.org/1999/xlink" viewBox="0 0 801.45 882.85"><defs><style>.cls-1{fill:#178bf5;}.cls-2,.cls-20{fill:#606060;}.cls-2{opacity:0.22;isolation:isolate;}.cls-3{fill:#5db3c6;}.cls-4{fill:#64c5df;}.cls-5{fill:#fff;}.cls-6{fill:#18191e;}.cls-7{fill:#303135;}.cls-8{fill:url(#linear-gradient);}.cls-9{fill:url(#linear-gradient-2);}.cls-10{fill:#08090a;}.cls-11{fill:#a2d4f9;}.cls-12{fill:#12393d;}.cls-13{fill:#1a535c;}.cls-14{fill:#285e63;}.cls-15{fill:#f2cdb1;}.cls-16{fill:#94bfe0;}.cls-17{fill:#fefefe;}.cls-18{fill:#4da5ec;}.cls-19{opacity:0.19;}.cls-21{fill:none;stroke:#fff;stroke-miterlimit:10;stroke-width:4px;}.cls-22{fill:#4995ee;}.cls-23{fill:#68cadd;}.cls-24{fill:#4794c9;}</style><linearGradient id="linear-gradient" x1="598.47" y1="1019.02" x2="562.62" y2="514.8" gradientTransform="matrix(1, 0, 0, -1, 0, 1920)" gradientUnits="userSpaceOnUse"><stop offset="0" stop-color="#68cadd"/><stop offset="1" stop-color="#3583f9"/></linearGradient><linearGradient id="linear-gradient-2" x1="540.64" y1="1206.83" x2="546.23" y2="1206.83" gradientTransform="matrix(1, 0, 0, -1, -166.03, 1274.82)" xlink:href="#linear-gradient"/></defs><path class="cls-1" d="M470.23,1007.48l-262,151.26A22.74,22.74,0,0,0,199,1188l91.14,196.39a22.73,22.73,0,0,0,17.15,12.9l372,57.55a22.77,22.77,0,0,0,14.85-2.78l262-151.26a22.74,22.74,0,0,0,9.26-29.27l-91.14-196.39a22.73,22.73,0,0,0-17.15-12.9l-372-57.55A22.77,22.77,0,0,0,470.23,1007.48Z" transform="translate(-166.03 -645.18)"/><path class="cls-2" d="M754.24,1419.51l-5.72,3.39a10.4,10.4,0,0,0,.08,17.95l146.26,84.81a17.56,17.56,0,0,0,17.58,0l5.3-3.06a9.62,9.62,0,0,0,0-16.66l-149.83-86.51A13.46,13.46,0,0,0,754.24,1419.51Z" transform="translate(-166.03 -645.18)"/><path class="cls-2" d="M427.82,1370.4l21.4,12.35a23.74,23.74,0,0,0,24-.13l71.34-42.25a21,21,0,0,1,21.22-.12l114.9,66.34a17.52,17.52,0,0,0,18.09-.34L727,1388.5a5.66,5.66,0,0,0-.18-9.69l-258.48-149.7a19.4,19.4,0,0,0-20.18.45l-14.9,9.54a8.31,8.31,0,0,0,.16,14.1l71.52,43.59a6.68,6.68,0,0,1-.14,11.49l-76.94,44.42A10.22,10.22,0,0,0,427.82,1370.4Z" transform="translate(-166.03 -645.18)"/><path class="cls-3" d="M745.6,1043.5l4.93,91.25a12.08,12.08,0,0,0,6,10.4L865,1207.6a5.93,5.93,0,0,0,8.89-5.17l-.43-90.15a12.37,12.37,0,0,0-6.2-10.66l-108-62.2C755.19,1037.06,745.58,1038.78,745.6,1043.5Z" transform="translate(-166.03 -645.18)"/><path class="cls-4" d="M745.33,1045.34l.43,90a12.08,12.08,0,0,0,6,10.4l108.42,62.45a5.93,5.93,0,0,0,8.89-5.17l-.43-90.15a12.37,12.37,0,0,0-6.2-10.66l-108-62.2A6.11,6.11,0,0,0,745.33,1045.34Z" transform="translate(-166.03 -645.18)"/><path class="cls-5" d="M819.39,1145.37c1.57-2.31,2.86-4.44,4.35-6.36s3-3.41,4.56-5.07c2.49-2.67,2.4-7-.38-12.34-1.92,1.43-4.27-.25-6.77-2.62a7.69,7.69,0,0,0-2.07-1.3c-1.25-.58-2.49-.91-3.74-1.59-1.73-.95-2.21-1.9-1.74-3.42a11.92,11.92,0,0,1,1.4-2.45,7.78,7.78,0,0,1-1.09-1.76c-.25-.89-.46-2.08-.14-2.49a6.35,6.35,0,0,1,2.41-1.52c1-.5,2.15-.83,3.13-1.4s1.64-.38,2.88.85c3.21,3.2,6.44,6.27,9.63,9.36,4.8,4.64,7.28,9.93,7.13,15.41-.24,8.6-.5,17.06-.88,25.35-.23,5.25-.92,10.11-3.67,13.33a10,10,0,0,0-1.42,3.43c-.71,2.29-1.89,2.85-4.53,1.08-4.29-2.89-8.55-6.18-12.89-9.24-4.19-2.95-8.42-5.9-12.69-8.69a47.64,47.64,0,0,1-17.48-20.13,10.62,10.62,0,0,0-5.11-5.3c-2.57-1.17-4.41-3.39-6.12-6.11-6.76-10.78-7.87-22.61-2.43-27.52,2.34-2.11,4.48-1.69,8.49,1.71a70.64,70.64,0,0,1,19.12,25.16,6,6,0,0,0,1.7,2.08,50.71,50.71,0,0,1,14.62,16.4C816.69,1141.93,818,1143.51,819.39,1145.37Z" transform="translate(-166.03 -645.18)"/><path class="cls-6" d="M523,649.25,708.75,756.52a51.67,51.67,0,0,1,25.83,44.72l.3,560.45c0,20.91-35.41,41.37-53.52,30.92L499.71,1273A37.45,37.45,0,0,1,481,1240.33l-8.61-571.76C472.51,648.51,505.6,639.22,523,649.25Z" transform="translate(-166.03 -645.18)"/><path class="cls-7" d="M503.22,655.14,689,762.4a51.67,51.67,0,0,1,25.83,44.72l.3,560.45a27.15,27.15,0,0,1-40.73,23.53L480,1278.83a37.45,37.45,0,0,1-18.73-32.62L464,677.63A26.16,26.16,0,0,1,503.22,655.14Z" transform="translate(-166.03 -645.18)"/><path class="cls-8" d="M493.39,668.77,686.58,780.59a48.37,48.37,0,0,1,25.12,42.09l.29,527.54c0,19.68-22,32-39.6,22.14L483.32,1266.69A35.08,35.08,0,0,1,465.11,1236l2.79-543.59C468,673.5,476.49,659.32,493.39,668.77Z" transform="translate(-166.03 -645.18)"/><path class="cls-7" d="M531.08,689.85V717A19.81,19.81,0,0,0,541,734.18l69.88,40.32A11.88,11.88,0,0,0,628.55,766l2.75-18.12Z" transform="translate(-166.03 -645.18)"/><ellipse class="cls-9" cx="377.41" cy="67.99" rx="2.8" ry="7.15"/><ellipse class="cls-6" cx="377.41" cy="67.99" rx="2.45" ry="6.26"/><path class="cls-6" d="M556,721.54V722a3.76,3.76,0,0,0,1.88,3.26L607.8,754a2,2,0,0,0,3-1.72v-.22a4.29,4.29,0,0,0-2.16-3.72l-49.89-28.4A1.84,1.84,0,0,0,556,721.54Z" transform="translate(-166.03 -645.18)"/><path class="cls-10" d="M729.25,1043.46l.74,54.29c0,3.12-5.72,7.19-8.53,6.47-.4-.1,2-2.23,1.58-2.45h0l-2.65-64.86,2.67-1.82,2,1.13A8.32,8.32,0,0,1,729.25,1043.46Z" transform="translate(-166.03 -645.18)"/><path class="cls-6" d="M726.58,1045.29l.74,54.29a4.63,4.63,0,0,1-7,4h0l0-66.68,2,1.13A8.34,8.34,0,0,1,726.58,1045.29Z" transform="translate(-166.03 -645.18)"/><path class="cls-10" d="M729.63,946.12v84.35c0,3.12-5.72,7.19-8.53,6.47-.4-.1,2-2.23,1.58-2.45h0l-1.91-94.92,2.67-1.82,2,1.13A8.32,8.32,0,0,1,729.63,946.12Z" transform="translate(-166.03 -645.18)"/><path class="cls-6" d="M727,947.94v84.35a4.63,4.63,0,0,1-7,4h0l.76-96.74,2,1.13A8.34,8.34,0,0,1,727,947.94Z" transform="translate(-166.03 -645.18)"/><path class="cls-10" d="M730.43,848.65V933c0,3.12-5.72,7.19-8.53,6.47-.4-.1,2-2.23,1.58-2.45h0l-1.91-94.92,2.67-1.82,2,1.13A8.32,8.32,0,0,1,730.43,848.65Z" transform="translate(-166.03 -645.18)"/><path class="cls-6" d="M727.76,850.48v84.35a4.63,4.63,0,0,1-7,4h0l.76-96.74,2,1.13A8.34,8.34,0,0,1,727.76,850.48Z" transform="translate(-166.03 -645.18)"/><path class="cls-1" d="M486.83,918.29l.46,29.4a11.19,11.19,0,0,0,5.58,9.51l164.65,95.43a6.53,6.53,0,0,0,9.81-5.65v-25.87a11.6,11.6,0,0,0-5.8-10.05L493.79,914.2A4.64,4.64,0,0,0,486.83,918.29Z" transform="translate(-166.03 -645.18)"/><path class="cls-11" d="M486.52,1000.81l.64,11.92a11.25,11.25,0,0,0,5.6,9.14L657,1117.06a6.78,6.78,0,0,0,10.18-6l-.15-7.43a11.6,11.6,0,0,0-5.8-10L493.49,996.71A4.65,4.65,0,0,0,486.52,1000.81Z" transform="translate(-166.03 -645.18)"/><path class="cls-11" d="M486.52,1034.25l.64,11.92a11.25,11.25,0,0,0,5.6,9.14L657,1150.5a6.78,6.78,0,0,0,10.18-6l-.15-7.43a11.6,11.6,0,0,0-5.8-10l-167.74-96.86A4.65,4.65,0,0,0,486.52,1034.25Z" transform="translate(-166.03 -645.18)"/><path class="cls-11" d="M486.52,1067.69l.64,11.92a11.25,11.25,0,0,0,5.6,9.14L657,1183.94a6.78,6.78,0,0,0,10.18-6l-.15-7.43a11.6,11.6,0,0,0-5.8-10l-167.74-96.86A4.66,4.66,0,0,0,486.52,1067.69Z" transform="translate(-166.03 -645.18)"/><path class="cls-11" d="M486.52,1101.14l.64,11.92a11.25,11.25,0,0,0,5.6,9.14L657,1217.39a6.78,6.78,0,0,0,10.18-6L667,1204a11.6,11.6,0,0,0-5.8-10L493.49,1097A4.65,4.65,0,0,0,486.52,1101.14Z" transform="translate(-166.03 -645.18)"/><path class="cls-11" d="M486.52,1134.58l.64,11.92a11.25,11.25,0,0,0,5.6,9.14L657,1250.83a6.78,6.78,0,0,0,10.18-6l-.15-7.43a11.6,11.6,0,0,0-5.8-10.05l-167.74-96.86A4.65,4.65,0,0,0,486.52,1134.58Z" transform="translate(-166.03 -645.18)"/><path class="cls-11" d="M486.52,1168l.64,11.92a11.25,11.25,0,0,0,5.6,9.14L657,1284.27a6.78,6.78,0,0,0,10.18-6l-.15-7.43a11.6,11.6,0,0,0-5.8-10l-167.74-96.86A4.66,4.66,0,0,0,486.52,1168Z" transform="translate(-166.03 -645.18)"/><path class="cls-11" d="M486.52,1201.47l.64,11.92a11.25,11.25,0,0,0,5.6,9.14L657,1317.72a6.78,6.78,0,0,0,10.18-6l-.15-7.43a11.6,11.6,0,0,0-5.8-10l-167.74-96.86A4.65,4.65,0,0,0,486.52,1201.47Z" transform="translate(-166.03 -645.18)"/><path class="cls-5" d="M547.87,970.86a10.37,10.37,0,0,1,.78,3.84c0,1.79-.35,3-1.1,3.6s-1.85.49-3.28-.35l-5.38-3.15V953.7l5.19,3a7.77,7.77,0,0,1,3.08,3.17,9.55,9.55,0,0,1,1.1,4.51,4.74,4.74,0,0,1-.64,2.87,1.66,1.66,0,0,1-1.75.65A7.85,7.85,0,0,1,547.87,970.86ZM541,963.94l2.68,1.55c.76.44,1.34.5,1.74.17a2.53,2.53,0,0,0,.59-2,5.9,5.9,0,0,0-.61-2.64,4.52,4.52,0,0,0-1.81-1.87L541,957.67Zm4.7,11.11a2.54,2.54,0,0,0,.67-2.11,6.25,6.25,0,0,0-.7-2.91,5,5,0,0,0-1.93-2l-2.72-1.58v6.79l2.75,1.61C544.65,975.31,545.29,975.38,545.74,975.05Z" transform="translate(-166.03 -645.18)"/><path class="cls-5" d="M558.89,981.82l-5.79-3.37-1,4.09-2.36-1.38L554.52,963l2.51,1.44,5.4,24.16-2.39-1.4Zm-.66-3.07-2.41-11.34-2.12,8.7Z" transform="translate(-166.03 -645.18)"/><path class="cls-5" d="M574,973.82,569.78,985l.2,8-2.28-1.33-.19-8-4.9-16.37,2.55,1.46,3.39,11.8,2.91-8.19Z" transform="translate(-166.03 -645.18)"/><path class="cls-5" d="M584.64,996.82l-6-3.48-.92,4.21-2.44-1.43,4.47-18.68,2.59,1.48,6,24.86-2.47-1.45Zm-.75-3.16L581.19,982l-2,8.94Z" transform="translate(-166.03 -645.18)"/><path class="cls-5" d="M597.68,1009.23l-4-11.15-1.64-1,.39,9-2.32-1.36-.92-22.29,5,2.85a9.63,9.63,0,0,1,3.78,4,13.44,13.44,0,0,1,1.51,5.65,5.9,5.9,0,0,1-.73,3.78,2.17,2.17,0,0,1-2.63.58l4.23,11.45Zm-5.75-14.67,2.55,1.47q2.81,1.62,2.62-2.25a7.9,7.9,0,0,0-.81-3.24,5.37,5.37,0,0,0-2.15-2.23l-2.53-1.45Z" transform="translate(-166.03 -645.18)"/><path class="cls-12" d="M448.63,1337.31s-3.89,13.44-3.08,17.81.86,11.43,1.48,11.79,7.91,1.59,10,0c0,0-1.23-3.17,2.46-3.35s11.79,2.07,22-3.35,15.55-11.57,16-14.16-5.34-3.71-7.61-4-13.34,3.8-18.82,2.5a22,22,0,0,1-9.36-5.18Z" transform="translate(-166.03 -645.18)"/><path class="cls-12" d="M465.3,1179.45s1,23.62,4.68,36.18,10.68,91.15,12.72,101.08l2,9.93s10,1.41,15.35-6.58c0,0-.15-62.9,3.43-73.65s9.46-33.42,10.4-45.58a96.11,96.11,0,0,1,3.57-20.26l-50.88-1.12" transform="translate(-166.03 -645.18)"/><path class="cls-13" d="M447.91,1336.79s7.35-47.32,17.39-67,12-54.83,9.87-64.6a53,53,0,0,1-.25-19.09l42.56-1.37L465.3,1340.14S454.63,1346.3,447.91,1336.79Z" transform="translate(-166.03 -645.18)"/><path class="cls-14" d="M521.66,1002s5.45-.86,13.22,5c0,0-7.58,42.27-23.19,56.68S476.9,1095,476.9,1095l-15.16,24.22s-5.51-23.72,0-33.48S517.71,1020.1,521.66,1002Z" transform="translate(-166.03 -645.18)"/><path class="cls-15" d="M484.74,1080.49v5.22s3.72,5.6,17.65,3.35v-13.39l-13.89-3.35Z" transform="translate(-166.03 -645.18)"/><path class="cls-15" d="M495.77,1042.19s8.72,14.18,11.8,20.09,4.05,11.32,2.75,13.39-9.26,2.69-11.5,1.1-10.53-.49-11.82-5.51-1.13-15.17-.65-15.68S495.77,1042.19,495.77,1042.19Z" transform="translate(-166.03 -645.18)"/><path class="cls-12" d="M492.67,1081.3s-5.83,4.62-13.36,0-17.73-14.27-15.06-25.72,13.36-20.43,21.13-20.92,10.93,4.37,10.93,12.87,5.61,15.77,3.78,18.09-9.12-3.77-9.12,0,2.84,8.42,5.1,8.71S492.67,1081.3,492.67,1081.3Z" transform="translate(-166.03 -645.18)"/><path class="cls-5" d="M483.68,1085.71s-6.86,3.15-4.4,5.32,14.6,4.84,23.1,3.63,7.06-2.25,7.06-2.25l-2.44-6.7Z" transform="translate(-166.03 -645.18)"/><path class="cls-14" d="M461.74,1119.19s3.28,60.42,3.56,60.26,15.62,19.07,52.18,6.7l4.66-60.92s4.76-20.09,3.43-24.8-16.73-9.66-16.73-9.66l-29.56.26S460.92,1104.19,461.74,1119.19Z" transform="translate(-166.03 -645.18)"/><path class="cls-12" d="M499,1320.05c2.7,4.84,15.3-.46,22.35-3.35s11-1.89,13.54,0-4.31,8.47-14,14.79-15.79,9.72-19.43,8.65,0,5.91-1.32,6.7-9.61,3.6-11.6,1.9-2.14-25.34-2.14-25.34Z" transform="translate(-166.03 -645.18)"/><path class="cls-15" d="M525.18,1002.28s-.64-13.93,0-16.19,7.81-3.08,11.05-5.18,9-8.31,10.24-9,4.65-1.51,2.87,1.73-5.84,7-6.15,11.66-4.86,18-9.23,22.34Z" transform="translate(-166.03 -645.18)"/><path class="cls-15" d="M535.75,1002s6-1.8,8.42-4.55,4.7-10.35,3.89-12.14-1.3,2.81-4.86,4.16a48.92,48.92,0,0,1-7.45,2Z" transform="translate(-166.03 -645.18)"/><path class="cls-14" d="M525.48,1103.21l7.51,49.46,18.14,46.87s-4.45,8.08-9.15,6.7L513.88,1156l-7.25-50a9.9,9.9,0,0,1,6.76-11,9.1,9.1,0,0,1,4.66-.15A9.85,9.85,0,0,1,525.48,1103.21Z" transform="translate(-166.03 -645.18)"/><path class="cls-15" d="M543.11,1202.88c1.62,5.47-4.05,7.16,0,12s11.44,9.42,12.28,8.1,1.42-10.77,0-15.19-6.37-8.24-6.37-8.24Z" transform="translate(-166.03 -645.18)"/><path class="cls-15" d="M555.34,1219.62s-.12,6.69-1.7,8.88-4,4.13-5.22,2.55-1.84-.07-3.35-3.92-3.49-4.43-2.72-8.35a47.41,47.41,0,0,0,.73-8.26Z" transform="translate(-166.03 -645.18)"/><path class="cls-5" d="M613.57,827.05c-4.73-4.73-9.48-9.41-14.21-14.14s-9.51-9.47-14.26-14.21c-2.36-2.35-4.69-4.77-7.1-7l-.85-.5c-.34.23-.83,0-1.27-.15L540.21,782c-.6-.15-1.33-.3-1.34.46s.74,1.29,1.26,1.81c3.29,3.32,6.59,6.63,9.87,10,1,1,2.35,1.77,2.73,3.07a11.49,11.49,0,0,1,0,3.79c-.13,3.9-.27,7.78-.41,11.67a.71.71,0,0,0,.17.6.45.45,0,0,0,.42,0c.53-.18,1-.42,1.56-.57,5.48-1.57,11.62-.81,18.47,2.4A53.19,53.19,0,0,1,586,824a3.15,3.15,0,0,0,1.53.87c7.71,1.32,15.44,2.71,23.15,4,1.38.23,2.86.76,4.09.47V829A3.4,3.4,0,0,0,613.57,827.05Z" transform="translate(-166.03 -645.18)"/><path class="cls-5" d="M601.05,829.45c0-.62,0-1.33-.82-1.44-3.79-.49-7.56-.94-11.42-1.41A85.21,85.21,0,0,1,601,842.08v-2C601.05,836.56,601.05,833,601.05,829.45Z" transform="translate(-166.03 -645.18)"/><path class="cls-5" d="M545.61,790.86a4.09,4.09,0,0,0-.05.41l-.33,15.24c0,.4,0,.8-.33.92-.85.27-.86,1.37-.12,2.72.58,1.05,1.57,1.69,2.19,1.42.8-.35.89-1.45.12-2.73a2.37,2.37,0,0,1-.37-1.43q.1-6.93.2-13.86C546.94,792.14,547,792.15,545.61,790.86Z" transform="translate(-166.03 -645.18)"/><path class="cls-5" d="M576.73,819.71c-20.22-11.86-36.46-2.75-36.49,20.6s16.1,51.47,36.23,63.5c20.79,12.43,36.94,2.48,36.81-20.44C613.44,860.67,597.43,831.86,576.73,819.71Zm-13,5.64a9.66,9.66,0,0,1,8.83-2.59c2.06.41,2.06.41,2.06,2.85s0,5.14,0,7.73c0,.52-.08.67-.59.4a59.47,59.47,0,0,0-12.15-4.94.84.84,0,0,1-.68-.39A12.64,12.64,0,0,1,563.75,825.35ZM561,820.1l-.9.88a21.22,21.22,0,0,0-4.22,6.24c-.11.23-.16.51-.46.49a22.63,22.63,0,0,0-7.79.74C550.59,823.11,555,820.29,561,820.1Zm-16.32,19.54a8.47,8.47,0,0,1,5-5.69,11.62,11.62,0,0,1,4.09-.93,56.5,56.5,0,0,0-1.23,7,34.26,34.26,0,0,0-.28,4c0,.75-.2,1-.92.51-2-1.25-4-2.43-6.06-3.57C544.58,840.58,544.5,840.29,544.69,839.64Zm1,6.34c1.94,1.14,3.87,2.31,5.81,3.4a1.42,1.42,0,0,1,.84,1.43,80,80,0,0,0,1.54,13c-4.1-5.35-7.52-10.74-9-17C544.44,845.28,544.46,845.28,545.65,846Zm2,15a72.9,72.9,0,0,0,5.73,7.52,14.36,14.36,0,0,1,3.43,6.11A72.41,72.41,0,0,0,561,885.09,76,76,0,0,1,547.62,861Zm27,36c0,.79-.17.83-.82.27a37.91,37.91,0,0,1-7.22-8.84,64,64,0,0,1-5-10.16,3.66,3.66,0,0,1-.38-1.31c1.87,1.62,3.65,3.19,5.46,4.64,2.38,1.9,4.78,3.55,7.19,5.16a1.31,1.31,0,0,1,.74,1.33Q574.61,892.42,574.66,896.92Zm0-15.38c0,.83-.19.79-.86.33-2.21-1.52-4.41-3-6.59-4.77a94.25,94.25,0,0,1-7.82-7.05,2.68,2.68,0,0,1-.74-1.38,78.29,78.29,0,0,1-2-11.35c-.13-1.43-.3-2.88-.34-4.26,0-.66.16-.72.7-.39,2.81,1.69,5.63,3.33,8.44,5s5.58,3.3,8.36,4.91a1.3,1.3,0,0,1,.82,1.37C574.63,869.78,574.63,875.66,574.66,881.54Zm-.77-23.68c-2.82-1.68-5.63-3.33-8.45-5s-5.57-3.3-8.36-4.9a1.2,1.2,0,0,1-.75-1.3,45.88,45.88,0,0,1,2.35-13.17c.13-.38.39-.39.7-.33a42.79,42.79,0,0,1,10.15,3.12c1.48.66,3,1.4,4.43,2.07a1.11,1.11,0,0,1,.73,1.21q0,8.94,0,17.92C574.69,858.24,574.43,858.19,573.89,857.86Zm4.91-31.44c0-.66.33-.34.68,0a35.48,35.48,0,0,1,7.13,8.52,61.51,61.51,0,0,1,5.49,11.32c0,.14.09.28.21.68-1.77-1.57-3.36-3-5-4.26-2-1.61-4-3.12-6.07-4.47-.67-.44-1.34-.94-2-1.37a.81.81,0,0,1-.44-.78C578.81,832.81,578.81,829.62,578.8,826.42Zm0,15.71c0-.82.22-.85.86-.41a91.58,91.58,0,0,1,14.26,11.69,3.17,3.17,0,0,1,.93,1.64,77.34,77.34,0,0,1,2,11.58c.11,1.32.26,2.67.33,4,0,.7-.14.81-.74.44-2.82-1.7-5.64-3.33-8.46-5s-5.58-3.31-8.37-4.91a1.3,1.3,0,0,1-.79-1.4C578.81,853.89,578.82,848,578.79,842.13Zm.74,23.78,8.46,5c2.82,1.66,5.64,3.33,8.46,5a1.14,1.14,0,0,1,.72,1.22,47,47,0,0,1-2.38,13.06c-.12.34-.36.41-.7.35a43.38,43.38,0,0,1-11.67-3.83c-1-.49-2-1-3-1.44a.89.89,0,0,1-.6-1c0-6,0-12.06,0-18.11C578.79,865.43,579.11,865.66,579.53,865.91Zm10,32.62a9.63,9.63,0,0,1-9.15,2.24c-1.56-.39-1.55-.36-1.55-2.17,0-2.74,0-5.48,0-8.23,0-.57.1-.72.64-.44A58.42,58.42,0,0,0,592,895c.07,0,.16.13.31.25A12.42,12.42,0,0,1,589.51,898.53Zm3,5.08c.46-.45.93-.87,1.37-1.35a21.17,21.17,0,0,0,3.66-5.61.91.91,0,0,1,1-.62,21.27,21.27,0,0,0,7.43-.77C602.94,900.63,598.49,903.45,592.46,903.61Zm7.25-12.87c.29-1.62.54-3.07.82-4.5a37.14,37.14,0,0,0,.66-6.67c0-.73.21-.8.83-.42,2.29,1.39,4.57,2.71,7,4.14C607.73,888.59,604.14,890.18,599.71,890.74Zm9.2-12.87c.14.5,0,.5-.34.31l-6.87-4a1,1,0,0,1-.49-1A73.57,73.57,0,0,0,600,861.92c-.1-.59-.21-1.18-.37-2,4.15,5.4,7.61,10.84,9.11,17.15C608.81,877.31,608.83,877.59,608.91,877.87Zm-8.13-22a24.19,24.19,0,0,0-1.65-1.93,7.25,7.25,0,0,1-1.93-3.44c-.56-2-1.33-4-2.11-6s-1.71-4-2.7-6.13c4.29,4.18,12.18,18.43,13.55,24.47A86.66,86.66,0,0,0,600.78,855.89Z" transform="translate(-166.03 -645.18)"/><path class="cls-16" d="M734.78,1156.11l4.45,249.1a16.61,16.61,0,0,0,8.29,14.34L901.88,1509a11.53,11.53,0,0,0,17.31-10V1261.48a14.59,14.59,0,0,0-7.31-12.65l-166.24-96C742.53,1151,734.73,1152.51,734.78,1156.11Z" transform="translate(-166.03 -645.18)"/><path class="cls-17" d="M734.08,1160.67l.54,248.29a16.61,16.61,0,0,0,8.29,14.34l154.36,89.47a11.53,11.53,0,0,0,17.31-10V1265.23a14.59,14.59,0,0,0-7.31-12.65l-166.24-96A4.63,4.63,0,0,0,734.08,1160.67Z" transform="translate(-166.03 -645.18)"/><path class="cls-4" d="M733.92,1158.88l.56,35.74,179.94,104.29V1261.7a11.6,11.6,0,0,0-5.8-10l-167.74-96.86A4.64,4.64,0,0,0,733.92,1158.88Z" transform="translate(-166.03 -645.18)"/><path class="cls-18" d="M742.19,1221.06V1328.6a11.36,11.36,0,0,0,5.65,9.83L894,1423.67a6.49,6.49,0,0,0,9.76-5.61V1314.4a10.06,10.06,0,0,0-5-8.71l-151.59-87.53A3.34,3.34,0,0,0,742.19,1221.06Z" transform="translate(-166.03 -645.18)"/><path class="cls-11" d="M742.73,1350.57l-.1,12a8.45,8.45,0,0,0,4.2,7.38l149.88,87.39a5,5,0,0,0,7.56-4.3l.07-9.16a10.06,10.06,0,0,0-5-8.71l-151.59-87.53A3.32,3.32,0,0,0,742.73,1350.57Z" transform="translate(-166.03 -645.18)"/><path class="cls-11" d="M742.73,1381.1l-.1,12.05a8.45,8.45,0,0,0,4.2,7.38l149.88,87.39a5,5,0,0,0,7.56-4.3l.07-9.16a10.06,10.06,0,0,0-5-8.71l-151.59-87.53A3.33,3.33,0,0,0,742.73,1381.1Z" transform="translate(-166.03 -645.18)"/><path class="cls-5" d="M805.84,1321l8.63,23.76,1.73-4.3c.06-.15.1-.31.17-.45.22-.42.32-.82-.16-1.64a8.35,8.35,0,0,1-.55-1.78c-.39-1.2-.8-2.41-1.2-3.61-.46-1.39,0-2.17,1.14-1.89a3.52,3.52,0,0,1,1,.42c1.66,1,3.32,1.87,5,2.94a7.93,7.93,0,0,1,1.79,1.74,1.91,1.91,0,0,1,.39,2.1c-.56,1-1.06,2.09-1.58,3.14,0,.09-.07.21-.15.23-.71.18-.39,1-.16,1.83.52,1.87,1,3.73,1.53,5.6.08.29.18.59.31,1l8.63-13.6a2.24,2.24,0,0,1,.22.22,73.15,73.15,0,0,0,15,15.16c1.39,1.06,2.77,2.18,4.14,3.31a21.17,21.17,0,0,1,7.23,11,44.75,44.75,0,0,1,1.4,8.55c.1,1.23.15,2.45.17,3.64a1,1,0,0,1-.33.84c-8.63,5.51-19.58,5.75-33-.3-19.66-8.86-35.83-25-48.51-47.69a2.81,2.81,0,0,1-.36-1.29,38.39,38.39,0,0,1,1.09-9c1.08-4.12,3.9-5.28,8.66-3.37,2.46,1,4.92,1.9,7.35,2.67A20.36,20.36,0,0,0,805.84,1321Z" transform="translate(-166.03 -645.18)"/><path class="cls-5" d="M819.06,1276.15a38.48,38.48,0,0,1,12.13,10.79.88.88,0,0,0,.12.15,25.12,25.12,0,0,1,6.84,13.94c.45,2.71.62,5.31.9,8a6.15,6.15,0,0,0,.62,2.1,10.51,10.51,0,0,1-.45,9.55,2.05,2.05,0,0,1-1.76,1.1c-.21,0-.32.26-.43.46-1.82,3.55-4.3,6.27-7.93,7.55a10.71,10.71,0,0,1-7.65-.25c-3.61-1.38-6.85-4.24-9.83-8a58.9,58.9,0,0,1-8.15-14.23c-.8-2-1.42-3.89-2.15-5.83a7.19,7.19,0,0,0-.64-1.13,16.4,16.4,0,0,1-1.14-1.81c-1.72-3.92-2.31-7.42-1.58-10.33.13-.53.72-.7,1-1.09a1.44,1.44,0,0,0,.3-.78c.17-1.92.24-3.91.47-5.79a11.78,11.78,0,0,1,1.84-5.36,5,5,0,0,1,5.09-2.13,1.62,1.62,0,0,0,.49,0C810.72,1272.32,814.75,1273.68,819.06,1276.15Z" transform="translate(-166.03 -645.18)"/><path class="cls-5" d="M740.26,1178.62h0a7.59,7.59,0,0,0,3.79,6.57h0a3.81,3.81,0,0,0,5.71-3.3h0a7.59,7.59,0,0,0-3.79-6.57h0A3.81,3.81,0,0,0,740.26,1178.62Z" transform="translate(-166.03 -645.18)"/><path class="cls-5" d="M752,1185.27h0a7.59,7.59,0,0,0,3.79,6.57h0a3.81,3.81,0,0,0,5.71-3.3h0a7.59,7.59,0,0,0-3.79-6.57h0A3.81,3.81,0,0,0,752,1185.27Z" transform="translate(-166.03 -645.18)"/><path class="cls-5" d="M763.76,1191.92h0a7.59,7.59,0,0,0,3.79,6.57h0a3.81,3.81,0,0,0,5.71-3.3h0a7.59,7.59,0,0,0-3.79-6.57h0A3.81,3.81,0,0,0,763.76,1191.92Z" transform="translate(-166.03 -645.18)"/><g class="cls-19"><path class="cls-20" d="M720.63,674.94a86.49,86.49,0,0,1,43.74,11.93,196,196,0,0,1,98,169.73,86.6,86.6,0,0,1-26.7,63.14,89.44,89.44,0,0,1-61.26,24.83,86.49,86.49,0,0,1-43.74-11.93,196,196,0,0,1-98-169.73,86.6,86.6,0,0,1,26.7-63.14,89.44,89.44,0,0,1,61.26-24.83m0-21.23c-57,0-109.2,45.55-109.2,109.19v0A217.19,217.19,0,0,0,720,951h0a108.19,108.19,0,0,0,54.35,14.77c57,0,109.2-45.55,109.2-109.19v0A217.19,217.19,0,0,0,775,668.48h0a108.13,108.13,0,0,0-54.35-14.77Z" transform="translate(-166.03 -645.18)"/></g><g class="cls-19"><path class="cls-20" d="M730.71,745.79a37.18,37.18,0,0,1,18.77,5.14,96.46,96.46,0,0,1,48.09,83.31c0,23.35-19.62,37.8-37.8,37.8A37.18,37.18,0,0,1,741,866.9a96.46,96.46,0,0,1-48.09-83.31c0-23.35,19.62-37.8,37.8-37.8m0-21.23c-30.79,0-59,24.62-59,59h0a117.41,117.41,0,0,0,58.7,101.68h0a58.51,58.51,0,0,0,29.38,8c30.79,0,59-24.62,59-59h0a117.41,117.41,0,0,0-58.7-101.68h0a58.41,58.41,0,0,0-29.38-8Z" transform="translate(-166.03 -645.18)"/></g><g class="cls-19"><path class="cls-20" d="M363.75,747.78a86.49,86.49,0,0,1,43.74,11.93,196,196,0,0,1,98,169.73,86.6,86.6,0,0,1-26.7,63.14,89.44,89.44,0,0,1-61.26,24.83,86.49,86.49,0,0,1-43.74-11.93,196,196,0,0,1-98-169.73,86.6,86.6,0,0,1,26.7-63.14,89.39,89.39,0,0,1,61.26-24.83m0-21.24c-56.95,0-109.2,45.55-109.2,109.19v0a217.19,217.19,0,0,0,108.59,188.09h0a108.19,108.19,0,0,0,54.35,14.77c56.95,0,109.2-45.55,109.2-109.19v0A217.19,217.19,0,0,0,418.1,741.31h0a108.19,108.19,0,0,0-54.35-14.77Z" transform="translate(-166.03 -645.18)"/></g><g class="cls-19"><path class="cls-20" d="M373.82,818.62a37.18,37.18,0,0,1,18.77,5.14,96.46,96.46,0,0,1,48.09,83.31c0,23.35-19.62,37.8-37.8,37.8a37.18,37.18,0,0,1-18.77-5.14A96.46,96.46,0,0,1,336,856.42c0-23.34,19.62-37.8,37.8-37.8m0-21.23c-30.79,0-59,24.62-59,59h0a117.41,117.41,0,0,0,58.7,101.68h0a58.51,58.51,0,0,0,29.38,8c30.79,0,59-24.62,59-59h0a117.41,117.41,0,0,0-58.7-101.68h0a58.46,58.46,0,0,0-29.38-8Z" transform="translate(-166.03 -645.18)"/></g><path class="cls-16" d="M261.55,786.71l.54,248.29a16.61,16.61,0,0,0,8.29,14.34l154.36,89.47a11.53,11.53,0,0,0,17.31-10V891.26a14.59,14.59,0,0,0-7.31-12.65l-166.24-96A4.64,4.64,0,0,0,261.55,786.71Z" transform="translate(-166.03 -645.18)"/><path class="cls-17" d="M256.94,790.45l.54,248.29a16.61,16.61,0,0,0,8.29,14.34l154.36,89.47a11.53,11.53,0,0,0,17.31-10V895a14.59,14.59,0,0,0-7.31-12.65l-166.24-96A4.63,4.63,0,0,0,256.94,790.45Z" transform="translate(-166.03 -645.18)"/><path class="cls-1" d="M256.77,788.66l.56,35.74L437.27,928.69V891.48a11.6,11.6,0,0,0-5.8-10.05L263.73,784.57A4.65,4.65,0,0,0,256.77,788.66Z" transform="translate(-166.03 -645.18)"/><path class="cls-1" d="M265.05,850.85l-.85,144.38a15,15,0,0,0,7.45,13.06l145.42,84.78a5.82,5.82,0,0,0,8.75-5l.85-143.88a10.06,10.06,0,0,0-5-8.71L270.05,848A3.33,3.33,0,0,0,265.05,850.85Z" transform="translate(-166.03 -645.18)"/><path class="cls-1" d="M265,1024.69l0,15a9.48,9.48,0,0,0,4.67,8.15l66.72,39.32a3.22,3.22,0,0,0,4.86-2.78l-.05-18.42a7.2,7.2,0,0,0-3.59-6.2L271,1021.23A4,4,0,0,0,265,1024.69Z" transform="translate(-166.03 -645.18)"/><path class="cls-1" d="M349.81,1072.85l0,15a9.48,9.48,0,0,0,4.67,8.15l66.72,39.32a3.22,3.22,0,0,0,4.86-2.78l-.05-18.42a7.2,7.2,0,0,0-3.59-6.2l-66.64-38.48A4,4,0,0,0,349.81,1072.85Z" transform="translate(-166.03 -645.18)"/><polyline class="cls-21" points="103.87 342.19 137.37 312.84 146.82 316.71 156.44 312.46 162.3 320.16 187.77 305.44 220.72 318.32 255.98 301.95"/><path class="cls-5" d="M262.35,809.1h0a7.59,7.59,0,0,0,3.79,6.57h0a3.81,3.81,0,0,0,5.71-3.3h0a7.59,7.59,0,0,0-3.79-6.57h0A3.81,3.81,0,0,0,262.35,809.1Z" transform="translate(-166.03 -645.18)"/><path class="cls-5" d="M274.1,815.74h0a7.59,7.59,0,0,0,3.79,6.57h0a3.81,3.81,0,0,0,5.71-3.3h0a7.59,7.59,0,0,0-3.79-6.57h0A3.81,3.81,0,0,0,274.1,815.74Z" transform="translate(-166.03 -645.18)"/><path class="cls-5" d="M285.85,822.39h0a7.59,7.59,0,0,0,3.79,6.57h0a3.81,3.81,0,0,0,5.71-3.3h0a7.59,7.59,0,0,0-3.79-6.57h0A3.81,3.81,0,0,0,285.85,822.39Z" transform="translate(-166.03 -645.18)"/><path class="cls-22" d="M807.18,964.35l105.7,122.25a8.13,8.13,0,0,0,14.08-3.5l38.1-166.31a8.13,8.13,0,0,0-10.31-9.59l-143.81,44A8.14,8.14,0,0,0,807.18,964.35Z" transform="translate(-166.03 -645.18)"/><path class="cls-23" d="M168,1180.52l105.7,122.25a8.13,8.13,0,0,0,14.08-3.5L325.9,1133a8.13,8.13,0,0,0-10.31-9.59l-143.81,44.05A8.14,8.14,0,0,0,168,1180.52Z" transform="translate(-166.03 -645.18)"/><path class="cls-24" d="M302.4,673.88l2.74,90.65a12.08,12.08,0,0,0,6,10.4L419.6,837.38a5.93,5.93,0,0,0,8.89-5.17l-.43-90.15a12.37,12.37,0,0,0-6.2-10.66l-108-62.2C309.8,666.84,302.38,669.15,302.4,673.88Z" transform="translate(-166.03 -645.18)"/><path class="cls-18" d="M300.92,675.66l.43,90a12.08,12.08,0,0,0,6,10.4l108.42,62.45a5.93,5.93,0,0,0,8.89-5.17l-.43-90.15a12.37,12.37,0,0,0-6.2-10.66l-108-62.2A6.11,6.11,0,0,0,300.92,675.66Z" transform="translate(-166.03 -645.18)"/><path class="cls-5" d="M329.39,729c-1.2-1.65-2.21-3-3.21-4.44q-4.31-6-8.6-12c-1.85-2.6-3.67-5.22-5.53-7.83-.37-.52-.26-.65,0-.71,2.9-.65,5.65-1.49,8.43-2.25s5.48-1.45,8.19-2.17c.06,0,.15,0,.23,0a.89.89,0,0,1,.15.76c0,2,.07,4,.07,6a1.19,1.19,0,0,0,.84,1.23,24,24,0,0,1,4.78,2.72c1.06.75,2.14,1.27,3.21,2a43.56,43.56,0,0,1,10.59,10.19c1.68,2.32,3.28,4.68,4.83,7.06l24.42,37.5c1.67,2.57,3.26,5.17,4.85,7.78a13.77,13.77,0,0,0,4.45,4.5c2.24,1.42,4.44,2.26,6.66,3.59.72.43.82.24.72-.63-.24-2.19-.26-4.27-.37-6.43a2.65,2.65,0,0,1,.88.91q4.1,5.79,8.18,11.57,3,4.29,6,8.58c.46.65,1.23,1.3,1.27,2s-.69.53-1.09.72c-1.83.89-3.74,1.67-5.62,2.52-1.37.62-2.72,1.27-4.09,1.9s-2.58,1.15-4.07,1.81c0-2.56-.45-5.08-.19-7.22.07-.6-.23-.93-.79-1.22-1.81-.94-3.64-1.86-5.46-2.89a39.9,39.9,0,0,1-10.54-8.17,69.61,69.61,0,0,1-7.13-9.75c-1.67-2.65-3.27-5.35-5-8s-3.5-5.22-5.12-7.89-3.28-5.22-5-7.78c-5.1-7.59-10-15.27-15.05-22.93a16.31,16.31,0,0,0-5.73-5.46c-1.85-1-3.7-2.05-5.56-3.13-.58-.34-.74-.27-.73.31C329.36,724.14,329.36,726.45,329.39,729Z" transform="translate(-166.03 -645.18)"/><path class="cls-5" d="M329.9,774a18.91,18.91,0,0,1-2.66-3.43c-2.32-3.13-4.52-6.35-6.8-9.52-2.72-3.79-5.47-7.56-8.21-11.35-.38-.52-.63-.86,0-1,2.75-.84,5.41-1.8,8.09-2.69,3-1,6-2,8.93-2.94,0,0,.12,0,.19.06.27.33.15.54.15.77,0,2.13.08,4.27.07,6.39a1.47,1.47,0,0,0,1,1.55,73.66,73.66,0,0,0,7.3,3.53,4.65,4.65,0,0,0,3.64.07c2.93-1.19,5.69-2.59,8.48-4L359.51,766c.41.63.4.88,0,1.09-2.55,1.25-5.06,2.61-7.62,3.92-2.77,1.41-6.06,1.67-10.07.4a56.5,56.5,0,0,1-5.89-2.32c-1.8-.79-3.59-1.78-5.4-2.7-.58-.3-.69-.15-.68.39C329.86,769.16,329.87,771.54,329.9,774Z" transform="translate(-166.03 -645.18)"/><path class="cls-5" d="M393.6,766.84c-.05-2.29-.32-4.64-.27-6.8,0-.57-.36-.78-.74-.95-1.31-.59-2.63-1.57-3.95-2.34-2.4-1.4-4.8-2.75-6.58-1.68-2.06,1.24-4.23,2.34-6.36,3.53-.32.18-.5.25-1-.47-1.34-1.79-2.47-3.7-3.76-5.52-1.69-2.4-3.28-4.87-5-7.27-.7-1-.73-1.49-.12-1.8,2.4-1.24,4.76-2.51,7.17-3.68s5.58-1,9.12.38a70.29,70.29,0,0,1,9.57,4.94c.57.33.93.54.86-.3-.17-2.19-.24-4.31-.35-6.51a6.05,6.05,0,0,1,1.28,1.58c2.11,3,4.16,6,6.25,8.94,2.37,3.37,4.76,6.71,7.14,10.05.4.56.72,1.15,1.18,1.69s.18.7-.07.8c-.89.37-1.78.75-2.69,1.11s-2.11.79-3.17,1.2l-5.68,2.19c-.65.26-1.27.56-1.91.85C394.24,766.89,394.07,767.11,393.6,766.84Z" transform="translate(-166.03 -645.18)"/></svg>