<svg id="Layer_1" data-name="Layer 1" xmlns="http://www.w3.org/2000/svg" xmlns:xlink="http://www.w3.org/1999/xlink" viewBox="0 0 998.49 790.22"><defs><style>.cls-1{fill:#178bf5;}.cls-2{fill:#68cadd;}.cls-3{fill:#4995ee;}.cls-4{fill:#18191e;}.cls-10,.cls-31,.cls-5{fill:#606060;}.cls-5,.cls-9{opacity:0.22;}.cls-31,.cls-5{isolation:isolate;}.cls-6{fill:#353535;}.cls-7{fill:url(#linear-gradient);}.cls-8{fill:#f2cdb1;}.cls-11{fill:#fff;}.cls-12{fill:#285e63;}.cls-13{fill:#08090a;}.cls-14{fill:url(#linear-gradient-2);}.cls-15{fill:url(#linear-gradient-3);}.cls-16{fill:url(#linear-gradient-4);}.cls-17{fill:url(#linear-gradient-5);}.cls-18{fill:url(#linear-gradient-6);}.cls-19{fill:#12393d;}.cls-20{fill:#1a535c;}.cls-21{fill:#688bdd;}.cls-22{fill:#67a8f4;}.cls-23{fill:#ef9d26;}.cls-24{fill:#f9dc32;}.cls-25{fill:#f9c32a;}.cls-26{fill:#94bfe0;}.cls-27{fill:#fefefe;}.cls-28{fill:#c4eeff;}.cls-29{fill:#ff2a47;}.cls-30{fill:url(#linear-gradient-7);}.cls-31{opacity:0.41;}.cls-32{fill:#bbcee1;}.cls-33{fill:#5375fb;}.cls-34{fill:#a7bcce;}.cls-35{fill:#c5f6ff;}</style><linearGradient id="linear-gradient" x1="743.69" y1="1030.61" x2="342.81" y2="832.88" gradientTransform="matrix(1, 0, 0, -1, 0, 1920)" gradientUnits="userSpaceOnUse"><stop offset="0" stop-color="#68cadd"/><stop offset="1" stop-color="#3583f9"/></linearGradient><linearGradient id="linear-gradient-2" x1="757" y1="1113.09" x2="774.4" y2="1113.09" xlink:href="#linear-gradient"/><linearGradient id="linear-gradient-3" x1="916.04" y1="1003.71" x2="814.94" y2="935.8" gradientTransform="matrix(1, 0, 0, -1, 0, 1920)" gradientUnits="userSpaceOnUse"><stop offset="0" stop-color="#6c6afc"/><stop offset="1" stop-color="#3583f9"/></linearGradient><linearGradient id="linear-gradient-4" x1="639.8" y1="1090.71" x2="538.7" y2="1022.8" xlink:href="#linear-gradient-3"/><linearGradient id="linear-gradient-5" x1="294.13" y1="1044.61" x2="495.87" y2="1044.61" xlink:href="#linear-gradient-3"/><linearGradient id="linear-gradient-6" x1="670.19" y1="1204.11" x2="569.1" y2="1136.2" xlink:href="#linear-gradient-3"/><linearGradient id="linear-gradient-7" x1="275.08" y1="940.87" x2="340.74" y2="940.87" xlink:href="#linear-gradient"/></defs><path class="cls-1" d="M455.77,908.13l-262,151.26a22.74,22.74,0,0,0-9.25,29.27l91.13,196.39a22.73,22.73,0,0,0,17.16,12.9l372,57.55a22.65,22.65,0,0,0,14.85-2.78l262-151.26a22.74,22.74,0,0,0,9.26-29.27L859.76,975.8a22.73,22.73,0,0,0-17.15-12.9l-372-57.55A22.74,22.74,0,0,0,455.77,908.13Z" transform="translate(-42.87 -565.55)"/><path class="cls-2" d="M759,696.86l144.54,51.75a7.73,7.73,0,0,0,10-9.48L867.39,583.78a7.73,7.73,0,0,0-13-3.12L756,684.26a7.72,7.72,0,0,0,3,12.6Z" transform="translate(-42.87 -565.55)"/><path class="cls-3" d="M170.44,620.18,270.85,736.31A7.72,7.72,0,0,0,284.22,733l36.19-158a7.72,7.72,0,0,0-9.79-9.11L174,607.74a7.72,7.72,0,0,0-3.56,12.44Z" transform="translate(-42.87 -565.55)"/><path class="cls-4" d="M204.67,1078,412,1206.67a43.38,43.38,0,0,0,44.64.66l466.9-271c16-9.27,20.74-39.84,4.75-49.07L731.15,783.73a45.27,45.27,0,0,0-44.74-.3L201.9,1042.61C192.16,1048.06,195.18,1072.06,204.67,1078Z" transform="translate(-42.87 -565.55)"/><path class="cls-5" d="M214.61,1095.52l207.3,128.71a43.38,43.38,0,0,0,44.64.67l466.91-271c16-9.27,20.73-39.83,4.74-49.06L741.09,801.29a45.29,45.29,0,0,0-44.74-.3L211.84,1060.17C202.1,1065.62,205.12,1089.63,214.61,1095.52Z" transform="translate(-42.87 -565.55)"/><path class="cls-6" d="M203.06,1060.21l207.3,128.72a43.36,43.36,0,0,0,44.64.66l466.91-271a24,24,0,0,0,0-41.58L721.53,761.36a45.29,45.29,0,0,0-44.74-.3L203.63,1035a14.66,14.66,0,0,0-.57,25.21Z" transform="translate(-42.87 -565.55)"/><path class="cls-7" d="M228.23,1049.17l202.06,125.46a36.11,36.11,0,0,0,37.15.55L912.1,917.11a18,18,0,0,0,0-31.22L717.82,771.3a37.85,37.85,0,0,0-37.43-.25l-451.8,262.11a9.29,9.29,0,0,0-.36,16Z" transform="translate(-42.87 -565.55)"/><path class="cls-8" d="M670.89,994.92s-5.7,2.74-8.08,1.56-5.1-4.18-8.08-3a58.68,58.68,0,0,1-6.71,2s-3.73-1.14.9-4.32,8.35-5.59,11.29-4.67,6.2,4,8.12,3.09Z" transform="translate(-42.87 -565.55)"/><g class="cls-9"><path class="cls-10" d="M969.06,863.34c-31-18-82.94-17-115.77,2.06s-34.38,49.1-3.54,67.07,82.85,17.18,115.81-1.88S1000.13,881.32,969.06,863.34Zm-108.82,63c-25.41-14.8-24.1-39.57,2.92-55.26s69.82-16.47,95.36-1.68,24.28,39.66-2.89,55.38-69.93,16.43-95.39,1.61Z" transform="translate(-42.87 -565.55)"/><path class="cls-10" d="M1005.43,842.27C955.51,813.44,872,815,819.32,845.68s-55.19,78.86-5.72,107.74,133.16,27.7,186.22-2.94S1055.49,871.18,1005.43,842.27ZM824.08,947.34c-44.07-25.71-41.77-68.71,5.09-95.94s121.27-28.68,165.7-3,42.32,69-5,96.32S868.26,973.12,824.08,947.34Z" transform="translate(-42.87 -565.55)"/></g><g class="cls-9"><path class="cls-10" d="M300.3,996.61c-41.81-24.19-111.8-22.91-156,2.78s-46.35,66.19-4.79,90.41,111.69,23.15,156.12-2.54S342.18,1020.84,300.3,996.61Zm-146.68,85c-34.26-19.95-32.49-53.34,3.93-74.48s94.12-22.21,128.54-2.28,32.73,53.47-3.89,74.65-94.27,22.07-128.58,2.1Z" transform="translate(-42.87 -565.55)"/><path class="cls-10" d="M349.32,968.21C282,929.35,169.51,931.49,98.46,972.8s-74.4,106.3-7.73,145.2c66.87,39,179.5,37.35,251-4C413.44,1072.69,416.81,1007.17,349.32,968.21ZM104.87,1109.84c-59.4-34.66-56.31-92.61,6.86-129.33s163.47-38.66,223.36-4.06,57,93-6.74,129.84S164.42,1144.59,104.87,1109.84Z" transform="translate(-42.87 -565.55)"/></g><path class="cls-11" d="M665.23,952.7c-3.77-5.31-7.58-10.62-11.35-15.94q-6.87-9.68-13.7-19.38a3,3,0,0,0-1.81-1.13c-2.2-.57-4.35-1.2-6.5-1.83L580.1,899.27a13.46,13.46,0,0,0-4.94-.93l-.73.42a4.5,4.5,0,0,0,.68,1.61c2.37,3.34,4.72,6.67,7,10,.66,1,2.42,2,1.55,3s-3,1.85-4.64,2.73c-5.09,2.76-10.21,5.51-15.31,8.26-.26.14-.56.3-.44.49s.53.12.83.13h3.78c12.73.49,23.85,2.84,33.28,7.15a43.93,43.93,0,0,1,14.59,10.06,2.51,2.51,0,0,0,1.48,1q22.78,5.41,45.46,10.86a3.51,3.51,0,0,0,2.59.09C666.11,953.75,665.56,953.17,665.23,952.7Z" transform="translate(-42.87 -565.55)"/><path class="cls-11" d="M638.59,950.37c.95-.54.83-.88-.31-1.12-6.7-1.4-13.38-2.83-20.29-4.3a23.67,23.67,0,0,1,4.74,14.59Z" transform="translate(-42.87 -565.55)"/><path class="cls-11" d="M577.65,906.65c-6.8,3.75-13.52,7.45-20.22,11.16a3.16,3.16,0,0,1-2,.54c-1.74-.07-3.15.75-3.43,1.85s1,1.8,2.61,1.8c2,0,3.51-.77,3.62-1.85,0-.52.4-.86,1-1.23q8.78-4.9,17.51-9.83C578.84,907.89,578.87,908.22,577.65,906.65Z" transform="translate(-42.87 -565.55)"/><path class="cls-11" d="M619.45,959.12c-1-12-10-21.08-26.66-27.16-13.31-4.85-28.64-6.27-45.6-4.33-20.49,2.34-37.33,8.69-50.33,18.85-10.47,8.19-15.38,17-15.25,26.4.13,8.71,5,16.09,14.19,22.24l5.3,3a57.26,57.26,0,0,0,9.62,3.88q18.46,5.75,41,3.69a113.43,113.43,0,0,0,35.15-8.84A77.16,77.16,0,0,0,605.11,986C615.3,977.51,620.2,968.55,619.45,959.12Zm-49-22.34c7.24-.83,14.2-.88,20.54.72,3.58.9,3.58.9.45,2.7s-6.31,3.64-9.44,5.47a1.43,1.43,0,0,1-1.66.15,102.71,102.71,0,0,0-17.72-7.09c-.35-.1-.79-.13-.91-.49a78.1,78.1,0,0,1,8.74-1.46Zm1.34-4.58c-4,.49-7.75,1-11.47,1.8-2.6.55-5.17,1.18-7.71,1.84a3.42,3.42,0,0,1-1.52.17,100,100,0,0,0-16.29-1.63c5.79-2.63,30.13-4.08,37-2.18Zm-56.93,9.36a51.56,51.56,0,0,1,17.33-2.72,66.61,66.61,0,0,1,9.26.53,144.52,144.52,0,0,0-14.14,6.06c-1,.49-1.93,1-2.89,1.55a1.75,1.75,0,0,1-2,.07c-2.57-1.53-5.21-3-7.86-4.52-.64-.36-.88-.53.3-1Zm-6.28,4.4c2.56,1.51,5.12,3,7.79,4.45.89.48.71.82-.15,1.34a87.43,87.43,0,0,0-13,9.71c-1.45-5.19-1.56-10.22,3.74-15.3.62-.63.93-.61,1.62-.16Zm-14.07,11.65c.05.27.12.53.16.8a7.32,7.32,0,0,0,.08.9,22.28,22.28,0,0,0,2.53,7.35c.18.33.38.65.05,1a37.47,37.47,0,0,0-6.54,11.08c-2.72-6.87-1.51-13.92,3.72-21.13Zm6.77,33.55a10.87,10.87,0,0,1-3.34-8.19,19.3,19.3,0,0,1,3-9.25c.12-.21.07-.55.62-.6s.41.27.57.44a64.87,64.87,0,0,0,12.35,10.12c.67.42.57.66-.21,1.09-1.9,1.05-3.73,2.14-5.59,3.22s-3.76,2.13-5.57,3.23c-.9.56-1.31.47-1.83-.06Zm18.87-11a77.66,77.66,0,0,1-7.08-5.3,45.48,45.48,0,0,1-6.7-7.3c-.31-.43-.19-.77.23-1.2a71.53,71.53,0,0,1,10.23-8.72c1.53-1.06,3-2.15,4.63-3.16a1.52,1.52,0,0,1,1.88-.08c3.46,2,7,4,10.47,6s6.87,4,10.38,5.92c.88.48.7.76-.21,1.28q-10.9,6.25-21.71,12.54c-1,.62-1.36.56-2.12,0Zm30-17.14c-3.44-2-7-4-10.44-6s-6.89-4-10.4-5.94c-.82-.45-.76-.73.19-1.23a127.05,127.05,0,0,1,20.88-8.69,3,3,0,0,1,1.78-.07,97.9,97.9,0,0,1,16.11,5.19c2.08.9,4.06,1.87,6.13,2.77.84.37.71.66-.13,1.15q-11.09,6.34-22.09,12.75a1.7,1.7,0,0,1-2.06,0Zm43.77,24.24a.71.71,0,0,1-1,.16l0,0c-2.8-1.61-5.59-3.22-8.41-4.82-.65-.37-.1-.63.37-.92a83.18,83.18,0,0,0,11.28-8.19c.58-.51,1.18-1,1.93-1.63,1.42,5,1.45,9.85-3.41,14.77a4,4,0,0,0-.79.66Zm12.69-11.51a21.89,21.89,0,0,0-1.44-6.44,6.69,6.69,0,0,0-.83-1.85c-.76-1-.38-1.94.49-3a31.52,31.52,0,0,0,5.55-10.05c3.2,4.2,1,16.59-3.8,21.35Zm-6.47-33.6a10.47,10.47,0,0,1,3.32,7.71c0,3.48-1.26,6.94-3.65,10.64a61.44,61.44,0,0,0-4.54-4.59A57.19,57.19,0,0,0,589,951c-.76-.51-1.45-1.06-2.25-1.56-.47-.28-.29-.48.18-.75q5.84-3.35,11.62-6.71c.88-.5,1.14-.23,1.56.18Zm-20.75,10.92c.8-.47,1.24-.49,1.86-.06,5.64,3.82,10.47,8,13.71,12.75.27.39.19.71-.2,1.11a66.11,66.11,0,0,1-10.49,8.91c-1.4.94-2.78,1.89-4.12,2.86a1.81,1.81,0,0,1-2.34.15c-3.33-2-6.77-3.91-10.17-5.86s-6.92-4-10.44-6c-.72-.41-.74-.66.13-1.16q11-6.3,22-12.69Zm-30,17.32a1.46,1.46,0,0,1,1.77-.07c3.48,2,7,4,10.52,6s6.84,4,10.32,5.89c.8.44.8.71-.17,1.2A130,130,0,0,1,551.25,992a3.38,3.38,0,0,1-1.94.09,99.39,99.39,0,0,1-18.19-6,36.31,36.31,0,0,0-4-1.86c-.85-.28-.7-.55,0-1q11.18-6.4,22.23-12.83Zm-21,26.34c-7.1.59-13.81.35-19.76-1.5-1.21-.38-1.14-.63-.09-1.23,3.73-2.1,7.39-4.23,11.05-6.37a1.48,1.48,0,0,1,1.67-.15,112.09,112.09,0,0,0,18.53,7.28s0,0,.15.2a89.48,89.48,0,0,1-11.63,1.78Zm1.46,4.25a117,117,0,0,0,11.78-1.9c2.47-.55,4.91-1.16,7.35-1.76a3.37,3.37,0,0,1,1.51-.15,104.26,104.26,0,0,0,16.35,1.55c-8,2.75-30.69,4.15-37.07,2.28Zm30.61-7.22c4.87-1.94,9.55-4,14-6.17,1-.47,1.84-1,2.75-1.48a1.2,1.2,0,0,1,1.33-.13c3,1.71,5.94,3.41,9,5.17-9.15,3.43-18.12,3.53-27.16,2.62Z" transform="translate(-42.87 -565.55)"/><path class="cls-12" d="M667,988a5.38,5.38,0,0,0-.19,5.4l1.59,2.72,26.07,2,46.77-39.67-1.42-9.53a7.63,7.63,0,0,0-7.71-6.5l-4,.09-31.26,37.92Z" transform="translate(-42.87 -565.55)"/><path class="cls-6" d="M755,790.9l-6.52,3.77a11.3,11.3,0,0,0,0,19.57l84.87,49a22.63,22.63,0,0,0,22.65,0l9.79-5.65Z" transform="translate(-42.87 -565.55)"/><path class="cls-13" d="M716.48,1056.42l44.78-25.59c2.55-1.51,3.12-8.15,1.17-10.1-.28-.28-.87,2.68-1.24,2.47h0l-54.35,29.13-.2,3.07,1.87,1.07A7.92,7.92,0,0,0,716.48,1056.42Z" transform="translate(-42.87 -565.55)"/><path class="cls-4" d="M716.69,1053.36l44.77-25.6a4.4,4.4,0,0,0-.07-7.62h0l-54.55,32.19,1.88,1.08A8,8,0,0,0,716.69,1053.36Z" transform="translate(-42.87 -565.55)"/><path class="cls-13" d="M850.38,976.49l69-40.7c2.55-1.51,3.11-8.16,1.17-10.11-.28-.28-.87,2.69-1.24,2.48h0L840.74,972.4l-.2,3.06,1.87,1.08A8,8,0,0,0,850.38,976.49Z" transform="translate(-42.87 -565.55)"/><path class="cls-4" d="M850.59,973.42l69-40.7a4.4,4.4,0,0,0-.07-7.62h0l-78.79,47.3,1.88,1.07A7.93,7.93,0,0,0,850.59,973.42Z" transform="translate(-42.87 -565.55)"/><path class="cls-13" d="M771,1024.17l69-40.7c2.55-1.51,3.11-8.16,1.17-10.11-.28-.28-.88,2.69-1.24,2.48h0l-78.59,44.24-.2,3.06,1.87,1.08A8,8,0,0,0,771,1024.17Z" transform="translate(-42.87 -565.55)"/><path class="cls-4" d="M771.23,1021.1l69-40.7a4.4,4.4,0,0,0-.07-7.62h0l-78.79,47.3,1.88,1.07A7.93,7.93,0,0,0,771.23,1021.1Z" transform="translate(-42.87 -565.55)"/><path class="cls-4" d="M757.49,802c-4.42,2.55-4.3,6.68.21,9.23s11.75,2.58,16.2.08,4.47-6.68-.08-9.27S761.93,799.46,757.49,802Z" transform="translate(-42.87 -565.55)"/><path class="cls-5" d="M170,914.37l149.14-88.1a18.45,18.45,0,0,1,18.45-.09l154,88.78a12,12,0,0,1,.05,20.81L343.4,1022.86a21.22,21.22,0,0,1-21.14,0L170.05,935.15a12,12,0,0,1-.05-20.78Z" transform="translate(-42.87 -565.55)"/><path class="cls-14" d="M759.45,803.4c-3.33,1.93-3.25,5.05.17,7a13.84,13.84,0,0,0,12.25.06c3.39-1.91,3.38-5.05-.06-7A13.79,13.79,0,0,0,759.45,803.4Z" transform="translate(-42.87 -565.55)"/><path class="cls-4" d="M784.13,819.86l44.12,25.31a4.62,4.62,0,0,0,4.63,0l1-.59a2.76,2.76,0,0,0,1-3.77,2.7,2.7,0,0,0-1-1l-42.3-24.29a6.36,6.36,0,0,0-6.37,0l-1.08.62a2.16,2.16,0,0,0-.79,3A2.14,2.14,0,0,0,784.13,819.86Z" transform="translate(-42.87 -565.55)"/><path class="cls-5" d="M768.53,935.43,837.82,895a18.45,18.45,0,0,1,18.45-.1l110.89,63.31a12,12,0,0,1,.05,20.8l-68.33,39.46a21.24,21.24,0,0,1-21.15,0l-109.1-62.28a12,12,0,0,1-.1-20.76Z" transform="translate(-42.87 -565.55)"/><path class="cls-11" d="M168.23,906l149.14-88.11a18.44,18.44,0,0,1,18.44-.09l154,88.79a12,12,0,0,1,.05,20.8l-148.18,87.09a21.17,21.17,0,0,1-21.14,0L168.33,926.8a12,12,0,0,1-.1-20.8Z" transform="translate(-42.87 -565.55)"/><path class="cls-15" d="M767.18,927.78l69.29-40.47a18.46,18.46,0,0,1,18.44-.09L965.8,950.53a12,12,0,0,1,.05,20.8l-68.33,39.46a21.24,21.24,0,0,1-21.14.05l-109.1-62.28a12,12,0,0,1-.1-20.78Z" transform="translate(-42.87 -565.55)"/><path class="cls-5" d="M492.3,848.44,561.59,808a18.44,18.44,0,0,1,18.44-.09l110.89,63.3A12,12,0,0,1,691,892l-68.33,39.45a21.24,21.24,0,0,1-21.15.06L492.4,869.22a12,12,0,0,1-.1-20.78Z" transform="translate(-42.87 -565.55)"/><path class="cls-16" d="M490.94,840.79l69.3-40.47a18.44,18.44,0,0,1,18.44-.09l110.89,63.3a12,12,0,0,1,0,20.81l-68.33,39.45a21.2,21.2,0,0,1-21.14.05L491,861.56a12,12,0,0,1-4.42-16.39A12.12,12.12,0,0,1,490.94,840.79Z" transform="translate(-42.87 -565.55)"/><path class="cls-17" d="M294.13,831.69,317,817.92a18.44,18.44,0,0,1,18.44-.09l154.39,88.36a12,12,0,0,1,.05,20.8l-14.5,8.38Z" transform="translate(-42.87 -565.55)"/><path class="cls-5" d="M522.68,735,592,694.56a18.44,18.44,0,0,1,18.44-.09l110.89,63.3a12,12,0,0,1,0,20.81L653,818a21.22,21.22,0,0,1-21.14.06l-109.1-62.28a12,12,0,0,1-.08-20.78Z" transform="translate(-42.87 -565.55)"/><path class="cls-18" d="M521.33,727.38l69.29-40.47a18.45,18.45,0,0,1,18.45-.09L720,750.12a12,12,0,0,1,0,20.81l-68.33,39.45a21.19,21.19,0,0,1-21.15,0l-109.1-62.27a12,12,0,0,1-.09-20.73Z" transform="translate(-42.87 -565.55)"/><path class="cls-19" d="M742.54,1026.5s-3.07,47.19-1.79,69.6-.31,56-.31,56-11.77,2.36-21.06-4.67c0,0,1.16-34.15,0-46.66S693,1032.86,693,1032.86Z" transform="translate(-42.87 -565.55)"/><path class="cls-19" d="M697.55,1167.26s3.69,12.77,2.92,16.92-.81,10.86-1.41,11.2-7.51,1.51-9.51,0c0,0,1.17-3-2.33-3.18s-11.2,2-20.89-3.18-14.77-11-15.23-13.45,5.07-3.53,7.23-3.76,12.67,3.61,17.87,2.37a20.82,20.82,0,0,0,8.89-4.92Z" transform="translate(-42.87 -565.55)"/><path class="cls-19" d="M737.73,1142s3.69,12.77,2.92,16.92-.82,10.86-1.41,11.2-7.51,1.51-9.51,0c0,0,1.17-3-2.34-3.18s-11.2,2-20.89-3.18-14.77-11-15.23-13.45,5.08-3.53,7.23-3.76,12.68,3.61,17.88,2.38a20.94,20.94,0,0,0,8.89-4.93Z" transform="translate(-42.87 -565.55)"/><path class="cls-8" d="M723,932.94l1.12,4.52s-3.54,5.32-16.77,3.18V927.92l13.2-3.18Z" transform="translate(-42.87 -565.55)"/><path class="cls-8" d="M689.6,905.85s2.61,15.6,4.09,21.75,4.17,10.63,6.39,11.3,8.31-3.85,8.92-6.39,7.23-6.91,5-11.32-8.66-11.56-9.33-11.63S689.6,905.85,689.6,905.85Z" transform="translate(-42.87 -565.55)"/><path class="cls-19" d="M716.24,931.92s7-.33,9.56-8.34,3.79-21.29-5.27-27.81-22.32-6.29-28.19-1.79-5.09,9.95.21,16,5.83,14.79,8.59,15.31,4.17-8.4,6.53-5.7,3.23,7.81,1.78,9.43S716.24,931.92,716.24,931.92Z" transform="translate(-42.87 -565.55)"/><path class="cls-11" d="M725.08,937.46s6.51,3,4.18,5-13.87,4.61-22,3.45-6.7-2.14-6.7-2.14l2.32-6.36Z" transform="translate(-42.87 -565.55)"/><path class="cls-12" d="M742.54,971.23s.26,55.42,0,55.27-14.84,18.12-49.57,6.36L688.54,975s5.33-20.71,6.6-25.19,6-7.55,6-7.55l28.09.25S742.54,944.34,742.54,971.23Z" transform="translate(-42.87 -565.55)"/><path class="cls-20" d="M681.35,1172.05s4.92,3.76,18.22,3.38c0,0,3-52.65,4.76-60.66s16.85-40.87,19.09-53.67,16.85,2.44,19.12-34.6c0,0-33.85,13.26-49.57,6.36,0,0-8.64,64.81-10,77.24S681.35,1172.05,681.35,1172.05Z" transform="translate(-42.87 -565.55)"/><path class="cls-8" d="M623.75,1035.44s-7.22-5.08-6.32-6.1,5.17,3.84,10.27,4.81Z" transform="translate(-42.87 -565.55)"/><path class="cls-8" d="M639.37,1027.29l-14.6-3.76s-16.1,4.53-16.91,7.46,2.94,3.27,9.76,2.31,12.45,3.42,17.42,4,10.87-5.4,10.87-5.4Z" transform="translate(-42.87 -565.55)"/><path class="cls-12" d="M699.18,943.84s9.37,14.63,10.2,15.78c.54.75-6,19.36-10.6,32.22a39.81,39.81,0,0,1-14.91,19.35L649.34,1035a4.26,4.26,0,0,1-5.87-1l-3.33-4.63a4.26,4.26,0,0,1,.74-5.76l38.61-32Z" transform="translate(-42.87 -565.55)"/><path class="cls-8" d="M666.19,994.13s-5.19,5.76-8.69,5.76-4.84.86-4.85-.59,3.61-1.3,5-2.16,1.16-4.47,1.16-4.47Z" transform="translate(-42.87 -565.55)"/><polygon class="cls-21" points="803.4 372.85 859.97 405.51 855.6 340.99 800.01 309.31 803.4 372.85"/><polygon class="cls-22" points="786.95 316.59 797.74 313.49 800.01 309.31 804.09 373.25 787.31 382.13 786.95 316.59"/><polygon class="cls-2" points="787.31 382.13 843.89 414.8 843.89 349.47 786.95 316.59 787.31 382.13"/><polygon class="cls-22" points="843.89 349.47 843.89 414.8 848.49 408.12 860.05 404.97 855.6 340.99 847.93 342.47 843.89 349.47"/><path class="cls-21" d="M892.61,906.61l-3.33-1.92V890.34a36.64,36.64,0,0,0-18.58-31.85,12.08,12.08,0,0,0-18,10.51l-.15,14.46-3.64-2.1V869a15.87,15.87,0,0,1,23.69-13.82,40.48,40.48,0,0,1,20.51,35.16Z" transform="translate(-42.87 -565.55)"/><path class="cls-2" d="M881.87,912.77l-3.32-1.92V896.51A36.67,36.67,0,0,0,860,864.65a12.08,12.08,0,0,0-18,10.51l-.16,14.46-3.64-2.1V875.16a15.88,15.88,0,0,1,23.7-13.82,40.45,40.45,0,0,1,20.51,35.17Z" transform="translate(-42.87 -565.55)"/><path class="cls-5" d="M618.27,853.88v8.18c0,11.05-16.48,20-36.8,20s-36.79-8.95-36.79-20v-8.18Z" transform="translate(-42.87 -565.55)"/><path class="cls-23" d="M618.15,845.68v8.18c0,11-16.47,20-36.79,20s-36.8-9-36.8-20v-8.18Z" transform="translate(-42.87 -565.55)"/><path class="cls-24" d="M544.56,845.68c0,11,16.48,20,36.8,20s36.79-9,36.79-20-16.47-20-36.79-20S544.56,834.63,544.56,845.68Z" transform="translate(-42.87 -565.55)"/><path class="cls-25" d="M553,845.43c0,8.3,12.68,15,28.33,15s28.32-6.74,28.32-15-12.68-15-28.32-15S553,837.12,553,845.43Z" transform="translate(-42.87 -565.55)"/><path class="cls-23" d="M572.39,846.38l2.88-4.91-.67-.39-5.49,3.38-2.94-1.72,14.67-9.09,5,3a4,4,0,0,1,1.79,1.83,2.07,2.07,0,0,1-.19,1.9,5.59,5.59,0,0,1-1.92,1.76,8.73,8.73,0,0,1-3.43,1.23,8,8,0,0,1-3.61-.31l-2.86,5.17Zm4.64-6.8,1.8,1.08a3.05,3.05,0,0,0,1.74.48,3.82,3.82,0,0,0,1.79-.6,1.81,1.81,0,0,0,1-1.1c0-.37-.2-.72-.77-1.06l-1.8-1.09Z" transform="translate(-42.87 -565.55)"/><path class="cls-23" d="M595.75,847.14a2.65,2.65,0,0,1-.64,2.07,8.64,8.64,0,0,1-2.62,2.19,14.52,14.52,0,0,1-3.62,1.56,10.86,10.86,0,0,1-3.45.38,6.13,6.13,0,0,1-2.74-.77,2.32,2.32,0,0,1-1.24-1.43,1.88,1.88,0,0,1,.5-1.63L574.48,854l-2.87-1.66,16.89-10.28,2.86,1.71-2.1,1.27a7.75,7.75,0,0,1,2.75-.32,5.46,5.46,0,0,1,2.42.73A2.54,2.54,0,0,1,595.75,847.14Zm-7.55-.75a6.2,6.2,0,0,0-2.63.9,2.85,2.85,0,0,0-1.46,1.57,1.18,1.18,0,0,0,.72,1.33,3.58,3.58,0,0,0,2.2.42,6.09,6.09,0,0,0,2.6-.91,3,3,0,0,0,1.51-1.57,1.19,1.19,0,0,0-.72-1.32A3.58,3.58,0,0,0,588.2,846.39Z" transform="translate(-42.87 -565.55)"/><path class="cls-26" d="M586.14,656.41l1.43,79.8a5.33,5.33,0,0,0,2.65,4.59l49.45,28.66a3.69,3.69,0,0,0,5.55-3.19V690.16a4.69,4.69,0,0,0-2.34-4l-53.25-30.75C588.63,654.79,586.13,655.26,586.14,656.41Z" transform="translate(-42.87 -565.55)"/><path class="cls-27" d="M585.92,657.87l.17,79.54a5.34,5.34,0,0,0,2.66,4.59l49.44,28.66a3.69,3.69,0,0,0,5.55-3.19V691.36a4.68,4.68,0,0,0-2.34-4.05l-53.25-30.75a1.49,1.49,0,0,0-2,.55A1.44,1.44,0,0,0,585.92,657.87Z" transform="translate(-42.87 -565.55)"/><path class="cls-28" d="M588.69,718.7v3.86a2.71,2.71,0,0,0,1.34,2.37l48,28a1.61,1.61,0,0,0,2.42-1.38v-2.93a3.21,3.21,0,0,0-1.61-2.79l-48.56-28a1.08,1.08,0,0,0-1.46.41A1.22,1.22,0,0,0,588.69,718.7Z" transform="translate(-42.87 -565.55)"/><path class="cls-28" d="M589,709.77v3.86a2.71,2.71,0,0,0,1.34,2.37l48,28a1.61,1.61,0,0,0,2.42-1.38v-2.93a3.21,3.21,0,0,0-1.61-2.79l-48.56-28a1.08,1.08,0,0,0-1.46.41A1.22,1.22,0,0,0,589,709.77Z" transform="translate(-42.87 -565.55)"/><path class="cls-28" d="M589.23,700.84v3.86a2.71,2.71,0,0,0,1.34,2.37l48,28a1.61,1.61,0,0,0,2.42-1.38v-2.93a3.24,3.24,0,0,0-1.61-2.8l-48.56-28a1.08,1.08,0,0,0-1.46.41A1.14,1.14,0,0,0,589.23,700.84Z" transform="translate(-42.87 -565.55)"/><path class="cls-28" d="M589.5,691.91v3.86a2.71,2.71,0,0,0,1.35,2.36l48,28a1.61,1.61,0,0,0,2.42-1.38v-2.94a3.22,3.22,0,0,0-1.61-2.79L591.1,691a1.08,1.08,0,0,0-1.46.4A1,1,0,0,0,589.5,691.91Z" transform="translate(-42.87 -565.55)"/><path class="cls-28" d="M589.77,683v3.86a2.71,2.71,0,0,0,1.35,2.36l48,28a1.61,1.61,0,0,0,2.42-1.38V712.9a3.22,3.22,0,0,0-1.62-2.79l-48.56-28a1.08,1.08,0,0,0-1.46.41A1.15,1.15,0,0,0,589.77,683Z" transform="translate(-42.87 -565.55)"/><path class="cls-28" d="M590.05,674.05v3.86a2.73,2.73,0,0,0,1.35,2.36l48,28a1.6,1.6,0,0,0,2.2-.58,1.57,1.57,0,0,0,.22-.79V704a3.24,3.24,0,0,0-1.61-2.79l-48.56-28a1.07,1.07,0,0,0-1.46.4A1.16,1.16,0,0,0,590.05,674.05Z" transform="translate(-42.87 -565.55)"/><path class="cls-28" d="M588.69,728.48v3.87a2.7,2.7,0,0,0,1.34,2.36l48,28a1.61,1.61,0,0,0,2.42-1.38V758.4a3.21,3.21,0,0,0-1.61-2.79l-48.56-28a1.08,1.08,0,0,0-1.46.41A1.22,1.22,0,0,0,588.69,728.48Z" transform="translate(-42.87 -565.55)"/><path class="cls-29" d="M188.12,913.56l8-4.62a7.23,7.23,0,0,1,7.2,0l47.24,27.28a3.36,3.36,0,0,1,1.22,4.59,3.55,3.55,0,0,1-1.06,1.12l-6.65,4.35a7.68,7.68,0,0,1-8,.23l-47.93-27.68a3,3,0,0,1-1.22-4.06A3,3,0,0,1,188.12,913.56Z" transform="translate(-42.87 -565.55)"/><path class="cls-28" d="M210.47,899.65l8-4.62a7.18,7.18,0,0,1,7.2,0L362.8,974.17a3.36,3.36,0,0,1,.16,5.71l-6.64,4.35a7.63,7.63,0,0,1-8,.23L210.47,904.92a3,3,0,0,1,0-5.27Z" transform="translate(-42.87 -565.55)"/><path class="cls-28" d="M232.06,886.51l8-4.62a7.16,7.16,0,0,1,7.19,0L384.4,961a3.36,3.36,0,0,1,1.22,4.59,3.55,3.55,0,0,1-1.06,1.12l-6.65,4.35a7.63,7.63,0,0,1-8,.23L232.06,891.78a3,3,0,0,1,0-5.27Z" transform="translate(-42.87 -565.55)"/><path class="cls-28" d="M253.66,873.37l8-4.62a7.18,7.18,0,0,1,7.2,0L406,947.89a3.36,3.36,0,0,1,.16,5.71l-6.65,4.4a7.63,7.63,0,0,1-8,.23l-137.85-79.6a3,3,0,0,1,0-5.26Z" transform="translate(-42.87 -565.55)"/><path class="cls-28" d="M275.25,860.23l8-4.63a7.21,7.21,0,0,1,7.19,0l137.14,79.15a3.36,3.36,0,0,1,1.22,4.59,3.55,3.55,0,0,1-1.06,1.12l-6.65,4.35a7.68,7.68,0,0,1-8,.23L275.25,865.49a3,3,0,0,1,0-5.26Z" transform="translate(-42.87 -565.55)"/><path class="cls-30" d="M276.63,964.94l8-4.62a7.16,7.16,0,0,1,7.19,0l47.24,27.27a3.36,3.36,0,0,1,.16,5.71l-6.64,4.36a7.65,7.65,0,0,1-8,.22l-47.92-27.67a3,3,0,0,1-1.22-4.06A3,3,0,0,1,276.63,964.94Z" transform="translate(-42.87 -565.55)"/><path class="cls-11" d="M315.19,828.74c0,1.21,1.85,2.2,4.15,2.2s4.14-1,4.14-2.2-1.85-2.21-4.14-2.21S315.19,827.52,315.19,828.74Z" transform="translate(-42.87 -565.55)"/><path class="cls-11" d="M324,833c0,1.22,1.85,2.2,4.15,2.2s4.14-1,4.14-2.2-1.85-2.2-4.14-2.2S324,831.74,324,833Z" transform="translate(-42.87 -565.55)"/><path class="cls-11" d="M332.79,837.18c0,1.22,1.85,2.2,4.15,2.2s4.14-1,4.14-2.2-1.85-2.2-4.14-2.2S332.79,836,332.79,837.18Z" transform="translate(-42.87 -565.55)"/><path class="cls-31" d="M347.39,1094.38l114.73-66.6a20,20,0,0,1,20.06,0L655.78,1128a9.47,9.47,0,0,1,0,16.4L541.4,1210.8a22.63,22.63,0,0,1-22.65,0L347.4,1111.89a10.11,10.11,0,0,1,0-17.51Z" transform="translate(-42.87 -565.55)"/><path class="cls-32" d="M340.81,1097h0v-5.84l2,.19a9.86,9.86,0,0,1,3.07-2.89l114.72-66.59a20,20,0,0,1,20.06,0l173.6,100.21a9.58,9.58,0,0,1,2.15,1.71l2.59.27v6.14h0a9.39,9.39,0,0,1-4.71,8.28l-114.38,66.4a22.63,22.63,0,0,1-22.65,0L345.84,1106A10,10,0,0,1,340.81,1097Z" transform="translate(-42.87 -565.55)"/><path class="cls-33" d="M345.82,1082.3l114.72-66.6a20,20,0,0,1,20.06,0l173.6,100.2a9.47,9.47,0,0,1,0,16.4l-114.38,66.4a22.63,22.63,0,0,1-22.65,0l-171.35-98.92c-5.58,0-10.1-3.16-10.1-8.74a10.1,10.1,0,0,1,10.1-10.1Z" transform="translate(-42.87 -565.55)"/><path class="cls-34" d="M345.84,1099.79l171.35,98.92a22.6,22.6,0,0,0,11.38,3v6.17a22.6,22.6,0,0,1-11.38-3L345.84,1106a10,10,0,0,1-5-8.94h0v-5.84h0A10,10,0,0,0,345.84,1099.79Z" transform="translate(-42.87 -565.55)"/><path class="cls-35" d="M394.59,1091.77c0,5.55-8.27,10-18.47,10s-18.47-4.49-18.47-10,8.26-10,18.47-10S394.59,1086.22,394.59,1091.77Z" transform="translate(-42.87 -565.55)"/><path class="cls-24" d="M414.8,1103.49c0,5.55-8.27,10-18.47,10s-18.48-4.49-18.48-10,8.27-10,18.48-10S414.8,1098,414.8,1103.49Z" transform="translate(-42.87 -565.55)"/><path class="cls-24" d="M581.37,1115.38l21.81-12.66a3.83,3.83,0,0,1,3.82,0l33,19.06a1.8,1.8,0,0,1,0,3.12l-21.75,12.62a4.29,4.29,0,0,1-4.3,0l-32.59-18.81a1.93,1.93,0,0,1-.68-2.64A1.9,1.9,0,0,1,581.37,1115.38Z" transform="translate(-42.87 -565.55)"/><polygon class="cls-35" points="378.12 487.62 550.44 587 542.96 591.32 370.64 491.94 378.12 487.62"/><polygon class="cls-35" points="364.26 495.61 536.58 594.98 529.1 599.31 356.78 499.92 364.26 495.61"/><path class="cls-31" d="M645.54,1188.82l32.31,17.85a15.18,15.18,0,0,0,15.11-.24l63.37-37.62a5.27,5.27,0,0,0,1.85-7.22,5.19,5.19,0,0,0-1.9-1.88l-33.78-19.5a15,15,0,0,0-15,0l-62.09,36.4a7,7,0,0,0,.13,12.21Z" transform="translate(-42.87 -565.55)"/></svg>