<svg xmlns="http://www.w3.org/2000/svg" width="16.107" height="16.107" viewBox="0 0 16.107 16.107">
  <defs>
    <style>
      .cls-1 {
        fill: #e8e323;
      }

      .cls-1, .cls-2, .cls-3 {
        isolation: isolate;
      }

      .cls-2 {
        fill: none;
        stroke: #fbfbfd;
        stroke-miterlimit: 10;
        stroke-width: 0.5px;
      }

      .cls-4 {
        fill: #fbfbfd;
      }
    </style>
  </defs>
  <g id="Group_659" data-name="Group 659" transform="translate(-97.099 -1657.873)">
    <circle id="Ellipse_16" data-name="Ellipse 16" class="cls-1" cx="8.054" cy="8.054" r="8.054" transform="translate(97.099 1657.873)"/>
    <circle id="Ellipse_17" data-name="Ellipse 17" class="cls-2" cx="5.698" cy="5.698" r="5.698" transform="translate(99.454 1660.229)"/>
    <g id="Group_658" data-name="Group 658" class="cls-3" transform="translate(103.231 1664.911)">
      <path id="Path_285" data-name="Path 285" class="cls-4" d="M107.915,1670.866h-.784v1.351h-.443v-3.338h1.1a1.309,1.309,0,0,1,.869.257.927.927,0,0,1,.3.747.9.9,0,0,1-.169.544,1.01,1.01,0,0,1-.468.346l.784,1.417v.028h-.472Zm-.784-.359h.676a.9.9,0,0,0,.313-.049.633.633,0,0,0,.223-.134.528.528,0,0,0,.135-.2.668.668,0,0,0,.044-.244.783.783,0,0,0-.042-.262.519.519,0,0,0-.132-.2.593.593,0,0,0-.227-.13,1.023,1.023,0,0,0-.328-.046h-.662Z" transform="translate(-106.688 -1669.879)"/>
      <path id="Path_286" data-name="Path 286" class="cls-4" d="M112.23,1671.182a1.885,1.885,0,0,1-.064.5,1.232,1.232,0,0,1-.187.4.844.844,0,0,1-.71.357,1.053,1.053,0,0,1-.409-.074.838.838,0,0,1-.3-.213v1.194h-.424v-3.435h.387l.02.275a.848.848,0,0,1,.305-.238.978.978,0,0,1,.415-.082.907.907,0,0,1,.414.091.865.865,0,0,1,.3.258,1.193,1.193,0,0,1,.187.4,1.982,1.982,0,0,1,.062.517Zm-.424-.048a1.493,1.493,0,0,0-.039-.35.889.889,0,0,0-.121-.288.614.614,0,0,0-.209-.2.6.6,0,0,0-.3-.072.7.7,0,0,0-.2.026.585.585,0,0,0-.159.071.6.6,0,0,0-.126.108.836.836,0,0,0-.1.137v1.184a.81.81,0,0,0,.1.137.59.59,0,0,0,.126.108.613.613,0,0,0,.161.07.707.707,0,0,0,.2.026.58.58,0,0,0,.3-.074.629.629,0,0,0,.208-.2.876.876,0,0,0,.121-.289,1.522,1.522,0,0,0,.039-.352Z" transform="translate(-107.308 -1670.057)"/>
    </g>
  </g>
</svg>
