<svg xmlns="http://www.w3.org/2000/svg" xmlns:xlink="http://www.w3.org/1999/xlink" width="378" height="246" viewBox="0 0 378 246">
  <defs>
    <style>
      .cls-1 {
        fill: url(#linear-gradient);
      }

      .cls-2 {
        clip-path: url(#clip-path);
      }

      .cls-3, .cls-5 {
        fill: none;
      }

      .cls-3 {
        stroke: #fff;
        stroke-width: 40px;
        opacity: 0.24;
      }

      .cls-4 {
        stroke: none;
      }

      .cls-6 {
        filter: url(#Rectangle_3);
      }

      .cls-7 {
        filter: url(#Rectangle_8);
      }
    </style>
    <linearGradient id="linear-gradient" x1="0.133" y1="0.5" x2="0.93" y2="0.165" gradientUnits="objectBoundingBox">
      <stop offset="0" stop-color="#008fd0"/>
      <stop offset="1" stop-color="#a4ffd4"/>
    </linearGradient>
    <filter id="Rectangle_8" x="0" y="0" width="378" height="246" filterUnits="userSpaceOnUse">
      <feOffset dy="3" input="SourceAlpha"/>
      <feGaussianBlur stdDeviation="3" result="blur"/>
      <feFlood flood-opacity="0.161"/>
      <feComposite operator="in" in2="blur"/>
      <feComposite in="SourceGraphic"/>
    </filter>
    <filter id="Rectangle_3" x="0" y="0" width="378" height="246" filterUnits="userSpaceOnUse">
      <feOffset dy="3" input="SourceAlpha"/>
      <feGaussianBlur stdDeviation="3" result="blur-2"/>
      <feFlood flood-opacity="0.161"/>
      <feComposite operator="in" in2="blur-2"/>
      <feComposite in="SourceGraphic"/>
    </filter>
    <clipPath id="clip-path">
      <g class="cls-7" transform="matrix(1, 0, 0, 1, 0, 0)">
        <path id="Rectangle_8-2" data-name="Rectangle 8" class="cls-1" d="M0,0H360a0,0,0,0,1,0,0V188a40,40,0,0,1-40,40H40A40,40,0,0,1,0,188V0A0,0,0,0,1,0,0Z"/>
      </g>
    </clipPath>
  </defs>
  <g id="Group_667" data-name="Group 667" transform="translate(9 6)">
    <g class="cls-6" transform="matrix(1, 0, 0, 1, -9, -6)">
      <path id="Rectangle_3-2" data-name="Rectangle 3" class="cls-1" d="M0,0H360a0,0,0,0,1,0,0V188a40,40,0,0,1-40,40H40A40,40,0,0,1,0,188V0A0,0,0,0,1,0,0Z" transform="translate(9 6)"/>
    </g>
    <g id="Mask_Group_2" data-name="Mask Group 2" class="cls-2">
      <g id="Ellipse_5" data-name="Ellipse 5" class="cls-3" transform="translate(-76 143)">
        <circle class="cls-4" cx="84" cy="84" r="84"/>
        <circle class="cls-5" cx="84" cy="84" r="64"/>
      </g>
      <g id="Ellipse_6" data-name="Ellipse 6" class="cls-3" transform="translate(-156 63)">
        <circle class="cls-4" cx="163.5" cy="163.5" r="163.5"/>
        <circle class="cls-5" cx="163.5" cy="163.5" r="143.5"/>
      </g>
      <g id="Ellipse_7" data-name="Ellipse 7" class="cls-3" transform="translate(222 -105)">
        <ellipse class="cls-4" cx="129" cy="129.5" rx="129" ry="129.5"/>
        <ellipse class="cls-5" cx="129" cy="129.5" rx="109" ry="109.5"/>
      </g>
    </g>
  </g>
</svg>
