<svg xmlns="http://www.w3.org/2000/svg" width="22.753" height="21.717" viewBox="0 0 22.753 21.717">
  <defs>
    <style>
      .cls-1 {
        fill: #fff;
      }
    </style>
  </defs>
  <g id="Group_657" data-name="Group 657" transform="translate(0 0)">
    <path id="Path_276" data-name="Path 276" class="cls-1" d="M785.083,1751.866c0,.629,0,1.258,0,1.887,0,.222.006.222.215.278a1.9,1.9,0,0,1,1.44,1.81,4.033,4.033,0,0,1-.046,1.053,1.89,1.89,0,0,1-1.773,1.479c-.257.011-.516.01-.772,0a1.892,1.892,0,0,1-1.807-1.8,4.316,4.316,0,0,1,.018-.971,1.857,1.857,0,0,1,1.434-1.566c.171-.046.205-.108.205-.264q-.006-1.931,0-3.861c0-.143-.027-.209-.188-.248a1.885,1.885,0,0,1-1.471-1.867,4.119,4.119,0,0,1,.038-.941,1.875,1.875,0,0,1,1.4-1.473c.218-.063.222-.057.222-.276q0-1.886,0-3.775c0-.048-.006-.1,0-.143.009-.1-.027-.143-.136-.165a1.847,1.847,0,0,1-1-.564,1.81,1.81,0,0,1-.513-1.209,4.394,4.394,0,0,1,.043-1.111,1.9,1.9,0,0,1,1.807-1.474q.344-.007.686,0a1.891,1.891,0,0,1,1.843,1.636,3.754,3.754,0,0,1,0,1.14,1.845,1.845,0,0,1-1.41,1.554c-.158.044-.23.089-.229.272.008,1.3,0,2.593,0,3.889,0,.128.034.193.163.213a1.49,1.49,0,0,1,.627.261.175.175,0,0,0,.25-.023c.558-.462,1.115-.925,1.684-1.374.125-.1.09-.187.068-.3a3.575,3.575,0,0,1,.01-1.585,1.866,1.866,0,0,1,1.78-1.394c.2,0,.4.008.6,0a1.9,1.9,0,0,1,1.949,1.838,4.472,4.472,0,0,1-.023.913,1.9,1.9,0,0,1-1.8,1.648c-.247.012-.5.01-.743,0a1.766,1.766,0,0,1-.965-.31.21.21,0,0,0-.276,0,2.735,2.735,0,0,0-.326.224c-.449.368-.9.738-1.352,1.1a.214.214,0,0,0-.085.266,3.44,3.44,0,0,1,.019,1.721c-.027.122-.023.187.079.265q.818.623,1.625,1.261a.209.209,0,0,0,.3.014,1.919,1.919,0,0,1,1.162-.331,5.072,5.072,0,0,1,.713.023,1.9,1.9,0,0,1,1.677,1.84,4.843,4.843,0,0,1-.025.913,1.88,1.88,0,0,1-1.762,1.622,3.986,3.986,0,0,1-1.222-.058,1.892,1.892,0,0,1-1.385-1.7,3.835,3.835,0,0,1,.087-1.331.132.132,0,0,0-.059-.167q-.857-.667-1.713-1.336a.142.142,0,0,0-.2,0,1.665,1.665,0,0,1-.729.31c-.14.022-.121.121-.121.215q0,.887,0,1.773v.2Z" transform="translate(-774.499 -1736.665)"/>
    <path id="Path_277" data-name="Path 277" class="cls-1" d="M793.281,1747.86a2.553,2.553,0,0,1,.041-.709,1.892,1.892,0,0,1,1.81-1.467,5.258,5.258,0,0,1,.969.026,1.912,1.912,0,0,1,1.581,1.865,4.432,4.432,0,0,1-.019.8,1.892,1.892,0,0,1-1.661,1.7,4.073,4.073,0,0,1-1.054,0,1.889,1.889,0,0,1-1.667-1.781C793.276,1748.145,793.281,1748,793.281,1747.86Z" transform="translate(-774.937 -1737.026)"/>
    <path id="Path_278" data-name="Path 278" class="cls-1" d="M780.008,1744.684a1.315,1.315,0,1,1-.021-2.63,1.315,1.315,0,1,1,.021,2.63Z" transform="translate(-774.353 -1736.881)"/>
    <path id="Path_279" data-name="Path 279" class="cls-1" d="M780.007,1751.324a1.307,1.307,0,0,1,1.318,1.32,1.327,1.327,0,0,1-2.654-.019A1.3,1.3,0,0,1,780.007,1751.324Z" transform="translate(-774.353 -1737.251)"/>
    <path id="Path_280" data-name="Path 280" class="cls-1" d="M774.173,1747.922a1.06,1.06,0,1,1,1.046,1.064A1.05,1.05,0,0,1,774.173,1747.922Z" transform="translate(-774.173 -1737.074)"/>
    <path id="Path_281" data-name="Path 281" class="cls-1" d="M786.786,1755.389l-.313-.372,1.5-1.241a2.828,2.828,0,0,1,.3.39Z" transform="translate(-774.665 -1737.349)"/>
    <path id="Path_282" data-name="Path 282" class="cls-1" d="M786.516,1740.821l.3-.379c.453.373.9.742,1.344,1.109.061.05.085.093.029.164-.075.1-.142.2-.22.308Z" transform="translate(-774.667 -1736.816)"/>
    <path id="Path_283" data-name="Path 283" class="cls-1" d="M792.069,1745.405c.157-.108.22-.313.361-.3.116.007.225.157.334.248.25.2.5.412.747.612.084.067.1.12.021.2s-.133.16-.219.267Z" transform="translate(-774.889 -1737.003)"/>
    <path id="Path_284" data-name="Path 284" class="cls-1" d="M793.27,1749.421c.329.359.329.359-.025.651l-.814.672-.327-.363Z" transform="translate(-774.89 -1737.175)"/>
  </g>
</svg>
