<svg xmlns="http://www.w3.org/2000/svg" width="18" height="10" viewBox="0 0 18 10">
  <defs>
    <style>
      .cls-1 {
        fill: #37bce9;
      }

      .cls-2 {
        fill: #fff;
        opacity: 0.7;
      }

      .cls-3 {
        fill: #fcfcfe;
      }
    </style>
  </defs>
  <g id="Group_652" data-name="Group 652" transform="translate(-161 -558)">
    <g id="Group_651" data-name="Group 651" transform="translate(11.302 6.625)">
      <rect id="Rectangle_10" data-name="Rectangle 10" class="cls-1" width="18" height="10" rx="1" transform="translate(149.698 551.375)"/>
      <circle id="Ellipse_13" data-name="Ellipse 13" class="cls-2" cx="3.5" cy="3.5" r="3.5" transform="translate(159.698 552.375)"/>
      <path id="Path_269" data-name="Path 269" class="cls-3" d="M271.266,603.73a.877.877,0,1,0-.946,0,1.124,1.124,0,0,0-1.022,1.118v.911l0,.014.063.02a5.116,5.116,0,0,0,1.527.246,3.139,3.139,0,0,0,1.333-.25l.059-.03h.006v-.911A1.124,1.124,0,0,0,271.266,603.73Z" transform="translate(-107.703 -48.103)"/>
    </g>
  </g>
</svg>
