<svg xmlns="http://www.w3.org/2000/svg" width="18.346" height="8.166" viewBox="0 0 18.346 8.166">
  <defs>
    <style>
      .cls-1 {
        fill: #f6dabe;
      }

      .cls-2 {
        fill: #b376e7;
      }
    </style>
  </defs>
  <g id="Group_653" data-name="Group 653" transform="translate(-486.598 -1081.395)">
    <path id="Path_271" data-name="Path 271" class="cls-1" d="M514.115,1085.891a5.812,5.812,0,0,0,3.331.668,4.96,4.96,0,0,0,3.359-1.295,1.933,1.933,0,0,1,.839-.425.928.928,0,0,1,1.064.227,1.176,1.176,0,0,1,.253,1.229,2.5,2.5,0,0,1-.451.708,6.5,6.5,0,0,1-4.478,2.587c-.956.073-1.9.323-2.861.417a5.183,5.183,0,0,1-2.9-.562c-.861-.433-1.744-.822-2.568-1.326a6.82,6.82,0,0,0-2.467-.86c-.309-.052-.4-.183-.393-.488q.023-1.959,0-3.919a.4.4,0,0,1,.362-.468c2.184-.54,4.339-.811,6.446.351a9.99,9.99,0,0,0,3.631.779,8.064,8.064,0,0,1,1.54.327,1.08,1.08,0,0,1,.735,1.249.963.963,0,0,1-1.021.868c-1,.056-1.994-.133-2.993-.176A2.851,2.851,0,0,0,514.115,1085.891Z" transform="translate(-18.098 -0.47)"/>
    <path id="Path_272" data-name="Path 272" class="cls-2" d="M488.788,1083.208c0-.56.192-1.311-.09-1.63-.322-.365-1.087-.057-1.654-.121-.391-.044-.454.119-.445.47.024.932.008,1.866.008,2.8,0,.986.01,1.972-.006,2.957,0,.277.072.363.349.35a12.024,12.024,0,0,1,1.418,0c.36.025.433-.109.429-.444C488.78,1086.13,488.793,1084.669,488.788,1083.208Zm-1.1,4.365a.437.437,0,0,1-.453-.521.425.425,0,0,1,.5-.414c.3.015.4.224.454.453C488.128,1087.4,487.962,1087.583,487.687,1087.572Z"/>
  </g>
</svg>
