<svg xmlns="http://www.w3.org/2000/svg" width="14.682" height="20.366" viewBox="0 0 14.682 20.366">
  <defs>
    <style>
      .cls-1 {
        fill: #d2d2d2;
      }
    </style>
  </defs>
  <path id="Path_263" data-name="Path 263" class="cls-1" d="M608.879,978.6a1.171,1.171,0,0,0-.856-.362h-9.146a1.219,1.219,0,0,0-1.2.835v18.42a1.16,1.16,0,0,0,1.2,1.111h12.277a1.16,1.16,0,0,0,1.2-1.111V982.778a1.191,1.191,0,0,0-.328-.813Zm-9.112,12.8h10.091a.4.4,0,1,1,0,.79H599.767a.4.4,0,1,1,0-.79Zm-.445-2.216a.421.421,0,0,1,.445-.395h10.091a.4.4,0,1,1,0,.789H599.767A.421.421,0,0,1,599.322,989.175ZM609.858,987H599.767a.4.4,0,1,1,0-.789h10.091a.4.4,0,1,1,0,.789Zm0-3.442a.4.4,0,1,1,0,.79H599.767a.4.4,0,1,1,0-.79Z" transform="translate(-597.675 -978.234)"/>
</svg>
