<svg xmlns="http://www.w3.org/2000/svg" width="15.118" height="15.705" viewBox="0 0 15.118 15.705">
  <defs>
    <style>
      .cls-1 {
        fill: #f6dabe;
      }

      .cls-1, .cls-2 {
        isolation: isolate;
      }

      .cls-2 {
        fill: #877363;
      }

      .cls-3 {
        fill: none;
      }
    </style>
  </defs>
  <g id="Group_664" data-name="Group 664" transform="translate(-186.208 -1153.979)">
    <path id="Path_292" data-name="Path 292" class="cls-1" d="M232.188,1194.723c0,3.15-1.148,8.143-5.7,8.143-4.226,0-5.7-4.993-5.7-8.143a5.7,5.7,0,0,1,11.406,0Z" transform="translate(-32.739 -33.182)"/>
    <path id="Path_293" data-name="Path 293" class="cls-2" d="M211.7,1168.768c0-.3,1.217,1.855,3.789,1.817s4.021.076,4.388.719a2.8,2.8,0,0,0,.813.927s.946-3.449.038-4.912c-.847-1.364-4.8-3.865-7.642-2.389s-2.486,2.178-2.486,2.178a1.991,1.991,0,0,0-1.9,1.946,10.571,10.571,0,0,0,.8,4,3.1,3.1,0,0,1,.958-2C211.312,1170.053,211.7,1169.564,211.7,1168.768Z" transform="translate(-21.284 -9.943)"/>
    <rect id="Rectangle_102" data-name="Rectangle 102" width="2.502" height="4.296" rx="1.251" transform="translate(186.208 1160.473)"/>
    <rect id="Rectangle_103" data-name="Rectangle 103" width="2.502" height="4.296" rx="1.251" transform="translate(198.824 1160.238)"/>
    <path id="Path_294" data-name="Path 294" d="M209.779,1349.772a3.929,3.929,0,0,0,4.121,2.951v-.29s-3.026-.063-3.9-2.661Z" transform="translate(-22.32 -185.403)"/>
    <rect id="Rectangle_104" data-name="Rectangle 104" width="1.601" height="0.883" rx="0.441" transform="translate(190.42 1166.689)"/>
    <g id="Group_663" data-name="Group 663" transform="translate(186.877 1153.979)">
      <path id="Path_295" data-name="Path 295" class="cls-3" d="M214.2,1162.979a6.233,6.233,0,0,0-6.381,6.058H220.58A6.233,6.233,0,0,0,214.2,1162.979Z" transform="translate(-207.339 -1162.501)"/>
      <path id="Path_296" data-name="Path 296" d="M205.676,1154.457a6.233,6.233,0,0,1,6.381,6.058h.478a6.867,6.867,0,0,0-13.718,0h.478A6.233,6.233,0,0,1,205.676,1154.457Z" transform="translate(-198.817 -1153.979)"/>
    </g>
  </g>
</svg>
