<svg width="110" height="36" viewBox="0 0 110 36" fill="none" xmlns="http://www.w3.org/2000/svg">
<path d="M16.1304 32.6621C16.3956 32.8129 16.6802 32.9264 16.9762 32.9995C17.3152 33.085 17.6632 33.1291 18.0127 33.1306C18.4755 33.1395 18.9351 33.0515 19.3623 32.8724C19.7096 32.7244 20.0079 32.4803 20.2226 32.1686C20.4209 31.8582 20.5247 31.4964 20.5211 31.1275C20.5262 30.8278 20.4549 30.5317 20.3138 30.2676C20.1684 30.0087 19.9646 29.7876 19.7188 29.6221C19.4177 29.4188 19.0916 29.2557 18.7486 29.1369C18.5029 29.0441 18.2645 28.9327 18.0355 28.8037C17.8731 28.7205 17.7314 28.6017 17.6209 28.456C17.5273 28.3205 17.4794 28.1585 17.4841 27.9937C17.4827 27.8322 17.528 27.6738 17.6147 27.5377C17.7071 27.3964 17.8371 27.2839 17.9899 27.2129C18.1849 27.1238 18.3976 27.0803 18.6118 27.0859C18.8058 27.0867 18.999 27.109 19.1881 27.1525C19.3475 27.1897 19.503 27.242 19.6525 27.3087C19.7698 27.3581 19.8829 27.4173 19.9904 27.4857L20.2827 26.6049C20.065 26.473 19.8288 26.3747 19.582 26.3134C19.274 26.2333 18.9569 26.1934 18.6388 26.1947C18.3097 26.1909 17.9824 26.243 17.6706 26.3488C17.4013 26.438 17.1519 26.5795 16.9368 26.7652C16.7399 26.936 16.5823 27.1477 16.4749 27.3857C16.3675 27.6237 16.3129 27.8824 16.3149 28.1437C16.314 28.3425 16.3522 28.5396 16.4272 28.7236C16.5023 28.9076 16.6127 29.075 16.7523 29.216C17.1373 29.5874 17.6028 29.8639 18.1122 30.0239C18.3622 30.1086 18.6027 30.2196 18.8295 30.355C18.9908 30.448 19.1273 30.5787 19.2275 30.7361C19.3122 30.89 19.3551 31.0635 19.3518 31.2394C19.3485 31.4152 19.2992 31.587 19.2088 31.7376C19.1051 31.8955 18.9563 32.0182 18.7818 32.0895C18.5506 32.1824 18.3031 32.227 18.0542 32.2207C17.8489 32.2194 17.6445 32.195 17.4447 32.1478C17.2512 32.1049 17.0613 32.0471 16.8767 31.975C16.7208 31.912 16.5697 31.8376 16.4247 31.7522L16.1304 32.6621ZM21 26.33L23.4876 32.456C23.5168 32.5166 23.5418 32.5793 23.5622 32.6434C23.5766 32.685 23.5843 32.7285 23.585 32.7725C23.5827 32.8149 23.5729 32.8565 23.556 32.8954C23.5394 32.9432 23.5146 32.9995 23.4876 33.0598C23.352 33.3466 23.1843 33.6169 22.988 33.8657C22.6876 34.24 22.3145 34.5489 21.8914 34.7735C21.7254 34.8573 21.5527 34.9269 21.3752 34.9818L21.682 35.9854C21.8145 35.9587 21.9448 35.9218 22.0717 35.875C22.2517 35.8071 22.4257 35.7242 22.5921 35.6273C22.8026 35.508 23.0012 35.3685 23.1849 35.2108C23.403 35.0192 23.6009 34.8057 23.7758 34.5736C23.9811 34.3008 24.1655 34.0126 24.3272 33.7116C24.5082 33.3826 24.6941 32.9988 24.8848 32.5601C25.0756 32.1214 25.2829 31.6182 25.5068 31.0505L27.3456 26.3113H26.0499L24.7128 30.2134C24.6299 30.455 24.5532 30.6986 24.4806 30.936C24.408 31.1733 24.3438 31.3982 24.2733 31.5981H24.2546C24.2153 31.4648 24.1738 31.3233 24.124 31.1671C24.0743 31.0109 24.0266 30.8589 23.9706 30.7007C23.9147 30.5424 23.8628 30.3883 23.8069 30.2405L22.3557 26.3113L21 26.33ZM32.7044 28.8995C32.7069 28.5692 32.6693 28.2399 32.5924 27.9188C32.5183 27.6064 32.383 27.3119 32.1944 27.0526C31.9916 26.7795 31.7216 26.5642 31.4108 26.4279C31.0087 26.2593 30.5756 26.1784 30.14 26.1905C29.5978 26.1906 29.0595 26.2828 28.5479 26.4633C28.3266 26.544 28.1135 26.6458 27.9115 26.7673L28.1914 27.5773C28.356 27.4677 28.5327 27.3775 28.7179 27.3087C28.9133 27.2337 29.1153 27.1773 29.3212 27.14C29.5311 27.101 29.7441 27.0815 29.9576 27.0817C30.1919 27.0749 30.4255 27.1095 30.6479 27.1837C30.8154 27.24 30.9679 27.334 31.0936 27.4586C31.2029 27.5663 31.2902 27.6943 31.3507 27.8355C31.4072 27.9686 31.4463 28.1086 31.4668 28.2519C31.4846 28.3733 31.4929 28.4958 31.4916 28.6184V28.7558C30.746 28.7349 30.0015 28.8283 29.2839 29.0328C28.7565 29.1743 28.2799 29.4631 27.9094 29.8657C27.5938 30.2459 27.4266 30.7284 27.4388 31.2233C27.4386 31.464 27.4829 31.7026 27.5694 31.9271C27.6558 32.155 27.7877 32.3626 27.9571 32.5372C28.138 32.7256 28.3572 32.8726 28.5997 32.9682C28.8867 33.0794 29.1919 33.1352 29.4995 33.1327C29.7973 33.1319 30.0932 33.0841 30.3763 32.9911C30.626 32.9071 30.8615 32.7857 31.075 32.6309C31.2607 32.4939 31.425 32.3297 31.5621 32.1437H31.6036L31.701 32.9766H32.7997C32.7666 32.7475 32.7417 32.4976 32.7272 32.2249C32.7127 31.9521 32.7044 31.6731 32.7044 31.392V28.8995ZM31.5207 30.7402C31.5207 30.7944 31.5207 30.8568 31.5082 30.9214C31.4993 30.992 31.4841 31.0617 31.4626 31.1296C31.3946 31.3286 31.2867 31.5114 31.1454 31.6668C30.9916 31.8444 30.8014 31.9865 30.5878 32.0833C30.342 32.1934 30.0754 32.2488 29.8063 32.2457C29.6104 32.2476 29.4165 32.2064 29.2382 32.1249C29.0657 32.0417 28.9215 31.9091 28.8236 31.7439C28.7122 31.5453 28.657 31.3199 28.664 31.0921C28.6583 30.8618 28.7172 30.6345 28.834 30.4362C28.945 30.2548 29.0997 30.1044 29.2839 29.9989C29.4875 29.8798 29.7076 29.7914 29.9369 29.7366C30.1909 29.675 30.4495 29.6339 30.7101 29.6137C30.9796 29.595 31.2512 29.5887 31.5207 29.595V30.7402ZM34.0394 32.9786H35.2646V29.4388C35.2646 29.341 35.2646 29.2452 35.2646 29.1452C35.2646 29.0453 35.2853 28.9578 35.2978 28.8766C35.3465 28.5914 35.4515 28.3188 35.6066 28.0749C35.748 27.8524 35.9407 27.6674 36.1684 27.5356C36.4046 27.4032 36.6712 27.335 36.9417 27.3378H37.1676C37.2325 27.3409 37.297 27.3493 37.3604 27.3628V26.2238L37.1967 26.2051C37.1401 26.2018 37.0833 26.2018 37.0267 26.2051C36.7552 26.2065 36.4871 26.2669 36.241 26.3821C35.991 26.5049 35.7683 26.677 35.5859 26.8881C35.3895 27.1138 35.2394 27.3764 35.1444 27.6606H35.1029L35.0469 26.3404H33.9731C33.9959 26.6486 34.0104 26.9651 34.0187 27.317C34.027 27.6689 34.0311 28.025 34.0311 28.4144L34.0394 32.9786ZM39.875 26.33H38.6499V32.9786H39.875V26.33ZM39.2531 23.7231C39.1126 23.7216 38.974 23.7568 38.851 23.8251C38.7404 23.8913 38.6489 23.9853 38.5856 24.0979C38.5196 24.213 38.486 24.344 38.4882 24.4768C38.486 24.6078 38.5182 24.7371 38.5815 24.8516C38.6405 24.9623 38.7287 25.0545 38.8365 25.1182C38.9554 25.1854 39.0897 25.2206 39.2262 25.2202C39.3706 25.2208 39.513 25.1858 39.6408 25.1182C39.7531 25.0556 39.8463 24.9635 39.9103 24.8516C39.9719 24.7365 40.0033 24.6075 40.0015 24.4768C40.004 24.3429 39.9711 24.2107 39.9061 24.0937C39.8445 23.9804 39.7526 23.8867 39.6408 23.823C39.5214 23.7552 39.3861 23.7207 39.249 23.7231H39.2531ZM46.4362 28.8995C46.4384 28.5694 46.4016 28.2402 46.3264 27.9188C46.252 27.6068 46.1175 27.3125 45.9304 27.0526C45.7259 26.7804 45.4554 26.5654 45.1447 26.4279C44.7427 26.2593 44.3095 26.1784 43.874 26.1905C43.5959 26.1902 43.3185 26.2146 43.0447 26.2634C42.785 26.3107 42.5297 26.3804 42.2819 26.4716C42.0602 26.5515 41.847 26.6534 41.6454 26.7756L41.9232 27.5856C42.0886 27.4772 42.2651 27.3872 42.4498 27.317C42.6453 27.2423 42.8472 27.1859 43.053 27.1483C43.2643 27.1093 43.4788 27.0898 43.6936 27.09C43.9272 27.0834 44.1601 27.1179 44.3819 27.1921C44.5384 27.2442 44.6821 27.3293 44.8033 27.4417C44.9245 27.5541 45.0204 27.6912 45.0846 27.8438C45.1396 27.9774 45.1779 28.1172 45.1986 28.2603C45.2181 28.3814 45.2271 28.504 45.2256 28.6267V28.7642C44.4799 28.7432 43.7354 28.8366 43.0178 29.0411C42.4904 29.1826 42.0139 29.4714 41.6434 29.874C41.328 30.2545 41.1601 30.7367 41.1707 31.2316C41.1715 31.4722 41.2157 31.7107 41.3013 31.9354C41.3939 32.171 41.5336 32.385 41.7119 32.5641C41.8902 32.7432 42.1033 32.8836 42.3378 32.9766C42.624 33.0878 42.9286 33.1436 43.2355 33.1411C43.5333 33.1404 43.8293 33.0926 44.1124 32.9995C44.3615 32.9159 44.5964 32.7944 44.8089 32.6392C44.9958 32.5028 45.1608 32.3385 45.2981 32.152H45.3396L45.437 32.9849H46.5357C46.5026 32.7558 46.4777 32.506 46.4632 32.2332C46.4487 31.9604 46.4383 31.6814 46.4383 31.4003L46.4362 28.8995ZM45.2525 30.7402C45.2525 30.7944 45.2525 30.8568 45.2525 30.9214C45.2447 30.9922 45.2294 31.062 45.2069 31.1296C45.1389 31.3286 45.031 31.5114 44.8897 31.6668C44.7359 31.8444 44.5457 31.9865 44.3321 32.0833C44.0863 32.1934 43.8197 32.2488 43.5506 32.2457C43.3541 32.2474 43.1595 32.2062 42.9805 32.1249C42.8078 32.0419 42.6635 31.9093 42.5659 31.7439C42.4584 31.5428 42.4022 31.3182 42.4022 31.09C42.4022 30.8619 42.4584 30.6373 42.5659 30.4362C42.6776 30.2547 42.833 30.1043 43.0178 29.9989C43.2209 29.8801 43.4402 29.7918 43.6687 29.7366C43.9229 29.6753 44.1814 29.6342 44.442 29.6137C44.7156 29.595 44.9851 29.5887 45.2525 29.595V30.7402ZM47.5578 32.9786H48.785V28.9682C48.7843 28.8667 48.7891 28.7652 48.7995 28.6642C48.811 28.5708 48.834 28.4792 48.8679 28.3915C48.9482 28.1719 49.0684 27.9693 49.2224 27.7938C49.3793 27.6147 49.5703 27.4688 49.7842 27.3649C50.0105 27.253 50.2596 27.1953 50.5119 27.1962C50.764 27.1893 51.0141 27.2429 51.2416 27.3524C51.4347 27.4484 51.6008 27.5916 51.7246 27.7689C51.8502 27.9591 51.9401 28.1708 51.9899 28.3935C52.0468 28.6428 52.0747 28.8978 52.0729 29.1536V32.9724H53.298V29.0161C53.3029 28.6209 53.2491 28.2272 53.1384 27.848C53.051 27.5546 52.9105 27.28 52.7238 27.038C52.5681 26.8335 52.3754 26.6605 52.1558 26.5278C51.9622 26.4101 51.7528 26.321 51.5339 26.2634C51.3402 26.2135 51.141 26.1883 50.941 26.1884C50.7171 26.1879 50.4941 26.2166 50.2776 26.2738C50.0715 26.3305 49.8731 26.4123 49.6868 26.5174C49.32 26.7187 49.0164 27.0187 48.8099 27.3836H48.7829V23.2191H47.5557L47.5578 32.9786Z" fill="#010101"/>
<path d="M103.913 0C94.1702 8.43727 95.1901 19.2483 74.3726 22.936C89.4789 20.583 103.074 13.8074 103.913 0Z" fill="#EC2427"/>
<path d="M109.393 4.81622C95.1011 11.5169 92.4704 22.3883 68.4106 23.1546C89.6179 24.3769 104.896 14.8777 109.393 4.81622Z" fill="#CE2027"/>
<path d="M110 10.8381C92.5656 14.9401 88.9046 23.8417 64.3743 22.836C84.0454 26.2946 105.933 18.0468 110 10.8381Z" fill="#B11F24"/>
<path d="M106.969 16.279C90.2646 17.1994 81.8169 25.7449 58.8538 21.8636C77.961 27.8896 94.4252 22.7173 106.967 16.2811" fill="#941A1D"/>
<path d="M103.304 19.8709C86.0729 18.455 77.7434 26.7319 55.0498 20.86C73.6492 28.2728 90.3123 25.368 103.304 19.8709Z" fill="#781214"/>
<path d="M0.0787758 16.0541C0.0787758 16.3373 0.0787758 16.6226 0.0787758 16.9162C0.0787758 17.2098 0.0497531 17.4909 0.0373148 17.7637C0.0248766 18.0364 0.0124383 18.28 0 18.4987H1.48223L1.58173 16.9537H1.62112C1.94308 17.5211 2.41712 17.9864 2.98933 18.2967C3.56778 18.5873 4.20855 18.7303 4.85507 18.7132C5.2862 18.7107 5.71428 18.6404 6.12378 18.5049C6.54065 18.3708 6.93281 18.1689 7.28469 17.9073C7.66099 17.6254 7.98813 17.2827 8.2528 16.8933C8.54858 16.4591 8.77194 15.9795 8.9141 15.4732C9.08357 14.8796 9.16666 14.2645 9.16079 13.647C9.16463 12.983 9.06459 12.3226 8.86435 11.6897C8.68747 11.1337 8.40597 10.617 8.03513 10.1676C7.68492 9.75003 7.24848 9.41396 6.75606 9.1827C6.23848 8.94962 5.67727 8.83035 5.11006 8.83288C4.63752 8.82588 4.167 8.89621 3.71697 9.04111C3.31939 9.1708 2.94852 9.37187 2.6224 9.63455C2.31133 9.89075 2.0487 10.2011 1.84708 10.5507H1.7994V4.608H0.0787758V16.0541ZM1.7994 13.0203C1.79954 12.8914 1.80854 12.7627 1.82635 12.6351C1.84382 12.5214 1.86735 12.4088 1.89684 12.2977C2.01236 11.8858 2.21375 11.5032 2.48766 11.1754C2.74234 10.8678 3.05974 10.6185 3.41845 10.4445C3.76762 10.2748 4.15 10.1852 4.5379 10.1822C4.96899 10.1785 5.39495 10.2762 5.78173 10.4675C6.13238 10.6545 6.43531 10.9202 6.66692 11.2441C6.91571 11.5814 7.10053 11.9619 7.21213 12.3665C7.33627 12.8053 7.39838 13.2595 7.39663 13.7158C7.4089 14.3665 7.29045 15.0131 7.04836 15.6169C6.84709 16.128 6.50297 16.5699 6.05744 16.8891C5.59393 17.201 5.04592 17.3617 4.48815 17.3493C4.08319 17.3501 3.68312 17.2605 3.31687 17.0869C2.96856 16.9206 2.66021 16.6805 2.41303 16.3831C2.15977 16.0754 1.97653 15.7158 1.87611 15.3295C1.84664 15.2295 1.82583 15.1271 1.81392 15.0234C1.81392 14.9193 1.79733 14.8152 1.79733 14.7027L1.7994 13.0203ZM17.6354 12.6892C17.6395 12.2188 17.5866 11.7496 17.4779 11.292C17.3728 10.8475 17.1819 10.428 16.9161 10.0572C16.626 9.67023 16.241 9.36533 15.7987 9.17229C15.2285 8.93366 14.6147 8.81803 13.9972 8.83288C13.6011 8.83355 13.2058 8.86839 12.8156 8.937C12.4481 9.00189 12.0868 9.09802 11.7355 9.22435C11.4215 9.33947 11.1189 9.48377 10.8317 9.65537L11.2276 10.811C11.4619 10.6554 11.713 10.5269 11.976 10.4279C12.2538 10.3206 12.5412 10.2404 12.8342 10.1884C13.133 10.1327 13.4363 10.1048 13.7402 10.1051C14.0722 10.0954 14.4033 10.1441 14.7186 10.2488C14.9518 10.3323 15.1641 10.4659 15.3405 10.6403C15.4959 10.7933 15.6192 10.9759 15.7033 11.1775C15.783 11.3618 15.8387 11.5557 15.8692 11.7543C15.8991 11.9297 15.9143 12.1073 15.9148 12.2853V12.481C14.856 12.452 13.799 12.5854 12.7803 12.8766C12.0309 13.0812 11.3545 13.4948 10.8296 14.0697C10.3824 14.609 10.144 15.2921 10.1579 15.9937C10.1587 16.3374 10.2212 16.6781 10.3424 16.9995C10.4746 17.3344 10.6735 17.6387 10.927 17.8936C11.1804 18.1486 11.4831 18.3488 11.8164 18.482C12.2226 18.6407 12.6555 18.7192 13.0913 18.7132C13.5143 18.7113 13.9343 18.641 14.3351 18.5049C14.6893 18.385 15.0228 18.2108 15.324 17.9885C15.5896 17.7954 15.8232 17.5614 16.0164 17.2951H16.0744L16.2133 18.4883H17.7764C17.7266 18.1614 17.6914 17.8074 17.6706 17.418C17.6499 17.0286 17.6375 16.633 17.6375 16.2186L17.6354 12.6892ZM15.9625 15.3087C15.9625 15.3878 15.9625 15.4753 15.9479 15.5669C15.9343 15.6656 15.9128 15.7631 15.8837 15.8584C15.7856 16.141 15.6319 16.4009 15.4318 16.6226C15.2137 16.8737 14.9443 17.0747 14.6419 17.2119C14.2925 17.3686 13.9134 17.4475 13.5308 17.443C13.2527 17.445 12.9774 17.386 12.7244 17.2702C12.4788 17.1524 12.2743 16.963 12.1377 16.7267C11.9861 16.4401 11.9078 16.1202 11.9096 15.7957C11.9114 15.4711 11.9933 15.1521 12.1481 14.8672C12.3074 14.6094 12.5274 14.3949 12.7886 14.2426C13.0781 14.0739 13.3902 13.9477 13.7153 13.8678C14.0755 13.7799 14.4423 13.7221 14.8119 13.6949C15.1947 13.6655 15.5787 13.6558 15.9625 13.6658V15.3087ZM20.0256 18.4987H21.767V12.8058C21.7666 12.6616 21.777 12.5175 21.7981 12.3748C21.8135 12.2484 21.8427 12.1241 21.8852 12.0042C21.9964 11.6801 22.1673 11.3799 22.3889 11.1192C22.6118 10.858 22.8855 10.6454 23.1932 10.4945C23.5144 10.3311 23.8697 10.2468 24.2298 10.2488C24.5879 10.2403 24.943 10.3166 25.2663 10.4716C25.5402 10.6125 25.7753 10.8192 25.9504 11.0734C26.1275 11.3448 26.2546 11.6459 26.3256 11.9625C26.4085 12.318 26.4475 12.6823 26.4417 13.0474V18.4987H28.1831V12.8641C28.1909 12.3008 28.1154 11.7394 27.9592 11.1983C27.8344 10.7798 27.6326 10.3885 27.3642 10.0448C27.1403 9.75443 26.8656 9.50747 26.5537 9.31597C26.2731 9.14705 25.9692 9.02075 25.6519 8.94116C25.3707 8.8693 25.0817 8.83293 24.7916 8.83288C24.307 8.8313 23.8263 8.91953 23.3736 9.09317C22.9824 9.24667 22.621 9.46797 22.306 9.74699C22.0314 9.98709 21.8013 10.274 21.626 10.5945H21.5866L21.4871 9.0307H19.9448C19.9738 9.418 19.9945 9.81571 20.009 10.2301C20.0236 10.6444 20.0256 11.0963 20.0256 11.5919V18.4987ZM32.3022 4.608H30.5795V18.4987H32.3022V14.938L33.1915 13.9594L36.4856 18.4987H38.6209L34.3981 12.9224L38.0777 9.0307H36.0047L33.1687 12.2977C33.0257 12.4664 32.8847 12.6455 32.7355 12.835C32.5862 13.0245 32.4577 13.2035 32.3375 13.3722H32.2981L32.3022 4.608Z" fill="#CE2027"/>
<path d="M38.849 22.6653C39.2607 22.6651 39.6715 22.6267 40.0762 22.5507C40.4805 22.477 40.8745 22.3547 41.2496 22.1863C41.609 22.0348 41.9404 21.8236 42.2301 21.5617C42.5229 21.2726 42.7641 20.9353 42.9433 20.5643C43.1443 20.143 43.2839 19.6949 43.3579 19.2337C43.453 18.6578 43.498 18.0747 43.4926 17.4909V8.97032H41.063V16.7954C41.063 17.3118 41.0526 17.7512 41.0257 18.1218C41.0097 18.4313 40.9737 18.7394 40.9179 19.0442C40.8787 19.26 40.8125 19.4698 40.721 19.6689C40.6468 19.826 40.5489 19.9707 40.4307 20.0979C40.2169 20.3133 39.9566 20.4764 39.6699 20.5747C39.3277 20.6916 38.9714 20.7617 38.6106 20.7829L38.849 22.6653ZM42.3089 4.99739C42.0553 4.99435 41.8048 5.05369 41.5792 5.17022C41.3803 5.279 41.2147 5.44027 41.1003 5.63664C40.9839 5.84068 40.9231 6.07195 40.9241 6.30713C40.9216 6.53455 40.9788 6.75862 41.09 6.95679C41.1978 7.15121 41.3571 7.3119 41.5502 7.42113C41.771 7.54075 42.0186 7.60167 42.2695 7.59812C42.5285 7.60336 42.7846 7.54246 43.0137 7.42113C43.2122 7.31416 43.3767 7.15324 43.4885 6.95679C43.5996 6.75862 43.6568 6.53455 43.6543 6.30713C43.6499 6.07214 43.588 5.84186 43.474 5.63664C43.3674 5.44072 43.2078 5.27903 43.0137 5.17022C42.7972 5.05359 42.5546 4.99413 42.3089 4.99739ZM53.5614 12.785C53.5669 12.275 53.5041 11.7665 53.3748 11.2733C53.2499 10.8043 53.0313 10.3658 52.7322 9.98438C52.4057 9.58724 51.9841 9.27988 51.507 9.09109C50.8955 8.85288 50.243 8.73893 49.5874 8.75585C49.1107 8.75447 48.6347 8.79558 48.1653 8.8787C47.7642 8.94719 47.3696 9.04959 46.9857 9.18479C46.6798 9.29418 46.3853 9.43367 46.1067 9.60124L46.5815 11.165C46.819 11.0189 47.0704 10.8969 47.3319 10.8006C47.6214 10.6926 47.9197 10.6097 48.2233 10.5528C48.5356 10.4932 48.8528 10.4625 49.1707 10.4612C49.5206 10.4527 49.8689 10.5114 50.1968 10.634C50.4263 10.7204 50.6303 10.8636 50.7897 11.0505C50.9172 11.2101 51.0103 11.3944 51.0634 11.5919C51.1075 11.7632 51.1291 11.9396 51.1276 12.1166V12.2853C50.0915 12.2583 49.0574 12.3917 48.0616 12.6809C47.3092 12.8881 46.6311 13.3063 46.1067 13.8865C45.639 14.4446 45.3925 15.1563 45.4143 15.8855C45.4171 16.2466 45.4874 16.604 45.6216 16.9391C45.7526 17.2786 45.9524 17.587 46.2083 17.8449C46.4759 18.1188 46.799 18.3319 47.1557 18.4695C47.5654 18.6348 48.0036 18.7169 48.4451 18.7111C48.8426 18.7136 49.2385 18.6589 49.6205 18.5487C49.9616 18.4486 50.2859 18.2977 50.5824 18.101C50.8548 17.9229 51.0958 17.7005 51.2956 17.443H51.3536L51.5319 18.4987H53.7293C53.6645 18.1549 53.6237 17.807 53.607 17.4576C53.5801 17.0619 53.5697 16.6455 53.5697 16.2082L53.5614 12.785ZM51.1878 15.1525C51.1878 15.2421 51.1878 15.3295 51.1878 15.417C51.1818 15.5072 51.1637 15.5961 51.1339 15.6814C51.0505 15.9193 50.9216 16.1386 50.7545 16.3269C50.5707 16.5289 50.3478 16.6912 50.0994 16.8037C49.8223 16.9306 49.5208 16.9946 49.2163 16.9911C48.9742 16.9951 48.7343 16.9453 48.5135 16.8454C48.3078 16.7487 48.1359 16.5919 48.0202 16.3956C47.8894 16.1599 47.8249 15.8928 47.8336 15.6231C47.8237 15.3018 47.9232 14.9867 48.1155 14.7298C48.3161 14.4857 48.575 14.2966 48.868 14.1801C49.2129 14.0434 49.5738 13.9517 49.9419 13.9073C50.3545 13.8574 50.7701 13.8358 51.1857 13.8428L51.1878 15.1525ZM56.4098 7.19V8.97032H55.0457V10.7715H56.4098V15.2504C56.3968 15.795 56.4589 16.3387 56.5943 16.8662C56.6952 17.2688 56.8972 17.6387 57.1809 17.9406C57.4249 18.1979 57.7251 18.3947 58.0578 18.5153C58.4481 18.6589 58.8612 18.7295 59.2768 18.7236C59.6237 18.7256 59.9703 18.7005 60.3133 18.6486C60.5628 18.6149 60.8081 18.5548 61.0451 18.4695L61.0036 16.6517C60.8681 16.6901 60.7293 16.7159 60.589 16.7288C60.4418 16.7413 60.2656 16.7475 60.0542 16.7475C59.7955 16.7613 59.5389 16.6936 59.3203 16.5539C59.1253 16.409 58.985 16.202 58.9223 15.9667C58.8358 15.6473 58.7974 15.3167 58.8083 14.9859V10.7715H61.1218V8.97032H58.8021V6.52576L56.4098 7.19ZM65.3861 8.97032H62.9564V18.4987H65.3861V8.97032ZM64.1795 4.99739C63.9312 4.99398 63.6859 5.05342 63.4664 5.17022C63.2682 5.27848 63.1038 5.43997 62.9917 5.63664C62.8742 5.84109 62.8127 6.07314 62.8134 6.30921C62.8146 6.53643 62.8723 6.75975 62.9813 6.95887C63.0941 7.15235 63.2557 7.31252 63.4498 7.42321C63.667 7.54259 63.9112 7.60355 64.1588 7.6002C64.4163 7.60394 64.6707 7.5431 64.8989 7.42321C65.0962 7.31301 65.2603 7.15134 65.3738 6.95527C65.4873 6.7592 65.5459 6.53599 65.5436 6.30921C65.5409 6.07426 65.4796 5.84374 65.3653 5.63872C65.2544 5.444 65.0932 5.28289 64.8989 5.1723C64.6768 5.05456 64.4286 4.99511 64.1775 4.99947L64.1795 4.99739ZM68.0168 18.4987H70.3883V12.8641C70.3879 12.7247 70.3983 12.5855 70.4194 12.4477C70.4374 12.3143 70.4665 12.1826 70.5065 12.0541C70.5909 11.8232 70.7128 11.6079 70.8672 11.417C71.0295 11.2107 71.2301 11.0381 71.458 10.9089C71.7056 10.7719 71.9838 10.7003 72.2665 10.7007C72.6013 10.6915 72.9296 10.7949 73.1994 10.9943C73.4557 11.2005 73.646 11.4778 73.7467 11.7918C73.8763 12.1714 73.938 12.5711 73.9291 12.9724V18.4987H76.3006V12.785C76.3011 12.6456 76.3115 12.5064 76.3317 12.3686C76.349 12.2396 76.3789 12.1127 76.4209 11.9896C76.5077 11.7623 76.6317 11.5511 76.7878 11.3649C76.9507 11.1753 77.1485 11.019 77.3703 10.9047C77.6035 10.7882 77.8604 10.7276 78.1208 10.7277C78.468 10.7145 78.8092 10.8219 79.0868 11.0317C79.3552 11.2483 79.5542 11.5394 79.659 11.8688C79.791 12.3088 79.8532 12.767 79.8435 13.2264V18.4987H82.215V12.8766C82.2291 12.2217 82.1359 11.5689 81.9393 10.9443C81.79 10.4708 81.5403 10.0353 81.2075 9.66787C80.9219 9.36048 80.5722 9.12017 80.1835 8.96407C79.8099 8.81996 79.4123 8.74927 79.0122 8.75585C78.6458 8.75089 78.2806 8.79929 77.928 8.89953C77.6116 8.99227 77.311 9.13268 77.0366 9.31598C76.8099 9.45751 76.6011 9.626 76.4147 9.8178C76.208 10.0292 76.0264 10.264 75.8736 10.5174H75.8342C75.7008 10.1713 75.4985 9.85617 75.2398 9.59123C74.981 9.3263 74.6711 9.11715 74.3292 8.97657C73.9595 8.82783 73.5645 8.75286 73.1662 8.75585C72.7967 8.75212 72.4287 8.80262 72.0737 8.90577C71.7802 8.99117 71.5008 9.11957 71.2445 9.28682C71.0159 9.43451 70.8069 9.61084 70.6226 9.81155C70.4656 9.98651 70.3267 10.177 70.208 10.38H70.1478L70.0297 8.97032H67.9566C67.9753 9.38677 67.996 9.8178 68.0126 10.2842C68.0292 10.7506 68.0375 11.2587 68.0375 11.8084L68.0168 18.4987Z" fill="#010101"/>
</svg>
