<svg xmlns="http://www.w3.org/2000/svg" viewBox="0 0 1086.33 404.02"><defs><style>.cls-1{fill:#005f7a;}.cls-2{fill:#e26013;}</style></defs><g id="Layer_2" data-name="Layer 2"><g id="Layer_1-2" data-name="Layer 1"><path class="cls-1" d="M937.07,0c-2.15,1.63-4.26,3.31-6.44,4.9C919.18,13.28,914.27,25,913.21,38.72c-.28,3.72-.23,7.47-.23,11.2q0,129.58,0,259.15v4.71c-1.58-.95-2.61-1.52-3.59-2.17a305.35,305.35,0,0,1-74.08-68.87c-35.69-46.68-70.76-93.84-106.08-140.8q-10.82-14.39-21.58-28.82A6.32,6.32,0,0,0,704.91,71v4.16c0,57.17.2,114.35-.1,171.52-.11,20.23,5.07,38,23.93,51.67H649.6c.94-.87,1.57-1.54,2.28-2.09,13.92-10.68,21.37-24.85,21.45-42.32.24-53.32.15-106.64.16-160,0-16.75-.27-33.51,0-50.26.22-15.33-5.18-28.25-15.5-39.35-1.31-1.4-2.52-2.9-3.77-4.36h61.88a20.8,20.8,0,0,0,1.39,2.6q80.29,109.59,160.62,219.14c.54.74,1.22,1.38,2.41,2.71.1-2,.2-3.09.2-4.18,0-58.07-.14-116.14.08-174.21.07-19.07-6-34.78-21.89-46.06Z"/><path class="cls-1" d="M506.62,0c5.89.93,11.82,1.68,17.67,2.83,16.28,3.21,31.82,8.33,44.76,19.23,13.75,11.58,19.77,26.5,17.78,44.3a102.12,102.12,0,0,1-4.48,21.46C577,103.54,566.06,114.44,551,121.3c-1.08.49-2.16,1-4.08,1.89l6.7,2.57c16.42,6.38,31.71,14.56,43.68,27.87,14,15.55,19.22,33.93,17.55,54.55-1.14,14.07-4.68,27.42-12.18,39.49-11.21,18-27.91,29-47.45,36.15a168.2,168.2,0,0,1-55.08,10.6c-40.1.69-80.22.54-120.33.72a2.75,2.75,0,0,1-.76-.19c4-4.66,8.23-9.13,11.83-14.07a45.74,45.74,0,0,0,8.9-27.91q-.25-106.3.08-212.62c.06-12.37-4.42-21.94-13-30.09C383.07,6.59,378.78,3.4,374.69,0ZM444.76,145.7c-.1,1.27-.2,1.92-.2,2.58q0,57.89-.06,115.76c0,2.67,1,3.19,3.39,3.17,10-.1,19.95.33,29.9-.14,11.84-.56,23.76-1.18,35.46-3A70.47,70.47,0,0,0,549,248c22.42-19.23,21.38-53.87,6.78-73.91-10.44-14.34-25-21.85-41.94-25.48C491.1,143.7,468,146.85,444.76,145.7Zm0-26.07c12.62,0,24.83.08,37.05,0a74.1,74.1,0,0,0,29.37-6c16.48-7.22,26.78-19,27.12-37.81.28-15.86-4.49-29.48-17.81-39-9.16-6.58-19.74-9.68-30.85-10.19-14-.63-28.07-.49-42.11-.66a23.13,23.13,0,0,0-2.77.32Z"/><path class="cls-1" d="M1081.91,0c-13.47,8.77-22.64,20.67-26.11,36.52a50.48,50.48,0,0,0-1,10.78c-.06,68.92,0,137.85-.11,206.77,0,17.21,7.11,30.71,19.49,42l2.64,2.38H985.63c1.32-1,2.19-1.76,3.1-2.43,13.71-10.11,21.12-23.09,21-40.69q-.43-105.75,0-211.53c0-15.92-4.53-29.32-17-39.66a50.38,50.38,0,0,1-4-4.12Z"/><path class="cls-2" d="M91.12,0c-4.38,8.55-4.9,17.8-4.61,27.11,1.53,47.43,19.8,88.65,47.24,126.42,4.91,6.76,10,13.39,15.25,20.4l-30.65,25.12c-3.1-3.86-6-7.45-8.9-11.06Q55.57,120.43,1.74,52.81A8.63,8.63,0,0,1,.17,47.87C0,31.92,0,16,0,0Z"/><path class="cls-2" d="M295.81,0q-.1,16.46-.2,32.92c0,1.46,0,2.92,0,4.6a4.64,4.64,0,0,1-1.45-.13c-19.06-9.59-38.66-9-58.48-2.94C203.94,44.1,184.42,66,174,96.7c-2.46,7.22-3.72,14.85-5.56,22.28-.15.64-.41,1.25-.9,2.7-4.1-5.85-8.08-11-11.53-16.56C143.39,85,134.23,63.43,130.35,39.88,128.12,26.33,128,12.86,134,0Z"/><path class="cls-2" d="M295.61,149c0,18-.11,36,.1,54,0,3.5-1.27,4.71-4.37,5.45-13.59,3.25-26.78,1.46-39.14-4.31-33.11-15.46-54.56-40.45-60.67-77.18-2.48-14.89-1.53-29.52,7.13-42.48,10.65-15.94,26.46-22.38,45-21.56,20.19.89,36.65,10,49.64,25.38a10.23,10.23,0,0,1,2.19,6C295.68,112.56,295.61,130.79,295.61,149Z"/><path class="cls-2" d="M295.36,227.28c.11,1.31.24,2.17.24,3,0,20.37,0,40.75.06,61.12,0,2.65-.74,3.55-3.43,3.54q-45.54-.11-91.09-.05c-.74,0-1.48-.14-3-.29l18.47-15.33c-4.59-.37-8.37-.46-12.08-1-16.67-2.55-31-9.13-41.56-23.06-10.17-13.44-21-26.41-31.83-40l31.76-26a40.18,40.18,0,0,0,2.56,3.33c11.49,12.06,23,24.23,37.1,33.25,23.43,15,48.64,18.1,75.09,9,4.79-1.66,9.39-3.9,14.07-5.87C292.86,228.4,294,227.9,295.36,227.28Z"/><path class="cls-2" d="M.4,115.16l87.07,109.2L.4,295.68Z"/><path class="cls-2" d="M100.3,240.49c14.06,17.53,28.15,34.6,39.89,54.13H34.26Z"/><path class="cls-1" d="M23.41,384c.65-1.48,1.05-2.25,1.34-3.07q5.24-15,10.44-30.1c2.22-6.42,2.2-6.43,9.43-5.18v44.5H39.53V354l-.93-.17c-.41,1.08-.86,2.16-1.24,3.25q-5.23,15.06-10.45,30.11c-.59,1.7-.94,3.32-3.54,3.25-2.44-.06-3-1.38-3.62-3.19-3.49-10.27-7-20.51-10.58-30.76-.38-1.09-.82-2.17-1.23-3.25l-.94.16V357q0,14.94,0,29.87c0,1.82.29,3.59-2.62,3.62S1.61,389,1.61,387c0-12.78,0-25.57,0-38.35,0-1,.12-2,.22-3.43a43.11,43.11,0,0,1,7.13.12c.93.16,2,1.63,2.35,2.71C15,358.62,18.43,369.26,22,379.87,22.34,381,22.77,382.15,23.41,384Z"/><path class="cls-1" d="M878.89,345.68c7.45,0,14.78-.37,22.05.13,4.79.33,8,3.57,9.06,8.4s-.6,8.42-4.56,11.15a4.74,4.74,0,0,0-.78,1c.49.32.9.65,1.34.88,5.14,2.74,7.25,6.72,6.46,12.22-.75,5.18-4.7,9.86-9.92,10.18-7.75.48-15.55.12-23.65.12Zm13.39,39.91a76.39,76.39,0,0,0,8.72-.85,7.33,7.33,0,0,0,6-7.59,7.24,7.24,0,0,0-6.24-7.36,50.24,50.24,0,0,0-8.41-.7c-8.26-.1-8.27,0-8.27,8.12S884,385.38,892.28,385.59Zm.2-35.23v-.23a40,40,0,0,0-6.1.1,3.19,3.19,0,0,0-2.21,2.06,76.76,76.76,0,0,0,0,9.83c0,.71,1,2,1.59,2a105.52,105.52,0,0,0,13.55-.23A6.19,6.19,0,0,0,905,357a6.61,6.61,0,0,0-6.42-6.64C896.56,350.2,894.51,350.36,892.48,350.36Z"/><path class="cls-1" d="M310.47,390c-3.62,1.09-5.86.13-7.85-3-6.22-9.72-12.76-19.24-19.2-28.83a6.22,6.22,0,0,0-2.64-2.38c0,1.16-.16,2.33-.16,3.5q0,13.75,0,27.51c0,1.79.4,3.62-2.56,3.66s-2.74-1.54-2.73-3.48c0-12.79,0-25.58,0-38.38,0-1,.15-2,.22-3,3.45-1,5.75-.38,7.79,2.8,6.17,9.62,12.7,19,19.1,28.49a8.22,8.22,0,0,0,2.91,2.87V345.38h5.11Z"/><path class="cls-1" d="M511.51,366.74c-2.3,2.6-4.39,4.8-6.25,7.19a5.67,5.67,0,0,0-.86,3.12c-.11,2.94,0,5.89,0,8.83,0,5-.08,5-5.49,4.09V345.46h5.41v22.37c1.56-1.36,2.4-2,3.15-2.76,5.59-5.61,11.39-11.05,16.67-16.94,2.9-3.24,6-3.21,8.85-2.83-3.7,4.08-7.5,8.53-11.58,12.71-5.31,5.44-5.41,5.35-1,11.34l14.89,20.26c-4.36,1.7-6.48,1.12-8.92-2.33l-12-16.89C513.63,369.41,512.86,368.47,511.51,366.74Z"/><path class="cls-1" d="M1013.31,361.13c.12-3.59,2-4.2,5-3.15.06.94.2,1.92.18,2.9-.18,10.74-.33,21.47-.62,32.2a9.48,9.48,0,0,1-5.19,8.25,17.93,17.93,0,0,1-17.82.07c-2.84-1.48-3.95-4.11-3.79-7.44,2.44,0,4.25,0,5.75,2.53,1.91,3.32,5.6,3.38,9.11,2.81s6-2.4,6.72-5.85a40.18,40.18,0,0,0,.41-6.52c-2.52,1.09-4.63,2.37-6.91,2.92A11.69,11.69,0,0,1,992.52,384a20.15,20.15,0,0,1-1-19.2c3.63-8.15,13-10.36,20.1-4.91C1012.08,360.26,1012.53,360.56,1013.31,361.13Zm.38,12.82a54.07,54.07,0,0,0-.92-5.66c-1.19-4.38-4.42-7-8.45-7-4.22-.05-8,2.53-8.64,7.08a35.79,35.79,0,0,0,.63,12.29c.81,3.64,4.45,5.51,8.12,5.45a8.37,8.37,0,0,0,8-5.79A47.73,47.73,0,0,0,1013.69,374Z"/><path class="cls-1" d="M355.22,394c2.89-.19,4.59.34,6.2,2.81,2.13,3.27,5.95,3.12,9.57,2.36a7.42,7.42,0,0,0,6.25-6.32,38,38,0,0,0,.06-6.19c-1.19.75-2.08,1.32-3,1.87a12.79,12.79,0,0,1-18.41-6.2,21.08,21.08,0,0,1,0-17.15c3.68-8.59,13.12-10.8,20.44-5,.33.26.71.47,1.35.89.27-1.19.49-2.12.75-3.26h4.06a16.24,16.24,0,0,1,.3,2.27c0,9.5.09,19,0,28.5-.09,8.28-2.85,13.05-9.31,14.22a32.51,32.51,0,0,1-12.59-.71C357.19,401.26,355.34,398.09,355.22,394Zm4-20.07a50.64,50.64,0,0,0,1.38,6.43,8.1,8.1,0,0,0,8,5.74c3.88,0,6.81-1.85,8.24-5.44a17.74,17.74,0,0,0-.13-13.88,8.61,8.61,0,0,0-16.37.94A54.63,54.63,0,0,0,359.23,373.9Z"/><path class="cls-1" d="M704.32,361.18c.25-1.4.42-2.36.61-3.45h4a19.21,19.21,0,0,1,.35,2.63c0,9.5.15,19,0,28.49-.26,12-10.36,18.32-21.56,13.59-3.83-1.62-5.55-4.13-5.68-8.48,2.4-.08,4.25,0,5.81,2.65,1.86,3.16,5.44,3.2,8.84,2.73,3.62-.5,6.15-2.4,7-6a36.34,36.34,0,0,0,.46-6c-3.51,1-6.75,2.59-10,2.69-6.29.19-10.25-3.59-12.27-9.36a20.72,20.72,0,0,1,.48-15.23c3.67-8.83,13.07-11.25,20.57-5.35C703.19,360.41,703.56,360.64,704.32,361.18ZM685.7,373.41a51.67,51.67,0,0,0,1,6c1.28,4.39,4.52,6.78,8.69,6.7a8.31,8.31,0,0,0,8.34-7.09,34,34,0,0,0-.13-11,8.48,8.48,0,0,0-8.33-6.71c-4-.06-7.22,2.26-8.53,6.44A47.74,47.74,0,0,0,685.7,373.41Z"/><path class="cls-1" d="M739.82,361.16c.23-1.33.4-2.29.56-3.2,4.34-.67,4.39-.66,4.37,3.48-.06,9.95,0,19.9-.29,29.84-.21,7.37-4.94,12.09-12.27,12.08a31.15,31.15,0,0,1-10.47-1.88c-3-1.1-4.45-3.91-4.07-7.39,2.57-.38,4.21.12,5.68,2.51,1.94,3.15,5.46,3.21,8.85,2.75,3.61-.5,6.16-2.39,6.93-6a34.48,34.48,0,0,0,.36-5.78c-3.56.92-6.87,2.58-10.09,2.44-7.67-.35-12.58-6-13.11-14.15a30.12,30.12,0,0,1,.32-6.07C718.24,358.69,729.56,352.22,739.82,361.16Zm.47,12.69a56.81,56.81,0,0,0-1.3-6.44,8.64,8.64,0,0,0-8.08-6.15,8.44,8.44,0,0,0-8.47,6,18.59,18.59,0,0,0,.24,13.28,8.38,8.38,0,0,0,8.17,5.51,8.29,8.29,0,0,0,8-5.72A53.41,53.41,0,0,0,740.29,373.85Z"/><path class="cls-1" d="M581.13,386.76c-.26,1.34-.44,2.29-.62,3.22-4.12.71-4.26.63-4.26-3.17q0-19,0-38c0-1.1.12-2.21.19-3.41h4.88v15.51c1.12-.72,1.76-1.07,2.34-1.5,6-4.33,13.92-3,17.76,3.29a20.62,20.62,0,0,1,.66,21C597.91,391.86,589.35,393.05,581.13,386.76Zm-.58-13.21c.32,2.33.45,4,.81,5.68.95,4.32,4,7.28,7.65,7.54,4.07.3,7.4-2,9-6.3a18.34,18.34,0,0,0-.13-13.59c-1.35-3.35-3.8-5.58-7.71-5.63a8.11,8.11,0,0,0-7.92,5.35C581.25,368.93,581,371.59,580.55,373.55Z"/><path class="cls-1" d="M788.81,366.52c.43-4.06,2.46-6.89,6.06-7.93a34,34,0,0,1,10.61-1.53c6.86.28,9.94,3.65,10.26,10.5.2,4.4,0,8.81.14,13.22.09,3,.41,6,.65,9.33-3,1.11-5.15.1-5.87-2.93-3.61,1.31-7,3-10.52,3.73-7.79,1.5-13.69-3.83-12.5-10.82.76-4.41,5.07-7.55,11.16-8.25a67.25,67.25,0,0,0,8-1.26c1.25-.3,3.34-1.41,3.29-2-.17-2-.56-4.53-1.89-5.72-3.83-3.42-11.55-1.79-14,2.74C792.67,368.39,790.87,366.84,788.81,366.52ZM810,374c-4.51,1-8.8,1.82-13.05,2.84a4.65,4.65,0,0,0-3.78,5.27c.19,2.72,1.87,4.18,4.52,4.69C805.89,388.39,811.15,383.13,810,374Z"/><path class="cls-1" d="M1058.52,366.39c.94-4.33,3.26-7,7.35-8.29a21.64,21.64,0,0,1,13-.38c4,1.21,6.38,3.73,6.5,8.06s.17,8.59.34,12.88c.14,3.8.4,7.59.61,11.49-2.74.8-5.09.4-5.58-3-3.65,1.32-7.08,3.08-10.71,3.77-7.93,1.52-14-4.13-12.43-11.17.94-4.31,5.12-7.22,11.12-7.88,2.69-.3,5.38-.69,8-1.24,3.83-.78,4.75-4.09,2.24-7.14-2.32-2.81-12.19-3.57-14.55,1.17C1062.92,367.68,1062.7,367.57,1058.52,366.39ZM1080,374c-4.6,1-9,1.86-13.36,2.94A4.61,4.61,0,0,0,1063,382c.14,2.71,1.81,4.24,4.47,4.78C1075.65,388.47,1081.3,382.94,1080,374Z"/><path class="cls-1" d="M947.8,390c-4,.88-4,.88-5.69-2.76-3.6,1.28-7.06,3-10.72,3.69-8.3,1.52-14.55-5.18-11.83-12.39,1.81-4.8,6.1-6,10.6-6.67a73,73,0,0,0,8-1.29c1.38-.38,3.64-1.81,3.55-2.52-.25-1.93-1.05-4.38-2.5-5.44-4.29-3.15-10.82-1.31-13.88,3-.8,1.12-3,1.26-4.73,1.43.16-4.29,2-7,5.51-8.44a20.86,20.86,0,0,1,14.27-.87c4.54,1.33,6.49,3.84,6.64,8.65.1,3.5,0,7,.07,10.51C947.25,381.22,947.56,385.58,947.8,390Zm-6.38-15.89c-4.28.85-8.37,1.54-12.39,2.5-2.88.69-5.06,2.43-4.61,5.72.44,3.14,2.81,4.39,5.81,4.67C938,387.71,942.73,382.47,941.42,374.1Z"/><path class="cls-1" d="M103.51,366.49c.83-4.3,3.07-7.11,7.15-8.36,4.53-1.38,9.07-1.83,13.64-.22,4.35,1.53,6,3.86,6.07,8.65.17,7.75.39,15.5.58,23.4-3.73,1.1-4,1-5.3-2.85-3.54,1.29-7,3-10.63,3.78-5.29,1.19-10.65-1.62-12.15-5.75-2-5.41,1.06-11,7.07-12.49,3.82-.95,7.8-1.21,11.65-2.06,1.33-.29,3.59-1.65,3.5-2.16-.38-2.05-1-4.66-2.48-5.79-4.22-3.19-11-1.52-13.73,3C107.3,368.34,105.5,366.83,103.51,366.49ZM124.89,374c-4.46,1-8.94,1.84-13.37,2.94a4.48,4.48,0,0,0-3.63,5c.17,2.72,1.77,4.25,4.39,4.84C120.48,388.6,126.33,382.86,124.89,374Z"/><path class="cls-1" d="M780.55,390.19c-2.57.84-4.74.22-5.21-3.13-3.66,1.34-7.09,3.14-10.74,3.83-8.24,1.58-14.39-4.57-12.14-11.86,1.63-5.27,6.19-6.45,10.93-7.18,2.68-.41,5.4-.66,8-1.31,1.24-.3,3.31-1.46,3.25-2-.22-2-.66-4.53-2-5.68-4-3.4-11.33-1.68-14,2.84-1.15,1.92-1.55,2-5.31.67.5-3.93,2.53-6.86,6.33-7.89A34,34,0,0,1,770,357.05c7.24.36,10,3.64,10.13,10.87S780.39,382.56,780.55,390.19ZM774.45,374c-4.36.93-8.74,1.76-13.07,2.83a4.7,4.7,0,0,0-3.88,5.2c.24,2.77,2.08,4.31,4.87,4.79C770.63,388.26,776.05,382.68,774.45,374Z"/><path class="cls-1" d="M170.88,366.54c1-4.53,3.38-7.86,7.85-8.47a43.65,43.65,0,0,1,13,0c4.31.72,6,3.69,6.07,8.17.06,4.29,0,8.59.1,12.88.14,3.58.55,7.14.87,11-2.59.55-5.31,1-5.54-3.05-3.54,1.33-6.76,3.06-10.18,3.65a17.43,17.43,0,0,1-8.21-1c-3.58-1.22-5.17-4.4-5.05-8.05.12-4.07,2.21-7.31,6.17-8.45,4.21-1.21,8.64-1.57,12.91-2.58,1.43-.33,3.49-1.31,3.78-2.39a5,5,0,0,0-2.78-6,10.13,10.13,0,0,0-13.48,3.46C174.75,368.35,172.88,366.77,170.88,366.54ZM192.35,374c-4.47,1-9,1.84-13.41,3a4.57,4.57,0,0,0-3.66,5c.18,2.7,1.9,4.21,4.49,4.79C188,388.6,194,382.67,192.35,374Z"/><path class="cls-1" d="M611.13,366.29a9,9,0,0,1,5.5-7.5,20.65,20.65,0,0,1,15.22-.88c4.24,1.44,5.92,3.79,6,8.35.19,7.88.38,15.76.58,23.9-2.65.93-4.75.21-5.14-3.08-3.7,1.35-7.16,3-10.8,3.82-5.51,1.19-10.94-1.81-12.26-6.15-1.64-5.41,1.37-10.66,7.3-12.12,3.82-.94,7.81-1.21,11.67-2.06,1.34-.3,3.61-1.6,3.53-2.18-.26-2-.88-4.44-2.29-5.58-4.14-3.37-11.19-1.68-14,2.9C615.3,367.59,614.84,367.64,611.13,366.29ZM632.55,374c-4.46.95-8.94,1.81-13.36,2.9a4.57,4.57,0,0,0-3.73,5.28c.29,2.64,2,4.14,4.65,4.64C628.25,388.36,634,382.67,632.55,374Z"/><path class="cls-1" d="M395.64,375.36c-.16,5.55,2.34,9.52,6.64,11,4.49,1.53,8.25.13,11.23-4.45,1.67-2.58,3.6-1.3,6.37-.82-1.32,2.15-2.13,4.18-3.54,5.62-4.37,4.5-9.83,5.29-15.67,3.67-5.33-1.48-9.1-4.94-9.95-10.45a34.1,34.1,0,0,1,.1-11.71c1.56-7.76,8.81-12.38,16.54-11.23,7.41,1.1,12.93,8.1,12.63,15.78-.08,2.09-1.09,2.4-2.78,2.39-5.89,0-11.78,0-17.67,0C398.23,375.17,396.91,375.3,395.64,375.36Zm18.4-4.49c.26-5.93-3.24-9.61-8.93-9.61s-9.32,3.86-9.07,9.61Z"/><path class="cls-1" d="M58.34,375.35c-.13,5.72,2.44,9.71,6.89,11.1s7.9,0,10.93-4.51c1.69-2.53,3.64-1.32,6-1-1,3.6-2.79,6.34-5.86,8.13a15.54,15.54,0,0,1-23.6-12.53,32,32,0,0,1,.62-8.06A14.64,14.64,0,0,1,70,357a14.79,14.79,0,0,1,12.24,16.18c-.11.77-1.76,1.86-2.71,1.89-5.88.18-11.77.08-17.65.1C60.72,375.17,59.51,375.29,58.34,375.35Zm.32-4.48h18c.22-5.84-3.21-9.31-8.63-9.68C63,360.84,57.79,365.8,58.66,370.87Z"/><path class="cls-1" d="M348.67,375.13H324.73c-.62,5.28,2,9.6,6.4,11.17s8.5.11,11.11-4c1.47-2.32,1.5-2.33,6.14-1.27a12,12,0,0,1-5.37,7.71,15.49,15.49,0,0,1-24-12.39,30,30,0,0,1,.51-7.4c1.7-8,7.94-12.62,16-12,7.12.52,12.5,6.22,13.18,14C348.76,372.15,348.67,373.37,348.67,375.13Zm-5.52-4.24c-.25-6.49-3.84-9.93-9.84-9.63-5,.25-8.63,4.33-8.3,9.63Z"/><path class="cls-1" d="M568.3,381.16c-2.28,6.69-7,10-13.9,10S542,387.38,540,381.31a22.33,22.33,0,0,1,.14-14.66c2.14-6.24,7.88-10,14.79-9.73A14,14,0,0,1,568,367.84c.53,2.16.65,4.42,1,7.17H545.16a9.4,9.4,0,0,0,5.09,11c4.3,2,9.27.83,11.62-3.26C563.7,379.57,565.77,380.2,568.3,381.16Zm-23.45-10.4h18.22c-.2-6.25-3.61-9.6-9.32-9.5C548.51,361.34,545,365.08,544.85,370.76Z"/><path class="cls-1" d="M1050.65,365.49c-2.62.85-4.51,1.57-6.07-1.56-1.69-3.4-10-3.75-12.49-.93a3.52,3.52,0,0,0,.66,5.55,12.08,12.08,0,0,0,3.12,1.29c3.13,1,6.34,1.7,9.42,2.81,5,1.77,6.78,4.16,6.73,8.22s-2.62,7.5-6.93,9.13a17,17,0,0,1-13.83-.53,10,10,0,0,1-5.88-8.25c2.45-.9,4.32-1.62,5.83,1.58,2.12,4.46,10.35,5.51,14,2.12,2.49-2.34,2-5.9-1.2-7.1s-6.73-1.94-10-3.05c-6.13-2-8.11-4.42-7.79-9.11.3-4.37,3.17-7.12,8.82-8.43,5.9-1.37,12.71.95,14.69,5.08A24.65,24.65,0,0,1,1050.65,365.49Z"/><path class="cls-1" d="M829.27,357.74c.14,1.44.25,2.65.3,3.08,3.41-1.3,6.78-3.43,10.31-3.74,7.2-.64,11,3.21,11.27,10.44.19,6.22.08,12.45.08,18.67,0,4.48-.09,4.54-5.12,3.78,0-4.62,0-9.32,0-14,0-2.37,0-4.75-.05-7.12-.12-4.3-1.91-6.63-5.59-7.38s-8.1,1.35-9.32,4.64a18.89,18.89,0,0,0-1,5.94c-.14,5.21-.1,10.41,0,15.62,0,1.71-.22,2.79-2.34,2.78-1.94,0-2.9-.47-2.88-2.65.08-9.16.11-18.33,0-27.5C824.83,356.79,827,357.6,829.27,357.74Z"/><path class="cls-1" d="M139,398.44c5.1,1,8.21-1.06,9.27-5.75a9.08,9.08,0,0,0-.28-4.85c-3.22-8.81-6.64-17.55-10-26.31-.43-1.13-.79-2.28-1.22-3.53,3.45-1,5.51-.61,6.64,3.09,2.12,6.91,4.74,13.67,7.16,20.49.21.58.52,1.12,1,2.25,2-5.63,3.85-10.68,5.68-15.73.84-2.33,1.92-4.61,2.54-7,.83-3.18,2.54-4.31,5.9-3.13a21.92,21.92,0,0,1-.62,2.48c-4.28,11.44-8.55,22.88-12.91,34.28a29.06,29.06,0,0,1-3,5.68c-1.93,2.88-4.9,3.51-8.12,3C138.26,402.91,139.16,400.7,139,398.44Z"/><path class="cls-1" d="M961.35,390.16h-4.87V357.79l4-.21c.2,1.4.36,2.59.58,4.15a19.27,19.27,0,0,0,1.91-1.38c4.09-3.86,8.78-4.35,13.84-2.38s5.88,6.11,5.85,10.8c0,7,0,14,0,20.93-4.44,1.34-5,1-5-3.3-.06-6,0-12-.24-18-.2-4.55-2.27-6.66-6.25-7.07s-8.09,2.06-8.95,5.74a41.84,41.84,0,0,0-.81,8.38C961.26,380.22,961.35,385,961.35,390.16Z"/><path class="cls-1" d="M647.71,357.77h3.57l.74,4.1c1.13-.95,1.92-1.67,2.77-2.33,4.32-3.31,9-3.43,13.75-1.24,4.16,1.93,5.12,5.79,5.16,9.91.08,7.22,0,14.43,0,21.58-4.79,1.22-5.08,1-5.09-3.59,0-5.42.08-10.85,0-16.27-.14-5.67-2.49-8.44-7-8.61a8.29,8.29,0,0,0-8.86,7.94c-.45,5.73-.33,11.51-.42,17.27-.07,4.07,0,4.07-4.59,3.54Z"/><path class="cls-1" d="M207.45,357.73h3.7c.23,1.27.45,2.53.76,4.21,1-.89,1.74-1.54,2.49-2.15,4.1-3.33,8.59-3.68,13.39-1.77,4.64,1.86,5.75,5.78,5.81,10.19.09,6.45,0,12.9.07,19.35,0,1.95-.49,2.85-2.67,2.87s-2.56-1.08-2.56-2.93c0-6.33.1-12.68-.26-19-.29-4.95-2.66-7.1-6.84-7.19s-8.13,2.81-8.56,7.11c-.49,4.94-.44,9.93-.58,14.9-.06,2.14,0,4.28,0,6.84l-4.74.23Z"/><path class="cls-1" d="M90.09,345.39h5v40.9c0,4.39,0,4.39-5,3.77Z"/><path class="cls-1" d="M427.29,389.92V357.78l4.11-.19c.23,1.48.43,2.73.64,4.12,6.61-5.61,7.42-5.82,12.59-3-.54,1.36-1.09,2.77-1.64,4.15-7.62-.88-10.09,1-10.55,8.52-.31,5-.13,10-.15,14.94C432.27,390.71,432.16,390.81,427.29,389.92Z"/><path class="cls-1" d="M242.94,357.88c5-.57,5-.57,5,3.89,0,8.49,0,17,0,25.45,0,1.91-.12,3.21-2.66,3.22s-2.59-1.43-2.59-3.26c0-8.82,0-17.64,0-26.47C242.71,359.83,242.85,359,242.94,357.88Z"/><path class="cls-1" d="M453.4,358v31.83c-4.25,1.21-4.65.94-4.65-3.17,0-8.38.12-16.76-.07-25.13C448.6,358.12,449.63,356.83,453.4,358Z"/><path class="cls-1" d="M467.6,390.85c-3.65-.35-3.65-2.63-3.14-4.91a2.71,2.71,0,0,1,2.05-1.54c1.09,0,2.68.24,3.2,1,1.38,1.93,0,10.11-1.84,11.85a9.57,9.57,0,0,1-2.82,1.28c.25-.92.47-1.85.77-2.75C466.35,394.21,466.93,392.68,467.6,390.85Z"/><path class="cls-1" d="M242.69,345.32h5.39c-.31,2-.3,3.9-1,5.47-.23.48-3.42.4-3.61-.07C242.79,349.1,242.88,347.19,242.69,345.32Z"/><path class="cls-1" d="M453.86,345.46a28.89,28.89,0,0,1-1.23,5.44c-.16.38-2.89.35-3.06-.06a26,26,0,0,1-1.06-5.38Z"/></g></g></svg>