<svg xmlns="http://www.w3.org/2000/svg" viewBox="0 0 93.84 46.18"><defs><style>.cls-1{fill:#005c6b;}.cls-1,.cls-2,.cls-3{fill-rule:evenodd;}.cls-2{fill:#e84f0d;}.cls-3{fill:#34a448;}</style></defs><title>logo BNI web</title><g id="Layer_2" data-name="Layer 2"><g id="Layer_1-2" data-name="Layer 1"><path class="cls-1" d="M38.74,22.33V12.4c2.38,0,5-.2,7.13.57a4.5,4.5,0,0,1,3.31,4.38,4.37,4.37,0,0,1-3.31,4.39c-2.17.75-4.73.58-7.13.59Zm0-12.28V2.33c1.76,0,3.94-.11,5.49.43a3.49,3.49,0,0,1,2.57,3.4c0,4.36-4.41,3.9-8.06,3.89Zm-4-5.93V20.78a5.41,5.41,0,0,1-.49,2.55,3.45,3.45,0,0,1-1.35,1.33c-.16.09-.16.05-.19.2.43.1,6.81,0,7.8,0,3.11,0,6.19-.08,8.91-1.44a6.94,6.94,0,0,0,3.54-9,6.1,6.1,0,0,0-1.37-1.84,8.52,8.52,0,0,0-3-1.77l-1.16-.33c-.14-.07,0,0-.1-.06a4.72,4.72,0,0,0,3.8-5A4.63,4.63,0,0,0,49,1.56C46.35-.37,41.84,0,38.62,0,37.34,0,33.68,0,32.69,0c.06.47,2,.49,2,4.08Z"/><path class="cls-1" d="M58.5,4.47V20.74c0,1.9-.28,3.16-1.86,4.1-.14.08-.17.07-.18.22h6.92c0-.29-.35-.21-.86-.74a3.59,3.59,0,0,1-.39-.39,5,5,0,0,1-.78-3.29V5.93c.17.1,7.85,10.09,8.38,10.8.93,1.26,2.16,2.8,3.13,4a35.94,35.94,0,0,0,3.62,3.58c.32.28,2.37,1.94,2.84,1.93V5.12c0-1.88,0-3.54,1.53-4.65.37-.26.47-.21.51-.44l-6.78,0c-.09,0-.06,0-.11,0,.19.39,1.8.6,2,3.21.12,1.61,0,3.52,0,5.16,0,.94,0,9.75,0,10.43l-.19-.23L63.87,2.46c-.31-.39-.59-.77-.89-1.19A4.58,4.58,0,0,1,62.26.18c-.11-.22,0-.08-.13-.15H56.46c0,.18.54.45.88.72,1,.85,1.16,2.39,1.16,3.71Z"/><path class="cls-1" d="M87.76,4.12v17c0,3.46-2,3.56-2,4,.48.08,8,0,8.09,0,0-.24-.36-.2-.82-.65a4,4,0,0,1-1.19-3.25V4A3.8,3.8,0,0,1,93.41.41c.26-.18.36-.16.43-.32,0,0,0,0,0,0L85.74,0c0,.26-.08.05.4.38,1.32.91,1.62,2,1.62,3.71Z"/><path class="cls-2" d="M0,4.17c0,.3.29.52.56.85s.43.51.65.79L3.8,8.94c.47.54.86,1.05,1.32,1.58s.85,1.05,1.3,1.57l3.93,4.71a6.15,6.15,0,0,0,.7-.53c.27-.21,1.92-1.47,2-1.61-.28-.38-.61-.77-.92-1.19-2.27-3-4.5-6.82-4.5-10.82A9.69,9.69,0,0,1,8.09,0H0V4.17Z"/><path class="cls-2" d="M25.73,17.39c.05-3,0-6.45,0-9.54,0-.34-.21-.46-.59-.78a6.71,6.71,0,0,0-3.7-1.77,4.75,4.75,0,0,0-3.92,1.57c-1.64,1.71-1.31,4-.17,6.08a12.48,12.48,0,0,0,1.12,1.62,10.8,10.8,0,0,0,2.91,2.55,4.68,4.68,0,0,0,4.35.27Z"/><path class="cls-2" d="M14.67,10.35c.16-.7.2-1.29.41-2a8,8,0,0,1,8.74-5.54,18.42,18.42,0,0,1,1.91.5V.05L11.52,0c-.1,0-.09.05-.14.32a11.91,11.91,0,0,0,1.82,8,10.65,10.65,0,0,0,1.47,2Z"/><path class="cls-2" d="M11.41,18c.08.25,2.16,2.66,2.52,3.11.13.15.28.28.41.42A7.08,7.08,0,0,0,16.12,23a3.33,3.33,0,0,0,1.94.43c.22,0,.5-.14.65-.07,0,.23-1.5,1.17-1.81,1.54h8.82V19c-.18,0-.91.42-1.45.6a8.37,8.37,0,0,1-7.94-1.72,23.75,23.75,0,0,1-2.17-2,5.76,5.76,0,0,0-.7.52c-.29.23-1.86,1.5-2.06,1.59Z"/><path class="cls-2" d="M0,24.88a11.72,11.72,0,0,0,1-.73l2.92-2.28c.44-.35,3.81-2.94,3.89-3.09L5.85,16.47l-.47-.57C4.79,15.19.13,9.55,0,9.47V24.88Z"/><path class="cls-2" d="M2.63,24.89c3.17.05,6.66,0,9.86,0-.18-.81-2.37-3.28-3.15-4.23a4.91,4.91,0,0,0-.51-.58L3.4,24.28a6.27,6.27,0,0,0-.77.61Z"/><path class="cls-3" d="M85,41.78h2.36c0-1.55,0-3.1,0-4.65a3.09,3.09,0,0,1,.37-2,1.94,1.94,0,0,1,3.1-.09,3.66,3.66,0,0,1,.32,2c0,1.56,0,3.13,0,4.69H93.5V37.7c0-1.29.13-2.63-.46-3.65-.82-1.42-3-1.58-4.43-.92a3.8,3.8,0,0,0-.66.38c-.22.15-.39.34-.59.47V28.86H85V41.78Z"/><path class="cls-3" d="M36.06,39.36a13.12,13.12,0,0,0-.86,1.42c1.12,1.16,3.85,1.59,5.67.81a3.23,3.23,0,0,0,1.71-4.69A8.32,8.32,0,0,0,40.82,35c-.48-.38-1.64-1.27-2-1.65a1.65,1.65,0,0,1-.6-1.23c.07-1.3,1.68-1.48,3-.86.23.11.41.25.6.33.25-.42.63-.85.86-1.27-1.86-1.91-7-1.27-7,1.85a3,3,0,0,0,.34,1.5c1,1.89,4.26,3,4.48,4.71a1.67,1.67,0,0,1-1.73,1.93,4.31,4.31,0,0,1-2.69-1Z"/><path class="cls-3" d="M44.05,33.23c.11.49,3.28,7.76,3.3,8a8.79,8.79,0,0,1-.61,1.65c-.8,1.62-1.32,1.73-2.83,1.73v1.58c2.37,0,2.84-.23,3.92-1.62a20.28,20.28,0,0,0,1.85-3.7c.58-1.27,1.13-2.54,1.7-3.82l1.7-3.87-2-.36c-.12.42-1.5,3.89-1.83,4.84-.19.53-.36,1.15-.56,1.64L46.4,32.82l-2.35.41Z"/><path class="cls-3" d="M59.22,36.69c.19,3.4-1.92,4.3-2.71,3.37a1.79,1.79,0,0,1,.3-2.38,2.87,2.87,0,0,1,1.11-.59c.39-.12.92-.32,1.3-.4ZM54.55,34c.07.24.57.79.71,1.1a4,4,0,0,1,2.18-.88,1.57,1.57,0,0,1,1.75,1.29,14.24,14.24,0,0,1-1.77.55,9.41,9.41,0,0,0-1.72.62,2.87,2.87,0,0,0-1.81,2.83A2.51,2.51,0,0,0,56,42a3.29,3.29,0,0,0,2.5-.94l.65-.51a4.15,4.15,0,0,0,.22,1.26h2.49A6.13,6.13,0,0,1,61.53,40c0-.72,0-1.48,0-2.21,0-1.32.16-2.91-.57-3.82a4,4,0,0,0-3.21-1.15A4.92,4.92,0,0,0,54.55,34Z"/><path class="cls-3" d="M80.46,36.7c.22,4.52-3.44,4.51-3,2a1.74,1.74,0,0,1,.61-1.07,7.08,7.08,0,0,1,2.38-.95ZM75.8,34a9.73,9.73,0,0,0,.74,1.11,3.57,3.57,0,0,1,2.11-.89,1.58,1.58,0,0,1,1.78,1.29c-1.17.63-5.45.73-5.3,4a2.47,2.47,0,0,0,3.94,2c.45-.28,1.28-.95,1.35-1a3.4,3.4,0,0,0,.21,1.26h2.49A5.35,5.35,0,0,1,82.77,40c0-.72,0-1.48,0-2.21,0-1.31.15-2.9-.56-3.81-1-1.25-3.47-1.45-5-.8A4.63,4.63,0,0,0,75.8,34Z"/><path class="cls-3" d="M66.12,34.52V33H63.79l0,8.79h2.36c0-1,0-4.12,0-4.91a2.25,2.25,0,0,1,.76-1.71,1.45,1.45,0,0,1,1-.27,3.1,3.1,0,0,1,1,.29l.86-1.6a1.92,1.92,0,0,0-2.12-.7,3.23,3.23,0,0,0-.81.75l-.66.89Z"/><polygon class="cls-3" points="70.83 41.78 73.18 41.78 73.19 32.99 70.83 32.98 70.83 41.78 70.83 41.78"/><path class="cls-3" d="M71.73,29a1.42,1.42,0,0,0,.59,2.78A1.42,1.42,0,0,0,71.73,29Z"/></g></g></svg>