<svg xmlns="http://www.w3.org/2000/svg" viewBox="0 0 798.02 182.36"><defs><style>.cls-1{fill:#fff;}</style></defs><g id="Layer_2" data-name="Layer 2"><g id="Layer_1-2" data-name="Layer 1"><path class="cls-1" d="M235.76,39.62H259V142.74H235.76Zm26.17,50.47L289.8,39.62H316L287,90.09l31.12,52.65H292Z"/><path class="cls-1" d="M416.78,142.74H392.62l-5.57-20.13H352.52L347,142.74H322.79L354.22,39.62h31Zm-59-39.48h23.69L369.71,60.05Z"/><path class="cls-1" d="M471.14,60.21v82.53H447.91V60.21H420.19V39.62h78.66V60.21Z"/><path class="cls-1" d="M596.25,142.74H572.1l-5.58-20.13H532l-5.57,20.13H502.26L533.7,39.62h31Zm-59-39.48H561L549.18,60.05Z"/><path class="cls-1" d="M607.87,142.74V39.62H631.1v82.53H672v20.59Z"/><path class="cls-1" d="M685.92,142.74V39.62h23.22V142.74Z"/><path class="cls-1" d="M760.24,144.29c-11.92,0-24.46-2.63-33.29-6.66l3.87-18a98.16,98.16,0,0,0,29.73,5c11.93,0,14.25-2.32,14.25-11,0-9.29-.47-10.37-17.35-14.09-24.92-5.42-28.64-10.37-28.64-32.67,0-20.6,7.28-28.8,35.61-28.8a150.63,150.63,0,0,1,31.28,3.4L793.38,61C781.61,59,774,58,764.73,58,754.36,58,752,59.9,752,67.49c0,9.91.46,10.06,16.72,13.93C796.63,88.08,798,93.5,798,113.79S791.37,144.29,760.24,144.29Z"/><g id="Layer_1-2-2" data-name="Layer 1-2"><path class="cls-1" d="M79.57,109.56c-.88-.23-1.58-.39-2.27-.59A15.87,15.87,0,0,1,65.87,94.52c-.08-1.83,0-3.67,0-5.51a16,16,0,0,1,12.4-15.9l1.12-.25C79.86,71,80,41.12,79.51,37c-.53-.16-1.11-.35-1.72-.51A15.78,15.78,0,0,1,65.9,22.2a52.93,52.93,0,0,1,0-7.66A15.78,15.78,0,0,1,81.41.07a49.59,49.59,0,0,1,7.42.14c8.07,1.14,13.48,7.34,13.91,15.86a42.88,42.88,0,0,1-.2,6.7,15.72,15.72,0,0,1-11.7,13.69L88.93,37V72.51l7.78,3.25,15.84-13a30.66,30.66,0,0,1-.53-13.9,15.74,15.74,0,0,1,15.52-12.8,46.31,46.31,0,0,1,8.34.42,15.63,15.63,0,0,1,12.65,15.13,42.57,42.57,0,0,1-.43,8.83A15.59,15.59,0,0,1,132.64,73c-1.19,0-2.4-.05-3.59,0a16.73,16.73,0,0,1-11.26-3.35c-5.92,3.56-10.77,8.54-16.27,12.65a33.55,33.55,0,0,1,.19,17.34l15.73,12.23,1.88-1.16a14.8,14.8,0,0,1,7.23-2.25c2.32-.07,4.65-.13,7,0a15.86,15.86,0,0,1,15,15.48c.05,2,.06,4,0,6A15.65,15.65,0,0,1,135.23,145,40,40,0,0,1,125,145a15.61,15.61,0,0,1-13.35-14.77,50,50,0,0,1,0-6c.12-1.89.52-3.77.85-6l-15.38-12-8.15,3.57v35.39c.49.18.85.34,1.22.44,7.73,2.23,11.91,7.07,12.52,15.06a33.29,33.29,0,0,1-.49,9.29c-1.42,6.74-7,11.46-14.09,12.11a39,39,0,0,1-8.84-.16,15.51,15.51,0,0,1-13.35-14.48,51,51,0,0,1,0-7.42,15.63,15.63,0,0,1,11.92-14.26l1.75-.5Z"/><path class="cls-1" d="M191,91.19a52.44,52.44,0,0,1-.68,6.17,15.58,15.58,0,0,1-14,12.14,49.61,49.61,0,0,1-7.9,0,15.68,15.68,0,0,1-14.39-14,39.48,39.48,0,0,1,.08-9.09c1-7.27,6.81-13.39,15.76-13.71a49.78,49.78,0,0,1,6.46.16A15.89,15.89,0,0,1,190.8,88.54c0,.88,0,1.76,0,2.64Z"/><path class="cls-1" d="M58.43,54.68a11.1,11.1,0,0,1-22.2-.14,11.1,11.1,0,0,1,22.2.14Z"/><path class="cls-1" d="M47.49,118.12a11,11,0,1,1-11.26,10.94A11,11,0,0,1,47.49,118.12Z"/><path class="cls-1" d="M0,91.18a8.77,8.77,0,0,1,8.71-8.82h.1a8.8,8.8,0,1,1,0,17.6h0A8.75,8.75,0,0,1,0,91.18Z"/><path class="cls-1" d="M111.78,137.81l2.32,3.38-12.39,10.22c-.88-1-1.69-1.95-2.66-3.09Z"/><path class="cls-1" d="M99.44,33.69l2.5-3.18,12,9.89c-.79,1.17-1.47,2.15-2.3,3.38Z"/><path class="cls-1" d="M147,67.65,157.08,76l-2.48,3.24-10.29-8.49Z"/><path class="cls-1" d="M154.32,102.74l2.46,3.24-9.59,7.91-2.78-3Z"/></g></g></g></svg>