<svg xmlns="http://www.w3.org/2000/svg" viewBox="0 0 822.18 152.28"><defs><style>.cls-1{isolation:isolate;}.cls-2{fill:#0686ef;}</style></defs><g id="Layer_2" data-name="Layer 2"><g id="Layer_2-2" data-name="Layer 2"><g class="cls-1"><polygon class="cls-2" points="88.76 124.98 137.91 96.1 145.22 91.8 145.22 78.89 126.88 89.66 93.66 109.19 88.83 112.02 83.97 109.25 49.34 89.54 30.58 78.87 30.58 91.88 38.17 96.19 88.76 124.98"/><polygon class="cls-2" points="93.66 136.48 88.83 139.32 83.97 136.55 49.34 116.84 30.58 106.17 30.58 119.17 38.17 123.49 88.76 152.28 137.91 123.39 145.22 119.1 145.22 106.18 126.88 116.96 93.66 136.48"/><polygon class="cls-2" points="88.76 99.47 137.91 70.59 145.22 66.3 145.22 53.38 126.88 64.16 93.66 83.68 88.83 86.51 83.97 83.75 49.34 64.04 30.58 53.37 30.58 66.37 38.17 70.69 88.76 99.47"/><polygon class="cls-2" points="30.58 119.17 30.58 66.94 44.12 74.64 43.92 126.88 30.58 119.17"/><polygon class="cls-2" points="27.68 65.67 51.17 79.05 88.6 100.34 124.38 79.32 147.75 65.59 153.93 61.96 173.58 50.41 87.16 0 0 50.27 21.62 62.23 27.68 65.67"/></g></g><g id="Layer_3" data-name="Layer 3"><g class="cls-1"><path class="cls-2" d="M283.78,111.73v18.13H208.2V32.24H282V50.37H230.65v21.2H276V89.14H230.65v22.59Z"/><path class="cls-2" d="M376.1,26.39V129.86H355.32v-8.65Q347.24,131,331.89,131a39,39,0,0,1-19.17-4.74,33.9,33.9,0,0,1-13.46-13.53,41.25,41.25,0,0,1-4.88-20.36A41.23,41.23,0,0,1,299.26,72a33.9,33.9,0,0,1,13.46-13.53,39,39,0,0,1,19.17-4.74q14.37,0,22.45,9.06V26.39Zm-26.78,81.08q5.44-5.64,5.44-15.13t-5.44-15.13a18.18,18.18,0,0,0-13.66-5.64,18.37,18.37,0,0,0-13.81,5.64q-5.43,5.66-5.44,15.13t5.44,15.13a18.34,18.34,0,0,0,13.81,5.65A18.15,18.15,0,0,0,349.32,107.47Z"/><path class="cls-2" d="M486.54,129.86l-.14-58.57-28.73,48.25H447.49l-28.58-47v57.32h-21.2V32.24h18.68L452.93,92.9l36-60.66h18.54l.28,97.62Z"/><path class="cls-2" d="M602.42,98.48H545.66a17.68,17.68,0,0,0,7.25,11q5.72,4,14.23,4a28.9,28.9,0,0,0,10.39-1.74,25.2,25.2,0,0,0,8.43-5.51l11.58,12.55q-10.6,12.14-31,12.13a49,49,0,0,1-22.45-5,36.29,36.29,0,0,1-15.06-13.73,37.81,37.81,0,0,1-5.3-20A38.33,38.33,0,0,1,529,72.47a36.59,36.59,0,0,1,14.36-13.8,44.47,44.47,0,0,1,40.37-.21,34.62,34.62,0,0,1,14,13.6,40.53,40.53,0,0,1,5.09,20.56Q602.84,93,602.42,98.48Zm-50.9-24.12a17.83,17.83,0,0,0-6.14,11.43h37a18,18,0,0,0-6.14-11.36,18.33,18.33,0,0,0-12.27-4.26A18.73,18.73,0,0,0,551.52,74.36Z"/><path class="cls-2" d="M693.75,26.39V129.86H673v-8.65q-8.1,9.77-23.43,9.76a38.92,38.92,0,0,1-19.17-4.74,33.9,33.9,0,0,1-13.46-13.53A41.14,41.14,0,0,1,612,92.34,41.13,41.13,0,0,1,616.92,72a33.9,33.9,0,0,1,13.46-13.53,38.92,38.92,0,0,1,19.17-4.74q14.36,0,22.45,9.06V26.39ZM667,107.47q5.44-5.64,5.44-15.13T667,77.21a19.54,19.54,0,0,0-27.47,0q-5.44,5.66-5.44,15.13t5.44,15.13a19.52,19.52,0,0,0,27.47,0Z"/><path class="cls-2" d="M715,40.89a11.31,11.31,0,0,1-3.77-8.65A11.29,11.29,0,0,1,715,23.6a13.77,13.77,0,0,1,9.76-3.49,14.14,14.14,0,0,1,9.76,3.35,10.73,10.73,0,0,1,3.77,8.36,11.85,11.85,0,0,1-3.77,9,13.63,13.63,0,0,1-9.76,3.55A13.8,13.8,0,0,1,715,40.89Zm-1.12,13.94h21.76v75H713.83Z"/><path class="cls-2" d="M812.84,62q9.35,8.31,9.34,25v42.81H801.82v-9.35Q795.69,131,779,131A35.38,35.38,0,0,1,764,128a22.31,22.31,0,0,1-9.69-8.08,21.08,21.08,0,0,1-3.35-11.72q0-10.45,7.88-16.45t24.34-6h17.29q0-7.11-4.32-11t-13-3.83a38.05,38.05,0,0,0-11.79,1.88A31.37,31.37,0,0,0,761.52,78l-7.81-15.2a47.16,47.16,0,0,1,14.72-6.69,65.84,65.84,0,0,1,17.64-2.37Q803.5,53.72,812.84,62Zm-18.55,51.74a14.13,14.13,0,0,0,6.14-7.6V98.48H785.51q-13.39,0-13.39,8.79a7.82,7.82,0,0,0,3.28,6.62q3.27,2.44,9,2.44A18.93,18.93,0,0,0,794.29,113.75Z"/></g></g></g></svg>