<svg xmlns="http://www.w3.org/2000/svg" viewBox="0 0 643.88 118.08"><defs><style>.cls-1{fill:#fff;}</style></defs><g id="Layer_2" data-name="Layer 2"><g id="Layer_1-2" data-name="Layer 1"><path class="cls-1" d="M69.87,0c1.74,2.59,4.73,3.42,7.23,4.88Q105,21.16,133,37.27c1,.57,1.92,1.21,2.88,1.82-.59,2-2.42,2.36-3.77,3.15-19.6,11.47-39.27,22.81-58.82,34.35-2.67,1.58-4.53,1.53-7.18,0-10-5.84-20.15-11.38-30.36-17.1-1.79,5.25-.5,8.39,4.44,10.86,8.59,4.31,16.89,9.2,25.14,14.14,3.23,1.94,5.65,2.11,9,.07,12.88-7.82,26-15.27,39.07-22.89,2.43,8.38,1.91,9.64-5.14,13.72C96.68,82.09,85,88.78,73.52,95.67a6.33,6.33,0,0,1-7.31,0c-10-5.82-20.14-11.43-30.31-17.16C33.85,87,34.26,88,41.34,92c8.38,4.71,16.83,9.29,25.1,14.2,2.63,1.56,4.49,1.54,7.13,0,12.22-7.34,24.64-14.34,36.88-21.64,3-1.82,3.83-1.38,4,2.09.19,4.32-.87,7.18-5.14,9.49-12.08,6.56-23.87,13.67-35.68,20.71-2.54,1.51-4.52,1.8-7.24.23q-19.14-11.1-38.54-21.76c-2.9-1.59-3.83-3.56-3.78-6.72.16-10.4-.09-20.8.14-31.19.08-3.44-1-5.36-4.13-6.92C13.27,47,6.68,43.25,0,39.61v-1c5.1-4.57,11.45-7.16,17.29-10.55,14.42-8.38,29-16.56,43.37-25A53.2,53.2,0,0,1,67.88,0Z"/><path class="cls-1" d="M380,58c-6.6,11-12.79,21.27-19,31.56-3.28,5.4-9.56,5.4-12.9,0-6.26-10.1-12.48-20.22-18.77-30.41-1.7.92-.88,2.38-.88,3.47-.08,11.55-.15,23.09,0,34.64,0,3-.71,3.91-3.85,4-13.19.18-13.19.3-13.19-12.58,0-19.63.1-39.26-.09-58.88,0-3.81,1.26-4.4,4.81-4.75,7.73-.76,12.2,2.07,15.92,9,6.87,12.75,14.9,24.88,22.78,37.81l18.34-30.55c2.3-3.82,4.54-7.67,6.91-11.44,1.09-1.74,1.48-4.44,4.1-4.52a120.18,120.18,0,0,1,12.44.34c1.11.08,1,1.55,1,2.51q.12,35.13.24,70.27c0,1.83-.5,2.85-2.49,2.72a8.32,8.32,0,0,0-1,0c-13,.58-13.09.59-13.48-12.31-.23-7.74,0-15.5-.11-23.24C380.81,63.36,381.34,61.05,380,58Z"/><path class="cls-1" d="M163.28,63.09c0-11.05.1-22.11-.06-33.16-.05-3.23.6-4.73,4.31-4.69,16.63.17,33.26.15,49.89,0,3.16,0,3.84,1.13,3.83,4.08,0,10.25.08,10.25-10,10.25-8.65,0-17.3.15-26-.07-3.58-.09-4.51,1.22-4.53,4.59-.1,11.48-.22,11.48,11.5,11.48,6.49,0,13,.15,19.46-.06,3.53-.11,5.1.76,5,4.66-.41,11.24,1.58,9.55-9.81,9.67-7.32.08-14.64.11-22,0-2.95,0-4.2.89-4.12,4,.41,16.22-2.48,12.81,12.84,13.13,8.14.17,16.3.13,24.45,0,3.2-.06,4.73.46,4.63,4.29-.28,9.93-.06,9.94-10.22,9.94-15,0-29.94-.1-44.91.07-3.51,0-4.58-1-4.53-4.48.18-11.22.07-22.44.07-33.67Z"/><path class="cls-1" d="M576.1,72.29c0,8.41-.09,16.81,0,25.21,0,2.74-.78,3.64-3.64,3.74-13.7.46-13.69.55-13.69-13s.09-27.35-.07-41c0-3.37.89-4.54,4.45-4.56,12.9-.06,12.9-.19,12.9,12.34Z"/><path class="cls-1" d="M567.18,34.82c-6.38-.06-10.33-3.66-10.35-9.44s4.26-9.58,10.87-9.54c6.26.05,10.76,3.94,10.74,9.28C578.4,31.24,574.18,34.88,567.18,34.82Z"/><path class="cls-1" d="M530.35,20.56c-3.46,0-4.66,1-4.54,4.49.23,7.33.07,14.67.07,22.26-16.62-8.37-32.09-6.27-40.78,5.18s-8,30.38,1.42,40.85c7.66,8.51,25.63,13.32,40.2,2.61-1.31,5.42,1.6,5.37,4.73,5.24a60.56,60.56,0,0,1,8,0c3.38.31,4.14-1.06,4.13-4.25-.1-21.09,0-42.19,0-63.28C543.6,20.38,543.59,20.49,530.35,20.56ZM511.33,88c-8.44,0-14.85-7-14.74-16,.12-9.23,6.29-15.68,15-15.67s14.63,6.46,14.61,15.89C526.15,81.42,520,88,511.33,88Z"/><path class="cls-1" d="M295.09,24.69c0-3.34-1.25-4.33-4.41-4.09a60.9,60.9,0,0,1-9,0c-3.22-.25-4.4.79-4.3,4.13.23,7.4.07,14.82.07,22.76-14.61-8.29-30.17-6.85-39.26,3.2-9.37,10.37-10.38,28.36-2.14,40,4.76,6.74,11.52,10.31,19.63,11.27s15.75-.33,22.85-6.6c-1,5,.65,6.27,4.37,5.85a44.2,44.2,0,0,1,8,0c2.91.2,4.19-.66,4.17-3.81Q294.95,61.06,295.09,24.69ZM262.89,88c-8.5,0-14.51-6.66-14.5-16s5.78-15.62,14.8-15.63c8.71,0,14.45,6.31,14.45,15.94C277.65,81.65,271.73,88,262.89,88Z"/><path class="cls-1" d="M439.37,41.75C425.36,42.46,414.42,51,411,64s1.32,26.18,12.42,32.76c11.79,7,24.33,7.31,36.77,1.9,8.61-3.75,8.6-5.45,2.68-12.28-2.69-3.09-4.47-3.4-8.09-1-8.6,5.61-21.45,2.85-25.62-4.8-1.32-2.41-1.25-3.55,1.94-3.5,6.14.11,12.29,0,18.44,0,6,0,12-.24,17.95.09,3.89.21,4.72-1.37,4.8-4.84C472.75,53.64,459,40.77,439.37,41.75Zm13.25,24.78c-3.65-.13-7.3,0-10.94,0s-7.31-.16-10.94,0c-3.28.18-3.11-1.34-2.21-3.55,1.89-4.65,7.53-8.12,13.21-8.08s11.33,3.65,13.08,8.29C455.65,65.41,455.41,66.63,452.62,66.53Z"/><path class="cls-1" d="M643.68,64.6c-.41-11.68-7.55-19.76-18.6-22A51.08,51.08,0,0,0,600,44c-10.75,3.27-11.14,4.68-5.43,14.28,1.23,2,2.06,2.6,4.14,1.23a25.83,25.83,0,0,1,12.23-3.84c5.08-.43,10,.1,13.51,4.56,1.14,1.46,2.09,3.21,1.46,5-.74,2.12-2.87,1.15-4.36,1.16-7.31,0-14.64-.23-21.75,1.9s-11.47,7.24-12,13.63c-.68,8.33,2.5,14.78,9.86,17.69,10.28,4.07,20.39,4.11,30.28-4.51-1.37,5.47.93,6.54,5.05,6.06a42.35,42.35,0,0,1,7.47,0c2.62.15,3.45-.9,3.42-3.46C643.74,86.69,644.07,75.63,643.68,64.6ZM625,85.21c-3.41,4.8-12,6.71-17,3.68a5.91,5.91,0,0,1-3.16-5.73c.15-2.6,1.58-4.18,3.91-5.19,3-1.31,6.21-.71,8.95-.88a24.32,24.32,0,0,1,3.36,0c1.69.25,4.12-1,4.91,1A7.37,7.37,0,0,1,625,85.21Z"/></g></g></svg>