<svg xmlns="http://www.w3.org/2000/svg" xmlns:xlink="http://www.w3.org/1999/xlink" viewBox="0 0 530.8 377.86"><defs><style>.cls-1{fill:#ffd066;}.cls-2{fill:url(#linear-gradient);}.cls-3{fill:none;stroke:#fff;stroke-linecap:round;stroke-miterlimit:10;stroke-width:4px;}.cls-4{fill:url(#linear-gradient-2);}.cls-5{fill:url(#linear-gradient-3);}.cls-6{fill:url(#linear-gradient-4);}.cls-7{fill:url(#linear-gradient-5);}.cls-8{fill:#6f80d7;}.cls-9{fill:url(#linear-gradient-6);}.cls-10{fill:url(#linear-gradient-7);}.cls-11{fill:#f69c93;}.cls-12{fill:#352e23;}.cls-13{fill:#e97286;}.cls-14{fill:#fff;}.cls-15{fill:#9f98b3;}.cls-16{fill:#d8d5e0;opacity:0.3;}.cls-17{fill:url(#linear-gradient-8);}</style><linearGradient id="linear-gradient" x1="37.16" y1="406.63" x2="1.16" y2="523.63" gradientTransform="matrix(-0.89, 0.46, 0.46, 0.89, -108.28, -169.24)" gradientUnits="userSpaceOnUse"><stop offset="0" stop-color="#59de53"/><stop offset="0.06" stop-color="#59da53"/><stop offset="0.67" stop-color="#59b755"/><stop offset="1" stop-color="#59a956"/></linearGradient><linearGradient id="linear-gradient-2" x1="-131.4" y1="162.31" x2="-155.68" y2="241.23" gradientTransform="matrix(-1, -0.03, -0.03, 1, 28.02, -17.52)" xlink:href="#linear-gradient"/><linearGradient id="linear-gradient-3" x1="157.92" y1="280.83" x2="233.14" y2="280.83" gradientTransform="translate(31.75 -40.23) rotate(9.03)" gradientUnits="userSpaceOnUse"><stop offset="0" stop-color="#77a3fd"/><stop offset="1" stop-color="#7292f0"/></linearGradient><linearGradient id="linear-gradient-4" x1="480.82" y1="187.19" x2="444.82" y2="304.19" gradientTransform="translate(157.08 -164.91) rotate(29.26)" xlink:href="#linear-gradient"/><linearGradient id="linear-gradient-5" x1="385.48" y1="177.08" x2="357.7" y2="267.35" gradientTransform="translate(15.94 -17.69) rotate(0.16)" xlink:href="#linear-gradient"/><linearGradient id="linear-gradient-6" x1="203.84" y1="268.56" x2="428.24" y2="268.56" xlink:href="#linear-gradient-3"/><linearGradient id="linear-gradient-7" x1="203.84" y1="316.87" x2="428.25" y2="316.87" xlink:href="#linear-gradient-3"/><linearGradient id="linear-gradient-8" x1="328.59" y1="51.47" x2="372.79" y2="51.47" gradientTransform="matrix(1, 0, 0, 1, 0, 0)" xlink:href="#linear-gradient-3"/></defs><g id="Layer_2" data-name="Layer 2"><g id="Layer_2-2" data-name="Layer 2"><path class="cls-1" d="M409.28,62.23c-79.5-15.85-111.42,70.89-174.76,43.18s-134.51-38.58-176,26,7.94,149.68,7.94,149.68,8.2,13.79,26.5,30.64c-.27-2.57-.46-5.26-.54-8.08-.92-34.5,1.88-91.63,1.88-91.63l39.55-7.73s15.8,19.86,29.57,72.24c3.11,11.81,5.51,22.89,7.38,32.95,9.26-25.64,19.91-48.67,23.76-56.77,8.2-28.38,20.21-54.93,37.74-69.39,50-41.23,59.06-8.11,59.06-8.11s55.34,12.52,76.26,50.19c15.6,28.09,27.1,88.09,31.93,116.77,48.17-24,82.81-60.52,96.23-102.32C521.27,160.29,488.78,78.08,409.28,62.23Z"/><path class="cls-2" d="M153.87,327.2S75.68,318.12,27,266C-12.46,223.86-7.91,182,35.78,172S130,257.33,167.5,256.39Z"/><path class="cls-3" d="M27.69,200.36s20,57.52,132,96.58"/><path class="cls-3" d="M78.79,200.93s12.91,27.74,15.27,65.82"/><path class="cls-3" d="M25.06,247.21a72.65,72.65,0,0,0,39-1.78"/><path class="cls-3" d="M98.93,306s23.78.23,34.63-17.94"/><path class="cls-4" d="M179.4,253.82s-43.11-31-54.73-77.7c-9.41-37.78,7-61,36.05-52.55s27.52,81.23,49.94,93Z"/><path class="cls-3" d="M146.64,137.66s-7.11,40.45,46.12,100.23"/><path class="cls-3" d="M176.57,154.76A135.52,135.52,0,0,1,164,198.57"/><path class="cls-3" d="M129.71,164.41a49,49,0,0,0,23.58,11.75"/><path class="cls-3" d="M154,223.27s13.93,7.94,26.3.79"/><path class="cls-5" d="M232.28,183.28s-62.85,26.8-99.06,144.06c0,0,1.44,6.67,45.13,32.82Z"/><path class="cls-6" d="M373.2,348.12s78.45-6.53,128.84-57c40.77-40.85,37.59-82.88-5.74-94.3s-96.94,82.26-134.41,80.1Z"/><path class="cls-3" d="M503.45,225.46s-21.83,56.84-135.08,92.22"/><path class="cls-3" d="M452.36,224.36s-13.81,27.3-17.41,65.29"/><path class="cls-3" d="M504.56,272.37a72.67,72.67,0,0,1-38.94-3.05"/><path class="cls-3" d="M428.8,328.67s-23.77-.54-34-19.06"/><path class="cls-7" d="M368.56,279.77S419,245.93,434,193c12.15-42.84-5.76-70-39.26-61.42S360.29,223.4,334.21,236Z"/><path class="cls-3" d="M410.34,148.2s6.62,46.51-56.46,112.86"/><path class="cls-3" d="M375.49,166.64a154.8,154.8,0,0,0,12.76,50.54"/><path class="cls-3" d="M428.69,179.41A56.05,56.05,0,0,1,401.3,192"/><path class="cls-3" d="M398.75,245.79s-16.23,8.56-30.09-.08"/><path class="cls-8" d="M177.39,359.86c.8-14.17,4.34-62.9,17.15-107.19-3.85,8.1-14.5,31.13-23.76,56.77A394,394,0,0,1,177,359.75Z"/><path class="cls-1" d="M291.34,175.17s-9.09-33.12-59.06,8.11c-17.53,14.46-29.54,41-37.74,69.39,1-2,1.49-3.1,1.49-3.1L185,362.13a272.26,272.26,0,0,0,56.69,9.47,342.22,342.22,0,0,0,65.86-2.08c2.89-16.19,9-48.8,16.56-81.18,0,0,.12,7.6,3.72,77.87a283,283,0,0,0,71.68-24.08c-4.83-28.68-16.33-88.68-31.93-116.77C346.68,187.69,291.34,175.17,291.34,175.17Z"/><path class="cls-9" d="M291.34,175.17s-9.09-33.12-59.06,8.11c-17.53,14.46-29.54,41-37.74,69.39,1-2,1.49-3.1,1.49-3.1L185,362.13a272.26,272.26,0,0,0,56.69,9.47,342.22,342.22,0,0,0,65.86-2.08c2.89-16.19,9-48.8,16.56-81.18,0,0,.12,7.6,3.72,77.87a283,283,0,0,0,71.68-24.08c-4.83-28.68-16.33-88.68-31.93-116.77C346.68,187.69,291.34,175.17,291.34,175.17Z"/><path class="cls-8" d="M177.39,359.86q3.75,1.18,7.63,2.27l11-112.56s-.54,1.1-1.49,3.1C181.73,297,178.19,345.69,177.39,359.86Z"/><path class="cls-10" d="M177.39,359.86q3.75,1.18,7.63,2.27l11-112.56s-.54,1.1-1.49,3.1C181.73,297,178.19,345.69,177.39,359.86Z"/><path class="cls-8" d="M328.45,377.86Z"/><path class="cls-8" d="M324.13,288.34c-7.58,32.38-13.67,65-16.56,81.18q10.32-1.35,20.28-3.31C324.25,295.94,324.13,288.34,324.13,288.34Z"/><path class="cls-11" d="M158.16,351.74a336.51,336.51,0,0,1,12.62-42.3c-1.87-10.06-4.27-21.14-7.38-32.95-13.77-52.38-29.57-72.24-29.57-72.24L94.28,212s-2.8,57.13-1.88,91.63c.08,2.82.27,5.51.54,8.08a220.22,220.22,0,0,0,69.69,43Z"/><path class="cls-11" d="M162.63,354.67q6.92,2.7,14.4,5.08a394,394,0,0,0-6.25-50.31,336.51,336.51,0,0,0-12.62,42.3Z"/><path class="cls-12" d="M176.52,67.89S164.43,62.06,167.7,47s17.88-11.48,17.88-11.48-6.27-9.68,2.49-15.66,12.19-.23,12.19-.23-5.36-10,5.25-13.92a18.46,18.46,0,0,1,18.2,2.89S228.27-2,243,.34s16.58,12.18,16.58,12.18,9.4-5.88,20.21,3.21,8,17.33,8,17.33,9.34-2.64,11.92,8.3S297,58,297,58s6.66-1.11,7.38,10.72-7,15.81-7,15.81,7.66,1.1,2.14,12.27-10,7.72-10,7.72L256.19,81.28Z"/><path class="cls-11" d="M227.17,159.26s7.16,25.44,6.74,44.47c0,0,44.82,12.87,60.17-18.16,0,0-17.15-66.14-25.34-86.31Z"/><path class="cls-13" d="M227.44,162.56l4.84,20.72s36.2-7.75,41.48-53.62l-12.18-16.79Z"/><path class="cls-11" d="M174.68,64.57l18.17,78.74c7,23.4,17.67,31.15,29.35,30.12,21.88-1.92,53-11.18,51.56-48.42-2.19-57.2-15.11-70.24-15.11-70.24Z"/><path class="cls-11" d="M267.27,94.16S293,75,293.37,106.1c.32,28.69-25.74,14.46-25.74,14.46Z"/><path class="cls-13" d="M272.9,108.6s5-15.29,12.27-13,3.38,14.2,3.38,14.2-1.42-10.2-5.42-8.24-6.27,9.2-6.27,9.2Z"/><path class="cls-14" d="M199.5,115a3.62,3.62,0,1,0-3.93-2.52A3.33,3.33,0,0,0,199.5,115Z"/><path class="cls-12" d="M199,114.68a3.09,3.09,0,1,0-3.77-2.08A3,3,0,0,0,199,114.68Z"/><path class="cls-12" d="M193.36,108.22l.27-1a4.15,4.15,0,0,1,1-1.86,4.15,4.15,0,0,1,3.88-1.23,4.13,4.13,0,0,1,1.88.91l.58.49-1-.44a4.84,4.84,0,0,0-3.51-.18,4.72,4.72,0,0,0-1.6.95,4.61,4.61,0,0,0-1.11,1.48Z"/><circle class="cls-13" cx="278.43" cy="110.99" r="5.84"/><path class="cls-12" d="M184.68,98.77l16-8.81C190.82,87.36,184.68,98.77,184.68,98.77Z"/><circle class="cls-11" cx="275.07" cy="112.85" r="5.84"/><path class="cls-13" d="M205.3,126.49l-6.1,1.88a1.84,1.84,0,0,0,1.09,3.52l6.1-1.87a1.85,1.85,0,0,0-1.09-3.53Z"/><path class="cls-13" d="M215,105.46s-3.84,27.15-.9,28.82,10.35-1.65,10.35-1.65Z"/><path class="cls-12" d="M216.85,144.71s10.47-4.85,16.65-3.21c1.7.22,5.25,1.05,5.25,1.05s-19.67,3.2-20.73,4.19Z"/><path class="cls-12" d="M172.7,67.41a11.58,11.58,0,0,0-3.55,11.76c.88,3,3.15,6,8.29,7.5,12.66,3.66,20.31-3.56,20.31-3.56s6.69,3,16.65-.3,17.33-11.9,17.33-11.9,6.66,4.32,17.32,2.76,12.07-4.27,12.07-4.27-4.42,8.41-.09,11.38l4.32,3L267.41,104l3.14,0,2.53-15.93,7.81-29.82L251.18,33.65,178.26,62.42Z"/><rect class="cls-15" x="118.01" y="147.27" width="7.54" height="57.45" transform="translate(157.05 -35.1) rotate(44.17)"/><path class="cls-12" d="M214.27,80.77a53.06,53.06,0,1,0,1.09,75A53.07,53.07,0,0,0,214.27,80.77ZM144,153.09a47.75,47.75,0,1,1,67.53-1A47.75,47.75,0,0,1,144,153.09Z"/><path class="cls-15" d="M210.57,84.58a47.75,47.75,0,1,0,1,67.52A47.76,47.76,0,0,0,210.57,84.58Zm-63.21,65.08a43,43,0,1,1,60.77-.88A43,43,0,0,1,147.36,149.66Z"/><circle class="cls-16" cx="177.3" cy="118.83" r="42.98" transform="translate(-32.1 160.18) rotate(-45)"/><rect class="cls-12" x="84.02" y="165.16" width="22.09" height="76.68" rx="7.07" transform="translate(168.66 -8.71) rotate(44.17)"/><path class="cls-11" d="M94.07,224.89s-18-16.4-16.79-23.73,3.61-6.3,7.59-10.88,5-10.92,10.57-13.29,3.92-2,8-3.94S109.71,160.93,118,162s14.57,23,16,30.63-6.84,10.25-9.11,10.22-1.84,1.33-4.1,3.25-.24,3.58-2.29,4.19,0,0-2.26,1.92-6.29,5.13-8.17,8.41S94.07,224.89,94.07,224.89Z"/><path class="cls-13" d="M124.43,201.46l-12.12-23.09S120.51,204,122.88,204,124.43,201.46,124.43,201.46Z"/><path class="cls-13" d="M115.67,207.93l-10.83-20.82S108.83,204.67,115.67,207.93Z"/><path class="cls-13" d="M93.31,198.59,109.54,216S98.87,213.66,93.31,198.59Z"/><path class="cls-13" d="M87.12,208.12l13.28,14.23S91.68,220.44,87.12,208.12Z"/><path class="cls-13" d="M92.66,222.17s5,4.08,8.1-2.07c0,0,6.08,3,8.78-4.11,0,0,7.61-.88,6.13-8.06,0,0,8.64,2.13,9.19-5.1,0,0,1.91,5.34-1.59,7.93s-4.76,2.35-4.76,2.35-.4,6.92-4.73,6.67c0,0-8,6.6-11.2,6.17C102.58,226,94.25,228.88,92.66,222.17Z"/><path class="cls-13" d="M114,218.45s11.55,3.72,18.17-3.66l-1.88-2.91-4.08-3.15Z"/><path class="cls-11" d="M123.27,202.57s-8.92,8-7.76,12,2.1,2.13,7,1.11,14.07-2.48,16-7.38.38-10.19-4.5-12.44Z"/><path class="cls-14" d="M236.76,108.58a3.61,3.61,0,1,0-3.93-2.52A3.32,3.32,0,0,0,236.76,108.58Z"/><path class="cls-12" d="M236.24,108.25a3.09,3.09,0,1,0-3.76-2.08A3,3,0,0,0,236.24,108.25Z"/><path class="cls-12" d="M230.62,101.79l.27-1a4.06,4.06,0,0,1,1-1.86,4.2,4.2,0,0,1,5.76-.32l.58.49-1-.44a4.81,4.81,0,0,0-3.52-.18,4.76,4.76,0,0,0-2.71,2.43Z"/><path class="cls-12" d="M227.71,85.08l18,2.8S236.06,79.27,227.71,85.08Z"/><path class="cls-13" d="M245.39,117.9l-6.09,1.87a1.85,1.85,0,0,0,1.08,3.53l6.1-1.88a1.84,1.84,0,1,0-1.09-3.52Z"/><path class="cls-17" d="M331.73,18.49a25.6,25.6,0,0,1,7-5.29,24.91,24.91,0,0,1,18-1.84q8.81,2.3,13.06,9.25a19.15,19.15,0,0,1,2.82,7.67,19.39,19.39,0,0,1-.44,7.39,17.75,17.75,0,0,1-3.59,7.2,25.53,25.53,0,0,1-5.64,5,38.26,38.26,0,0,1-6.68,3.42q-3.52,1.38-6.94,2.66l-5.39,14.53-7.09-1.84,3.54-18c2.88-1.09,5.51-2.07,7.87-2.94a44.23,44.23,0,0,0,6.23-2.79,16,16,0,0,0,4.39-3.44,11.66,11.66,0,0,0,2.47-4.86,10.82,10.82,0,0,0-8.09-13.8,13.62,13.62,0,0,0-9.41.7,17.92,17.92,0,0,0-7,5.57Zm-2.87,64.7a7.63,7.63,0,0,1,3.48-4.54,6.87,6.87,0,0,1,5.48-.81,7.26,7.26,0,0,1,4.36,3.49,6.89,6.89,0,0,1,.61,5.6,7.19,7.19,0,0,1-3.42,4.55,7.22,7.22,0,0,1-9.85-2.68A7.37,7.37,0,0,1,328.86,83.19Z"/></g></g></svg>